G04 #@! TF.GenerationSoftware,KiCad,Pcbnew,(5.1.2)-1*
G04 #@! TF.CreationDate,2020-01-01T10:54:38+09:00*
G04 #@! TF.ProjectId,converter,636f6e76-6572-4746-9572-2e6b69636164,v1.0*
G04 #@! TF.SameCoordinates,Original*
G04 #@! TF.FileFunction,Legend,Bot*
G04 #@! TF.FilePolarity,Positive*
%FSLAX46Y46*%
G04 Gerber Fmt 4.6, Leading zero omitted, Abs format (unit mm)*
G04 Created by KiCad (PCBNEW (5.1.2)-1) date 2020-01-01 10:54:38*
%MOMM*%
%LPD*%
G04 APERTURE LIST*
%ADD10C,0.120000*%
%ADD11C,0.150000*%
G04 APERTURE END LIST*
D10*
X112730000Y-148526666D02*
X113130000Y-148526666D01*
X112930000Y-148526666D02*
X112930000Y-147826666D01*
X112996666Y-147926666D01*
X113063333Y-147993333D01*
X113130000Y-148026666D01*
X112396666Y-148526666D02*
X112263333Y-148526666D01*
X112196666Y-148493333D01*
X112163333Y-148460000D01*
X112096666Y-148360000D01*
X112063333Y-148226666D01*
X112063333Y-147960000D01*
X112096666Y-147893333D01*
X112130000Y-147860000D01*
X112196666Y-147826666D01*
X112330000Y-147826666D01*
X112396666Y-147860000D01*
X112430000Y-147893333D01*
X112463333Y-147960000D01*
X112463333Y-148126666D01*
X112430000Y-148193333D01*
X112396666Y-148226666D01*
X112330000Y-148260000D01*
X112196666Y-148260000D01*
X112130000Y-148226666D01*
X112096666Y-148193333D01*
X112063333Y-148126666D01*
X111396666Y-148526666D02*
X111796666Y-148526666D01*
X111596666Y-148526666D02*
X111596666Y-147826666D01*
X111663333Y-147926666D01*
X111730000Y-147993333D01*
X111796666Y-148026666D01*
X111130000Y-147893333D02*
X111096666Y-147860000D01*
X111030000Y-147826666D01*
X110863333Y-147826666D01*
X110796666Y-147860000D01*
X110763333Y-147893333D01*
X110730000Y-147960000D01*
X110730000Y-148026666D01*
X110763333Y-148126666D01*
X111163333Y-148526666D01*
X110730000Y-148526666D01*
X109963333Y-148060000D02*
X109796666Y-148526666D01*
X109630000Y-148060000D01*
X108996666Y-148526666D02*
X109396666Y-148526666D01*
X109196666Y-148526666D02*
X109196666Y-147826666D01*
X109263333Y-147926666D01*
X109330000Y-147993333D01*
X109396666Y-148026666D01*
X108696666Y-148460000D02*
X108663333Y-148493333D01*
X108696666Y-148526666D01*
X108730000Y-148493333D01*
X108696666Y-148460000D01*
X108696666Y-148526666D01*
X107996666Y-148526666D02*
X108396666Y-148526666D01*
X108196666Y-148526666D02*
X108196666Y-147826666D01*
X108263333Y-147926666D01*
X108330000Y-147993333D01*
X108396666Y-148026666D01*
X106763333Y-148460000D02*
X106796666Y-148493333D01*
X106896666Y-148526666D01*
X106963333Y-148526666D01*
X107063333Y-148493333D01*
X107130000Y-148426666D01*
X107163333Y-148360000D01*
X107196666Y-148226666D01*
X107196666Y-148126666D01*
X107163333Y-147993333D01*
X107130000Y-147926666D01*
X107063333Y-147860000D01*
X106963333Y-147826666D01*
X106896666Y-147826666D01*
X106796666Y-147860000D01*
X106763333Y-147893333D01*
X106463333Y-148526666D02*
X106463333Y-148060000D01*
X106463333Y-148193333D02*
X106430000Y-148126666D01*
X106396666Y-148093333D01*
X106330000Y-148060000D01*
X106263333Y-148060000D01*
X105763333Y-148493333D02*
X105830000Y-148526666D01*
X105963333Y-148526666D01*
X106030000Y-148493333D01*
X106063333Y-148426666D01*
X106063333Y-148160000D01*
X106030000Y-148093333D01*
X105963333Y-148060000D01*
X105830000Y-148060000D01*
X105763333Y-148093333D01*
X105730000Y-148160000D01*
X105730000Y-148226666D01*
X106063333Y-148293333D01*
X105463333Y-148493333D02*
X105396666Y-148526666D01*
X105263333Y-148526666D01*
X105196666Y-148493333D01*
X105163333Y-148426666D01*
X105163333Y-148393333D01*
X105196666Y-148326666D01*
X105263333Y-148293333D01*
X105363333Y-148293333D01*
X105430000Y-148260000D01*
X105463333Y-148193333D01*
X105463333Y-148160000D01*
X105430000Y-148093333D01*
X105363333Y-148060000D01*
X105263333Y-148060000D01*
X105196666Y-148093333D01*
X104563333Y-148493333D02*
X104630000Y-148526666D01*
X104763333Y-148526666D01*
X104830000Y-148493333D01*
X104863333Y-148460000D01*
X104896666Y-148393333D01*
X104896666Y-148193333D01*
X104863333Y-148126666D01*
X104830000Y-148093333D01*
X104763333Y-148060000D01*
X104630000Y-148060000D01*
X104563333Y-148093333D01*
X103996666Y-148493333D02*
X104063333Y-148526666D01*
X104196666Y-148526666D01*
X104263333Y-148493333D01*
X104296666Y-148426666D01*
X104296666Y-148160000D01*
X104263333Y-148093333D01*
X104196666Y-148060000D01*
X104063333Y-148060000D01*
X103996666Y-148093333D01*
X103963333Y-148160000D01*
X103963333Y-148226666D01*
X104296666Y-148293333D01*
X103663333Y-148060000D02*
X103663333Y-148526666D01*
X103663333Y-148126666D02*
X103630000Y-148093333D01*
X103563333Y-148060000D01*
X103463333Y-148060000D01*
X103396666Y-148093333D01*
X103363333Y-148160000D01*
X103363333Y-148526666D01*
X103130000Y-148060000D02*
X102863333Y-148060000D01*
X103030000Y-147826666D02*
X103030000Y-148426666D01*
X102996666Y-148493333D01*
X102930000Y-148526666D01*
X102863333Y-148526666D01*
X113120000Y-129016666D02*
X113120000Y-129583333D01*
X113086666Y-129650000D01*
X113053333Y-129683333D01*
X112986666Y-129716666D01*
X112853333Y-129716666D01*
X112786666Y-129683333D01*
X112753333Y-129650000D01*
X112720000Y-129583333D01*
X112720000Y-129016666D01*
X112420000Y-129683333D02*
X112320000Y-129716666D01*
X112153333Y-129716666D01*
X112086666Y-129683333D01*
X112053333Y-129650000D01*
X112020000Y-129583333D01*
X112020000Y-129516666D01*
X112053333Y-129450000D01*
X112086666Y-129416666D01*
X112153333Y-129383333D01*
X112286666Y-129350000D01*
X112353333Y-129316666D01*
X112386666Y-129283333D01*
X112420000Y-129216666D01*
X112420000Y-129150000D01*
X112386666Y-129083333D01*
X112353333Y-129050000D01*
X112286666Y-129016666D01*
X112120000Y-129016666D01*
X112020000Y-129050000D01*
X111486666Y-129350000D02*
X111386666Y-129383333D01*
X111353333Y-129416666D01*
X111320000Y-129483333D01*
X111320000Y-129583333D01*
X111353333Y-129650000D01*
X111386666Y-129683333D01*
X111453333Y-129716666D01*
X111720000Y-129716666D01*
X111720000Y-129016666D01*
X111486666Y-129016666D01*
X111420000Y-129050000D01*
X111386666Y-129083333D01*
X111353333Y-129150000D01*
X111353333Y-129216666D01*
X111386666Y-129283333D01*
X111420000Y-129316666D01*
X111486666Y-129350000D01*
X111720000Y-129350000D01*
X110486666Y-129716666D02*
X110486666Y-129016666D01*
X110186666Y-129083333D02*
X110153333Y-129050000D01*
X110086666Y-129016666D01*
X109920000Y-129016666D01*
X109853333Y-129050000D01*
X109820000Y-129083333D01*
X109786666Y-129150000D01*
X109786666Y-129216666D01*
X109820000Y-129316666D01*
X110220000Y-129716666D01*
X109786666Y-129716666D01*
X109086666Y-129650000D02*
X109120000Y-129683333D01*
X109220000Y-129716666D01*
X109286666Y-129716666D01*
X109386666Y-129683333D01*
X109453333Y-129616666D01*
X109486666Y-129550000D01*
X109520000Y-129416666D01*
X109520000Y-129316666D01*
X109486666Y-129183333D01*
X109453333Y-129116666D01*
X109386666Y-129050000D01*
X109286666Y-129016666D01*
X109220000Y-129016666D01*
X109120000Y-129050000D01*
X109086666Y-129083333D01*
X107853333Y-129650000D02*
X107886666Y-129683333D01*
X107986666Y-129716666D01*
X108053333Y-129716666D01*
X108153333Y-129683333D01*
X108220000Y-129616666D01*
X108253333Y-129550000D01*
X108286666Y-129416666D01*
X108286666Y-129316666D01*
X108253333Y-129183333D01*
X108220000Y-129116666D01*
X108153333Y-129050000D01*
X108053333Y-129016666D01*
X107986666Y-129016666D01*
X107886666Y-129050000D01*
X107853333Y-129083333D01*
X107453333Y-129716666D02*
X107520000Y-129683333D01*
X107553333Y-129650000D01*
X107586666Y-129583333D01*
X107586666Y-129383333D01*
X107553333Y-129316666D01*
X107520000Y-129283333D01*
X107453333Y-129250000D01*
X107353333Y-129250000D01*
X107286666Y-129283333D01*
X107253333Y-129316666D01*
X107220000Y-129383333D01*
X107220000Y-129583333D01*
X107253333Y-129650000D01*
X107286666Y-129683333D01*
X107353333Y-129716666D01*
X107453333Y-129716666D01*
X106920000Y-129250000D02*
X106920000Y-129716666D01*
X106920000Y-129316666D02*
X106886666Y-129283333D01*
X106820000Y-129250000D01*
X106720000Y-129250000D01*
X106653333Y-129283333D01*
X106620000Y-129350000D01*
X106620000Y-129716666D01*
X106353333Y-129250000D02*
X106186666Y-129716666D01*
X106020000Y-129250000D01*
X105486666Y-129683333D02*
X105553333Y-129716666D01*
X105686666Y-129716666D01*
X105753333Y-129683333D01*
X105786666Y-129616666D01*
X105786666Y-129350000D01*
X105753333Y-129283333D01*
X105686666Y-129250000D01*
X105553333Y-129250000D01*
X105486666Y-129283333D01*
X105453333Y-129350000D01*
X105453333Y-129416666D01*
X105786666Y-129483333D01*
X105153333Y-129716666D02*
X105153333Y-129250000D01*
X105153333Y-129383333D02*
X105120000Y-129316666D01*
X105086666Y-129283333D01*
X105020000Y-129250000D01*
X104953333Y-129250000D01*
X104820000Y-129250000D02*
X104553333Y-129250000D01*
X104720000Y-129016666D02*
X104720000Y-129616666D01*
X104686666Y-129683333D01*
X104620000Y-129716666D01*
X104553333Y-129716666D01*
X104053333Y-129683333D02*
X104120000Y-129716666D01*
X104253333Y-129716666D01*
X104320000Y-129683333D01*
X104353333Y-129616666D01*
X104353333Y-129350000D01*
X104320000Y-129283333D01*
X104253333Y-129250000D01*
X104120000Y-129250000D01*
X104053333Y-129283333D01*
X104020000Y-129350000D01*
X104020000Y-129416666D01*
X104353333Y-129483333D01*
X103720000Y-129716666D02*
X103720000Y-129250000D01*
X103720000Y-129383333D02*
X103686666Y-129316666D01*
X103653333Y-129283333D01*
X103586666Y-129250000D01*
X103520000Y-129250000D01*
D11*
X101909523Y-129300000D02*
X101985714Y-129261904D01*
X102100000Y-129261904D01*
X102214285Y-129300000D01*
X102290476Y-129376190D01*
X102328571Y-129452380D01*
X102366666Y-129604761D01*
X102366666Y-129719047D01*
X102328571Y-129871428D01*
X102290476Y-129947619D01*
X102214285Y-130023809D01*
X102100000Y-130061904D01*
X102023809Y-130061904D01*
X101909523Y-130023809D01*
X101871428Y-129985714D01*
X101871428Y-129719047D01*
X102023809Y-129719047D01*
X101528571Y-130061904D02*
X101528571Y-129261904D01*
X101071428Y-130061904D01*
X101071428Y-129261904D01*
X100690476Y-130061904D02*
X100690476Y-129261904D01*
X100500000Y-129261904D01*
X100385714Y-129300000D01*
X100309523Y-129376190D01*
X100271428Y-129452380D01*
X100233333Y-129604761D01*
X100233333Y-129719047D01*
X100271428Y-129871428D01*
X100309523Y-129947619D01*
X100385714Y-130023809D01*
X100500000Y-130061904D01*
X100690476Y-130061904D01*
X101900000Y-132561904D02*
X101900000Y-131761904D01*
X101366666Y-131761904D02*
X101214285Y-131761904D01*
X101138095Y-131800000D01*
X101061904Y-131876190D01*
X101023809Y-132028571D01*
X101023809Y-132295238D01*
X101061904Y-132447619D01*
X101138095Y-132523809D01*
X101214285Y-132561904D01*
X101366666Y-132561904D01*
X101442857Y-132523809D01*
X101519047Y-132447619D01*
X101557142Y-132295238D01*
X101557142Y-132028571D01*
X101519047Y-131876190D01*
X101442857Y-131800000D01*
X101366666Y-131761904D01*
X100528571Y-131761904D02*
X100452380Y-131761904D01*
X100376190Y-131800000D01*
X100338095Y-131838095D01*
X100300000Y-131914285D01*
X100261904Y-132066666D01*
X100261904Y-132257142D01*
X100300000Y-132409523D01*
X100338095Y-132485714D01*
X100376190Y-132523809D01*
X100452380Y-132561904D01*
X100528571Y-132561904D01*
X100604761Y-132523809D01*
X100642857Y-132485714D01*
X100680952Y-132409523D01*
X100719047Y-132257142D01*
X100719047Y-132066666D01*
X100680952Y-131914285D01*
X100642857Y-131838095D01*
X100604761Y-131800000D01*
X100528571Y-131761904D01*
X101900000Y-135061904D02*
X101900000Y-134261904D01*
X101366666Y-134261904D02*
X101214285Y-134261904D01*
X101138095Y-134300000D01*
X101061904Y-134376190D01*
X101023809Y-134528571D01*
X101023809Y-134795238D01*
X101061904Y-134947619D01*
X101138095Y-135023809D01*
X101214285Y-135061904D01*
X101366666Y-135061904D01*
X101442857Y-135023809D01*
X101519047Y-134947619D01*
X101557142Y-134795238D01*
X101557142Y-134528571D01*
X101519047Y-134376190D01*
X101442857Y-134300000D01*
X101366666Y-134261904D01*
X100261904Y-135061904D02*
X100719047Y-135061904D01*
X100490476Y-135061904D02*
X100490476Y-134261904D01*
X100566666Y-134376190D01*
X100642857Y-134452380D01*
X100719047Y-134490476D01*
X101900000Y-137661904D02*
X101900000Y-136861904D01*
X101366666Y-136861904D02*
X101214285Y-136861904D01*
X101138095Y-136900000D01*
X101061904Y-136976190D01*
X101023809Y-137128571D01*
X101023809Y-137395238D01*
X101061904Y-137547619D01*
X101138095Y-137623809D01*
X101214285Y-137661904D01*
X101366666Y-137661904D01*
X101442857Y-137623809D01*
X101519047Y-137547619D01*
X101557142Y-137395238D01*
X101557142Y-137128571D01*
X101519047Y-136976190D01*
X101442857Y-136900000D01*
X101366666Y-136861904D01*
X100719047Y-136938095D02*
X100680952Y-136900000D01*
X100604761Y-136861904D01*
X100414285Y-136861904D01*
X100338095Y-136900000D01*
X100300000Y-136938095D01*
X100261904Y-137014285D01*
X100261904Y-137090476D01*
X100300000Y-137204761D01*
X100757142Y-137661904D01*
X100261904Y-137661904D01*
X101900000Y-140161904D02*
X101900000Y-139361904D01*
X101366666Y-139361904D02*
X101214285Y-139361904D01*
X101138095Y-139400000D01*
X101061904Y-139476190D01*
X101023809Y-139628571D01*
X101023809Y-139895238D01*
X101061904Y-140047619D01*
X101138095Y-140123809D01*
X101214285Y-140161904D01*
X101366666Y-140161904D01*
X101442857Y-140123809D01*
X101519047Y-140047619D01*
X101557142Y-139895238D01*
X101557142Y-139628571D01*
X101519047Y-139476190D01*
X101442857Y-139400000D01*
X101366666Y-139361904D01*
X100757142Y-139361904D02*
X100261904Y-139361904D01*
X100528571Y-139666666D01*
X100414285Y-139666666D01*
X100338095Y-139704761D01*
X100300000Y-139742857D01*
X100261904Y-139819047D01*
X100261904Y-140009523D01*
X100300000Y-140085714D01*
X100338095Y-140123809D01*
X100414285Y-140161904D01*
X100642857Y-140161904D01*
X100719047Y-140123809D01*
X100757142Y-140085714D01*
X101900000Y-142761904D02*
X101900000Y-141961904D01*
X101366666Y-141961904D02*
X101214285Y-141961904D01*
X101138095Y-142000000D01*
X101061904Y-142076190D01*
X101023809Y-142228571D01*
X101023809Y-142495238D01*
X101061904Y-142647619D01*
X101138095Y-142723809D01*
X101214285Y-142761904D01*
X101366666Y-142761904D01*
X101442857Y-142723809D01*
X101519047Y-142647619D01*
X101557142Y-142495238D01*
X101557142Y-142228571D01*
X101519047Y-142076190D01*
X101442857Y-142000000D01*
X101366666Y-141961904D01*
X100338095Y-142228571D02*
X100338095Y-142761904D01*
X100528571Y-141923809D02*
X100719047Y-142495238D01*
X100223809Y-142495238D01*
X101900000Y-145261904D02*
X101900000Y-144461904D01*
X101366666Y-144461904D02*
X101214285Y-144461904D01*
X101138095Y-144500000D01*
X101061904Y-144576190D01*
X101023809Y-144728571D01*
X101023809Y-144995238D01*
X101061904Y-145147619D01*
X101138095Y-145223809D01*
X101214285Y-145261904D01*
X101366666Y-145261904D01*
X101442857Y-145223809D01*
X101519047Y-145147619D01*
X101557142Y-144995238D01*
X101557142Y-144728571D01*
X101519047Y-144576190D01*
X101442857Y-144500000D01*
X101366666Y-144461904D01*
X100300000Y-144461904D02*
X100680952Y-144461904D01*
X100719047Y-144842857D01*
X100680952Y-144804761D01*
X100604761Y-144766666D01*
X100414285Y-144766666D01*
X100338095Y-144804761D01*
X100300000Y-144842857D01*
X100261904Y-144919047D01*
X100261904Y-145109523D01*
X100300000Y-145185714D01*
X100338095Y-145223809D01*
X100414285Y-145261904D01*
X100604761Y-145261904D01*
X100680952Y-145223809D01*
X100719047Y-145185714D01*
X101900000Y-147761904D02*
X101900000Y-146961904D01*
X101366666Y-146961904D02*
X101214285Y-146961904D01*
X101138095Y-147000000D01*
X101061904Y-147076190D01*
X101023809Y-147228571D01*
X101023809Y-147495238D01*
X101061904Y-147647619D01*
X101138095Y-147723809D01*
X101214285Y-147761904D01*
X101366666Y-147761904D01*
X101442857Y-147723809D01*
X101519047Y-147647619D01*
X101557142Y-147495238D01*
X101557142Y-147228571D01*
X101519047Y-147076190D01*
X101442857Y-147000000D01*
X101366666Y-146961904D01*
X100338095Y-146961904D02*
X100490476Y-146961904D01*
X100566666Y-147000000D01*
X100604761Y-147038095D01*
X100680952Y-147152380D01*
X100719047Y-147304761D01*
X100719047Y-147609523D01*
X100680952Y-147685714D01*
X100642857Y-147723809D01*
X100566666Y-147761904D01*
X100414285Y-147761904D01*
X100338095Y-147723809D01*
X100300000Y-147685714D01*
X100261904Y-147609523D01*
X100261904Y-147419047D01*
X100300000Y-147342857D01*
X100338095Y-147304761D01*
X100414285Y-147266666D01*
X100566666Y-147266666D01*
X100642857Y-147304761D01*
X100680952Y-147342857D01*
X100719047Y-147419047D01*
X101900000Y-150361904D02*
X101900000Y-149561904D01*
X101366666Y-149561904D02*
X101214285Y-149561904D01*
X101138095Y-149600000D01*
X101061904Y-149676190D01*
X101023809Y-149828571D01*
X101023809Y-150095238D01*
X101061904Y-150247619D01*
X101138095Y-150323809D01*
X101214285Y-150361904D01*
X101366666Y-150361904D01*
X101442857Y-150323809D01*
X101519047Y-150247619D01*
X101557142Y-150095238D01*
X101557142Y-149828571D01*
X101519047Y-149676190D01*
X101442857Y-149600000D01*
X101366666Y-149561904D01*
X100757142Y-149561904D02*
X100223809Y-149561904D01*
X100566666Y-150361904D01*
X115652380Y-150323809D02*
X115538095Y-150361904D01*
X115347619Y-150361904D01*
X115271428Y-150323809D01*
X115233333Y-150285714D01*
X115195238Y-150209523D01*
X115195238Y-150133333D01*
X115233333Y-150057142D01*
X115271428Y-150019047D01*
X115347619Y-149980952D01*
X115500000Y-149942857D01*
X115576190Y-149904761D01*
X115614285Y-149866666D01*
X115652380Y-149790476D01*
X115652380Y-149714285D01*
X115614285Y-149638095D01*
X115576190Y-149600000D01*
X115500000Y-149561904D01*
X115309523Y-149561904D01*
X115195238Y-149600000D01*
X114395238Y-150285714D02*
X114433333Y-150323809D01*
X114547619Y-150361904D01*
X114623809Y-150361904D01*
X114738095Y-150323809D01*
X114814285Y-150247619D01*
X114852380Y-150171428D01*
X114890476Y-150019047D01*
X114890476Y-149904761D01*
X114852380Y-149752380D01*
X114814285Y-149676190D01*
X114738095Y-149600000D01*
X114623809Y-149561904D01*
X114547619Y-149561904D01*
X114433333Y-149600000D01*
X114395238Y-149638095D01*
X113671428Y-150361904D02*
X114052380Y-150361904D01*
X114052380Y-149561904D01*
X115671428Y-147723809D02*
X115557142Y-147761904D01*
X115366666Y-147761904D01*
X115290476Y-147723809D01*
X115252380Y-147685714D01*
X115214285Y-147609523D01*
X115214285Y-147533333D01*
X115252380Y-147457142D01*
X115290476Y-147419047D01*
X115366666Y-147380952D01*
X115519047Y-147342857D01*
X115595238Y-147304761D01*
X115633333Y-147266666D01*
X115671428Y-147190476D01*
X115671428Y-147114285D01*
X115633333Y-147038095D01*
X115595238Y-147000000D01*
X115519047Y-146961904D01*
X115328571Y-146961904D01*
X115214285Y-147000000D01*
X114871428Y-147761904D02*
X114871428Y-146961904D01*
X114680952Y-146961904D01*
X114566666Y-147000000D01*
X114490476Y-147076190D01*
X114452380Y-147152380D01*
X114414285Y-147304761D01*
X114414285Y-147419047D01*
X114452380Y-147571428D01*
X114490476Y-147647619D01*
X114566666Y-147723809D01*
X114680952Y-147761904D01*
X114871428Y-147761904D01*
X114109523Y-147533333D02*
X113728571Y-147533333D01*
X114185714Y-147761904D02*
X113919047Y-146961904D01*
X113652380Y-147761904D01*
X115233333Y-145161904D02*
X115500000Y-144780952D01*
X115690476Y-145161904D02*
X115690476Y-144361904D01*
X115385714Y-144361904D01*
X115309523Y-144400000D01*
X115271428Y-144438095D01*
X115233333Y-144514285D01*
X115233333Y-144628571D01*
X115271428Y-144704761D01*
X115309523Y-144742857D01*
X115385714Y-144780952D01*
X115690476Y-144780952D01*
X114966666Y-144361904D02*
X114433333Y-145161904D01*
X114433333Y-144361904D02*
X114966666Y-145161904D01*
X115709523Y-142361904D02*
X115252380Y-142361904D01*
X115480952Y-143161904D02*
X115480952Y-142361904D01*
X115061904Y-142361904D02*
X114528571Y-143161904D01*
X114528571Y-142361904D02*
X115061904Y-143161904D01*
X115847619Y-138761904D02*
X115657142Y-139561904D01*
X115504761Y-138990476D01*
X115352380Y-139561904D01*
X115161904Y-138761904D01*
X114895238Y-139333333D02*
X114514285Y-139333333D01*
X114971428Y-139561904D02*
X114704761Y-138761904D01*
X114438095Y-139561904D01*
X114171428Y-139561904D02*
X114171428Y-138761904D01*
X113714285Y-139561904D02*
X114057142Y-139104761D01*
X113714285Y-138761904D02*
X114171428Y-139219047D01*
X113371428Y-139142857D02*
X113104761Y-139142857D01*
X112990476Y-139561904D02*
X113371428Y-139561904D01*
X113371428Y-138761904D01*
X112990476Y-138761904D01*
X115038095Y-137461904D02*
X115304761Y-137080952D01*
X115495238Y-137461904D02*
X115495238Y-136661904D01*
X115190476Y-136661904D01*
X115114285Y-136700000D01*
X115076190Y-136738095D01*
X115038095Y-136814285D01*
X115038095Y-136928571D01*
X115076190Y-137004761D01*
X115114285Y-137042857D01*
X115190476Y-137080952D01*
X115495238Y-137080952D01*
X114733333Y-137423809D02*
X114619047Y-137461904D01*
X114428571Y-137461904D01*
X114352380Y-137423809D01*
X114314285Y-137385714D01*
X114276190Y-137309523D01*
X114276190Y-137233333D01*
X114314285Y-137157142D01*
X114352380Y-137119047D01*
X114428571Y-137080952D01*
X114580952Y-137042857D01*
X114657142Y-137004761D01*
X114695238Y-136966666D01*
X114733333Y-136890476D01*
X114733333Y-136814285D01*
X114695238Y-136738095D01*
X114657142Y-136700000D01*
X114580952Y-136661904D01*
X114390476Y-136661904D01*
X114276190Y-136700000D01*
X114047619Y-136661904D02*
X113590476Y-136661904D01*
X113819047Y-137461904D02*
X113819047Y-136661904D01*
X115152380Y-129161904D02*
X115533333Y-129161904D01*
X115571428Y-129542857D01*
X115533333Y-129504761D01*
X115457142Y-129466666D01*
X115266666Y-129466666D01*
X115190476Y-129504761D01*
X115152380Y-129542857D01*
X115114285Y-129619047D01*
X115114285Y-129809523D01*
X115152380Y-129885714D01*
X115190476Y-129923809D01*
X115266666Y-129961904D01*
X115457142Y-129961904D01*
X115533333Y-129923809D01*
X115571428Y-129885714D01*
X114885714Y-129161904D02*
X114619047Y-129961904D01*
X114352380Y-129161904D01*
X115780952Y-131661904D02*
X115285714Y-131661904D01*
X115552380Y-131966666D01*
X115438095Y-131966666D01*
X115361904Y-132004761D01*
X115323809Y-132042857D01*
X115285714Y-132119047D01*
X115285714Y-132309523D01*
X115323809Y-132385714D01*
X115361904Y-132423809D01*
X115438095Y-132461904D01*
X115666666Y-132461904D01*
X115742857Y-132423809D01*
X115780952Y-132385714D01*
X114942857Y-132385714D02*
X114904761Y-132423809D01*
X114942857Y-132461904D01*
X114980952Y-132423809D01*
X114942857Y-132385714D01*
X114942857Y-132461904D01*
X114638095Y-131661904D02*
X114142857Y-131661904D01*
X114409523Y-131966666D01*
X114295238Y-131966666D01*
X114219047Y-132004761D01*
X114180952Y-132042857D01*
X114142857Y-132119047D01*
X114142857Y-132309523D01*
X114180952Y-132385714D01*
X114219047Y-132423809D01*
X114295238Y-132461904D01*
X114523809Y-132461904D01*
X114600000Y-132423809D01*
X114638095Y-132385714D01*
X113914285Y-131661904D02*
X113647619Y-132461904D01*
X113380952Y-131661904D01*
X115209523Y-134200000D02*
X115285714Y-134161904D01*
X115400000Y-134161904D01*
X115514285Y-134200000D01*
X115590476Y-134276190D01*
X115628571Y-134352380D01*
X115666666Y-134504761D01*
X115666666Y-134619047D01*
X115628571Y-134771428D01*
X115590476Y-134847619D01*
X115514285Y-134923809D01*
X115400000Y-134961904D01*
X115323809Y-134961904D01*
X115209523Y-134923809D01*
X115171428Y-134885714D01*
X115171428Y-134619047D01*
X115323809Y-134619047D01*
X114828571Y-134961904D02*
X114828571Y-134161904D01*
X114371428Y-134961904D01*
X114371428Y-134161904D01*
X113990476Y-134961904D02*
X113990476Y-134161904D01*
X113800000Y-134161904D01*
X113685714Y-134200000D01*
X113609523Y-134276190D01*
X113571428Y-134352380D01*
X113533333Y-134504761D01*
X113533333Y-134619047D01*
X113571428Y-134771428D01*
X113609523Y-134847619D01*
X113685714Y-134923809D01*
X113800000Y-134961904D01*
X113990476Y-134961904D01*
D10*
X101890000Y-140274779D02*
X101890000Y-139949221D01*
X102910000Y-140274779D02*
X102910000Y-139949221D01*
X113910000Y-141450779D02*
X113910000Y-141125221D01*
X112890000Y-141450779D02*
X112890000Y-141125221D01*
X110125221Y-144990000D02*
X110450779Y-144990000D01*
X110125221Y-146010000D02*
X110450779Y-146010000D01*
X105525221Y-146010000D02*
X105850779Y-146010000D01*
X105525221Y-144990000D02*
X105850779Y-144990000D01*
X108790000Y-135799221D02*
X108790000Y-136124779D01*
X109810000Y-135799221D02*
X109810000Y-136124779D01*
X106210000Y-135787221D02*
X106210000Y-136112779D01*
X105190000Y-135787221D02*
X105190000Y-136112779D01*
X106990000Y-135787221D02*
X106990000Y-136112779D01*
X108010000Y-135787221D02*
X108010000Y-136112779D01*
X107900000Y-138840000D02*
X109850000Y-138840000D01*
X107900000Y-138840000D02*
X105950000Y-138840000D01*
X107900000Y-143960000D02*
X109850000Y-143960000D01*
X107900000Y-143960000D02*
X104450000Y-143960000D01*
X111630000Y-135794721D02*
X111630000Y-136120279D01*
X110610000Y-135794721D02*
X110610000Y-136120279D01*
D11*
X103317142Y-142213333D02*
X103364761Y-142165714D01*
X103412380Y-142022857D01*
X103412380Y-141927619D01*
X103364761Y-141784761D01*
X103269523Y-141689523D01*
X103174285Y-141641904D01*
X102983809Y-141594285D01*
X102840952Y-141594285D01*
X102650476Y-141641904D01*
X102555238Y-141689523D01*
X102460000Y-141784761D01*
X102412380Y-141927619D01*
X102412380Y-142022857D01*
X102460000Y-142165714D01*
X102507619Y-142213333D01*
X103412380Y-143165714D02*
X103412380Y-142594285D01*
X103412380Y-142880000D02*
X102412380Y-142880000D01*
X102555238Y-142784761D01*
X102650476Y-142689523D01*
X102698095Y-142594285D01*
X113757142Y-143533333D02*
X113804761Y-143485714D01*
X113852380Y-143342857D01*
X113852380Y-143247619D01*
X113804761Y-143104761D01*
X113709523Y-143009523D01*
X113614285Y-142961904D01*
X113423809Y-142914285D01*
X113280952Y-142914285D01*
X113090476Y-142961904D01*
X112995238Y-143009523D01*
X112900000Y-143104761D01*
X112852380Y-143247619D01*
X112852380Y-143342857D01*
X112900000Y-143485714D01*
X112947619Y-143533333D01*
X112947619Y-143914285D02*
X112900000Y-143961904D01*
X112852380Y-144057142D01*
X112852380Y-144295238D01*
X112900000Y-144390476D01*
X112947619Y-144438095D01*
X113042857Y-144485714D01*
X113138095Y-144485714D01*
X113280952Y-144438095D01*
X113852380Y-143866666D01*
X113852380Y-144485714D01*
X112966666Y-145952380D02*
X113300000Y-145476190D01*
X113538095Y-145952380D02*
X113538095Y-144952380D01*
X113157142Y-144952380D01*
X113061904Y-145000000D01*
X113014285Y-145047619D01*
X112966666Y-145142857D01*
X112966666Y-145285714D01*
X113014285Y-145380952D01*
X113061904Y-145428571D01*
X113157142Y-145476190D01*
X113538095Y-145476190D01*
X112014285Y-145952380D02*
X112585714Y-145952380D01*
X112300000Y-145952380D02*
X112300000Y-144952380D01*
X112395238Y-145095238D01*
X112490476Y-145190476D01*
X112585714Y-145238095D01*
X103466666Y-145952380D02*
X103800000Y-145476190D01*
X104038095Y-145952380D02*
X104038095Y-144952380D01*
X103657142Y-144952380D01*
X103561904Y-145000000D01*
X103514285Y-145047619D01*
X103466666Y-145142857D01*
X103466666Y-145285714D01*
X103514285Y-145380952D01*
X103561904Y-145428571D01*
X103657142Y-145476190D01*
X104038095Y-145476190D01*
X103133333Y-144952380D02*
X102514285Y-144952380D01*
X102847619Y-145333333D01*
X102704761Y-145333333D01*
X102609523Y-145380952D01*
X102561904Y-145428571D01*
X102514285Y-145523809D01*
X102514285Y-145761904D01*
X102561904Y-145857142D01*
X102609523Y-145904761D01*
X102704761Y-145952380D01*
X102990476Y-145952380D01*
X103085714Y-145904761D01*
X103133333Y-145857142D01*
X109702380Y-133232833D02*
X109226190Y-132899500D01*
X109702380Y-132661404D02*
X108702380Y-132661404D01*
X108702380Y-133042357D01*
X108750000Y-133137595D01*
X108797619Y-133185214D01*
X108892857Y-133232833D01*
X109035714Y-133232833D01*
X109130952Y-133185214D01*
X109178571Y-133137595D01*
X109226190Y-133042357D01*
X109226190Y-132661404D01*
X109035714Y-134089976D02*
X109702380Y-134089976D01*
X108654761Y-133851880D02*
X109369047Y-133613785D01*
X109369047Y-134232833D01*
X106152380Y-133233333D02*
X105676190Y-132900000D01*
X106152380Y-132661904D02*
X105152380Y-132661904D01*
X105152380Y-133042857D01*
X105200000Y-133138095D01*
X105247619Y-133185714D01*
X105342857Y-133233333D01*
X105485714Y-133233333D01*
X105580952Y-133185714D01*
X105628571Y-133138095D01*
X105676190Y-133042857D01*
X105676190Y-132661904D01*
X105152380Y-134138095D02*
X105152380Y-133661904D01*
X105628571Y-133614285D01*
X105580952Y-133661904D01*
X105533333Y-133757142D01*
X105533333Y-133995238D01*
X105580952Y-134090476D01*
X105628571Y-134138095D01*
X105723809Y-134185714D01*
X105961904Y-134185714D01*
X106057142Y-134138095D01*
X106104761Y-134090476D01*
X106152380Y-133995238D01*
X106152380Y-133757142D01*
X106104761Y-133661904D01*
X106057142Y-133614285D01*
X107902380Y-133233333D02*
X107426190Y-132900000D01*
X107902380Y-132661904D02*
X106902380Y-132661904D01*
X106902380Y-133042857D01*
X106950000Y-133138095D01*
X106997619Y-133185714D01*
X107092857Y-133233333D01*
X107235714Y-133233333D01*
X107330952Y-133185714D01*
X107378571Y-133138095D01*
X107426190Y-133042857D01*
X107426190Y-132661904D01*
X106902380Y-134090476D02*
X106902380Y-133900000D01*
X106950000Y-133804761D01*
X106997619Y-133757142D01*
X107140476Y-133661904D01*
X107330952Y-133614285D01*
X107711904Y-133614285D01*
X107807142Y-133661904D01*
X107854761Y-133709523D01*
X107902380Y-133804761D01*
X107902380Y-133995238D01*
X107854761Y-134090476D01*
X107807142Y-134138095D01*
X107711904Y-134185714D01*
X107473809Y-134185714D01*
X107378571Y-134138095D01*
X107330952Y-134090476D01*
X107283333Y-133995238D01*
X107283333Y-133804761D01*
X107330952Y-133709523D01*
X107378571Y-133661904D01*
X107473809Y-133614285D01*
X108761904Y-137552380D02*
X108761904Y-138361904D01*
X108714285Y-138457142D01*
X108666666Y-138504761D01*
X108571428Y-138552380D01*
X108380952Y-138552380D01*
X108285714Y-138504761D01*
X108238095Y-138457142D01*
X108190476Y-138361904D01*
X108190476Y-137552380D01*
X107761904Y-137647619D02*
X107714285Y-137600000D01*
X107619047Y-137552380D01*
X107380952Y-137552380D01*
X107285714Y-137600000D01*
X107238095Y-137647619D01*
X107190476Y-137742857D01*
X107190476Y-137838095D01*
X107238095Y-137980952D01*
X107809523Y-138552380D01*
X107190476Y-138552380D01*
X111752380Y-133303333D02*
X111276190Y-132970000D01*
X111752380Y-132731904D02*
X110752380Y-132731904D01*
X110752380Y-133112857D01*
X110800000Y-133208095D01*
X110847619Y-133255714D01*
X110942857Y-133303333D01*
X111085714Y-133303333D01*
X111180952Y-133255714D01*
X111228571Y-133208095D01*
X111276190Y-133112857D01*
X111276190Y-132731904D01*
X110752380Y-133636666D02*
X110752380Y-134303333D01*
X111752380Y-133874761D01*
M02*
