G04 #@! TF.GenerationSoftware,KiCad,Pcbnew,(5.1.2)-1*
G04 #@! TF.CreationDate,2020-01-01T10:54:38+09:00*
G04 #@! TF.ProjectId,converter,636f6e76-6572-4746-9572-2e6b69636164,v1.0*
G04 #@! TF.SameCoordinates,Original*
G04 #@! TF.FileFunction,Paste,Bot*
G04 #@! TF.FilePolarity,Positive*
%FSLAX46Y46*%
G04 Gerber Fmt 4.6, Leading zero omitted, Abs format (unit mm)*
G04 Created by KiCad (PCBNEW (5.1.2)-1) date 2020-01-01 10:54:38*
%MOMM*%
%LPD*%
G04 APERTURE LIST*
%ADD10C,0.100000*%
%ADD11C,0.875000*%
%ADD12C,0.600000*%
%ADD13O,1.524000X1.800000*%
G04 APERTURE END LIST*
D10*
G36*
X102677691Y-138888053D02*
G01*
X102698926Y-138891203D01*
X102719750Y-138896419D01*
X102739962Y-138903651D01*
X102759368Y-138912830D01*
X102777781Y-138923866D01*
X102795024Y-138936654D01*
X102810930Y-138951070D01*
X102825346Y-138966976D01*
X102838134Y-138984219D01*
X102849170Y-139002632D01*
X102858349Y-139022038D01*
X102865581Y-139042250D01*
X102870797Y-139063074D01*
X102873947Y-139084309D01*
X102875000Y-139105750D01*
X102875000Y-139543250D01*
X102873947Y-139564691D01*
X102870797Y-139585926D01*
X102865581Y-139606750D01*
X102858349Y-139626962D01*
X102849170Y-139646368D01*
X102838134Y-139664781D01*
X102825346Y-139682024D01*
X102810930Y-139697930D01*
X102795024Y-139712346D01*
X102777781Y-139725134D01*
X102759368Y-139736170D01*
X102739962Y-139745349D01*
X102719750Y-139752581D01*
X102698926Y-139757797D01*
X102677691Y-139760947D01*
X102656250Y-139762000D01*
X102143750Y-139762000D01*
X102122309Y-139760947D01*
X102101074Y-139757797D01*
X102080250Y-139752581D01*
X102060038Y-139745349D01*
X102040632Y-139736170D01*
X102022219Y-139725134D01*
X102004976Y-139712346D01*
X101989070Y-139697930D01*
X101974654Y-139682024D01*
X101961866Y-139664781D01*
X101950830Y-139646368D01*
X101941651Y-139626962D01*
X101934419Y-139606750D01*
X101929203Y-139585926D01*
X101926053Y-139564691D01*
X101925000Y-139543250D01*
X101925000Y-139105750D01*
X101926053Y-139084309D01*
X101929203Y-139063074D01*
X101934419Y-139042250D01*
X101941651Y-139022038D01*
X101950830Y-139002632D01*
X101961866Y-138984219D01*
X101974654Y-138966976D01*
X101989070Y-138951070D01*
X102004976Y-138936654D01*
X102022219Y-138923866D01*
X102040632Y-138912830D01*
X102060038Y-138903651D01*
X102080250Y-138896419D01*
X102101074Y-138891203D01*
X102122309Y-138888053D01*
X102143750Y-138887000D01*
X102656250Y-138887000D01*
X102677691Y-138888053D01*
X102677691Y-138888053D01*
G37*
D11*
X102400000Y-139324500D03*
D10*
G36*
X102677691Y-140463053D02*
G01*
X102698926Y-140466203D01*
X102719750Y-140471419D01*
X102739962Y-140478651D01*
X102759368Y-140487830D01*
X102777781Y-140498866D01*
X102795024Y-140511654D01*
X102810930Y-140526070D01*
X102825346Y-140541976D01*
X102838134Y-140559219D01*
X102849170Y-140577632D01*
X102858349Y-140597038D01*
X102865581Y-140617250D01*
X102870797Y-140638074D01*
X102873947Y-140659309D01*
X102875000Y-140680750D01*
X102875000Y-141118250D01*
X102873947Y-141139691D01*
X102870797Y-141160926D01*
X102865581Y-141181750D01*
X102858349Y-141201962D01*
X102849170Y-141221368D01*
X102838134Y-141239781D01*
X102825346Y-141257024D01*
X102810930Y-141272930D01*
X102795024Y-141287346D01*
X102777781Y-141300134D01*
X102759368Y-141311170D01*
X102739962Y-141320349D01*
X102719750Y-141327581D01*
X102698926Y-141332797D01*
X102677691Y-141335947D01*
X102656250Y-141337000D01*
X102143750Y-141337000D01*
X102122309Y-141335947D01*
X102101074Y-141332797D01*
X102080250Y-141327581D01*
X102060038Y-141320349D01*
X102040632Y-141311170D01*
X102022219Y-141300134D01*
X102004976Y-141287346D01*
X101989070Y-141272930D01*
X101974654Y-141257024D01*
X101961866Y-141239781D01*
X101950830Y-141221368D01*
X101941651Y-141201962D01*
X101934419Y-141181750D01*
X101929203Y-141160926D01*
X101926053Y-141139691D01*
X101925000Y-141118250D01*
X101925000Y-140680750D01*
X101926053Y-140659309D01*
X101929203Y-140638074D01*
X101934419Y-140617250D01*
X101941651Y-140597038D01*
X101950830Y-140577632D01*
X101961866Y-140559219D01*
X101974654Y-140541976D01*
X101989070Y-140526070D01*
X102004976Y-140511654D01*
X102022219Y-140498866D01*
X102040632Y-140487830D01*
X102060038Y-140478651D01*
X102080250Y-140471419D01*
X102101074Y-140466203D01*
X102122309Y-140463053D01*
X102143750Y-140462000D01*
X102656250Y-140462000D01*
X102677691Y-140463053D01*
X102677691Y-140463053D01*
G37*
D11*
X102400000Y-140899500D03*
D10*
G36*
X113677691Y-141639053D02*
G01*
X113698926Y-141642203D01*
X113719750Y-141647419D01*
X113739962Y-141654651D01*
X113759368Y-141663830D01*
X113777781Y-141674866D01*
X113795024Y-141687654D01*
X113810930Y-141702070D01*
X113825346Y-141717976D01*
X113838134Y-141735219D01*
X113849170Y-141753632D01*
X113858349Y-141773038D01*
X113865581Y-141793250D01*
X113870797Y-141814074D01*
X113873947Y-141835309D01*
X113875000Y-141856750D01*
X113875000Y-142294250D01*
X113873947Y-142315691D01*
X113870797Y-142336926D01*
X113865581Y-142357750D01*
X113858349Y-142377962D01*
X113849170Y-142397368D01*
X113838134Y-142415781D01*
X113825346Y-142433024D01*
X113810930Y-142448930D01*
X113795024Y-142463346D01*
X113777781Y-142476134D01*
X113759368Y-142487170D01*
X113739962Y-142496349D01*
X113719750Y-142503581D01*
X113698926Y-142508797D01*
X113677691Y-142511947D01*
X113656250Y-142513000D01*
X113143750Y-142513000D01*
X113122309Y-142511947D01*
X113101074Y-142508797D01*
X113080250Y-142503581D01*
X113060038Y-142496349D01*
X113040632Y-142487170D01*
X113022219Y-142476134D01*
X113004976Y-142463346D01*
X112989070Y-142448930D01*
X112974654Y-142433024D01*
X112961866Y-142415781D01*
X112950830Y-142397368D01*
X112941651Y-142377962D01*
X112934419Y-142357750D01*
X112929203Y-142336926D01*
X112926053Y-142315691D01*
X112925000Y-142294250D01*
X112925000Y-141856750D01*
X112926053Y-141835309D01*
X112929203Y-141814074D01*
X112934419Y-141793250D01*
X112941651Y-141773038D01*
X112950830Y-141753632D01*
X112961866Y-141735219D01*
X112974654Y-141717976D01*
X112989070Y-141702070D01*
X113004976Y-141687654D01*
X113022219Y-141674866D01*
X113040632Y-141663830D01*
X113060038Y-141654651D01*
X113080250Y-141647419D01*
X113101074Y-141642203D01*
X113122309Y-141639053D01*
X113143750Y-141638000D01*
X113656250Y-141638000D01*
X113677691Y-141639053D01*
X113677691Y-141639053D01*
G37*
D11*
X113400000Y-142075500D03*
D10*
G36*
X113677691Y-140064053D02*
G01*
X113698926Y-140067203D01*
X113719750Y-140072419D01*
X113739962Y-140079651D01*
X113759368Y-140088830D01*
X113777781Y-140099866D01*
X113795024Y-140112654D01*
X113810930Y-140127070D01*
X113825346Y-140142976D01*
X113838134Y-140160219D01*
X113849170Y-140178632D01*
X113858349Y-140198038D01*
X113865581Y-140218250D01*
X113870797Y-140239074D01*
X113873947Y-140260309D01*
X113875000Y-140281750D01*
X113875000Y-140719250D01*
X113873947Y-140740691D01*
X113870797Y-140761926D01*
X113865581Y-140782750D01*
X113858349Y-140802962D01*
X113849170Y-140822368D01*
X113838134Y-140840781D01*
X113825346Y-140858024D01*
X113810930Y-140873930D01*
X113795024Y-140888346D01*
X113777781Y-140901134D01*
X113759368Y-140912170D01*
X113739962Y-140921349D01*
X113719750Y-140928581D01*
X113698926Y-140933797D01*
X113677691Y-140936947D01*
X113656250Y-140938000D01*
X113143750Y-140938000D01*
X113122309Y-140936947D01*
X113101074Y-140933797D01*
X113080250Y-140928581D01*
X113060038Y-140921349D01*
X113040632Y-140912170D01*
X113022219Y-140901134D01*
X113004976Y-140888346D01*
X112989070Y-140873930D01*
X112974654Y-140858024D01*
X112961866Y-140840781D01*
X112950830Y-140822368D01*
X112941651Y-140802962D01*
X112934419Y-140782750D01*
X112929203Y-140761926D01*
X112926053Y-140740691D01*
X112925000Y-140719250D01*
X112925000Y-140281750D01*
X112926053Y-140260309D01*
X112929203Y-140239074D01*
X112934419Y-140218250D01*
X112941651Y-140198038D01*
X112950830Y-140178632D01*
X112961866Y-140160219D01*
X112974654Y-140142976D01*
X112989070Y-140127070D01*
X113004976Y-140112654D01*
X113022219Y-140099866D01*
X113040632Y-140088830D01*
X113060038Y-140079651D01*
X113080250Y-140072419D01*
X113101074Y-140067203D01*
X113122309Y-140064053D01*
X113143750Y-140063000D01*
X113656250Y-140063000D01*
X113677691Y-140064053D01*
X113677691Y-140064053D01*
G37*
D11*
X113400000Y-140500500D03*
D10*
G36*
X111315691Y-145026053D02*
G01*
X111336926Y-145029203D01*
X111357750Y-145034419D01*
X111377962Y-145041651D01*
X111397368Y-145050830D01*
X111415781Y-145061866D01*
X111433024Y-145074654D01*
X111448930Y-145089070D01*
X111463346Y-145104976D01*
X111476134Y-145122219D01*
X111487170Y-145140632D01*
X111496349Y-145160038D01*
X111503581Y-145180250D01*
X111508797Y-145201074D01*
X111511947Y-145222309D01*
X111513000Y-145243750D01*
X111513000Y-145756250D01*
X111511947Y-145777691D01*
X111508797Y-145798926D01*
X111503581Y-145819750D01*
X111496349Y-145839962D01*
X111487170Y-145859368D01*
X111476134Y-145877781D01*
X111463346Y-145895024D01*
X111448930Y-145910930D01*
X111433024Y-145925346D01*
X111415781Y-145938134D01*
X111397368Y-145949170D01*
X111377962Y-145958349D01*
X111357750Y-145965581D01*
X111336926Y-145970797D01*
X111315691Y-145973947D01*
X111294250Y-145975000D01*
X110856750Y-145975000D01*
X110835309Y-145973947D01*
X110814074Y-145970797D01*
X110793250Y-145965581D01*
X110773038Y-145958349D01*
X110753632Y-145949170D01*
X110735219Y-145938134D01*
X110717976Y-145925346D01*
X110702070Y-145910930D01*
X110687654Y-145895024D01*
X110674866Y-145877781D01*
X110663830Y-145859368D01*
X110654651Y-145839962D01*
X110647419Y-145819750D01*
X110642203Y-145798926D01*
X110639053Y-145777691D01*
X110638000Y-145756250D01*
X110638000Y-145243750D01*
X110639053Y-145222309D01*
X110642203Y-145201074D01*
X110647419Y-145180250D01*
X110654651Y-145160038D01*
X110663830Y-145140632D01*
X110674866Y-145122219D01*
X110687654Y-145104976D01*
X110702070Y-145089070D01*
X110717976Y-145074654D01*
X110735219Y-145061866D01*
X110753632Y-145050830D01*
X110773038Y-145041651D01*
X110793250Y-145034419D01*
X110814074Y-145029203D01*
X110835309Y-145026053D01*
X110856750Y-145025000D01*
X111294250Y-145025000D01*
X111315691Y-145026053D01*
X111315691Y-145026053D01*
G37*
D11*
X111075500Y-145500000D03*
D10*
G36*
X109740691Y-145026053D02*
G01*
X109761926Y-145029203D01*
X109782750Y-145034419D01*
X109802962Y-145041651D01*
X109822368Y-145050830D01*
X109840781Y-145061866D01*
X109858024Y-145074654D01*
X109873930Y-145089070D01*
X109888346Y-145104976D01*
X109901134Y-145122219D01*
X109912170Y-145140632D01*
X109921349Y-145160038D01*
X109928581Y-145180250D01*
X109933797Y-145201074D01*
X109936947Y-145222309D01*
X109938000Y-145243750D01*
X109938000Y-145756250D01*
X109936947Y-145777691D01*
X109933797Y-145798926D01*
X109928581Y-145819750D01*
X109921349Y-145839962D01*
X109912170Y-145859368D01*
X109901134Y-145877781D01*
X109888346Y-145895024D01*
X109873930Y-145910930D01*
X109858024Y-145925346D01*
X109840781Y-145938134D01*
X109822368Y-145949170D01*
X109802962Y-145958349D01*
X109782750Y-145965581D01*
X109761926Y-145970797D01*
X109740691Y-145973947D01*
X109719250Y-145975000D01*
X109281750Y-145975000D01*
X109260309Y-145973947D01*
X109239074Y-145970797D01*
X109218250Y-145965581D01*
X109198038Y-145958349D01*
X109178632Y-145949170D01*
X109160219Y-145938134D01*
X109142976Y-145925346D01*
X109127070Y-145910930D01*
X109112654Y-145895024D01*
X109099866Y-145877781D01*
X109088830Y-145859368D01*
X109079651Y-145839962D01*
X109072419Y-145819750D01*
X109067203Y-145798926D01*
X109064053Y-145777691D01*
X109063000Y-145756250D01*
X109063000Y-145243750D01*
X109064053Y-145222309D01*
X109067203Y-145201074D01*
X109072419Y-145180250D01*
X109079651Y-145160038D01*
X109088830Y-145140632D01*
X109099866Y-145122219D01*
X109112654Y-145104976D01*
X109127070Y-145089070D01*
X109142976Y-145074654D01*
X109160219Y-145061866D01*
X109178632Y-145050830D01*
X109198038Y-145041651D01*
X109218250Y-145034419D01*
X109239074Y-145029203D01*
X109260309Y-145026053D01*
X109281750Y-145025000D01*
X109719250Y-145025000D01*
X109740691Y-145026053D01*
X109740691Y-145026053D01*
G37*
D11*
X109500500Y-145500000D03*
D10*
G36*
X105140691Y-145026053D02*
G01*
X105161926Y-145029203D01*
X105182750Y-145034419D01*
X105202962Y-145041651D01*
X105222368Y-145050830D01*
X105240781Y-145061866D01*
X105258024Y-145074654D01*
X105273930Y-145089070D01*
X105288346Y-145104976D01*
X105301134Y-145122219D01*
X105312170Y-145140632D01*
X105321349Y-145160038D01*
X105328581Y-145180250D01*
X105333797Y-145201074D01*
X105336947Y-145222309D01*
X105338000Y-145243750D01*
X105338000Y-145756250D01*
X105336947Y-145777691D01*
X105333797Y-145798926D01*
X105328581Y-145819750D01*
X105321349Y-145839962D01*
X105312170Y-145859368D01*
X105301134Y-145877781D01*
X105288346Y-145895024D01*
X105273930Y-145910930D01*
X105258024Y-145925346D01*
X105240781Y-145938134D01*
X105222368Y-145949170D01*
X105202962Y-145958349D01*
X105182750Y-145965581D01*
X105161926Y-145970797D01*
X105140691Y-145973947D01*
X105119250Y-145975000D01*
X104681750Y-145975000D01*
X104660309Y-145973947D01*
X104639074Y-145970797D01*
X104618250Y-145965581D01*
X104598038Y-145958349D01*
X104578632Y-145949170D01*
X104560219Y-145938134D01*
X104542976Y-145925346D01*
X104527070Y-145910930D01*
X104512654Y-145895024D01*
X104499866Y-145877781D01*
X104488830Y-145859368D01*
X104479651Y-145839962D01*
X104472419Y-145819750D01*
X104467203Y-145798926D01*
X104464053Y-145777691D01*
X104463000Y-145756250D01*
X104463000Y-145243750D01*
X104464053Y-145222309D01*
X104467203Y-145201074D01*
X104472419Y-145180250D01*
X104479651Y-145160038D01*
X104488830Y-145140632D01*
X104499866Y-145122219D01*
X104512654Y-145104976D01*
X104527070Y-145089070D01*
X104542976Y-145074654D01*
X104560219Y-145061866D01*
X104578632Y-145050830D01*
X104598038Y-145041651D01*
X104618250Y-145034419D01*
X104639074Y-145029203D01*
X104660309Y-145026053D01*
X104681750Y-145025000D01*
X105119250Y-145025000D01*
X105140691Y-145026053D01*
X105140691Y-145026053D01*
G37*
D11*
X104900500Y-145500000D03*
D10*
G36*
X106715691Y-145026053D02*
G01*
X106736926Y-145029203D01*
X106757750Y-145034419D01*
X106777962Y-145041651D01*
X106797368Y-145050830D01*
X106815781Y-145061866D01*
X106833024Y-145074654D01*
X106848930Y-145089070D01*
X106863346Y-145104976D01*
X106876134Y-145122219D01*
X106887170Y-145140632D01*
X106896349Y-145160038D01*
X106903581Y-145180250D01*
X106908797Y-145201074D01*
X106911947Y-145222309D01*
X106913000Y-145243750D01*
X106913000Y-145756250D01*
X106911947Y-145777691D01*
X106908797Y-145798926D01*
X106903581Y-145819750D01*
X106896349Y-145839962D01*
X106887170Y-145859368D01*
X106876134Y-145877781D01*
X106863346Y-145895024D01*
X106848930Y-145910930D01*
X106833024Y-145925346D01*
X106815781Y-145938134D01*
X106797368Y-145949170D01*
X106777962Y-145958349D01*
X106757750Y-145965581D01*
X106736926Y-145970797D01*
X106715691Y-145973947D01*
X106694250Y-145975000D01*
X106256750Y-145975000D01*
X106235309Y-145973947D01*
X106214074Y-145970797D01*
X106193250Y-145965581D01*
X106173038Y-145958349D01*
X106153632Y-145949170D01*
X106135219Y-145938134D01*
X106117976Y-145925346D01*
X106102070Y-145910930D01*
X106087654Y-145895024D01*
X106074866Y-145877781D01*
X106063830Y-145859368D01*
X106054651Y-145839962D01*
X106047419Y-145819750D01*
X106042203Y-145798926D01*
X106039053Y-145777691D01*
X106038000Y-145756250D01*
X106038000Y-145243750D01*
X106039053Y-145222309D01*
X106042203Y-145201074D01*
X106047419Y-145180250D01*
X106054651Y-145160038D01*
X106063830Y-145140632D01*
X106074866Y-145122219D01*
X106087654Y-145104976D01*
X106102070Y-145089070D01*
X106117976Y-145074654D01*
X106135219Y-145061866D01*
X106153632Y-145050830D01*
X106173038Y-145041651D01*
X106193250Y-145034419D01*
X106214074Y-145029203D01*
X106235309Y-145026053D01*
X106256750Y-145025000D01*
X106694250Y-145025000D01*
X106715691Y-145026053D01*
X106715691Y-145026053D01*
G37*
D11*
X106475500Y-145500000D03*
D10*
G36*
X109577691Y-134738053D02*
G01*
X109598926Y-134741203D01*
X109619750Y-134746419D01*
X109639962Y-134753651D01*
X109659368Y-134762830D01*
X109677781Y-134773866D01*
X109695024Y-134786654D01*
X109710930Y-134801070D01*
X109725346Y-134816976D01*
X109738134Y-134834219D01*
X109749170Y-134852632D01*
X109758349Y-134872038D01*
X109765581Y-134892250D01*
X109770797Y-134913074D01*
X109773947Y-134934309D01*
X109775000Y-134955750D01*
X109775000Y-135393250D01*
X109773947Y-135414691D01*
X109770797Y-135435926D01*
X109765581Y-135456750D01*
X109758349Y-135476962D01*
X109749170Y-135496368D01*
X109738134Y-135514781D01*
X109725346Y-135532024D01*
X109710930Y-135547930D01*
X109695024Y-135562346D01*
X109677781Y-135575134D01*
X109659368Y-135586170D01*
X109639962Y-135595349D01*
X109619750Y-135602581D01*
X109598926Y-135607797D01*
X109577691Y-135610947D01*
X109556250Y-135612000D01*
X109043750Y-135612000D01*
X109022309Y-135610947D01*
X109001074Y-135607797D01*
X108980250Y-135602581D01*
X108960038Y-135595349D01*
X108940632Y-135586170D01*
X108922219Y-135575134D01*
X108904976Y-135562346D01*
X108889070Y-135547930D01*
X108874654Y-135532024D01*
X108861866Y-135514781D01*
X108850830Y-135496368D01*
X108841651Y-135476962D01*
X108834419Y-135456750D01*
X108829203Y-135435926D01*
X108826053Y-135414691D01*
X108825000Y-135393250D01*
X108825000Y-134955750D01*
X108826053Y-134934309D01*
X108829203Y-134913074D01*
X108834419Y-134892250D01*
X108841651Y-134872038D01*
X108850830Y-134852632D01*
X108861866Y-134834219D01*
X108874654Y-134816976D01*
X108889070Y-134801070D01*
X108904976Y-134786654D01*
X108922219Y-134773866D01*
X108940632Y-134762830D01*
X108960038Y-134753651D01*
X108980250Y-134746419D01*
X109001074Y-134741203D01*
X109022309Y-134738053D01*
X109043750Y-134737000D01*
X109556250Y-134737000D01*
X109577691Y-134738053D01*
X109577691Y-134738053D01*
G37*
D11*
X109300000Y-135174500D03*
D10*
G36*
X109577691Y-136313053D02*
G01*
X109598926Y-136316203D01*
X109619750Y-136321419D01*
X109639962Y-136328651D01*
X109659368Y-136337830D01*
X109677781Y-136348866D01*
X109695024Y-136361654D01*
X109710930Y-136376070D01*
X109725346Y-136391976D01*
X109738134Y-136409219D01*
X109749170Y-136427632D01*
X109758349Y-136447038D01*
X109765581Y-136467250D01*
X109770797Y-136488074D01*
X109773947Y-136509309D01*
X109775000Y-136530750D01*
X109775000Y-136968250D01*
X109773947Y-136989691D01*
X109770797Y-137010926D01*
X109765581Y-137031750D01*
X109758349Y-137051962D01*
X109749170Y-137071368D01*
X109738134Y-137089781D01*
X109725346Y-137107024D01*
X109710930Y-137122930D01*
X109695024Y-137137346D01*
X109677781Y-137150134D01*
X109659368Y-137161170D01*
X109639962Y-137170349D01*
X109619750Y-137177581D01*
X109598926Y-137182797D01*
X109577691Y-137185947D01*
X109556250Y-137187000D01*
X109043750Y-137187000D01*
X109022309Y-137185947D01*
X109001074Y-137182797D01*
X108980250Y-137177581D01*
X108960038Y-137170349D01*
X108940632Y-137161170D01*
X108922219Y-137150134D01*
X108904976Y-137137346D01*
X108889070Y-137122930D01*
X108874654Y-137107024D01*
X108861866Y-137089781D01*
X108850830Y-137071368D01*
X108841651Y-137051962D01*
X108834419Y-137031750D01*
X108829203Y-137010926D01*
X108826053Y-136989691D01*
X108825000Y-136968250D01*
X108825000Y-136530750D01*
X108826053Y-136509309D01*
X108829203Y-136488074D01*
X108834419Y-136467250D01*
X108841651Y-136447038D01*
X108850830Y-136427632D01*
X108861866Y-136409219D01*
X108874654Y-136391976D01*
X108889070Y-136376070D01*
X108904976Y-136361654D01*
X108922219Y-136348866D01*
X108940632Y-136337830D01*
X108960038Y-136328651D01*
X108980250Y-136321419D01*
X109001074Y-136316203D01*
X109022309Y-136313053D01*
X109043750Y-136312000D01*
X109556250Y-136312000D01*
X109577691Y-136313053D01*
X109577691Y-136313053D01*
G37*
D11*
X109300000Y-136749500D03*
D10*
G36*
X105977691Y-136301053D02*
G01*
X105998926Y-136304203D01*
X106019750Y-136309419D01*
X106039962Y-136316651D01*
X106059368Y-136325830D01*
X106077781Y-136336866D01*
X106095024Y-136349654D01*
X106110930Y-136364070D01*
X106125346Y-136379976D01*
X106138134Y-136397219D01*
X106149170Y-136415632D01*
X106158349Y-136435038D01*
X106165581Y-136455250D01*
X106170797Y-136476074D01*
X106173947Y-136497309D01*
X106175000Y-136518750D01*
X106175000Y-136956250D01*
X106173947Y-136977691D01*
X106170797Y-136998926D01*
X106165581Y-137019750D01*
X106158349Y-137039962D01*
X106149170Y-137059368D01*
X106138134Y-137077781D01*
X106125346Y-137095024D01*
X106110930Y-137110930D01*
X106095024Y-137125346D01*
X106077781Y-137138134D01*
X106059368Y-137149170D01*
X106039962Y-137158349D01*
X106019750Y-137165581D01*
X105998926Y-137170797D01*
X105977691Y-137173947D01*
X105956250Y-137175000D01*
X105443750Y-137175000D01*
X105422309Y-137173947D01*
X105401074Y-137170797D01*
X105380250Y-137165581D01*
X105360038Y-137158349D01*
X105340632Y-137149170D01*
X105322219Y-137138134D01*
X105304976Y-137125346D01*
X105289070Y-137110930D01*
X105274654Y-137095024D01*
X105261866Y-137077781D01*
X105250830Y-137059368D01*
X105241651Y-137039962D01*
X105234419Y-137019750D01*
X105229203Y-136998926D01*
X105226053Y-136977691D01*
X105225000Y-136956250D01*
X105225000Y-136518750D01*
X105226053Y-136497309D01*
X105229203Y-136476074D01*
X105234419Y-136455250D01*
X105241651Y-136435038D01*
X105250830Y-136415632D01*
X105261866Y-136397219D01*
X105274654Y-136379976D01*
X105289070Y-136364070D01*
X105304976Y-136349654D01*
X105322219Y-136336866D01*
X105340632Y-136325830D01*
X105360038Y-136316651D01*
X105380250Y-136309419D01*
X105401074Y-136304203D01*
X105422309Y-136301053D01*
X105443750Y-136300000D01*
X105956250Y-136300000D01*
X105977691Y-136301053D01*
X105977691Y-136301053D01*
G37*
D11*
X105700000Y-136737500D03*
D10*
G36*
X105977691Y-134726053D02*
G01*
X105998926Y-134729203D01*
X106019750Y-134734419D01*
X106039962Y-134741651D01*
X106059368Y-134750830D01*
X106077781Y-134761866D01*
X106095024Y-134774654D01*
X106110930Y-134789070D01*
X106125346Y-134804976D01*
X106138134Y-134822219D01*
X106149170Y-134840632D01*
X106158349Y-134860038D01*
X106165581Y-134880250D01*
X106170797Y-134901074D01*
X106173947Y-134922309D01*
X106175000Y-134943750D01*
X106175000Y-135381250D01*
X106173947Y-135402691D01*
X106170797Y-135423926D01*
X106165581Y-135444750D01*
X106158349Y-135464962D01*
X106149170Y-135484368D01*
X106138134Y-135502781D01*
X106125346Y-135520024D01*
X106110930Y-135535930D01*
X106095024Y-135550346D01*
X106077781Y-135563134D01*
X106059368Y-135574170D01*
X106039962Y-135583349D01*
X106019750Y-135590581D01*
X105998926Y-135595797D01*
X105977691Y-135598947D01*
X105956250Y-135600000D01*
X105443750Y-135600000D01*
X105422309Y-135598947D01*
X105401074Y-135595797D01*
X105380250Y-135590581D01*
X105360038Y-135583349D01*
X105340632Y-135574170D01*
X105322219Y-135563134D01*
X105304976Y-135550346D01*
X105289070Y-135535930D01*
X105274654Y-135520024D01*
X105261866Y-135502781D01*
X105250830Y-135484368D01*
X105241651Y-135464962D01*
X105234419Y-135444750D01*
X105229203Y-135423926D01*
X105226053Y-135402691D01*
X105225000Y-135381250D01*
X105225000Y-134943750D01*
X105226053Y-134922309D01*
X105229203Y-134901074D01*
X105234419Y-134880250D01*
X105241651Y-134860038D01*
X105250830Y-134840632D01*
X105261866Y-134822219D01*
X105274654Y-134804976D01*
X105289070Y-134789070D01*
X105304976Y-134774654D01*
X105322219Y-134761866D01*
X105340632Y-134750830D01*
X105360038Y-134741651D01*
X105380250Y-134734419D01*
X105401074Y-134729203D01*
X105422309Y-134726053D01*
X105443750Y-134725000D01*
X105956250Y-134725000D01*
X105977691Y-134726053D01*
X105977691Y-134726053D01*
G37*
D11*
X105700000Y-135162500D03*
D10*
G36*
X107777691Y-134726053D02*
G01*
X107798926Y-134729203D01*
X107819750Y-134734419D01*
X107839962Y-134741651D01*
X107859368Y-134750830D01*
X107877781Y-134761866D01*
X107895024Y-134774654D01*
X107910930Y-134789070D01*
X107925346Y-134804976D01*
X107938134Y-134822219D01*
X107949170Y-134840632D01*
X107958349Y-134860038D01*
X107965581Y-134880250D01*
X107970797Y-134901074D01*
X107973947Y-134922309D01*
X107975000Y-134943750D01*
X107975000Y-135381250D01*
X107973947Y-135402691D01*
X107970797Y-135423926D01*
X107965581Y-135444750D01*
X107958349Y-135464962D01*
X107949170Y-135484368D01*
X107938134Y-135502781D01*
X107925346Y-135520024D01*
X107910930Y-135535930D01*
X107895024Y-135550346D01*
X107877781Y-135563134D01*
X107859368Y-135574170D01*
X107839962Y-135583349D01*
X107819750Y-135590581D01*
X107798926Y-135595797D01*
X107777691Y-135598947D01*
X107756250Y-135600000D01*
X107243750Y-135600000D01*
X107222309Y-135598947D01*
X107201074Y-135595797D01*
X107180250Y-135590581D01*
X107160038Y-135583349D01*
X107140632Y-135574170D01*
X107122219Y-135563134D01*
X107104976Y-135550346D01*
X107089070Y-135535930D01*
X107074654Y-135520024D01*
X107061866Y-135502781D01*
X107050830Y-135484368D01*
X107041651Y-135464962D01*
X107034419Y-135444750D01*
X107029203Y-135423926D01*
X107026053Y-135402691D01*
X107025000Y-135381250D01*
X107025000Y-134943750D01*
X107026053Y-134922309D01*
X107029203Y-134901074D01*
X107034419Y-134880250D01*
X107041651Y-134860038D01*
X107050830Y-134840632D01*
X107061866Y-134822219D01*
X107074654Y-134804976D01*
X107089070Y-134789070D01*
X107104976Y-134774654D01*
X107122219Y-134761866D01*
X107140632Y-134750830D01*
X107160038Y-134741651D01*
X107180250Y-134734419D01*
X107201074Y-134729203D01*
X107222309Y-134726053D01*
X107243750Y-134725000D01*
X107756250Y-134725000D01*
X107777691Y-134726053D01*
X107777691Y-134726053D01*
G37*
D11*
X107500000Y-135162500D03*
D10*
G36*
X107777691Y-136301053D02*
G01*
X107798926Y-136304203D01*
X107819750Y-136309419D01*
X107839962Y-136316651D01*
X107859368Y-136325830D01*
X107877781Y-136336866D01*
X107895024Y-136349654D01*
X107910930Y-136364070D01*
X107925346Y-136379976D01*
X107938134Y-136397219D01*
X107949170Y-136415632D01*
X107958349Y-136435038D01*
X107965581Y-136455250D01*
X107970797Y-136476074D01*
X107973947Y-136497309D01*
X107975000Y-136518750D01*
X107975000Y-136956250D01*
X107973947Y-136977691D01*
X107970797Y-136998926D01*
X107965581Y-137019750D01*
X107958349Y-137039962D01*
X107949170Y-137059368D01*
X107938134Y-137077781D01*
X107925346Y-137095024D01*
X107910930Y-137110930D01*
X107895024Y-137125346D01*
X107877781Y-137138134D01*
X107859368Y-137149170D01*
X107839962Y-137158349D01*
X107819750Y-137165581D01*
X107798926Y-137170797D01*
X107777691Y-137173947D01*
X107756250Y-137175000D01*
X107243750Y-137175000D01*
X107222309Y-137173947D01*
X107201074Y-137170797D01*
X107180250Y-137165581D01*
X107160038Y-137158349D01*
X107140632Y-137149170D01*
X107122219Y-137138134D01*
X107104976Y-137125346D01*
X107089070Y-137110930D01*
X107074654Y-137095024D01*
X107061866Y-137077781D01*
X107050830Y-137059368D01*
X107041651Y-137039962D01*
X107034419Y-137019750D01*
X107029203Y-136998926D01*
X107026053Y-136977691D01*
X107025000Y-136956250D01*
X107025000Y-136518750D01*
X107026053Y-136497309D01*
X107029203Y-136476074D01*
X107034419Y-136455250D01*
X107041651Y-136435038D01*
X107050830Y-136415632D01*
X107061866Y-136397219D01*
X107074654Y-136379976D01*
X107089070Y-136364070D01*
X107104976Y-136349654D01*
X107122219Y-136336866D01*
X107140632Y-136325830D01*
X107160038Y-136316651D01*
X107180250Y-136309419D01*
X107201074Y-136304203D01*
X107222309Y-136301053D01*
X107243750Y-136300000D01*
X107756250Y-136300000D01*
X107777691Y-136301053D01*
X107777691Y-136301053D01*
G37*
D11*
X107500000Y-136737500D03*
D10*
G36*
X106264703Y-143005722D02*
G01*
X106279264Y-143007882D01*
X106293543Y-143011459D01*
X106307403Y-143016418D01*
X106320710Y-143022712D01*
X106333336Y-143030280D01*
X106345159Y-143039048D01*
X106356066Y-143048934D01*
X106365952Y-143059841D01*
X106374720Y-143071664D01*
X106382288Y-143084290D01*
X106388582Y-143097597D01*
X106393541Y-143111457D01*
X106397118Y-143125736D01*
X106399278Y-143140297D01*
X106400000Y-143155000D01*
X106400000Y-143455000D01*
X106399278Y-143469703D01*
X106397118Y-143484264D01*
X106393541Y-143498543D01*
X106388582Y-143512403D01*
X106382288Y-143525710D01*
X106374720Y-143538336D01*
X106365952Y-143550159D01*
X106356066Y-143561066D01*
X106345159Y-143570952D01*
X106333336Y-143579720D01*
X106320710Y-143587288D01*
X106307403Y-143593582D01*
X106293543Y-143598541D01*
X106279264Y-143602118D01*
X106264703Y-143604278D01*
X106250000Y-143605000D01*
X104600000Y-143605000D01*
X104585297Y-143604278D01*
X104570736Y-143602118D01*
X104556457Y-143598541D01*
X104542597Y-143593582D01*
X104529290Y-143587288D01*
X104516664Y-143579720D01*
X104504841Y-143570952D01*
X104493934Y-143561066D01*
X104484048Y-143550159D01*
X104475280Y-143538336D01*
X104467712Y-143525710D01*
X104461418Y-143512403D01*
X104456459Y-143498543D01*
X104452882Y-143484264D01*
X104450722Y-143469703D01*
X104450000Y-143455000D01*
X104450000Y-143155000D01*
X104450722Y-143140297D01*
X104452882Y-143125736D01*
X104456459Y-143111457D01*
X104461418Y-143097597D01*
X104467712Y-143084290D01*
X104475280Y-143071664D01*
X104484048Y-143059841D01*
X104493934Y-143048934D01*
X104504841Y-143039048D01*
X104516664Y-143030280D01*
X104529290Y-143022712D01*
X104542597Y-143016418D01*
X104556457Y-143011459D01*
X104570736Y-143007882D01*
X104585297Y-143005722D01*
X104600000Y-143005000D01*
X106250000Y-143005000D01*
X106264703Y-143005722D01*
X106264703Y-143005722D01*
G37*
D12*
X105425000Y-143305000D03*
D10*
G36*
X106264703Y-141735722D02*
G01*
X106279264Y-141737882D01*
X106293543Y-141741459D01*
X106307403Y-141746418D01*
X106320710Y-141752712D01*
X106333336Y-141760280D01*
X106345159Y-141769048D01*
X106356066Y-141778934D01*
X106365952Y-141789841D01*
X106374720Y-141801664D01*
X106382288Y-141814290D01*
X106388582Y-141827597D01*
X106393541Y-141841457D01*
X106397118Y-141855736D01*
X106399278Y-141870297D01*
X106400000Y-141885000D01*
X106400000Y-142185000D01*
X106399278Y-142199703D01*
X106397118Y-142214264D01*
X106393541Y-142228543D01*
X106388582Y-142242403D01*
X106382288Y-142255710D01*
X106374720Y-142268336D01*
X106365952Y-142280159D01*
X106356066Y-142291066D01*
X106345159Y-142300952D01*
X106333336Y-142309720D01*
X106320710Y-142317288D01*
X106307403Y-142323582D01*
X106293543Y-142328541D01*
X106279264Y-142332118D01*
X106264703Y-142334278D01*
X106250000Y-142335000D01*
X104600000Y-142335000D01*
X104585297Y-142334278D01*
X104570736Y-142332118D01*
X104556457Y-142328541D01*
X104542597Y-142323582D01*
X104529290Y-142317288D01*
X104516664Y-142309720D01*
X104504841Y-142300952D01*
X104493934Y-142291066D01*
X104484048Y-142280159D01*
X104475280Y-142268336D01*
X104467712Y-142255710D01*
X104461418Y-142242403D01*
X104456459Y-142228543D01*
X104452882Y-142214264D01*
X104450722Y-142199703D01*
X104450000Y-142185000D01*
X104450000Y-141885000D01*
X104450722Y-141870297D01*
X104452882Y-141855736D01*
X104456459Y-141841457D01*
X104461418Y-141827597D01*
X104467712Y-141814290D01*
X104475280Y-141801664D01*
X104484048Y-141789841D01*
X104493934Y-141778934D01*
X104504841Y-141769048D01*
X104516664Y-141760280D01*
X104529290Y-141752712D01*
X104542597Y-141746418D01*
X104556457Y-141741459D01*
X104570736Y-141737882D01*
X104585297Y-141735722D01*
X104600000Y-141735000D01*
X106250000Y-141735000D01*
X106264703Y-141735722D01*
X106264703Y-141735722D01*
G37*
D12*
X105425000Y-142035000D03*
D10*
G36*
X106264703Y-140465722D02*
G01*
X106279264Y-140467882D01*
X106293543Y-140471459D01*
X106307403Y-140476418D01*
X106320710Y-140482712D01*
X106333336Y-140490280D01*
X106345159Y-140499048D01*
X106356066Y-140508934D01*
X106365952Y-140519841D01*
X106374720Y-140531664D01*
X106382288Y-140544290D01*
X106388582Y-140557597D01*
X106393541Y-140571457D01*
X106397118Y-140585736D01*
X106399278Y-140600297D01*
X106400000Y-140615000D01*
X106400000Y-140915000D01*
X106399278Y-140929703D01*
X106397118Y-140944264D01*
X106393541Y-140958543D01*
X106388582Y-140972403D01*
X106382288Y-140985710D01*
X106374720Y-140998336D01*
X106365952Y-141010159D01*
X106356066Y-141021066D01*
X106345159Y-141030952D01*
X106333336Y-141039720D01*
X106320710Y-141047288D01*
X106307403Y-141053582D01*
X106293543Y-141058541D01*
X106279264Y-141062118D01*
X106264703Y-141064278D01*
X106250000Y-141065000D01*
X104600000Y-141065000D01*
X104585297Y-141064278D01*
X104570736Y-141062118D01*
X104556457Y-141058541D01*
X104542597Y-141053582D01*
X104529290Y-141047288D01*
X104516664Y-141039720D01*
X104504841Y-141030952D01*
X104493934Y-141021066D01*
X104484048Y-141010159D01*
X104475280Y-140998336D01*
X104467712Y-140985710D01*
X104461418Y-140972403D01*
X104456459Y-140958543D01*
X104452882Y-140944264D01*
X104450722Y-140929703D01*
X104450000Y-140915000D01*
X104450000Y-140615000D01*
X104450722Y-140600297D01*
X104452882Y-140585736D01*
X104456459Y-140571457D01*
X104461418Y-140557597D01*
X104467712Y-140544290D01*
X104475280Y-140531664D01*
X104484048Y-140519841D01*
X104493934Y-140508934D01*
X104504841Y-140499048D01*
X104516664Y-140490280D01*
X104529290Y-140482712D01*
X104542597Y-140476418D01*
X104556457Y-140471459D01*
X104570736Y-140467882D01*
X104585297Y-140465722D01*
X104600000Y-140465000D01*
X106250000Y-140465000D01*
X106264703Y-140465722D01*
X106264703Y-140465722D01*
G37*
D12*
X105425000Y-140765000D03*
D10*
G36*
X106264703Y-139195722D02*
G01*
X106279264Y-139197882D01*
X106293543Y-139201459D01*
X106307403Y-139206418D01*
X106320710Y-139212712D01*
X106333336Y-139220280D01*
X106345159Y-139229048D01*
X106356066Y-139238934D01*
X106365952Y-139249841D01*
X106374720Y-139261664D01*
X106382288Y-139274290D01*
X106388582Y-139287597D01*
X106393541Y-139301457D01*
X106397118Y-139315736D01*
X106399278Y-139330297D01*
X106400000Y-139345000D01*
X106400000Y-139645000D01*
X106399278Y-139659703D01*
X106397118Y-139674264D01*
X106393541Y-139688543D01*
X106388582Y-139702403D01*
X106382288Y-139715710D01*
X106374720Y-139728336D01*
X106365952Y-139740159D01*
X106356066Y-139751066D01*
X106345159Y-139760952D01*
X106333336Y-139769720D01*
X106320710Y-139777288D01*
X106307403Y-139783582D01*
X106293543Y-139788541D01*
X106279264Y-139792118D01*
X106264703Y-139794278D01*
X106250000Y-139795000D01*
X104600000Y-139795000D01*
X104585297Y-139794278D01*
X104570736Y-139792118D01*
X104556457Y-139788541D01*
X104542597Y-139783582D01*
X104529290Y-139777288D01*
X104516664Y-139769720D01*
X104504841Y-139760952D01*
X104493934Y-139751066D01*
X104484048Y-139740159D01*
X104475280Y-139728336D01*
X104467712Y-139715710D01*
X104461418Y-139702403D01*
X104456459Y-139688543D01*
X104452882Y-139674264D01*
X104450722Y-139659703D01*
X104450000Y-139645000D01*
X104450000Y-139345000D01*
X104450722Y-139330297D01*
X104452882Y-139315736D01*
X104456459Y-139301457D01*
X104461418Y-139287597D01*
X104467712Y-139274290D01*
X104475280Y-139261664D01*
X104484048Y-139249841D01*
X104493934Y-139238934D01*
X104504841Y-139229048D01*
X104516664Y-139220280D01*
X104529290Y-139212712D01*
X104542597Y-139206418D01*
X104556457Y-139201459D01*
X104570736Y-139197882D01*
X104585297Y-139195722D01*
X104600000Y-139195000D01*
X106250000Y-139195000D01*
X106264703Y-139195722D01*
X106264703Y-139195722D01*
G37*
D12*
X105425000Y-139495000D03*
D10*
G36*
X111214703Y-139195722D02*
G01*
X111229264Y-139197882D01*
X111243543Y-139201459D01*
X111257403Y-139206418D01*
X111270710Y-139212712D01*
X111283336Y-139220280D01*
X111295159Y-139229048D01*
X111306066Y-139238934D01*
X111315952Y-139249841D01*
X111324720Y-139261664D01*
X111332288Y-139274290D01*
X111338582Y-139287597D01*
X111343541Y-139301457D01*
X111347118Y-139315736D01*
X111349278Y-139330297D01*
X111350000Y-139345000D01*
X111350000Y-139645000D01*
X111349278Y-139659703D01*
X111347118Y-139674264D01*
X111343541Y-139688543D01*
X111338582Y-139702403D01*
X111332288Y-139715710D01*
X111324720Y-139728336D01*
X111315952Y-139740159D01*
X111306066Y-139751066D01*
X111295159Y-139760952D01*
X111283336Y-139769720D01*
X111270710Y-139777288D01*
X111257403Y-139783582D01*
X111243543Y-139788541D01*
X111229264Y-139792118D01*
X111214703Y-139794278D01*
X111200000Y-139795000D01*
X109550000Y-139795000D01*
X109535297Y-139794278D01*
X109520736Y-139792118D01*
X109506457Y-139788541D01*
X109492597Y-139783582D01*
X109479290Y-139777288D01*
X109466664Y-139769720D01*
X109454841Y-139760952D01*
X109443934Y-139751066D01*
X109434048Y-139740159D01*
X109425280Y-139728336D01*
X109417712Y-139715710D01*
X109411418Y-139702403D01*
X109406459Y-139688543D01*
X109402882Y-139674264D01*
X109400722Y-139659703D01*
X109400000Y-139645000D01*
X109400000Y-139345000D01*
X109400722Y-139330297D01*
X109402882Y-139315736D01*
X109406459Y-139301457D01*
X109411418Y-139287597D01*
X109417712Y-139274290D01*
X109425280Y-139261664D01*
X109434048Y-139249841D01*
X109443934Y-139238934D01*
X109454841Y-139229048D01*
X109466664Y-139220280D01*
X109479290Y-139212712D01*
X109492597Y-139206418D01*
X109506457Y-139201459D01*
X109520736Y-139197882D01*
X109535297Y-139195722D01*
X109550000Y-139195000D01*
X111200000Y-139195000D01*
X111214703Y-139195722D01*
X111214703Y-139195722D01*
G37*
D12*
X110375000Y-139495000D03*
D10*
G36*
X111214703Y-140465722D02*
G01*
X111229264Y-140467882D01*
X111243543Y-140471459D01*
X111257403Y-140476418D01*
X111270710Y-140482712D01*
X111283336Y-140490280D01*
X111295159Y-140499048D01*
X111306066Y-140508934D01*
X111315952Y-140519841D01*
X111324720Y-140531664D01*
X111332288Y-140544290D01*
X111338582Y-140557597D01*
X111343541Y-140571457D01*
X111347118Y-140585736D01*
X111349278Y-140600297D01*
X111350000Y-140615000D01*
X111350000Y-140915000D01*
X111349278Y-140929703D01*
X111347118Y-140944264D01*
X111343541Y-140958543D01*
X111338582Y-140972403D01*
X111332288Y-140985710D01*
X111324720Y-140998336D01*
X111315952Y-141010159D01*
X111306066Y-141021066D01*
X111295159Y-141030952D01*
X111283336Y-141039720D01*
X111270710Y-141047288D01*
X111257403Y-141053582D01*
X111243543Y-141058541D01*
X111229264Y-141062118D01*
X111214703Y-141064278D01*
X111200000Y-141065000D01*
X109550000Y-141065000D01*
X109535297Y-141064278D01*
X109520736Y-141062118D01*
X109506457Y-141058541D01*
X109492597Y-141053582D01*
X109479290Y-141047288D01*
X109466664Y-141039720D01*
X109454841Y-141030952D01*
X109443934Y-141021066D01*
X109434048Y-141010159D01*
X109425280Y-140998336D01*
X109417712Y-140985710D01*
X109411418Y-140972403D01*
X109406459Y-140958543D01*
X109402882Y-140944264D01*
X109400722Y-140929703D01*
X109400000Y-140915000D01*
X109400000Y-140615000D01*
X109400722Y-140600297D01*
X109402882Y-140585736D01*
X109406459Y-140571457D01*
X109411418Y-140557597D01*
X109417712Y-140544290D01*
X109425280Y-140531664D01*
X109434048Y-140519841D01*
X109443934Y-140508934D01*
X109454841Y-140499048D01*
X109466664Y-140490280D01*
X109479290Y-140482712D01*
X109492597Y-140476418D01*
X109506457Y-140471459D01*
X109520736Y-140467882D01*
X109535297Y-140465722D01*
X109550000Y-140465000D01*
X111200000Y-140465000D01*
X111214703Y-140465722D01*
X111214703Y-140465722D01*
G37*
D12*
X110375000Y-140765000D03*
D10*
G36*
X111214703Y-141735722D02*
G01*
X111229264Y-141737882D01*
X111243543Y-141741459D01*
X111257403Y-141746418D01*
X111270710Y-141752712D01*
X111283336Y-141760280D01*
X111295159Y-141769048D01*
X111306066Y-141778934D01*
X111315952Y-141789841D01*
X111324720Y-141801664D01*
X111332288Y-141814290D01*
X111338582Y-141827597D01*
X111343541Y-141841457D01*
X111347118Y-141855736D01*
X111349278Y-141870297D01*
X111350000Y-141885000D01*
X111350000Y-142185000D01*
X111349278Y-142199703D01*
X111347118Y-142214264D01*
X111343541Y-142228543D01*
X111338582Y-142242403D01*
X111332288Y-142255710D01*
X111324720Y-142268336D01*
X111315952Y-142280159D01*
X111306066Y-142291066D01*
X111295159Y-142300952D01*
X111283336Y-142309720D01*
X111270710Y-142317288D01*
X111257403Y-142323582D01*
X111243543Y-142328541D01*
X111229264Y-142332118D01*
X111214703Y-142334278D01*
X111200000Y-142335000D01*
X109550000Y-142335000D01*
X109535297Y-142334278D01*
X109520736Y-142332118D01*
X109506457Y-142328541D01*
X109492597Y-142323582D01*
X109479290Y-142317288D01*
X109466664Y-142309720D01*
X109454841Y-142300952D01*
X109443934Y-142291066D01*
X109434048Y-142280159D01*
X109425280Y-142268336D01*
X109417712Y-142255710D01*
X109411418Y-142242403D01*
X109406459Y-142228543D01*
X109402882Y-142214264D01*
X109400722Y-142199703D01*
X109400000Y-142185000D01*
X109400000Y-141885000D01*
X109400722Y-141870297D01*
X109402882Y-141855736D01*
X109406459Y-141841457D01*
X109411418Y-141827597D01*
X109417712Y-141814290D01*
X109425280Y-141801664D01*
X109434048Y-141789841D01*
X109443934Y-141778934D01*
X109454841Y-141769048D01*
X109466664Y-141760280D01*
X109479290Y-141752712D01*
X109492597Y-141746418D01*
X109506457Y-141741459D01*
X109520736Y-141737882D01*
X109535297Y-141735722D01*
X109550000Y-141735000D01*
X111200000Y-141735000D01*
X111214703Y-141735722D01*
X111214703Y-141735722D01*
G37*
D12*
X110375000Y-142035000D03*
D10*
G36*
X111214703Y-143005722D02*
G01*
X111229264Y-143007882D01*
X111243543Y-143011459D01*
X111257403Y-143016418D01*
X111270710Y-143022712D01*
X111283336Y-143030280D01*
X111295159Y-143039048D01*
X111306066Y-143048934D01*
X111315952Y-143059841D01*
X111324720Y-143071664D01*
X111332288Y-143084290D01*
X111338582Y-143097597D01*
X111343541Y-143111457D01*
X111347118Y-143125736D01*
X111349278Y-143140297D01*
X111350000Y-143155000D01*
X111350000Y-143455000D01*
X111349278Y-143469703D01*
X111347118Y-143484264D01*
X111343541Y-143498543D01*
X111338582Y-143512403D01*
X111332288Y-143525710D01*
X111324720Y-143538336D01*
X111315952Y-143550159D01*
X111306066Y-143561066D01*
X111295159Y-143570952D01*
X111283336Y-143579720D01*
X111270710Y-143587288D01*
X111257403Y-143593582D01*
X111243543Y-143598541D01*
X111229264Y-143602118D01*
X111214703Y-143604278D01*
X111200000Y-143605000D01*
X109550000Y-143605000D01*
X109535297Y-143604278D01*
X109520736Y-143602118D01*
X109506457Y-143598541D01*
X109492597Y-143593582D01*
X109479290Y-143587288D01*
X109466664Y-143579720D01*
X109454841Y-143570952D01*
X109443934Y-143561066D01*
X109434048Y-143550159D01*
X109425280Y-143538336D01*
X109417712Y-143525710D01*
X109411418Y-143512403D01*
X109406459Y-143498543D01*
X109402882Y-143484264D01*
X109400722Y-143469703D01*
X109400000Y-143455000D01*
X109400000Y-143155000D01*
X109400722Y-143140297D01*
X109402882Y-143125736D01*
X109406459Y-143111457D01*
X109411418Y-143097597D01*
X109417712Y-143084290D01*
X109425280Y-143071664D01*
X109434048Y-143059841D01*
X109443934Y-143048934D01*
X109454841Y-143039048D01*
X109466664Y-143030280D01*
X109479290Y-143022712D01*
X109492597Y-143016418D01*
X109506457Y-143011459D01*
X109520736Y-143007882D01*
X109535297Y-143005722D01*
X109550000Y-143005000D01*
X111200000Y-143005000D01*
X111214703Y-143005722D01*
X111214703Y-143005722D01*
G37*
D12*
X110375000Y-143305000D03*
D13*
X111000000Y-150000000D03*
X109000000Y-150000000D03*
X107000000Y-150000000D03*
X105000000Y-150000000D03*
D10*
G36*
X111397691Y-136308553D02*
G01*
X111418926Y-136311703D01*
X111439750Y-136316919D01*
X111459962Y-136324151D01*
X111479368Y-136333330D01*
X111497781Y-136344366D01*
X111515024Y-136357154D01*
X111530930Y-136371570D01*
X111545346Y-136387476D01*
X111558134Y-136404719D01*
X111569170Y-136423132D01*
X111578349Y-136442538D01*
X111585581Y-136462750D01*
X111590797Y-136483574D01*
X111593947Y-136504809D01*
X111595000Y-136526250D01*
X111595000Y-136963750D01*
X111593947Y-136985191D01*
X111590797Y-137006426D01*
X111585581Y-137027250D01*
X111578349Y-137047462D01*
X111569170Y-137066868D01*
X111558134Y-137085281D01*
X111545346Y-137102524D01*
X111530930Y-137118430D01*
X111515024Y-137132846D01*
X111497781Y-137145634D01*
X111479368Y-137156670D01*
X111459962Y-137165849D01*
X111439750Y-137173081D01*
X111418926Y-137178297D01*
X111397691Y-137181447D01*
X111376250Y-137182500D01*
X110863750Y-137182500D01*
X110842309Y-137181447D01*
X110821074Y-137178297D01*
X110800250Y-137173081D01*
X110780038Y-137165849D01*
X110760632Y-137156670D01*
X110742219Y-137145634D01*
X110724976Y-137132846D01*
X110709070Y-137118430D01*
X110694654Y-137102524D01*
X110681866Y-137085281D01*
X110670830Y-137066868D01*
X110661651Y-137047462D01*
X110654419Y-137027250D01*
X110649203Y-137006426D01*
X110646053Y-136985191D01*
X110645000Y-136963750D01*
X110645000Y-136526250D01*
X110646053Y-136504809D01*
X110649203Y-136483574D01*
X110654419Y-136462750D01*
X110661651Y-136442538D01*
X110670830Y-136423132D01*
X110681866Y-136404719D01*
X110694654Y-136387476D01*
X110709070Y-136371570D01*
X110724976Y-136357154D01*
X110742219Y-136344366D01*
X110760632Y-136333330D01*
X110780038Y-136324151D01*
X110800250Y-136316919D01*
X110821074Y-136311703D01*
X110842309Y-136308553D01*
X110863750Y-136307500D01*
X111376250Y-136307500D01*
X111397691Y-136308553D01*
X111397691Y-136308553D01*
G37*
D11*
X111120000Y-136745000D03*
D10*
G36*
X111397691Y-134733553D02*
G01*
X111418926Y-134736703D01*
X111439750Y-134741919D01*
X111459962Y-134749151D01*
X111479368Y-134758330D01*
X111497781Y-134769366D01*
X111515024Y-134782154D01*
X111530930Y-134796570D01*
X111545346Y-134812476D01*
X111558134Y-134829719D01*
X111569170Y-134848132D01*
X111578349Y-134867538D01*
X111585581Y-134887750D01*
X111590797Y-134908574D01*
X111593947Y-134929809D01*
X111595000Y-134951250D01*
X111595000Y-135388750D01*
X111593947Y-135410191D01*
X111590797Y-135431426D01*
X111585581Y-135452250D01*
X111578349Y-135472462D01*
X111569170Y-135491868D01*
X111558134Y-135510281D01*
X111545346Y-135527524D01*
X111530930Y-135543430D01*
X111515024Y-135557846D01*
X111497781Y-135570634D01*
X111479368Y-135581670D01*
X111459962Y-135590849D01*
X111439750Y-135598081D01*
X111418926Y-135603297D01*
X111397691Y-135606447D01*
X111376250Y-135607500D01*
X110863750Y-135607500D01*
X110842309Y-135606447D01*
X110821074Y-135603297D01*
X110800250Y-135598081D01*
X110780038Y-135590849D01*
X110760632Y-135581670D01*
X110742219Y-135570634D01*
X110724976Y-135557846D01*
X110709070Y-135543430D01*
X110694654Y-135527524D01*
X110681866Y-135510281D01*
X110670830Y-135491868D01*
X110661651Y-135472462D01*
X110654419Y-135452250D01*
X110649203Y-135431426D01*
X110646053Y-135410191D01*
X110645000Y-135388750D01*
X110645000Y-134951250D01*
X110646053Y-134929809D01*
X110649203Y-134908574D01*
X110654419Y-134887750D01*
X110661651Y-134867538D01*
X110670830Y-134848132D01*
X110681866Y-134829719D01*
X110694654Y-134812476D01*
X110709070Y-134796570D01*
X110724976Y-134782154D01*
X110742219Y-134769366D01*
X110760632Y-134758330D01*
X110780038Y-134749151D01*
X110800250Y-134741919D01*
X110821074Y-134736703D01*
X110842309Y-134733553D01*
X110863750Y-134732500D01*
X111376250Y-134732500D01*
X111397691Y-134733553D01*
X111397691Y-134733553D01*
G37*
D11*
X111120000Y-135170000D03*
M02*
