M48
; DRILL file {KiCad (5.1.2)-1} date 2020/01/01 10:54:41
; FORMAT={-:-/ absolute / metric / decimal}
; #@! TF.CreationDate,2020-01-01T10:54:41+09:00
; #@! TF.GenerationSoftware,Kicad,Pcbnew,(5.1.2)-1
FMAT,2
METRIC
T1C0.400
T2C0.500
T3C0.550
T4C0.762
T5C1.000
%
G90
G05
T1
X101.302Y-138.953
X102.27Y-144.804
X103.259Y-143.512
X106.415Y-132.3
X107.322Y-144.226
X107.526Y-141.829
X108.0Y-133.736
X108.784Y-139.552
X109.104Y-133.977
X109.197Y-147.011
X110.197Y-147.306
X111.205Y-147.334
X111.994Y-137.886
X113.064Y-150.708
X114.727Y-141.773
X115.467Y-140.995
T4
X105.0Y-150.0
X107.0Y-150.0
X109.0Y-150.0
X111.0Y-150.0
T5
X99.06Y-129.54
X99.06Y-132.08
X99.06Y-134.62
X99.06Y-137.16
X99.06Y-139.7
X99.06Y-142.24
X99.06Y-144.78
X99.06Y-147.32
X99.06Y-149.86
X116.84Y-129.54
X116.84Y-132.08
X116.84Y-134.62
X116.84Y-137.16
X116.84Y-139.7
X116.84Y-142.24
X116.84Y-144.78
X116.84Y-147.32
X116.84Y-149.86
T2
G00X104.5Y-128.325
M15
G01X104.5Y-127.675
M16
G05
G00X111.5Y-128.325
M15
G01X111.5Y-127.675
M16
G05
T3
G00X105.65Y-130.7
M15
G01X105.35Y-130.7
M16
G05
G00X110.65Y-130.7
M15
G01X110.35Y-130.7
M16
G05
T0
M30
