G04 #@! TF.GenerationSoftware,KiCad,Pcbnew,(5.1.2)-1*
G04 #@! TF.CreationDate,2020-01-01T10:54:38+09:00*
G04 #@! TF.ProjectId,converter,636f6e76-6572-4746-9572-2e6b69636164,v1.0*
G04 #@! TF.SameCoordinates,Original*
G04 #@! TF.FileFunction,Legend,Top*
G04 #@! TF.FilePolarity,Positive*
%FSLAX46Y46*%
G04 Gerber Fmt 4.6, Leading zero omitted, Abs format (unit mm)*
G04 Created by KiCad (PCBNEW (5.1.2)-1) date 2020-01-01 10:54:38*
%MOMM*%
%LPD*%
G04 APERTURE LIST*
%ADD10C,0.150000*%
%ADD11C,0.120000*%
%ADD12C,0.300000*%
G04 APERTURE END LIST*
D10*
X114361904Y-138980952D02*
X114361904Y-138485714D01*
X114666666Y-138752380D01*
X114666666Y-138638095D01*
X114704761Y-138561904D01*
X114742857Y-138523809D01*
X114819047Y-138485714D01*
X115009523Y-138485714D01*
X115085714Y-138523809D01*
X115123809Y-138561904D01*
X115161904Y-138638095D01*
X115161904Y-138866666D01*
X115123809Y-138942857D01*
X115085714Y-138980952D01*
X115085714Y-138142857D02*
X115123809Y-138104761D01*
X115161904Y-138142857D01*
X115123809Y-138180952D01*
X115085714Y-138142857D01*
X115161904Y-138142857D01*
X114361904Y-137838095D02*
X114361904Y-137342857D01*
X114666666Y-137609523D01*
X114666666Y-137495238D01*
X114704761Y-137419047D01*
X114742857Y-137380952D01*
X114819047Y-137342857D01*
X115009523Y-137342857D01*
X115085714Y-137380952D01*
X115123809Y-137419047D01*
X115161904Y-137495238D01*
X115161904Y-137723809D01*
X115123809Y-137800000D01*
X115085714Y-137838095D01*
X114361904Y-137114285D02*
X115161904Y-136847619D01*
X114361904Y-136580952D01*
X114361904Y-135352380D02*
X114361904Y-135733333D01*
X114742857Y-135771428D01*
X114704761Y-135733333D01*
X114666666Y-135657142D01*
X114666666Y-135466666D01*
X114704761Y-135390476D01*
X114742857Y-135352380D01*
X114819047Y-135314285D01*
X115009523Y-135314285D01*
X115085714Y-135352380D01*
X115123809Y-135390476D01*
X115161904Y-135466666D01*
X115161904Y-135657142D01*
X115123809Y-135733333D01*
X115085714Y-135771428D01*
X114361904Y-135085714D02*
X115161904Y-134819047D01*
X114361904Y-134552380D01*
D11*
X101090000Y-136103422D02*
X101090000Y-136620578D01*
X102510000Y-136103422D02*
X102510000Y-136620578D01*
X106625221Y-138590000D02*
X106950779Y-138590000D01*
X106625221Y-139610000D02*
X106950779Y-139610000D01*
X108710000Y-136203422D02*
X108710000Y-136720578D01*
X107290000Y-136203422D02*
X107290000Y-136720578D01*
X101065000Y-128488000D02*
X101065000Y-130773000D01*
X101065000Y-130773000D02*
X102535000Y-130773000D01*
X102535000Y-130773000D02*
X102535000Y-128488000D01*
D12*
X103500000Y-132000000D02*
X103500000Y-127000000D01*
X112500000Y-132000000D02*
X103500000Y-132000000D01*
X112500000Y-131500000D02*
X112500000Y-132000000D01*
X112500000Y-127000000D02*
X112500000Y-131500000D01*
D10*
X109750000Y-132500000D02*
X109000000Y-132500000D01*
D11*
X114610000Y-131250779D02*
X114610000Y-130925221D01*
X113590000Y-131250779D02*
X113590000Y-130925221D01*
X102310000Y-132325221D02*
X102310000Y-132650779D01*
X101290000Y-132325221D02*
X101290000Y-132650779D01*
X104000000Y-138010000D02*
X105800000Y-138010000D01*
X105800000Y-134790000D02*
X103350000Y-134790000D01*
D10*
X106000000Y-148500000D02*
X106000000Y-149000000D01*
X106000000Y-149000000D02*
X110000000Y-149000000D01*
X110000000Y-149000000D02*
X110000000Y-148500000D01*
X108000000Y-148500000D02*
X112500000Y-148500000D01*
X112500000Y-148500000D02*
X112500000Y-151500000D01*
X112500000Y-151500000D02*
X103500000Y-151500000D01*
X103500000Y-151500000D02*
X103500000Y-148500000D01*
X103500000Y-148500000D02*
X108000000Y-148500000D01*
D11*
X99060000Y-128210000D02*
X100390000Y-128210000D01*
X100390000Y-128210000D02*
X100390000Y-129540000D01*
X100390000Y-130810000D02*
X100390000Y-151190000D01*
X97730000Y-151190000D02*
X100390000Y-151190000D01*
X97730000Y-130810000D02*
X97730000Y-151190000D01*
X97730000Y-130810000D02*
X100390000Y-130810000D01*
X118170000Y-148590000D02*
X115510000Y-148590000D01*
X118170000Y-148590000D02*
X118170000Y-128210000D01*
X118170000Y-128210000D02*
X115510000Y-128210000D01*
X115510000Y-148590000D02*
X115510000Y-128210000D01*
X115510000Y-151190000D02*
X115510000Y-149860000D01*
X116840000Y-151190000D02*
X115510000Y-151190000D01*
X102710000Y-147849221D02*
X102710000Y-148174779D01*
X101690000Y-147849221D02*
X101690000Y-148174779D01*
X114510000Y-148124721D02*
X114510000Y-148450279D01*
X113490000Y-148124721D02*
X113490000Y-148450279D01*
D10*
X106700000Y-146825000D02*
X111100000Y-146825000D01*
X105125000Y-141300000D02*
X111100000Y-141300000D01*
D11*
X113490000Y-143650779D02*
X113490000Y-143325221D01*
X114510000Y-143650779D02*
X114510000Y-143325221D01*
D10*
X102577142Y-139952857D02*
X102624761Y-140000476D01*
X102672380Y-140143333D01*
X102672380Y-140238571D01*
X102624761Y-140381428D01*
X102529523Y-140476666D01*
X102434285Y-140524285D01*
X102243809Y-140571904D01*
X102100952Y-140571904D01*
X101910476Y-140524285D01*
X101815238Y-140476666D01*
X101720000Y-140381428D01*
X101672380Y-140238571D01*
X101672380Y-140143333D01*
X101720000Y-140000476D01*
X101767619Y-139952857D01*
X102672380Y-139000476D02*
X102672380Y-139571904D01*
X102672380Y-139286190D02*
X101672380Y-139286190D01*
X101815238Y-139381428D01*
X101910476Y-139476666D01*
X101958095Y-139571904D01*
X101672380Y-138381428D02*
X101672380Y-138286190D01*
X101720000Y-138190952D01*
X101767619Y-138143333D01*
X101862857Y-138095714D01*
X102053333Y-138048095D01*
X102291428Y-138048095D01*
X102481904Y-138095714D01*
X102577142Y-138143333D01*
X102624761Y-138190952D01*
X102672380Y-138286190D01*
X102672380Y-138381428D01*
X102624761Y-138476666D01*
X102577142Y-138524285D01*
X102481904Y-138571904D01*
X102291428Y-138619523D01*
X102053333Y-138619523D01*
X101862857Y-138571904D01*
X101767619Y-138524285D01*
X101720000Y-138476666D01*
X101672380Y-138381428D01*
X106127142Y-140727142D02*
X106079523Y-140774761D01*
X105936666Y-140822380D01*
X105841428Y-140822380D01*
X105698571Y-140774761D01*
X105603333Y-140679523D01*
X105555714Y-140584285D01*
X105508095Y-140393809D01*
X105508095Y-140250952D01*
X105555714Y-140060476D01*
X105603333Y-139965238D01*
X105698571Y-139870000D01*
X105841428Y-139822380D01*
X105936666Y-139822380D01*
X106079523Y-139870000D01*
X106127142Y-139917619D01*
X107079523Y-140822380D02*
X106508095Y-140822380D01*
X106793809Y-140822380D02*
X106793809Y-139822380D01*
X106698571Y-139965238D01*
X106603333Y-140060476D01*
X106508095Y-140108095D01*
X108031904Y-140822380D02*
X107460476Y-140822380D01*
X107746190Y-140822380D02*
X107746190Y-139822380D01*
X107650952Y-139965238D01*
X107555714Y-140060476D01*
X107460476Y-140108095D01*
X109727142Y-137132857D02*
X109774761Y-137180476D01*
X109822380Y-137323333D01*
X109822380Y-137418571D01*
X109774761Y-137561428D01*
X109679523Y-137656666D01*
X109584285Y-137704285D01*
X109393809Y-137751904D01*
X109250952Y-137751904D01*
X109060476Y-137704285D01*
X108965238Y-137656666D01*
X108870000Y-137561428D01*
X108822380Y-137418571D01*
X108822380Y-137323333D01*
X108870000Y-137180476D01*
X108917619Y-137132857D01*
X109822380Y-136180476D02*
X109822380Y-136751904D01*
X109822380Y-136466190D02*
X108822380Y-136466190D01*
X108965238Y-136561428D01*
X109060476Y-136656666D01*
X109108095Y-136751904D01*
X108917619Y-135799523D02*
X108870000Y-135751904D01*
X108822380Y-135656666D01*
X108822380Y-135418571D01*
X108870000Y-135323333D01*
X108917619Y-135275714D01*
X109012857Y-135228095D01*
X109108095Y-135228095D01*
X109250952Y-135275714D01*
X109822380Y-135847142D01*
X109822380Y-135228095D01*
X101061904Y-127552880D02*
X101061904Y-126552880D01*
X101300000Y-126552880D01*
X101442857Y-126600500D01*
X101538095Y-126695738D01*
X101585714Y-126790976D01*
X101633333Y-126981452D01*
X101633333Y-127124309D01*
X101585714Y-127314785D01*
X101538095Y-127410023D01*
X101442857Y-127505261D01*
X101300000Y-127552880D01*
X101061904Y-127552880D01*
X102585714Y-127552880D02*
X102014285Y-127552880D01*
X102300000Y-127552880D02*
X102300000Y-126552880D01*
X102204761Y-126695738D01*
X102109523Y-126790976D01*
X102014285Y-126838595D01*
X107352380Y-128361904D02*
X107352380Y-127561904D01*
X107619047Y-128133333D01*
X107885714Y-127561904D01*
X107885714Y-128361904D01*
X108685714Y-128361904D02*
X108228571Y-128361904D01*
X108457142Y-128361904D02*
X108457142Y-127561904D01*
X108380952Y-127676190D01*
X108304761Y-127752380D01*
X108228571Y-127790476D01*
X114452380Y-129219547D02*
X113452380Y-129219547D01*
X113452380Y-128838595D01*
X113500000Y-128743357D01*
X113547619Y-128695738D01*
X113642857Y-128648119D01*
X113785714Y-128648119D01*
X113880952Y-128695738D01*
X113928571Y-128743357D01*
X113976190Y-128838595D01*
X113976190Y-129219547D01*
X113452380Y-128362404D02*
X113452380Y-127790976D01*
X114452380Y-128076690D02*
X113452380Y-128076690D01*
X114452380Y-126933833D02*
X114452380Y-127505261D01*
X114452380Y-127219547D02*
X113452380Y-127219547D01*
X113595238Y-127314785D01*
X113690476Y-127410023D01*
X113738095Y-127505261D01*
X103652380Y-133336666D02*
X103176190Y-133670000D01*
X103652380Y-133908095D02*
X102652380Y-133908095D01*
X102652380Y-133527142D01*
X102700000Y-133431904D01*
X102747619Y-133384285D01*
X102842857Y-133336666D01*
X102985714Y-133336666D01*
X103080952Y-133384285D01*
X103128571Y-133431904D01*
X103176190Y-133527142D01*
X103176190Y-133908095D01*
X102747619Y-132955714D02*
X102700000Y-132908095D01*
X102652380Y-132812857D01*
X102652380Y-132574761D01*
X102700000Y-132479523D01*
X102747619Y-132431904D01*
X102842857Y-132384285D01*
X102938095Y-132384285D01*
X103080952Y-132431904D01*
X103652380Y-133003333D01*
X103652380Y-132384285D01*
X104438095Y-133352380D02*
X104438095Y-134161904D01*
X104485714Y-134257142D01*
X104533333Y-134304761D01*
X104628571Y-134352380D01*
X104819047Y-134352380D01*
X104914285Y-134304761D01*
X104961904Y-134257142D01*
X105009523Y-134161904D01*
X105009523Y-133352380D01*
X106009523Y-134352380D02*
X105438095Y-134352380D01*
X105723809Y-134352380D02*
X105723809Y-133352380D01*
X105628571Y-133495238D01*
X105533333Y-133590476D01*
X105438095Y-133638095D01*
X111309523Y-148157142D02*
X111261904Y-148204761D01*
X111119047Y-148252380D01*
X111023809Y-148252380D01*
X110880952Y-148204761D01*
X110785714Y-148109523D01*
X110738095Y-148014285D01*
X110690476Y-147823809D01*
X110690476Y-147680952D01*
X110738095Y-147490476D01*
X110785714Y-147395238D01*
X110880952Y-147300000D01*
X111023809Y-147252380D01*
X111119047Y-147252380D01*
X111261904Y-147300000D01*
X111309523Y-147347619D01*
X108738095Y-148252380D02*
X108738095Y-147252380D01*
X108976190Y-147252380D01*
X109119047Y-147300000D01*
X109214285Y-147395238D01*
X109261904Y-147490476D01*
X109309523Y-147680952D01*
X109309523Y-147823809D01*
X109261904Y-148014285D01*
X109214285Y-148109523D01*
X109119047Y-148204761D01*
X108976190Y-148252380D01*
X108738095Y-148252380D01*
X106666666Y-147252380D02*
X107000000Y-148252380D01*
X107333333Y-147252380D01*
X105261904Y-147300000D02*
X105166666Y-147252380D01*
X105023809Y-147252380D01*
X104880952Y-147300000D01*
X104785714Y-147395238D01*
X104738095Y-147490476D01*
X104690476Y-147680952D01*
X104690476Y-147823809D01*
X104738095Y-148014285D01*
X104785714Y-148109523D01*
X104880952Y-148204761D01*
X105023809Y-148252380D01*
X105119047Y-148252380D01*
X105261904Y-148204761D01*
X105309523Y-148157142D01*
X105309523Y-147823809D01*
X105119047Y-147823809D01*
X102652380Y-150766666D02*
X102176190Y-151100000D01*
X102652380Y-151338095D02*
X101652380Y-151338095D01*
X101652380Y-150957142D01*
X101700000Y-150861904D01*
X101747619Y-150814285D01*
X101842857Y-150766666D01*
X101985714Y-150766666D01*
X102080952Y-150814285D01*
X102128571Y-150861904D01*
X102176190Y-150957142D01*
X102176190Y-151338095D01*
X102080952Y-150195238D02*
X102033333Y-150290476D01*
X101985714Y-150338095D01*
X101890476Y-150385714D01*
X101842857Y-150385714D01*
X101747619Y-150338095D01*
X101700000Y-150290476D01*
X101652380Y-150195238D01*
X101652380Y-150004761D01*
X101700000Y-149909523D01*
X101747619Y-149861904D01*
X101842857Y-149814285D01*
X101890476Y-149814285D01*
X101985714Y-149861904D01*
X102033333Y-149909523D01*
X102080952Y-150004761D01*
X102080952Y-150195238D01*
X102128571Y-150290476D01*
X102176190Y-150338095D01*
X102271428Y-150385714D01*
X102461904Y-150385714D01*
X102557142Y-150338095D01*
X102604761Y-150290476D01*
X102652380Y-150195238D01*
X102652380Y-150004761D01*
X102604761Y-149909523D01*
X102557142Y-149861904D01*
X102461904Y-149814285D01*
X102271428Y-149814285D01*
X102176190Y-149861904D01*
X102128571Y-149909523D01*
X102080952Y-150004761D01*
X114552380Y-150766166D02*
X114076190Y-151099500D01*
X114552380Y-151337595D02*
X113552380Y-151337595D01*
X113552380Y-150956642D01*
X113600000Y-150861404D01*
X113647619Y-150813785D01*
X113742857Y-150766166D01*
X113885714Y-150766166D01*
X113980952Y-150813785D01*
X114028571Y-150861404D01*
X114076190Y-150956642D01*
X114076190Y-151337595D01*
X114552380Y-150289976D02*
X114552380Y-150099500D01*
X114504761Y-150004261D01*
X114457142Y-149956642D01*
X114314285Y-149861404D01*
X114123809Y-149813785D01*
X113742857Y-149813785D01*
X113647619Y-149861404D01*
X113600000Y-149909023D01*
X113552380Y-150004261D01*
X113552380Y-150194738D01*
X113600000Y-150289976D01*
X113647619Y-150337595D01*
X113742857Y-150385214D01*
X113980952Y-150385214D01*
X114076190Y-150337595D01*
X114123809Y-150289976D01*
X114171428Y-150194738D01*
X114171428Y-150004261D01*
X114123809Y-149909023D01*
X114076190Y-149861404D01*
X113980952Y-149813785D01*
X110746666Y-140734761D02*
X110889523Y-140782380D01*
X111127619Y-140782380D01*
X111222857Y-140734761D01*
X111270476Y-140687142D01*
X111318095Y-140591904D01*
X111318095Y-140496666D01*
X111270476Y-140401428D01*
X111222857Y-140353809D01*
X111127619Y-140306190D01*
X110937142Y-140258571D01*
X110841904Y-140210952D01*
X110794285Y-140163333D01*
X110746666Y-140068095D01*
X110746666Y-139972857D01*
X110794285Y-139877619D01*
X110841904Y-139830000D01*
X110937142Y-139782380D01*
X111175238Y-139782380D01*
X111318095Y-139830000D01*
X111651428Y-139782380D02*
X111889523Y-140782380D01*
X112080000Y-140068095D01*
X112270476Y-140782380D01*
X112508571Y-139782380D01*
X113413333Y-140782380D02*
X112841904Y-140782380D01*
X113127619Y-140782380D02*
X113127619Y-139782380D01*
X113032380Y-139925238D01*
X112937142Y-140020476D01*
X112841904Y-140068095D01*
X108588095Y-140142380D02*
X108588095Y-140951904D01*
X108635714Y-141047142D01*
X108683333Y-141094761D01*
X108778571Y-141142380D01*
X108969047Y-141142380D01*
X109064285Y-141094761D01*
X109111904Y-141047142D01*
X109159523Y-140951904D01*
X109159523Y-140142380D01*
X109540476Y-140142380D02*
X110159523Y-140142380D01*
X109826190Y-140523333D01*
X109969047Y-140523333D01*
X110064285Y-140570952D01*
X110111904Y-140618571D01*
X110159523Y-140713809D01*
X110159523Y-140951904D01*
X110111904Y-141047142D01*
X110064285Y-141094761D01*
X109969047Y-141142380D01*
X109683333Y-141142380D01*
X109588095Y-141094761D01*
X109540476Y-141047142D01*
X114357142Y-146066666D02*
X114404761Y-146114285D01*
X114452380Y-146257142D01*
X114452380Y-146352380D01*
X114404761Y-146495238D01*
X114309523Y-146590476D01*
X114214285Y-146638095D01*
X114023809Y-146685714D01*
X113880952Y-146685714D01*
X113690476Y-146638095D01*
X113595238Y-146590476D01*
X113500000Y-146495238D01*
X113452380Y-146352380D01*
X113452380Y-146257142D01*
X113500000Y-146114285D01*
X113547619Y-146066666D01*
X113785714Y-145209523D02*
X114452380Y-145209523D01*
X113404761Y-145447619D02*
X114119047Y-145685714D01*
X114119047Y-145066666D01*
M02*
