G04 #@! TF.GenerationSoftware,KiCad,Pcbnew,(5.1.2)-1*
G04 #@! TF.CreationDate,2020-01-01T10:54:38+09:00*
G04 #@! TF.ProjectId,converter,636f6e76-6572-4746-9572-2e6b69636164,v1.0*
G04 #@! TF.SameCoordinates,Original*
G04 #@! TF.FileFunction,Soldermask,Top*
G04 #@! TF.FilePolarity,Negative*
%FSLAX46Y46*%
G04 Gerber Fmt 4.6, Leading zero omitted, Abs format (unit mm)*
G04 Created by KiCad (PCBNEW (5.1.2)-1) date 2020-01-01 10:54:38*
%MOMM*%
%LPD*%
G04 APERTURE LIST*
%ADD10C,0.100000*%
G04 APERTURE END LIST*
D10*
G36*
X111159376Y-149060764D02*
G01*
X111312525Y-149107221D01*
X111312630Y-149107253D01*
X111453863Y-149182744D01*
X111577659Y-149284341D01*
X111679256Y-149408137D01*
X111754747Y-149549370D01*
X111754748Y-149549373D01*
X111801236Y-149702625D01*
X111813000Y-149822068D01*
X111813000Y-150177933D01*
X111801236Y-150297376D01*
X111781332Y-150362991D01*
X111754747Y-150450630D01*
X111679256Y-150591863D01*
X111577659Y-150715659D01*
X111453863Y-150817256D01*
X111312629Y-150892747D01*
X111312626Y-150892748D01*
X111159375Y-150939236D01*
X111000000Y-150954933D01*
X110840624Y-150939236D01*
X110687373Y-150892748D01*
X110687370Y-150892747D01*
X110546137Y-150817256D01*
X110422341Y-150715659D01*
X110320744Y-150591863D01*
X110245253Y-150450629D01*
X110245252Y-150450626D01*
X110198764Y-150297375D01*
X110190921Y-150217746D01*
X110187000Y-150177933D01*
X110187000Y-149822066D01*
X110198764Y-149702626D01*
X110198764Y-149702624D01*
X110245252Y-149549373D01*
X110245253Y-149549370D01*
X110320744Y-149408137D01*
X110422341Y-149284341D01*
X110546137Y-149182744D01*
X110687371Y-149107253D01*
X110687476Y-149107221D01*
X110840625Y-149060764D01*
X111000000Y-149045067D01*
X111159376Y-149060764D01*
X111159376Y-149060764D01*
G37*
G36*
X107159376Y-149060764D02*
G01*
X107312525Y-149107221D01*
X107312630Y-149107253D01*
X107453863Y-149182744D01*
X107577659Y-149284341D01*
X107679256Y-149408137D01*
X107754747Y-149549370D01*
X107754748Y-149549373D01*
X107801236Y-149702625D01*
X107813000Y-149822068D01*
X107813000Y-150177933D01*
X107801236Y-150297376D01*
X107781332Y-150362991D01*
X107754747Y-150450630D01*
X107679256Y-150591863D01*
X107577659Y-150715659D01*
X107453863Y-150817256D01*
X107312629Y-150892747D01*
X107312626Y-150892748D01*
X107159375Y-150939236D01*
X107000000Y-150954933D01*
X106840624Y-150939236D01*
X106687373Y-150892748D01*
X106687370Y-150892747D01*
X106546137Y-150817256D01*
X106422341Y-150715659D01*
X106320744Y-150591863D01*
X106245253Y-150450629D01*
X106245252Y-150450626D01*
X106198764Y-150297375D01*
X106190921Y-150217746D01*
X106187000Y-150177933D01*
X106187000Y-149822066D01*
X106198764Y-149702626D01*
X106198764Y-149702624D01*
X106245252Y-149549373D01*
X106245253Y-149549370D01*
X106320744Y-149408137D01*
X106422341Y-149284341D01*
X106546137Y-149182744D01*
X106687371Y-149107253D01*
X106687476Y-149107221D01*
X106840625Y-149060764D01*
X107000000Y-149045067D01*
X107159376Y-149060764D01*
X107159376Y-149060764D01*
G37*
G36*
X105159376Y-149060764D02*
G01*
X105312525Y-149107221D01*
X105312630Y-149107253D01*
X105453863Y-149182744D01*
X105577659Y-149284341D01*
X105679256Y-149408137D01*
X105754747Y-149549370D01*
X105754748Y-149549373D01*
X105801236Y-149702625D01*
X105813000Y-149822068D01*
X105813000Y-150177933D01*
X105801236Y-150297376D01*
X105781332Y-150362991D01*
X105754747Y-150450630D01*
X105679256Y-150591863D01*
X105577659Y-150715659D01*
X105453863Y-150817256D01*
X105312629Y-150892747D01*
X105312626Y-150892748D01*
X105159375Y-150939236D01*
X105000000Y-150954933D01*
X104840624Y-150939236D01*
X104687373Y-150892748D01*
X104687370Y-150892747D01*
X104546137Y-150817256D01*
X104422341Y-150715659D01*
X104320744Y-150591863D01*
X104245253Y-150450629D01*
X104245252Y-150450626D01*
X104198764Y-150297375D01*
X104190921Y-150217746D01*
X104187000Y-150177933D01*
X104187000Y-149822066D01*
X104198764Y-149702626D01*
X104198764Y-149702624D01*
X104245252Y-149549373D01*
X104245253Y-149549370D01*
X104320744Y-149408137D01*
X104422341Y-149284341D01*
X104546137Y-149182744D01*
X104687371Y-149107253D01*
X104687476Y-149107221D01*
X104840625Y-149060764D01*
X105000000Y-149045067D01*
X105159376Y-149060764D01*
X105159376Y-149060764D01*
G37*
G36*
X109159376Y-149060764D02*
G01*
X109312525Y-149107221D01*
X109312630Y-149107253D01*
X109453863Y-149182744D01*
X109577659Y-149284341D01*
X109679256Y-149408137D01*
X109754747Y-149549370D01*
X109754748Y-149549373D01*
X109801236Y-149702625D01*
X109813000Y-149822068D01*
X109813000Y-150177933D01*
X109801236Y-150297376D01*
X109781332Y-150362991D01*
X109754747Y-150450630D01*
X109679256Y-150591863D01*
X109577659Y-150715659D01*
X109453863Y-150817256D01*
X109312629Y-150892747D01*
X109312626Y-150892748D01*
X109159375Y-150939236D01*
X109000000Y-150954933D01*
X108840624Y-150939236D01*
X108687373Y-150892748D01*
X108687370Y-150892747D01*
X108546137Y-150817256D01*
X108422341Y-150715659D01*
X108320744Y-150591863D01*
X108245253Y-150450629D01*
X108245252Y-150450626D01*
X108198764Y-150297375D01*
X108190921Y-150217746D01*
X108187000Y-150177933D01*
X108187000Y-149822066D01*
X108198764Y-149702626D01*
X108198764Y-149702624D01*
X108245252Y-149549373D01*
X108245253Y-149549370D01*
X108320744Y-149408137D01*
X108422341Y-149284341D01*
X108546137Y-149182744D01*
X108687371Y-149107253D01*
X108687476Y-149107221D01*
X108840625Y-149060764D01*
X109000000Y-149045067D01*
X109159376Y-149060764D01*
X109159376Y-149060764D01*
G37*
G36*
X117741000Y-150761000D02*
G01*
X115939000Y-150761000D01*
X115939000Y-148959000D01*
X117741000Y-148959000D01*
X117741000Y-150761000D01*
X117741000Y-150761000D01*
G37*
G36*
X99170443Y-148965519D02*
G01*
X99236627Y-148972037D01*
X99406466Y-149023557D01*
X99562991Y-149107222D01*
X99598729Y-149136552D01*
X99700186Y-149219814D01*
X99781790Y-149319250D01*
X99812778Y-149357009D01*
X99896443Y-149513534D01*
X99947963Y-149683373D01*
X99965359Y-149860000D01*
X99947963Y-150036627D01*
X99896443Y-150206466D01*
X99812778Y-150362991D01*
X99783448Y-150398729D01*
X99700186Y-150500186D01*
X99598729Y-150583448D01*
X99562991Y-150612778D01*
X99406466Y-150696443D01*
X99236627Y-150747963D01*
X99170443Y-150754481D01*
X99104260Y-150761000D01*
X99015740Y-150761000D01*
X98949557Y-150754481D01*
X98883373Y-150747963D01*
X98713534Y-150696443D01*
X98557009Y-150612778D01*
X98521271Y-150583448D01*
X98419814Y-150500186D01*
X98336552Y-150398729D01*
X98307222Y-150362991D01*
X98223557Y-150206466D01*
X98172037Y-150036627D01*
X98154641Y-149860000D01*
X98172037Y-149683373D01*
X98223557Y-149513534D01*
X98307222Y-149357009D01*
X98338210Y-149319250D01*
X98419814Y-149219814D01*
X98521271Y-149136552D01*
X98557009Y-149107222D01*
X98713534Y-149023557D01*
X98883373Y-148972037D01*
X98949557Y-148965519D01*
X99015740Y-148959000D01*
X99104260Y-148959000D01*
X99170443Y-148965519D01*
X99170443Y-148965519D01*
G37*
G36*
X114379591Y-148590585D02*
G01*
X114413569Y-148600893D01*
X114444890Y-148617634D01*
X114472339Y-148640161D01*
X114494866Y-148667610D01*
X114511607Y-148698931D01*
X114521915Y-148732909D01*
X114526000Y-148774390D01*
X114526000Y-149375610D01*
X114521915Y-149417091D01*
X114511607Y-149451069D01*
X114494866Y-149482390D01*
X114472339Y-149509839D01*
X114444890Y-149532366D01*
X114413569Y-149549107D01*
X114379591Y-149559415D01*
X114338110Y-149563500D01*
X113661890Y-149563500D01*
X113620409Y-149559415D01*
X113586431Y-149549107D01*
X113555110Y-149532366D01*
X113527661Y-149509839D01*
X113505134Y-149482390D01*
X113488393Y-149451069D01*
X113478085Y-149417091D01*
X113474000Y-149375610D01*
X113474000Y-148774390D01*
X113478085Y-148732909D01*
X113488393Y-148698931D01*
X113505134Y-148667610D01*
X113527661Y-148640161D01*
X113555110Y-148617634D01*
X113586431Y-148600893D01*
X113620409Y-148590585D01*
X113661890Y-148586500D01*
X114338110Y-148586500D01*
X114379591Y-148590585D01*
X114379591Y-148590585D01*
G37*
G36*
X102579591Y-148315085D02*
G01*
X102613569Y-148325393D01*
X102644890Y-148342134D01*
X102672339Y-148364661D01*
X102694866Y-148392110D01*
X102711607Y-148423431D01*
X102721915Y-148457409D01*
X102726000Y-148498890D01*
X102726000Y-149100110D01*
X102721915Y-149141591D01*
X102711607Y-149175569D01*
X102694866Y-149206890D01*
X102672339Y-149234339D01*
X102644890Y-149256866D01*
X102613569Y-149273607D01*
X102579591Y-149283915D01*
X102538110Y-149288000D01*
X101861890Y-149288000D01*
X101820409Y-149283915D01*
X101786431Y-149273607D01*
X101755110Y-149256866D01*
X101727661Y-149234339D01*
X101705134Y-149206890D01*
X101688393Y-149175569D01*
X101678085Y-149141591D01*
X101674000Y-149100110D01*
X101674000Y-148498890D01*
X101678085Y-148457409D01*
X101688393Y-148423431D01*
X101705134Y-148392110D01*
X101727661Y-148364661D01*
X101755110Y-148342134D01*
X101786431Y-148325393D01*
X101820409Y-148315085D01*
X101861890Y-148311000D01*
X102538110Y-148311000D01*
X102579591Y-148315085D01*
X102579591Y-148315085D01*
G37*
G36*
X99170442Y-146425518D02*
G01*
X99236627Y-146432037D01*
X99406466Y-146483557D01*
X99562991Y-146567222D01*
X99598729Y-146596552D01*
X99700186Y-146679814D01*
X99780078Y-146777164D01*
X99812778Y-146817009D01*
X99896443Y-146973534D01*
X99947963Y-147143373D01*
X99965359Y-147320000D01*
X99947963Y-147496627D01*
X99906931Y-147631890D01*
X99896442Y-147666468D01*
X99881508Y-147694408D01*
X99812778Y-147822991D01*
X99800690Y-147837720D01*
X99700186Y-147960186D01*
X99598729Y-148043448D01*
X99562991Y-148072778D01*
X99406466Y-148156443D01*
X99236627Y-148207963D01*
X99170442Y-148214482D01*
X99104260Y-148221000D01*
X99015740Y-148221000D01*
X98949558Y-148214482D01*
X98883373Y-148207963D01*
X98713534Y-148156443D01*
X98557009Y-148072778D01*
X98521271Y-148043448D01*
X98419814Y-147960186D01*
X98319310Y-147837720D01*
X98307222Y-147822991D01*
X98238492Y-147694408D01*
X98223558Y-147666468D01*
X98213069Y-147631890D01*
X98172037Y-147496627D01*
X98154641Y-147320000D01*
X98172037Y-147143373D01*
X98223557Y-146973534D01*
X98307222Y-146817009D01*
X98339922Y-146777164D01*
X98419814Y-146679814D01*
X98521271Y-146596552D01*
X98557009Y-146567222D01*
X98713534Y-146483557D01*
X98883373Y-146432037D01*
X98949558Y-146425518D01*
X99015740Y-146419000D01*
X99104260Y-146419000D01*
X99170442Y-146425518D01*
X99170442Y-146425518D01*
G37*
G36*
X116950442Y-146425518D02*
G01*
X117016627Y-146432037D01*
X117186466Y-146483557D01*
X117342991Y-146567222D01*
X117378729Y-146596552D01*
X117480186Y-146679814D01*
X117560078Y-146777164D01*
X117592778Y-146817009D01*
X117676443Y-146973534D01*
X117727963Y-147143373D01*
X117745359Y-147320000D01*
X117727963Y-147496627D01*
X117686931Y-147631890D01*
X117676442Y-147666468D01*
X117661508Y-147694408D01*
X117592778Y-147822991D01*
X117580690Y-147837720D01*
X117480186Y-147960186D01*
X117378729Y-148043448D01*
X117342991Y-148072778D01*
X117186466Y-148156443D01*
X117016627Y-148207963D01*
X116950442Y-148214482D01*
X116884260Y-148221000D01*
X116795740Y-148221000D01*
X116729558Y-148214482D01*
X116663373Y-148207963D01*
X116493534Y-148156443D01*
X116337009Y-148072778D01*
X116301271Y-148043448D01*
X116199814Y-147960186D01*
X116099310Y-147837720D01*
X116087222Y-147822991D01*
X116018492Y-147694408D01*
X116003558Y-147666468D01*
X115993069Y-147631890D01*
X115952037Y-147496627D01*
X115934641Y-147320000D01*
X115952037Y-147143373D01*
X116003557Y-146973534D01*
X116087222Y-146817009D01*
X116119922Y-146777164D01*
X116199814Y-146679814D01*
X116301271Y-146596552D01*
X116337009Y-146567222D01*
X116493534Y-146483557D01*
X116663373Y-146432037D01*
X116729558Y-146425518D01*
X116795740Y-146419000D01*
X116884260Y-146419000D01*
X116950442Y-146425518D01*
X116950442Y-146425518D01*
G37*
G36*
X114379591Y-147015585D02*
G01*
X114413569Y-147025893D01*
X114444890Y-147042634D01*
X114472339Y-147065161D01*
X114494866Y-147092610D01*
X114511607Y-147123931D01*
X114521915Y-147157909D01*
X114526000Y-147199390D01*
X114526000Y-147800610D01*
X114521915Y-147842091D01*
X114511607Y-147876069D01*
X114494866Y-147907390D01*
X114472339Y-147934839D01*
X114444890Y-147957366D01*
X114413569Y-147974107D01*
X114379591Y-147984415D01*
X114338110Y-147988500D01*
X113661890Y-147988500D01*
X113620409Y-147984415D01*
X113586431Y-147974107D01*
X113555110Y-147957366D01*
X113527661Y-147934839D01*
X113505134Y-147907390D01*
X113488393Y-147876069D01*
X113478085Y-147842091D01*
X113474000Y-147800610D01*
X113474000Y-147199390D01*
X113478085Y-147157909D01*
X113488393Y-147123931D01*
X113505134Y-147092610D01*
X113527661Y-147065161D01*
X113555110Y-147042634D01*
X113586431Y-147025893D01*
X113620409Y-147015585D01*
X113661890Y-147011500D01*
X114338110Y-147011500D01*
X114379591Y-147015585D01*
X114379591Y-147015585D01*
G37*
G36*
X102579591Y-146740085D02*
G01*
X102613569Y-146750393D01*
X102644890Y-146767134D01*
X102672339Y-146789661D01*
X102694866Y-146817110D01*
X102711607Y-146848431D01*
X102721915Y-146882409D01*
X102726000Y-146923890D01*
X102726000Y-147525110D01*
X102721915Y-147566591D01*
X102711607Y-147600569D01*
X102694866Y-147631890D01*
X102672339Y-147659339D01*
X102644890Y-147681866D01*
X102613569Y-147698607D01*
X102579591Y-147708915D01*
X102538110Y-147713000D01*
X101861890Y-147713000D01*
X101820409Y-147708915D01*
X101786431Y-147698607D01*
X101755110Y-147681866D01*
X101727661Y-147659339D01*
X101705134Y-147631890D01*
X101688393Y-147600569D01*
X101678085Y-147566591D01*
X101674000Y-147525110D01*
X101674000Y-146923890D01*
X101678085Y-146882409D01*
X101688393Y-146848431D01*
X101705134Y-146817110D01*
X101727661Y-146789661D01*
X101755110Y-146767134D01*
X101786431Y-146750393D01*
X101820409Y-146740085D01*
X101861890Y-146736000D01*
X102538110Y-146736000D01*
X102579591Y-146740085D01*
X102579591Y-146740085D01*
G37*
G36*
X106751000Y-146651000D02*
G01*
X105149000Y-146651000D01*
X105149000Y-141549000D01*
X106751000Y-141549000D01*
X106751000Y-146651000D01*
X106751000Y-146651000D01*
G37*
G36*
X112651000Y-146651000D02*
G01*
X111049000Y-146651000D01*
X111049000Y-141549000D01*
X112651000Y-141549000D01*
X112651000Y-146651000D01*
X112651000Y-146651000D01*
G37*
G36*
X116950443Y-143885519D02*
G01*
X117016627Y-143892037D01*
X117186466Y-143943557D01*
X117186468Y-143943558D01*
X117261379Y-143983599D01*
X117342991Y-144027222D01*
X117371964Y-144051000D01*
X117480186Y-144139814D01*
X117563448Y-144241271D01*
X117592778Y-144277009D01*
X117676443Y-144433534D01*
X117727963Y-144603373D01*
X117745359Y-144780000D01*
X117727963Y-144956627D01*
X117676443Y-145126466D01*
X117592778Y-145282991D01*
X117563448Y-145318729D01*
X117480186Y-145420186D01*
X117378729Y-145503448D01*
X117342991Y-145532778D01*
X117186466Y-145616443D01*
X117016627Y-145667963D01*
X116950443Y-145674481D01*
X116884260Y-145681000D01*
X116795740Y-145681000D01*
X116729557Y-145674481D01*
X116663373Y-145667963D01*
X116493534Y-145616443D01*
X116337009Y-145532778D01*
X116301271Y-145503448D01*
X116199814Y-145420186D01*
X116116552Y-145318729D01*
X116087222Y-145282991D01*
X116003557Y-145126466D01*
X115952037Y-144956627D01*
X115934641Y-144780000D01*
X115952037Y-144603373D01*
X116003557Y-144433534D01*
X116087222Y-144277009D01*
X116116552Y-144241271D01*
X116199814Y-144139814D01*
X116308036Y-144051000D01*
X116337009Y-144027222D01*
X116418621Y-143983599D01*
X116493532Y-143943558D01*
X116493534Y-143943557D01*
X116663373Y-143892037D01*
X116729557Y-143885519D01*
X116795740Y-143879000D01*
X116884260Y-143879000D01*
X116950443Y-143885519D01*
X116950443Y-143885519D01*
G37*
G36*
X99170443Y-143885519D02*
G01*
X99236627Y-143892037D01*
X99406466Y-143943557D01*
X99406468Y-143943558D01*
X99481379Y-143983599D01*
X99562991Y-144027222D01*
X99591964Y-144051000D01*
X99700186Y-144139814D01*
X99783448Y-144241271D01*
X99812778Y-144277009D01*
X99896443Y-144433534D01*
X99947963Y-144603373D01*
X99965359Y-144780000D01*
X99947963Y-144956627D01*
X99896443Y-145126466D01*
X99812778Y-145282991D01*
X99783448Y-145318729D01*
X99700186Y-145420186D01*
X99598729Y-145503448D01*
X99562991Y-145532778D01*
X99406466Y-145616443D01*
X99236627Y-145667963D01*
X99170443Y-145674481D01*
X99104260Y-145681000D01*
X99015740Y-145681000D01*
X98949557Y-145674481D01*
X98883373Y-145667963D01*
X98713534Y-145616443D01*
X98557009Y-145532778D01*
X98521271Y-145503448D01*
X98419814Y-145420186D01*
X98336552Y-145318729D01*
X98307222Y-145282991D01*
X98223557Y-145126466D01*
X98172037Y-144956627D01*
X98154641Y-144780000D01*
X98172037Y-144603373D01*
X98223557Y-144433534D01*
X98307222Y-144277009D01*
X98336552Y-144241271D01*
X98419814Y-144139814D01*
X98528036Y-144051000D01*
X98557009Y-144027222D01*
X98638621Y-143983599D01*
X98713532Y-143943558D01*
X98713534Y-143943557D01*
X98883373Y-143892037D01*
X98949557Y-143885519D01*
X99015740Y-143879000D01*
X99104260Y-143879000D01*
X99170443Y-143885519D01*
X99170443Y-143885519D01*
G37*
G36*
X114379591Y-143791085D02*
G01*
X114413569Y-143801393D01*
X114444890Y-143818134D01*
X114472339Y-143840661D01*
X114494866Y-143868110D01*
X114511607Y-143899431D01*
X114521915Y-143933409D01*
X114526000Y-143974890D01*
X114526000Y-144576110D01*
X114521915Y-144617591D01*
X114511607Y-144651569D01*
X114494866Y-144682890D01*
X114472339Y-144710339D01*
X114444890Y-144732866D01*
X114413569Y-144749607D01*
X114379591Y-144759915D01*
X114338110Y-144764000D01*
X113661890Y-144764000D01*
X113620409Y-144759915D01*
X113586431Y-144749607D01*
X113555110Y-144732866D01*
X113527661Y-144710339D01*
X113505134Y-144682890D01*
X113488393Y-144651569D01*
X113478085Y-144617591D01*
X113474000Y-144576110D01*
X113474000Y-143974890D01*
X113478085Y-143933409D01*
X113488393Y-143899431D01*
X113505134Y-143868110D01*
X113527661Y-143840661D01*
X113555110Y-143818134D01*
X113586431Y-143801393D01*
X113620409Y-143791085D01*
X113661890Y-143787000D01*
X114338110Y-143787000D01*
X114379591Y-143791085D01*
X114379591Y-143791085D01*
G37*
G36*
X114379591Y-142216085D02*
G01*
X114413569Y-142226393D01*
X114444890Y-142243134D01*
X114472339Y-142265661D01*
X114494866Y-142293110D01*
X114511607Y-142324431D01*
X114521915Y-142358409D01*
X114526000Y-142399890D01*
X114526000Y-143001110D01*
X114521915Y-143042591D01*
X114511607Y-143076569D01*
X114494866Y-143107890D01*
X114472339Y-143135339D01*
X114444890Y-143157866D01*
X114413569Y-143174607D01*
X114379591Y-143184915D01*
X114338110Y-143189000D01*
X113661890Y-143189000D01*
X113620409Y-143184915D01*
X113586431Y-143174607D01*
X113555110Y-143157866D01*
X113527661Y-143135339D01*
X113505134Y-143107890D01*
X113488393Y-143076569D01*
X113478085Y-143042591D01*
X113474000Y-143001110D01*
X113474000Y-142399890D01*
X113478085Y-142358409D01*
X113488393Y-142324431D01*
X113505134Y-142293110D01*
X113527661Y-142265661D01*
X113555110Y-142243134D01*
X113586431Y-142226393D01*
X113620409Y-142216085D01*
X113661890Y-142212000D01*
X114338110Y-142212000D01*
X114379591Y-142216085D01*
X114379591Y-142216085D01*
G37*
G36*
X116950442Y-141345518D02*
G01*
X117016627Y-141352037D01*
X117186466Y-141403557D01*
X117342991Y-141487222D01*
X117378729Y-141516552D01*
X117480186Y-141599814D01*
X117563448Y-141701271D01*
X117592778Y-141737009D01*
X117676443Y-141893534D01*
X117727963Y-142063373D01*
X117745359Y-142240000D01*
X117727963Y-142416627D01*
X117676443Y-142586466D01*
X117592778Y-142742991D01*
X117586205Y-142751000D01*
X117480186Y-142880186D01*
X117401513Y-142944750D01*
X117342991Y-142992778D01*
X117186466Y-143076443D01*
X117016627Y-143127963D01*
X116950443Y-143134481D01*
X116884260Y-143141000D01*
X116795740Y-143141000D01*
X116729557Y-143134481D01*
X116663373Y-143127963D01*
X116493534Y-143076443D01*
X116337009Y-142992778D01*
X116278487Y-142944750D01*
X116199814Y-142880186D01*
X116093795Y-142751000D01*
X116087222Y-142742991D01*
X116003557Y-142586466D01*
X115952037Y-142416627D01*
X115934641Y-142240000D01*
X115952037Y-142063373D01*
X116003557Y-141893534D01*
X116087222Y-141737009D01*
X116116552Y-141701271D01*
X116199814Y-141599814D01*
X116301271Y-141516552D01*
X116337009Y-141487222D01*
X116493534Y-141403557D01*
X116663373Y-141352037D01*
X116729558Y-141345518D01*
X116795740Y-141339000D01*
X116884260Y-141339000D01*
X116950442Y-141345518D01*
X116950442Y-141345518D01*
G37*
G36*
X99170442Y-141345518D02*
G01*
X99236627Y-141352037D01*
X99406466Y-141403557D01*
X99562991Y-141487222D01*
X99598729Y-141516552D01*
X99700186Y-141599814D01*
X99783448Y-141701271D01*
X99812778Y-141737009D01*
X99896443Y-141893534D01*
X99947963Y-142063373D01*
X99965359Y-142240000D01*
X99947963Y-142416627D01*
X99896443Y-142586466D01*
X99812778Y-142742991D01*
X99806205Y-142751000D01*
X99700186Y-142880186D01*
X99621513Y-142944750D01*
X99562991Y-142992778D01*
X99406466Y-143076443D01*
X99236627Y-143127963D01*
X99170443Y-143134481D01*
X99104260Y-143141000D01*
X99015740Y-143141000D01*
X98949557Y-143134481D01*
X98883373Y-143127963D01*
X98713534Y-143076443D01*
X98557009Y-142992778D01*
X98498487Y-142944750D01*
X98419814Y-142880186D01*
X98313795Y-142751000D01*
X98307222Y-142742991D01*
X98223557Y-142586466D01*
X98172037Y-142416627D01*
X98154641Y-142240000D01*
X98172037Y-142063373D01*
X98223557Y-141893534D01*
X98307222Y-141737009D01*
X98336552Y-141701271D01*
X98419814Y-141599814D01*
X98521271Y-141516552D01*
X98557009Y-141487222D01*
X98713534Y-141403557D01*
X98883373Y-141352037D01*
X98949558Y-141345518D01*
X99015740Y-141339000D01*
X99104260Y-141339000D01*
X99170442Y-141345518D01*
X99170442Y-141345518D01*
G37*
G36*
X99170442Y-138805518D02*
G01*
X99236627Y-138812037D01*
X99406466Y-138863557D01*
X99562991Y-138947222D01*
X99598729Y-138976552D01*
X99700186Y-139059814D01*
X99783448Y-139161271D01*
X99812778Y-139197009D01*
X99896443Y-139353534D01*
X99947963Y-139523373D01*
X99965359Y-139700000D01*
X99947963Y-139876627D01*
X99896443Y-140046466D01*
X99812778Y-140202991D01*
X99783448Y-140238729D01*
X99700186Y-140340186D01*
X99598729Y-140423448D01*
X99562991Y-140452778D01*
X99406466Y-140536443D01*
X99236627Y-140587963D01*
X99170442Y-140594482D01*
X99104260Y-140601000D01*
X99015740Y-140601000D01*
X98949558Y-140594482D01*
X98883373Y-140587963D01*
X98713534Y-140536443D01*
X98557009Y-140452778D01*
X98521271Y-140423448D01*
X98419814Y-140340186D01*
X98336552Y-140238729D01*
X98307222Y-140202991D01*
X98223557Y-140046466D01*
X98172037Y-139876627D01*
X98154641Y-139700000D01*
X98172037Y-139523373D01*
X98223557Y-139353534D01*
X98307222Y-139197009D01*
X98336552Y-139161271D01*
X98419814Y-139059814D01*
X98521271Y-138976552D01*
X98557009Y-138947222D01*
X98713534Y-138863557D01*
X98883373Y-138812037D01*
X98949558Y-138805518D01*
X99015740Y-138799000D01*
X99104260Y-138799000D01*
X99170442Y-138805518D01*
X99170442Y-138805518D01*
G37*
G36*
X116950442Y-138805518D02*
G01*
X117016627Y-138812037D01*
X117186466Y-138863557D01*
X117342991Y-138947222D01*
X117378729Y-138976552D01*
X117480186Y-139059814D01*
X117563448Y-139161271D01*
X117592778Y-139197009D01*
X117676443Y-139353534D01*
X117727963Y-139523373D01*
X117745359Y-139700000D01*
X117727963Y-139876627D01*
X117676443Y-140046466D01*
X117592778Y-140202991D01*
X117563448Y-140238729D01*
X117480186Y-140340186D01*
X117378729Y-140423448D01*
X117342991Y-140452778D01*
X117186466Y-140536443D01*
X117016627Y-140587963D01*
X116950442Y-140594482D01*
X116884260Y-140601000D01*
X116795740Y-140601000D01*
X116729558Y-140594482D01*
X116663373Y-140587963D01*
X116493534Y-140536443D01*
X116337009Y-140452778D01*
X116301271Y-140423448D01*
X116199814Y-140340186D01*
X116116552Y-140238729D01*
X116087222Y-140202991D01*
X116003557Y-140046466D01*
X115952037Y-139876627D01*
X115934641Y-139700000D01*
X115952037Y-139523373D01*
X116003557Y-139353534D01*
X116087222Y-139197009D01*
X116116552Y-139161271D01*
X116199814Y-139059814D01*
X116301271Y-138976552D01*
X116337009Y-138947222D01*
X116493534Y-138863557D01*
X116663373Y-138812037D01*
X116729558Y-138805518D01*
X116795740Y-138799000D01*
X116884260Y-138799000D01*
X116950442Y-138805518D01*
X116950442Y-138805518D01*
G37*
G36*
X106342591Y-138578085D02*
G01*
X106376569Y-138588393D01*
X106407890Y-138605134D01*
X106435339Y-138627661D01*
X106457866Y-138655110D01*
X106474607Y-138686431D01*
X106484915Y-138720409D01*
X106489000Y-138761890D01*
X106489000Y-139438110D01*
X106484915Y-139479591D01*
X106474607Y-139513569D01*
X106457866Y-139544890D01*
X106435339Y-139572339D01*
X106407890Y-139594866D01*
X106376569Y-139611607D01*
X106342591Y-139621915D01*
X106301110Y-139626000D01*
X105699890Y-139626000D01*
X105658409Y-139621915D01*
X105624431Y-139611607D01*
X105593110Y-139594866D01*
X105565661Y-139572339D01*
X105543134Y-139544890D01*
X105526393Y-139513569D01*
X105516085Y-139479591D01*
X105512000Y-139438110D01*
X105512000Y-138761890D01*
X105516085Y-138720409D01*
X105526393Y-138686431D01*
X105543134Y-138655110D01*
X105565661Y-138627661D01*
X105593110Y-138605134D01*
X105624431Y-138588393D01*
X105658409Y-138578085D01*
X105699890Y-138574000D01*
X106301110Y-138574000D01*
X106342591Y-138578085D01*
X106342591Y-138578085D01*
G37*
G36*
X107917591Y-138578085D02*
G01*
X107951569Y-138588393D01*
X107982890Y-138605134D01*
X108010339Y-138627661D01*
X108032866Y-138655110D01*
X108049607Y-138686431D01*
X108059915Y-138720409D01*
X108064000Y-138761890D01*
X108064000Y-139438110D01*
X108059915Y-139479591D01*
X108049607Y-139513569D01*
X108032866Y-139544890D01*
X108010339Y-139572339D01*
X107982890Y-139594866D01*
X107951569Y-139611607D01*
X107917591Y-139621915D01*
X107876110Y-139626000D01*
X107274890Y-139626000D01*
X107233409Y-139621915D01*
X107199431Y-139611607D01*
X107168110Y-139594866D01*
X107140661Y-139572339D01*
X107118134Y-139544890D01*
X107101393Y-139513569D01*
X107091085Y-139479591D01*
X107087000Y-139438110D01*
X107087000Y-138761890D01*
X107091085Y-138720409D01*
X107101393Y-138686431D01*
X107118134Y-138655110D01*
X107140661Y-138627661D01*
X107168110Y-138605134D01*
X107199431Y-138588393D01*
X107233409Y-138578085D01*
X107274890Y-138574000D01*
X107876110Y-138574000D01*
X107917591Y-138578085D01*
X107917591Y-138578085D01*
G37*
G36*
X111651000Y-139551000D02*
G01*
X109949000Y-139551000D01*
X109949000Y-138449000D01*
X111651000Y-138449000D01*
X111651000Y-139551000D01*
X111651000Y-139551000D01*
G37*
G36*
X114051000Y-139551000D02*
G01*
X112349000Y-139551000D01*
X112349000Y-138449000D01*
X114051000Y-138449000D01*
X114051000Y-139551000D01*
X114051000Y-139551000D01*
G37*
G36*
X116950443Y-136265519D02*
G01*
X117016627Y-136272037D01*
X117186466Y-136323557D01*
X117342991Y-136407222D01*
X117378729Y-136436552D01*
X117480186Y-136519814D01*
X117563448Y-136621271D01*
X117592778Y-136657009D01*
X117592779Y-136657011D01*
X117672618Y-136806377D01*
X117676443Y-136813534D01*
X117727963Y-136983373D01*
X117745359Y-137160000D01*
X117727963Y-137336627D01*
X117676443Y-137506466D01*
X117592778Y-137662991D01*
X117585821Y-137671468D01*
X117480186Y-137800186D01*
X117408350Y-137859139D01*
X117342991Y-137912778D01*
X117186466Y-137996443D01*
X117016627Y-138047963D01*
X116950442Y-138054482D01*
X116884260Y-138061000D01*
X116795740Y-138061000D01*
X116729558Y-138054482D01*
X116663373Y-138047963D01*
X116493534Y-137996443D01*
X116337009Y-137912778D01*
X116271650Y-137859139D01*
X116199814Y-137800186D01*
X116094179Y-137671468D01*
X116087222Y-137662991D01*
X116003557Y-137506466D01*
X115952037Y-137336627D01*
X115934641Y-137160000D01*
X115952037Y-136983373D01*
X116003557Y-136813534D01*
X116007383Y-136806377D01*
X116087221Y-136657011D01*
X116087222Y-136657009D01*
X116116552Y-136621271D01*
X116199814Y-136519814D01*
X116301271Y-136436552D01*
X116337009Y-136407222D01*
X116493534Y-136323557D01*
X116663373Y-136272037D01*
X116729557Y-136265519D01*
X116795740Y-136259000D01*
X116884260Y-136259000D01*
X116950443Y-136265519D01*
X116950443Y-136265519D01*
G37*
G36*
X99170443Y-136265519D02*
G01*
X99236627Y-136272037D01*
X99406466Y-136323557D01*
X99562991Y-136407222D01*
X99598729Y-136436552D01*
X99700186Y-136519814D01*
X99783448Y-136621271D01*
X99812778Y-136657009D01*
X99812779Y-136657011D01*
X99892618Y-136806377D01*
X99896443Y-136813534D01*
X99947963Y-136983373D01*
X99965359Y-137160000D01*
X99947963Y-137336627D01*
X99896443Y-137506466D01*
X99812778Y-137662991D01*
X99805821Y-137671468D01*
X99700186Y-137800186D01*
X99628350Y-137859139D01*
X99562991Y-137912778D01*
X99406466Y-137996443D01*
X99236627Y-138047963D01*
X99170442Y-138054482D01*
X99104260Y-138061000D01*
X99015740Y-138061000D01*
X98949558Y-138054482D01*
X98883373Y-138047963D01*
X98713534Y-137996443D01*
X98557009Y-137912778D01*
X98491650Y-137859139D01*
X98419814Y-137800186D01*
X98314179Y-137671468D01*
X98307222Y-137662991D01*
X98223557Y-137506466D01*
X98172037Y-137336627D01*
X98154641Y-137160000D01*
X98172037Y-136983373D01*
X98223557Y-136813534D01*
X98227383Y-136806377D01*
X98307221Y-136657011D01*
X98307222Y-136657009D01*
X98336552Y-136621271D01*
X98419814Y-136519814D01*
X98521271Y-136436552D01*
X98557009Y-136407222D01*
X98713534Y-136323557D01*
X98883373Y-136272037D01*
X98949557Y-136265519D01*
X99015740Y-136259000D01*
X99104260Y-136259000D01*
X99170443Y-136265519D01*
X99170443Y-136265519D01*
G37*
G36*
X108584468Y-136865565D02*
G01*
X108623138Y-136877296D01*
X108658777Y-136896346D01*
X108690017Y-136921983D01*
X108715654Y-136953223D01*
X108734704Y-136988862D01*
X108746435Y-137027532D01*
X108751000Y-137073888D01*
X108751000Y-137725112D01*
X108746435Y-137771468D01*
X108734704Y-137810138D01*
X108715654Y-137845777D01*
X108690017Y-137877017D01*
X108658777Y-137902654D01*
X108623138Y-137921704D01*
X108584468Y-137933435D01*
X108538112Y-137938000D01*
X107461888Y-137938000D01*
X107415532Y-137933435D01*
X107376862Y-137921704D01*
X107341223Y-137902654D01*
X107309983Y-137877017D01*
X107284346Y-137845777D01*
X107265296Y-137810138D01*
X107253565Y-137771468D01*
X107249000Y-137725112D01*
X107249000Y-137073888D01*
X107253565Y-137027532D01*
X107265296Y-136988862D01*
X107284346Y-136953223D01*
X107309983Y-136921983D01*
X107341223Y-136896346D01*
X107376862Y-136877296D01*
X107415532Y-136865565D01*
X107461888Y-136861000D01*
X108538112Y-136861000D01*
X108584468Y-136865565D01*
X108584468Y-136865565D01*
G37*
G36*
X102384468Y-136765565D02*
G01*
X102423138Y-136777296D01*
X102458777Y-136796346D01*
X102490017Y-136821983D01*
X102515654Y-136853223D01*
X102534704Y-136888862D01*
X102546435Y-136927532D01*
X102551000Y-136973888D01*
X102551000Y-137625112D01*
X102546435Y-137671468D01*
X102534704Y-137710138D01*
X102515654Y-137745777D01*
X102490017Y-137777017D01*
X102458777Y-137802654D01*
X102423138Y-137821704D01*
X102384468Y-137833435D01*
X102338112Y-137838000D01*
X101261888Y-137838000D01*
X101215532Y-137833435D01*
X101176862Y-137821704D01*
X101141223Y-137802654D01*
X101109983Y-137777017D01*
X101084346Y-137745777D01*
X101065296Y-137710138D01*
X101053565Y-137671468D01*
X101049000Y-137625112D01*
X101049000Y-136973888D01*
X101053565Y-136927532D01*
X101065296Y-136888862D01*
X101084346Y-136853223D01*
X101109983Y-136821983D01*
X101141223Y-136796346D01*
X101176862Y-136777296D01*
X101215532Y-136765565D01*
X101261888Y-136761000D01*
X102338112Y-136761000D01*
X102384468Y-136765565D01*
X102384468Y-136765565D01*
G37*
G36*
X104381000Y-137726000D02*
G01*
X103219000Y-137726000D01*
X103219000Y-135074000D01*
X104381000Y-135074000D01*
X104381000Y-137726000D01*
X104381000Y-137726000D01*
G37*
G36*
X106581000Y-137726000D02*
G01*
X105419000Y-137726000D01*
X105419000Y-136974000D01*
X106581000Y-136974000D01*
X106581000Y-137726000D01*
X106581000Y-137726000D01*
G37*
G36*
X114051000Y-137051000D02*
G01*
X112349000Y-137051000D01*
X112349000Y-135949000D01*
X114051000Y-135949000D01*
X114051000Y-137051000D01*
X114051000Y-137051000D01*
G37*
G36*
X111651000Y-137051000D02*
G01*
X109949000Y-137051000D01*
X109949000Y-135949000D01*
X111651000Y-135949000D01*
X111651000Y-137051000D01*
X111651000Y-137051000D01*
G37*
G36*
X108584468Y-134990565D02*
G01*
X108623138Y-135002296D01*
X108658777Y-135021346D01*
X108690017Y-135046983D01*
X108715654Y-135078223D01*
X108734704Y-135113862D01*
X108746435Y-135152532D01*
X108751000Y-135198888D01*
X108751000Y-135850112D01*
X108746435Y-135896468D01*
X108734704Y-135935138D01*
X108715654Y-135970777D01*
X108690017Y-136002017D01*
X108658777Y-136027654D01*
X108623138Y-136046704D01*
X108584468Y-136058435D01*
X108538112Y-136063000D01*
X107461888Y-136063000D01*
X107415532Y-136058435D01*
X107376862Y-136046704D01*
X107341223Y-136027654D01*
X107309983Y-136002017D01*
X107284346Y-135970777D01*
X107265296Y-135935138D01*
X107253565Y-135896468D01*
X107249000Y-135850112D01*
X107249000Y-135198888D01*
X107253565Y-135152532D01*
X107265296Y-135113862D01*
X107284346Y-135078223D01*
X107309983Y-135046983D01*
X107341223Y-135021346D01*
X107376862Y-135002296D01*
X107415532Y-134990565D01*
X107461888Y-134986000D01*
X108538112Y-134986000D01*
X108584468Y-134990565D01*
X108584468Y-134990565D01*
G37*
G36*
X102384468Y-134890565D02*
G01*
X102423138Y-134902296D01*
X102458777Y-134921346D01*
X102490017Y-134946983D01*
X102515654Y-134978223D01*
X102534704Y-135013862D01*
X102546435Y-135052532D01*
X102551000Y-135098888D01*
X102551000Y-135750112D01*
X102546435Y-135796468D01*
X102534704Y-135835138D01*
X102515654Y-135870777D01*
X102490017Y-135902017D01*
X102458777Y-135927654D01*
X102423138Y-135946704D01*
X102384468Y-135958435D01*
X102338112Y-135963000D01*
X101261888Y-135963000D01*
X101215532Y-135958435D01*
X101176862Y-135946704D01*
X101141223Y-135927654D01*
X101109983Y-135902017D01*
X101084346Y-135870777D01*
X101065296Y-135835138D01*
X101053565Y-135796468D01*
X101049000Y-135750112D01*
X101049000Y-135098888D01*
X101053565Y-135052532D01*
X101065296Y-135013862D01*
X101084346Y-134978223D01*
X101109983Y-134946983D01*
X101141223Y-134921346D01*
X101176862Y-134902296D01*
X101215532Y-134890565D01*
X101261888Y-134886000D01*
X102338112Y-134886000D01*
X102384468Y-134890565D01*
X102384468Y-134890565D01*
G37*
G36*
X106581000Y-135826000D02*
G01*
X105419000Y-135826000D01*
X105419000Y-135074000D01*
X106581000Y-135074000D01*
X106581000Y-135826000D01*
X106581000Y-135826000D01*
G37*
G36*
X116950443Y-133725519D02*
G01*
X117016627Y-133732037D01*
X117186466Y-133783557D01*
X117342991Y-133867222D01*
X117378729Y-133896552D01*
X117480186Y-133979814D01*
X117563448Y-134081271D01*
X117592778Y-134117009D01*
X117676443Y-134273534D01*
X117727963Y-134443373D01*
X117745359Y-134620000D01*
X117727963Y-134796627D01*
X117676443Y-134966466D01*
X117592778Y-135122991D01*
X117563448Y-135158729D01*
X117480186Y-135260186D01*
X117378729Y-135343448D01*
X117342991Y-135372778D01*
X117186466Y-135456443D01*
X117016627Y-135507963D01*
X116950443Y-135514481D01*
X116884260Y-135521000D01*
X116795740Y-135521000D01*
X116729557Y-135514481D01*
X116663373Y-135507963D01*
X116493534Y-135456443D01*
X116337009Y-135372778D01*
X116301271Y-135343448D01*
X116199814Y-135260186D01*
X116116552Y-135158729D01*
X116087222Y-135122991D01*
X116003557Y-134966466D01*
X115952037Y-134796627D01*
X115934641Y-134620000D01*
X115952037Y-134443373D01*
X116003557Y-134273534D01*
X116087222Y-134117009D01*
X116116552Y-134081271D01*
X116199814Y-133979814D01*
X116301271Y-133896552D01*
X116337009Y-133867222D01*
X116493534Y-133783557D01*
X116663373Y-133732037D01*
X116729557Y-133725519D01*
X116795740Y-133719000D01*
X116884260Y-133719000D01*
X116950443Y-133725519D01*
X116950443Y-133725519D01*
G37*
G36*
X99170443Y-133725519D02*
G01*
X99236627Y-133732037D01*
X99406466Y-133783557D01*
X99562991Y-133867222D01*
X99598729Y-133896552D01*
X99700186Y-133979814D01*
X99783448Y-134081271D01*
X99812778Y-134117009D01*
X99896443Y-134273534D01*
X99947963Y-134443373D01*
X99965359Y-134620000D01*
X99947963Y-134796627D01*
X99896443Y-134966466D01*
X99812778Y-135122991D01*
X99783448Y-135158729D01*
X99700186Y-135260186D01*
X99598729Y-135343448D01*
X99562991Y-135372778D01*
X99406466Y-135456443D01*
X99236627Y-135507963D01*
X99170443Y-135514481D01*
X99104260Y-135521000D01*
X99015740Y-135521000D01*
X98949557Y-135514481D01*
X98883373Y-135507963D01*
X98713534Y-135456443D01*
X98557009Y-135372778D01*
X98521271Y-135343448D01*
X98419814Y-135260186D01*
X98336552Y-135158729D01*
X98307222Y-135122991D01*
X98223557Y-134966466D01*
X98172037Y-134796627D01*
X98154641Y-134620000D01*
X98172037Y-134443373D01*
X98223557Y-134273534D01*
X98307222Y-134117009D01*
X98336552Y-134081271D01*
X98419814Y-133979814D01*
X98521271Y-133896552D01*
X98557009Y-133867222D01*
X98713534Y-133783557D01*
X98883373Y-133732037D01*
X98949557Y-133725519D01*
X99015740Y-133719000D01*
X99104260Y-133719000D01*
X99170443Y-133725519D01*
X99170443Y-133725519D01*
G37*
G36*
X111651000Y-134551000D02*
G01*
X109949000Y-134551000D01*
X109949000Y-133449000D01*
X111651000Y-133449000D01*
X111651000Y-134551000D01*
X111651000Y-134551000D01*
G37*
G36*
X114051000Y-134551000D02*
G01*
X112349000Y-134551000D01*
X112349000Y-133449000D01*
X114051000Y-133449000D01*
X114051000Y-134551000D01*
X114051000Y-134551000D01*
G37*
G36*
X102179591Y-132791085D02*
G01*
X102213569Y-132801393D01*
X102244890Y-132818134D01*
X102272339Y-132840661D01*
X102294866Y-132868110D01*
X102311607Y-132899431D01*
X102321915Y-132933409D01*
X102326000Y-132974890D01*
X102326000Y-133576110D01*
X102321915Y-133617591D01*
X102311607Y-133651569D01*
X102294866Y-133682890D01*
X102272339Y-133710339D01*
X102244890Y-133732866D01*
X102213569Y-133749607D01*
X102179591Y-133759915D01*
X102138110Y-133764000D01*
X101461890Y-133764000D01*
X101420409Y-133759915D01*
X101386431Y-133749607D01*
X101355110Y-133732866D01*
X101327661Y-133710339D01*
X101305134Y-133682890D01*
X101288393Y-133651569D01*
X101278085Y-133617591D01*
X101274000Y-133576110D01*
X101274000Y-132974890D01*
X101278085Y-132933409D01*
X101288393Y-132899431D01*
X101305134Y-132868110D01*
X101327661Y-132840661D01*
X101355110Y-132818134D01*
X101386431Y-132801393D01*
X101420409Y-132791085D01*
X101461890Y-132787000D01*
X102138110Y-132787000D01*
X102179591Y-132791085D01*
X102179591Y-132791085D01*
G37*
G36*
X116950442Y-131185518D02*
G01*
X117016627Y-131192037D01*
X117186466Y-131243557D01*
X117342991Y-131327222D01*
X117378729Y-131356552D01*
X117480186Y-131439814D01*
X117556996Y-131533409D01*
X117592778Y-131577009D01*
X117676443Y-131733534D01*
X117727963Y-131903373D01*
X117745359Y-132080000D01*
X117727963Y-132256627D01*
X117676443Y-132426466D01*
X117592778Y-132582991D01*
X117563448Y-132618729D01*
X117480186Y-132720186D01*
X117378729Y-132803448D01*
X117342991Y-132832778D01*
X117186466Y-132916443D01*
X117016627Y-132967963D01*
X116950443Y-132974481D01*
X116884260Y-132981000D01*
X116795740Y-132981000D01*
X116729557Y-132974481D01*
X116663373Y-132967963D01*
X116493534Y-132916443D01*
X116337009Y-132832778D01*
X116301271Y-132803448D01*
X116199814Y-132720186D01*
X116116552Y-132618729D01*
X116087222Y-132582991D01*
X116003557Y-132426466D01*
X115952037Y-132256627D01*
X115934641Y-132080000D01*
X115952037Y-131903373D01*
X116003557Y-131733534D01*
X116087222Y-131577009D01*
X116123004Y-131533409D01*
X116199814Y-131439814D01*
X116301271Y-131356552D01*
X116337009Y-131327222D01*
X116493534Y-131243557D01*
X116663373Y-131192037D01*
X116729558Y-131185518D01*
X116795740Y-131179000D01*
X116884260Y-131179000D01*
X116950442Y-131185518D01*
X116950442Y-131185518D01*
G37*
G36*
X99170442Y-131185518D02*
G01*
X99236627Y-131192037D01*
X99406466Y-131243557D01*
X99562991Y-131327222D01*
X99598729Y-131356552D01*
X99700186Y-131439814D01*
X99776996Y-131533409D01*
X99812778Y-131577009D01*
X99896443Y-131733534D01*
X99947963Y-131903373D01*
X99965359Y-132080000D01*
X99947963Y-132256627D01*
X99896443Y-132426466D01*
X99812778Y-132582991D01*
X99783448Y-132618729D01*
X99700186Y-132720186D01*
X99598729Y-132803448D01*
X99562991Y-132832778D01*
X99406466Y-132916443D01*
X99236627Y-132967963D01*
X99170443Y-132974481D01*
X99104260Y-132981000D01*
X99015740Y-132981000D01*
X98949557Y-132974481D01*
X98883373Y-132967963D01*
X98713534Y-132916443D01*
X98557009Y-132832778D01*
X98521271Y-132803448D01*
X98419814Y-132720186D01*
X98336552Y-132618729D01*
X98307222Y-132582991D01*
X98223557Y-132426466D01*
X98172037Y-132256627D01*
X98154641Y-132080000D01*
X98172037Y-131903373D01*
X98223557Y-131733534D01*
X98307222Y-131577009D01*
X98343004Y-131533409D01*
X98419814Y-131439814D01*
X98521271Y-131356552D01*
X98557009Y-131327222D01*
X98713534Y-131243557D01*
X98883373Y-131192037D01*
X98949558Y-131185518D01*
X99015740Y-131179000D01*
X99104260Y-131179000D01*
X99170442Y-131185518D01*
X99170442Y-131185518D01*
G37*
G36*
X114479591Y-131391085D02*
G01*
X114513569Y-131401393D01*
X114544890Y-131418134D01*
X114572339Y-131440661D01*
X114594866Y-131468110D01*
X114611607Y-131499431D01*
X114621915Y-131533409D01*
X114626000Y-131574890D01*
X114626000Y-132176110D01*
X114621915Y-132217591D01*
X114611607Y-132251569D01*
X114594866Y-132282890D01*
X114572339Y-132310339D01*
X114544890Y-132332866D01*
X114513569Y-132349607D01*
X114479591Y-132359915D01*
X114438110Y-132364000D01*
X113761890Y-132364000D01*
X113720409Y-132359915D01*
X113686431Y-132349607D01*
X113655110Y-132332866D01*
X113627661Y-132310339D01*
X113605134Y-132282890D01*
X113588393Y-132251569D01*
X113578085Y-132217591D01*
X113574000Y-132176110D01*
X113574000Y-131574890D01*
X113578085Y-131533409D01*
X113588393Y-131499431D01*
X113605134Y-131468110D01*
X113627661Y-131440661D01*
X113655110Y-131418134D01*
X113686431Y-131401393D01*
X113720409Y-131391085D01*
X113761890Y-131387000D01*
X114438110Y-131387000D01*
X114479591Y-131391085D01*
X114479591Y-131391085D01*
G37*
G36*
X102179591Y-131216085D02*
G01*
X102213569Y-131226393D01*
X102244890Y-131243134D01*
X102272339Y-131265661D01*
X102294866Y-131293110D01*
X102311607Y-131324431D01*
X102321915Y-131358409D01*
X102326000Y-131399890D01*
X102326000Y-132001110D01*
X102321915Y-132042591D01*
X102311607Y-132076569D01*
X102294866Y-132107890D01*
X102272339Y-132135339D01*
X102244890Y-132157866D01*
X102213569Y-132174607D01*
X102179591Y-132184915D01*
X102138110Y-132189000D01*
X101461890Y-132189000D01*
X101420409Y-132184915D01*
X101386431Y-132174607D01*
X101355110Y-132157866D01*
X101327661Y-132135339D01*
X101305134Y-132107890D01*
X101288393Y-132076569D01*
X101278085Y-132042591D01*
X101274000Y-132001110D01*
X101274000Y-131399890D01*
X101278085Y-131358409D01*
X101288393Y-131324431D01*
X101305134Y-131293110D01*
X101327661Y-131265661D01*
X101355110Y-131243134D01*
X101386431Y-131226393D01*
X101420409Y-131216085D01*
X101461890Y-131212000D01*
X102138110Y-131212000D01*
X102179591Y-131216085D01*
X102179591Y-131216085D01*
G37*
G36*
X109551000Y-131426000D02*
G01*
X106449000Y-131426000D01*
X106449000Y-129974000D01*
X109551000Y-129974000D01*
X109551000Y-131426000D01*
X109551000Y-131426000D01*
G37*
G36*
X110632517Y-130033781D02*
G01*
X110759946Y-130072436D01*
X110877383Y-130135208D01*
X110980317Y-130219683D01*
X111064792Y-130322617D01*
X111127564Y-130440054D01*
X111166219Y-130567483D01*
X111179270Y-130700000D01*
X111166219Y-130832517D01*
X111127564Y-130959946D01*
X111064792Y-131077383D01*
X110980317Y-131180317D01*
X110877383Y-131264792D01*
X110759946Y-131327564D01*
X110632517Y-131366219D01*
X110533205Y-131376000D01*
X110466795Y-131376000D01*
X110367483Y-131366219D01*
X110240054Y-131327564D01*
X110122617Y-131264792D01*
X110019683Y-131180317D01*
X109935208Y-131077383D01*
X109872436Y-130959946D01*
X109833781Y-130832517D01*
X109820730Y-130700000D01*
X109833781Y-130567483D01*
X109872436Y-130440054D01*
X109935208Y-130322617D01*
X110019683Y-130219683D01*
X110122617Y-130135208D01*
X110240054Y-130072436D01*
X110367483Y-130033781D01*
X110466795Y-130024000D01*
X110533205Y-130024000D01*
X110632517Y-130033781D01*
X110632517Y-130033781D01*
G37*
G36*
X105632517Y-130033781D02*
G01*
X105759946Y-130072436D01*
X105877383Y-130135208D01*
X105980317Y-130219683D01*
X106064792Y-130322617D01*
X106127564Y-130440054D01*
X106166219Y-130567483D01*
X106179270Y-130700000D01*
X106166219Y-130832517D01*
X106127564Y-130959946D01*
X106064792Y-131077383D01*
X105980317Y-131180317D01*
X105877383Y-131264792D01*
X105759946Y-131327564D01*
X105632517Y-131366219D01*
X105533205Y-131376000D01*
X105466795Y-131376000D01*
X105367483Y-131366219D01*
X105240054Y-131327564D01*
X105122617Y-131264792D01*
X105019683Y-131180317D01*
X104935208Y-131077383D01*
X104872436Y-130959946D01*
X104833781Y-130832517D01*
X104820730Y-130700000D01*
X104833781Y-130567483D01*
X104872436Y-130440054D01*
X104935208Y-130322617D01*
X105019683Y-130219683D01*
X105122617Y-130135208D01*
X105240054Y-130072436D01*
X105367483Y-130033781D01*
X105466795Y-130024000D01*
X105533205Y-130024000D01*
X105632517Y-130033781D01*
X105632517Y-130033781D01*
G37*
G36*
X114479591Y-129816085D02*
G01*
X114513569Y-129826393D01*
X114544890Y-129843134D01*
X114572339Y-129865661D01*
X114594866Y-129893110D01*
X114611607Y-129924431D01*
X114621915Y-129958409D01*
X114626000Y-129999890D01*
X114626000Y-130601110D01*
X114621915Y-130642591D01*
X114611607Y-130676569D01*
X114594866Y-130707890D01*
X114572339Y-130735339D01*
X114544890Y-130757866D01*
X114513569Y-130774607D01*
X114479591Y-130784915D01*
X114438110Y-130789000D01*
X113761890Y-130789000D01*
X113720409Y-130784915D01*
X113686431Y-130774607D01*
X113655110Y-130757866D01*
X113627661Y-130735339D01*
X113605134Y-130707890D01*
X113588393Y-130676569D01*
X113578085Y-130642591D01*
X113574000Y-130601110D01*
X113574000Y-129999890D01*
X113578085Y-129958409D01*
X113588393Y-129924431D01*
X113605134Y-129893110D01*
X113627661Y-129865661D01*
X113655110Y-129843134D01*
X113686431Y-129826393D01*
X113720409Y-129816085D01*
X113761890Y-129812000D01*
X114438110Y-129812000D01*
X114479591Y-129816085D01*
X114479591Y-129816085D01*
G37*
G36*
X102179591Y-129591085D02*
G01*
X102213569Y-129601393D01*
X102244890Y-129618134D01*
X102272339Y-129640661D01*
X102294866Y-129668110D01*
X102311607Y-129699431D01*
X102321915Y-129733409D01*
X102326000Y-129774890D01*
X102326000Y-130376110D01*
X102321915Y-130417591D01*
X102311607Y-130451569D01*
X102294866Y-130482890D01*
X102272339Y-130510339D01*
X102244890Y-130532866D01*
X102213569Y-130549607D01*
X102179591Y-130559915D01*
X102138110Y-130564000D01*
X101461890Y-130564000D01*
X101420409Y-130559915D01*
X101386431Y-130549607D01*
X101355110Y-130532866D01*
X101327661Y-130510339D01*
X101305134Y-130482890D01*
X101288393Y-130451569D01*
X101278085Y-130417591D01*
X101274000Y-130376110D01*
X101274000Y-129774890D01*
X101278085Y-129733409D01*
X101288393Y-129699431D01*
X101305134Y-129668110D01*
X101327661Y-129640661D01*
X101355110Y-129618134D01*
X101386431Y-129601393D01*
X101420409Y-129591085D01*
X101461890Y-129587000D01*
X102138110Y-129587000D01*
X102179591Y-129591085D01*
X102179591Y-129591085D01*
G37*
G36*
X99961000Y-130441000D02*
G01*
X98159000Y-130441000D01*
X98159000Y-128639000D01*
X99961000Y-128639000D01*
X99961000Y-130441000D01*
X99961000Y-130441000D01*
G37*
G36*
X116950443Y-128645519D02*
G01*
X117016627Y-128652037D01*
X117186466Y-128703557D01*
X117342991Y-128787222D01*
X117359913Y-128801110D01*
X117480186Y-128899814D01*
X117553378Y-128989000D01*
X117592778Y-129037009D01*
X117676443Y-129193534D01*
X117727963Y-129363373D01*
X117745359Y-129540000D01*
X117727963Y-129716627D01*
X117676443Y-129886466D01*
X117592778Y-130042991D01*
X117568613Y-130072436D01*
X117480186Y-130180186D01*
X117378729Y-130263448D01*
X117342991Y-130292778D01*
X117186466Y-130376443D01*
X117016627Y-130427963D01*
X116950443Y-130434481D01*
X116884260Y-130441000D01*
X116795740Y-130441000D01*
X116729557Y-130434481D01*
X116663373Y-130427963D01*
X116493534Y-130376443D01*
X116337009Y-130292778D01*
X116301271Y-130263448D01*
X116199814Y-130180186D01*
X116111387Y-130072436D01*
X116087222Y-130042991D01*
X116003557Y-129886466D01*
X115952037Y-129716627D01*
X115934641Y-129540000D01*
X115952037Y-129363373D01*
X116003557Y-129193534D01*
X116087222Y-129037009D01*
X116126622Y-128989000D01*
X116199814Y-128899814D01*
X116320087Y-128801110D01*
X116337009Y-128787222D01*
X116493534Y-128703557D01*
X116663373Y-128652037D01*
X116729557Y-128645519D01*
X116795740Y-128639000D01*
X116884260Y-128639000D01*
X116950443Y-128645519D01*
X116950443Y-128645519D01*
G37*
G36*
X102179591Y-128016085D02*
G01*
X102213569Y-128026393D01*
X102244890Y-128043134D01*
X102272339Y-128065661D01*
X102294866Y-128093110D01*
X102311607Y-128124431D01*
X102321915Y-128158409D01*
X102326000Y-128199890D01*
X102326000Y-128801110D01*
X102321915Y-128842591D01*
X102311607Y-128876569D01*
X102294866Y-128907890D01*
X102272339Y-128935339D01*
X102244890Y-128957866D01*
X102213569Y-128974607D01*
X102179591Y-128984915D01*
X102138110Y-128989000D01*
X101461890Y-128989000D01*
X101420409Y-128984915D01*
X101386431Y-128974607D01*
X101355110Y-128957866D01*
X101327661Y-128935339D01*
X101305134Y-128907890D01*
X101288393Y-128876569D01*
X101278085Y-128842591D01*
X101274000Y-128801110D01*
X101274000Y-128199890D01*
X101278085Y-128158409D01*
X101288393Y-128124431D01*
X101305134Y-128093110D01*
X101327661Y-128065661D01*
X101355110Y-128043134D01*
X101386431Y-128026393D01*
X101420409Y-128016085D01*
X101461890Y-128012000D01*
X102138110Y-128012000D01*
X102179591Y-128016085D01*
X102179591Y-128016085D01*
G37*
G36*
X111601248Y-127179976D02*
G01*
X111661924Y-127185952D01*
X111817626Y-127233184D01*
X111817628Y-127233185D01*
X111961121Y-127309883D01*
X112086896Y-127413104D01*
X112190117Y-127538879D01*
X112266815Y-127682372D01*
X112266816Y-127682374D01*
X112314048Y-127838076D01*
X112329996Y-128000000D01*
X112314048Y-128161924D01*
X112313788Y-128162780D01*
X112266815Y-128317628D01*
X112190117Y-128461121D01*
X112086896Y-128586896D01*
X111961121Y-128690117D01*
X111817628Y-128766815D01*
X111817626Y-128766816D01*
X111661924Y-128814048D01*
X111601248Y-128820024D01*
X111540574Y-128826000D01*
X111459426Y-128826000D01*
X111398752Y-128820024D01*
X111338076Y-128814048D01*
X111182374Y-128766816D01*
X111182372Y-128766815D01*
X111038879Y-128690117D01*
X110913104Y-128586896D01*
X110809883Y-128461121D01*
X110733185Y-128317628D01*
X110686212Y-128162780D01*
X110685952Y-128161924D01*
X110670004Y-128000000D01*
X110685952Y-127838076D01*
X110733184Y-127682374D01*
X110733185Y-127682372D01*
X110809883Y-127538879D01*
X110913104Y-127413104D01*
X111038879Y-127309883D01*
X111182372Y-127233185D01*
X111182374Y-127233184D01*
X111338076Y-127185952D01*
X111398752Y-127179976D01*
X111459426Y-127174000D01*
X111540574Y-127174000D01*
X111601248Y-127179976D01*
X111601248Y-127179976D01*
G37*
G36*
X104601248Y-127179976D02*
G01*
X104661924Y-127185952D01*
X104817626Y-127233184D01*
X104817628Y-127233185D01*
X104961121Y-127309883D01*
X105086896Y-127413104D01*
X105190117Y-127538879D01*
X105266815Y-127682372D01*
X105266816Y-127682374D01*
X105314048Y-127838076D01*
X105329996Y-128000000D01*
X105314048Y-128161924D01*
X105313788Y-128162780D01*
X105266815Y-128317628D01*
X105190117Y-128461121D01*
X105086896Y-128586896D01*
X104961121Y-128690117D01*
X104817628Y-128766815D01*
X104817626Y-128766816D01*
X104661924Y-128814048D01*
X104601248Y-128820024D01*
X104540574Y-128826000D01*
X104459426Y-128826000D01*
X104398752Y-128820024D01*
X104338076Y-128814048D01*
X104182374Y-128766816D01*
X104182372Y-128766815D01*
X104038879Y-128690117D01*
X103913104Y-128586896D01*
X103809883Y-128461121D01*
X103733185Y-128317628D01*
X103686212Y-128162780D01*
X103685952Y-128161924D01*
X103670004Y-128000000D01*
X103685952Y-127838076D01*
X103733184Y-127682374D01*
X103733185Y-127682372D01*
X103809883Y-127538879D01*
X103913104Y-127413104D01*
X104038879Y-127309883D01*
X104182372Y-127233185D01*
X104182374Y-127233184D01*
X104338076Y-127185952D01*
X104398752Y-127179976D01*
X104459426Y-127174000D01*
X104540574Y-127174000D01*
X104601248Y-127179976D01*
X104601248Y-127179976D01*
G37*
M02*
