G04 #@! TF.GenerationSoftware,KiCad,Pcbnew,(5.1.2)-1*
G04 #@! TF.CreationDate,2022-09-21T22:05:37+09:00*
G04 #@! TF.ProjectId,converter,636f6e76-6572-4746-9572-2e6b69636164,v2.0*
G04 #@! TF.SameCoordinates,Original*
G04 #@! TF.FileFunction,Legend,Bot*
G04 #@! TF.FilePolarity,Positive*
%FSLAX46Y46*%
G04 Gerber Fmt 4.6, Leading zero omitted, Abs format (unit mm)*
G04 Created by KiCad (PCBNEW (5.1.2)-1) date 2022-09-21 22:05:37*
%MOMM*%
%LPD*%
G04 APERTURE LIST*
%ADD10C,0.120000*%
%ADD11C,0.150000*%
G04 APERTURE END LIST*
D10*
X113130000Y-147893333D02*
X113096666Y-147860000D01*
X113030000Y-147826666D01*
X112863333Y-147826666D01*
X112796666Y-147860000D01*
X112763333Y-147893333D01*
X112730000Y-147960000D01*
X112730000Y-148026666D01*
X112763333Y-148126666D01*
X113163333Y-148526666D01*
X112730000Y-148526666D01*
X112463333Y-147893333D02*
X112430000Y-147860000D01*
X112363333Y-147826666D01*
X112196666Y-147826666D01*
X112130000Y-147860000D01*
X112096666Y-147893333D01*
X112063333Y-147960000D01*
X112063333Y-148026666D01*
X112096666Y-148126666D01*
X112496666Y-148526666D01*
X112063333Y-148526666D01*
X111630000Y-147826666D02*
X111563333Y-147826666D01*
X111496666Y-147860000D01*
X111463333Y-147893333D01*
X111430000Y-147960000D01*
X111396666Y-148093333D01*
X111396666Y-148260000D01*
X111430000Y-148393333D01*
X111463333Y-148460000D01*
X111496666Y-148493333D01*
X111563333Y-148526666D01*
X111630000Y-148526666D01*
X111696666Y-148493333D01*
X111730000Y-148460000D01*
X111763333Y-148393333D01*
X111796666Y-148260000D01*
X111796666Y-148093333D01*
X111763333Y-147960000D01*
X111730000Y-147893333D01*
X111696666Y-147860000D01*
X111630000Y-147826666D01*
X110996666Y-148126666D02*
X111063333Y-148093333D01*
X111096666Y-148060000D01*
X111130000Y-147993333D01*
X111130000Y-147960000D01*
X111096666Y-147893333D01*
X111063333Y-147860000D01*
X110996666Y-147826666D01*
X110863333Y-147826666D01*
X110796666Y-147860000D01*
X110763333Y-147893333D01*
X110730000Y-147960000D01*
X110730000Y-147993333D01*
X110763333Y-148060000D01*
X110796666Y-148093333D01*
X110863333Y-148126666D01*
X110996666Y-148126666D01*
X111063333Y-148160000D01*
X111096666Y-148193333D01*
X111130000Y-148260000D01*
X111130000Y-148393333D01*
X111096666Y-148460000D01*
X111063333Y-148493333D01*
X110996666Y-148526666D01*
X110863333Y-148526666D01*
X110796666Y-148493333D01*
X110763333Y-148460000D01*
X110730000Y-148393333D01*
X110730000Y-148260000D01*
X110763333Y-148193333D01*
X110796666Y-148160000D01*
X110863333Y-148126666D01*
X109963333Y-148060000D02*
X109796666Y-148526666D01*
X109630000Y-148060000D01*
X109396666Y-147893333D02*
X109363333Y-147860000D01*
X109296666Y-147826666D01*
X109130000Y-147826666D01*
X109063333Y-147860000D01*
X109030000Y-147893333D01*
X108996666Y-147960000D01*
X108996666Y-148026666D01*
X109030000Y-148126666D01*
X109430000Y-148526666D01*
X108996666Y-148526666D01*
X108696666Y-148460000D02*
X108663333Y-148493333D01*
X108696666Y-148526666D01*
X108730000Y-148493333D01*
X108696666Y-148460000D01*
X108696666Y-148526666D01*
X108230000Y-147826666D02*
X108163333Y-147826666D01*
X108096666Y-147860000D01*
X108063333Y-147893333D01*
X108030000Y-147960000D01*
X107996666Y-148093333D01*
X107996666Y-148260000D01*
X108030000Y-148393333D01*
X108063333Y-148460000D01*
X108096666Y-148493333D01*
X108163333Y-148526666D01*
X108230000Y-148526666D01*
X108296666Y-148493333D01*
X108330000Y-148460000D01*
X108363333Y-148393333D01*
X108396666Y-148260000D01*
X108396666Y-148093333D01*
X108363333Y-147960000D01*
X108330000Y-147893333D01*
X108296666Y-147860000D01*
X108230000Y-147826666D01*
X106763333Y-148460000D02*
X106796666Y-148493333D01*
X106896666Y-148526666D01*
X106963333Y-148526666D01*
X107063333Y-148493333D01*
X107130000Y-148426666D01*
X107163333Y-148360000D01*
X107196666Y-148226666D01*
X107196666Y-148126666D01*
X107163333Y-147993333D01*
X107130000Y-147926666D01*
X107063333Y-147860000D01*
X106963333Y-147826666D01*
X106896666Y-147826666D01*
X106796666Y-147860000D01*
X106763333Y-147893333D01*
X106463333Y-148526666D02*
X106463333Y-148060000D01*
X106463333Y-148193333D02*
X106430000Y-148126666D01*
X106396666Y-148093333D01*
X106330000Y-148060000D01*
X106263333Y-148060000D01*
X105763333Y-148493333D02*
X105830000Y-148526666D01*
X105963333Y-148526666D01*
X106030000Y-148493333D01*
X106063333Y-148426666D01*
X106063333Y-148160000D01*
X106030000Y-148093333D01*
X105963333Y-148060000D01*
X105830000Y-148060000D01*
X105763333Y-148093333D01*
X105730000Y-148160000D01*
X105730000Y-148226666D01*
X106063333Y-148293333D01*
X105463333Y-148493333D02*
X105396666Y-148526666D01*
X105263333Y-148526666D01*
X105196666Y-148493333D01*
X105163333Y-148426666D01*
X105163333Y-148393333D01*
X105196666Y-148326666D01*
X105263333Y-148293333D01*
X105363333Y-148293333D01*
X105430000Y-148260000D01*
X105463333Y-148193333D01*
X105463333Y-148160000D01*
X105430000Y-148093333D01*
X105363333Y-148060000D01*
X105263333Y-148060000D01*
X105196666Y-148093333D01*
X104563333Y-148493333D02*
X104630000Y-148526666D01*
X104763333Y-148526666D01*
X104830000Y-148493333D01*
X104863333Y-148460000D01*
X104896666Y-148393333D01*
X104896666Y-148193333D01*
X104863333Y-148126666D01*
X104830000Y-148093333D01*
X104763333Y-148060000D01*
X104630000Y-148060000D01*
X104563333Y-148093333D01*
X103996666Y-148493333D02*
X104063333Y-148526666D01*
X104196666Y-148526666D01*
X104263333Y-148493333D01*
X104296666Y-148426666D01*
X104296666Y-148160000D01*
X104263333Y-148093333D01*
X104196666Y-148060000D01*
X104063333Y-148060000D01*
X103996666Y-148093333D01*
X103963333Y-148160000D01*
X103963333Y-148226666D01*
X104296666Y-148293333D01*
X103663333Y-148060000D02*
X103663333Y-148526666D01*
X103663333Y-148126666D02*
X103630000Y-148093333D01*
X103563333Y-148060000D01*
X103463333Y-148060000D01*
X103396666Y-148093333D01*
X103363333Y-148160000D01*
X103363333Y-148526666D01*
X103130000Y-148060000D02*
X102863333Y-148060000D01*
X103030000Y-147826666D02*
X103030000Y-148426666D01*
X102996666Y-148493333D01*
X102930000Y-148526666D01*
X102863333Y-148526666D01*
X113120000Y-129016666D02*
X113120000Y-129583333D01*
X113086666Y-129650000D01*
X113053333Y-129683333D01*
X112986666Y-129716666D01*
X112853333Y-129716666D01*
X112786666Y-129683333D01*
X112753333Y-129650000D01*
X112720000Y-129583333D01*
X112720000Y-129016666D01*
X112420000Y-129683333D02*
X112320000Y-129716666D01*
X112153333Y-129716666D01*
X112086666Y-129683333D01*
X112053333Y-129650000D01*
X112020000Y-129583333D01*
X112020000Y-129516666D01*
X112053333Y-129450000D01*
X112086666Y-129416666D01*
X112153333Y-129383333D01*
X112286666Y-129350000D01*
X112353333Y-129316666D01*
X112386666Y-129283333D01*
X112420000Y-129216666D01*
X112420000Y-129150000D01*
X112386666Y-129083333D01*
X112353333Y-129050000D01*
X112286666Y-129016666D01*
X112120000Y-129016666D01*
X112020000Y-129050000D01*
X111486666Y-129350000D02*
X111386666Y-129383333D01*
X111353333Y-129416666D01*
X111320000Y-129483333D01*
X111320000Y-129583333D01*
X111353333Y-129650000D01*
X111386666Y-129683333D01*
X111453333Y-129716666D01*
X111720000Y-129716666D01*
X111720000Y-129016666D01*
X111486666Y-129016666D01*
X111420000Y-129050000D01*
X111386666Y-129083333D01*
X111353333Y-129150000D01*
X111353333Y-129216666D01*
X111386666Y-129283333D01*
X111420000Y-129316666D01*
X111486666Y-129350000D01*
X111720000Y-129350000D01*
X110486666Y-129716666D02*
X110486666Y-129016666D01*
X110186666Y-129083333D02*
X110153333Y-129050000D01*
X110086666Y-129016666D01*
X109920000Y-129016666D01*
X109853333Y-129050000D01*
X109820000Y-129083333D01*
X109786666Y-129150000D01*
X109786666Y-129216666D01*
X109820000Y-129316666D01*
X110220000Y-129716666D01*
X109786666Y-129716666D01*
X109086666Y-129650000D02*
X109120000Y-129683333D01*
X109220000Y-129716666D01*
X109286666Y-129716666D01*
X109386666Y-129683333D01*
X109453333Y-129616666D01*
X109486666Y-129550000D01*
X109520000Y-129416666D01*
X109520000Y-129316666D01*
X109486666Y-129183333D01*
X109453333Y-129116666D01*
X109386666Y-129050000D01*
X109286666Y-129016666D01*
X109220000Y-129016666D01*
X109120000Y-129050000D01*
X109086666Y-129083333D01*
X107853333Y-129650000D02*
X107886666Y-129683333D01*
X107986666Y-129716666D01*
X108053333Y-129716666D01*
X108153333Y-129683333D01*
X108220000Y-129616666D01*
X108253333Y-129550000D01*
X108286666Y-129416666D01*
X108286666Y-129316666D01*
X108253333Y-129183333D01*
X108220000Y-129116666D01*
X108153333Y-129050000D01*
X108053333Y-129016666D01*
X107986666Y-129016666D01*
X107886666Y-129050000D01*
X107853333Y-129083333D01*
X107453333Y-129716666D02*
X107520000Y-129683333D01*
X107553333Y-129650000D01*
X107586666Y-129583333D01*
X107586666Y-129383333D01*
X107553333Y-129316666D01*
X107520000Y-129283333D01*
X107453333Y-129250000D01*
X107353333Y-129250000D01*
X107286666Y-129283333D01*
X107253333Y-129316666D01*
X107220000Y-129383333D01*
X107220000Y-129583333D01*
X107253333Y-129650000D01*
X107286666Y-129683333D01*
X107353333Y-129716666D01*
X107453333Y-129716666D01*
X106920000Y-129250000D02*
X106920000Y-129716666D01*
X106920000Y-129316666D02*
X106886666Y-129283333D01*
X106820000Y-129250000D01*
X106720000Y-129250000D01*
X106653333Y-129283333D01*
X106620000Y-129350000D01*
X106620000Y-129716666D01*
X106353333Y-129250000D02*
X106186666Y-129716666D01*
X106020000Y-129250000D01*
X105486666Y-129683333D02*
X105553333Y-129716666D01*
X105686666Y-129716666D01*
X105753333Y-129683333D01*
X105786666Y-129616666D01*
X105786666Y-129350000D01*
X105753333Y-129283333D01*
X105686666Y-129250000D01*
X105553333Y-129250000D01*
X105486666Y-129283333D01*
X105453333Y-129350000D01*
X105453333Y-129416666D01*
X105786666Y-129483333D01*
X105153333Y-129716666D02*
X105153333Y-129250000D01*
X105153333Y-129383333D02*
X105120000Y-129316666D01*
X105086666Y-129283333D01*
X105020000Y-129250000D01*
X104953333Y-129250000D01*
X104820000Y-129250000D02*
X104553333Y-129250000D01*
X104720000Y-129016666D02*
X104720000Y-129616666D01*
X104686666Y-129683333D01*
X104620000Y-129716666D01*
X104553333Y-129716666D01*
X104053333Y-129683333D02*
X104120000Y-129716666D01*
X104253333Y-129716666D01*
X104320000Y-129683333D01*
X104353333Y-129616666D01*
X104353333Y-129350000D01*
X104320000Y-129283333D01*
X104253333Y-129250000D01*
X104120000Y-129250000D01*
X104053333Y-129283333D01*
X104020000Y-129350000D01*
X104020000Y-129416666D01*
X104353333Y-129483333D01*
X103720000Y-129716666D02*
X103720000Y-129250000D01*
X103720000Y-129383333D02*
X103686666Y-129316666D01*
X103653333Y-129283333D01*
X103586666Y-129250000D01*
X103520000Y-129250000D01*
D11*
X101909523Y-129300000D02*
X101985714Y-129261904D01*
X102100000Y-129261904D01*
X102214285Y-129300000D01*
X102290476Y-129376190D01*
X102328571Y-129452380D01*
X102366666Y-129604761D01*
X102366666Y-129719047D01*
X102328571Y-129871428D01*
X102290476Y-129947619D01*
X102214285Y-130023809D01*
X102100000Y-130061904D01*
X102023809Y-130061904D01*
X101909523Y-130023809D01*
X101871428Y-129985714D01*
X101871428Y-129719047D01*
X102023809Y-129719047D01*
X101528571Y-130061904D02*
X101528571Y-129261904D01*
X101071428Y-130061904D01*
X101071428Y-129261904D01*
X100690476Y-130061904D02*
X100690476Y-129261904D01*
X100500000Y-129261904D01*
X100385714Y-129300000D01*
X100309523Y-129376190D01*
X100271428Y-129452380D01*
X100233333Y-129604761D01*
X100233333Y-129719047D01*
X100271428Y-129871428D01*
X100309523Y-129947619D01*
X100385714Y-130023809D01*
X100500000Y-130061904D01*
X100690476Y-130061904D01*
X101900000Y-132561904D02*
X101900000Y-131761904D01*
X101366666Y-131761904D02*
X101214285Y-131761904D01*
X101138095Y-131800000D01*
X101061904Y-131876190D01*
X101023809Y-132028571D01*
X101023809Y-132295238D01*
X101061904Y-132447619D01*
X101138095Y-132523809D01*
X101214285Y-132561904D01*
X101366666Y-132561904D01*
X101442857Y-132523809D01*
X101519047Y-132447619D01*
X101557142Y-132295238D01*
X101557142Y-132028571D01*
X101519047Y-131876190D01*
X101442857Y-131800000D01*
X101366666Y-131761904D01*
X100528571Y-131761904D02*
X100452380Y-131761904D01*
X100376190Y-131800000D01*
X100338095Y-131838095D01*
X100300000Y-131914285D01*
X100261904Y-132066666D01*
X100261904Y-132257142D01*
X100300000Y-132409523D01*
X100338095Y-132485714D01*
X100376190Y-132523809D01*
X100452380Y-132561904D01*
X100528571Y-132561904D01*
X100604761Y-132523809D01*
X100642857Y-132485714D01*
X100680952Y-132409523D01*
X100719047Y-132257142D01*
X100719047Y-132066666D01*
X100680952Y-131914285D01*
X100642857Y-131838095D01*
X100604761Y-131800000D01*
X100528571Y-131761904D01*
X101900000Y-135061904D02*
X101900000Y-134261904D01*
X101366666Y-134261904D02*
X101214285Y-134261904D01*
X101138095Y-134300000D01*
X101061904Y-134376190D01*
X101023809Y-134528571D01*
X101023809Y-134795238D01*
X101061904Y-134947619D01*
X101138095Y-135023809D01*
X101214285Y-135061904D01*
X101366666Y-135061904D01*
X101442857Y-135023809D01*
X101519047Y-134947619D01*
X101557142Y-134795238D01*
X101557142Y-134528571D01*
X101519047Y-134376190D01*
X101442857Y-134300000D01*
X101366666Y-134261904D01*
X100261904Y-135061904D02*
X100719047Y-135061904D01*
X100490476Y-135061904D02*
X100490476Y-134261904D01*
X100566666Y-134376190D01*
X100642857Y-134452380D01*
X100719047Y-134490476D01*
X101900000Y-137661904D02*
X101900000Y-136861904D01*
X101366666Y-136861904D02*
X101214285Y-136861904D01*
X101138095Y-136900000D01*
X101061904Y-136976190D01*
X101023809Y-137128571D01*
X101023809Y-137395238D01*
X101061904Y-137547619D01*
X101138095Y-137623809D01*
X101214285Y-137661904D01*
X101366666Y-137661904D01*
X101442857Y-137623809D01*
X101519047Y-137547619D01*
X101557142Y-137395238D01*
X101557142Y-137128571D01*
X101519047Y-136976190D01*
X101442857Y-136900000D01*
X101366666Y-136861904D01*
X100719047Y-136938095D02*
X100680952Y-136900000D01*
X100604761Y-136861904D01*
X100414285Y-136861904D01*
X100338095Y-136900000D01*
X100300000Y-136938095D01*
X100261904Y-137014285D01*
X100261904Y-137090476D01*
X100300000Y-137204761D01*
X100757142Y-137661904D01*
X100261904Y-137661904D01*
X101900000Y-140161904D02*
X101900000Y-139361904D01*
X101366666Y-139361904D02*
X101214285Y-139361904D01*
X101138095Y-139400000D01*
X101061904Y-139476190D01*
X101023809Y-139628571D01*
X101023809Y-139895238D01*
X101061904Y-140047619D01*
X101138095Y-140123809D01*
X101214285Y-140161904D01*
X101366666Y-140161904D01*
X101442857Y-140123809D01*
X101519047Y-140047619D01*
X101557142Y-139895238D01*
X101557142Y-139628571D01*
X101519047Y-139476190D01*
X101442857Y-139400000D01*
X101366666Y-139361904D01*
X100757142Y-139361904D02*
X100261904Y-139361904D01*
X100528571Y-139666666D01*
X100414285Y-139666666D01*
X100338095Y-139704761D01*
X100300000Y-139742857D01*
X100261904Y-139819047D01*
X100261904Y-140009523D01*
X100300000Y-140085714D01*
X100338095Y-140123809D01*
X100414285Y-140161904D01*
X100642857Y-140161904D01*
X100719047Y-140123809D01*
X100757142Y-140085714D01*
X100268095Y-143160000D02*
X101068095Y-143160000D01*
X101068095Y-142626666D02*
X101068095Y-142474285D01*
X101030000Y-142398095D01*
X100953809Y-142321904D01*
X100801428Y-142283809D01*
X100534761Y-142283809D01*
X100382380Y-142321904D01*
X100306190Y-142398095D01*
X100268095Y-142474285D01*
X100268095Y-142626666D01*
X100306190Y-142702857D01*
X100382380Y-142779047D01*
X100534761Y-142817142D01*
X100801428Y-142817142D01*
X100953809Y-142779047D01*
X101030000Y-142702857D01*
X101068095Y-142626666D01*
X100801428Y-141598095D02*
X100268095Y-141598095D01*
X101106190Y-141788571D02*
X100534761Y-141979047D01*
X100534761Y-141483809D01*
X100218095Y-146010000D02*
X101018095Y-146010000D01*
X101018095Y-145476666D02*
X101018095Y-145324285D01*
X100980000Y-145248095D01*
X100903809Y-145171904D01*
X100751428Y-145133809D01*
X100484761Y-145133809D01*
X100332380Y-145171904D01*
X100256190Y-145248095D01*
X100218095Y-145324285D01*
X100218095Y-145476666D01*
X100256190Y-145552857D01*
X100332380Y-145629047D01*
X100484761Y-145667142D01*
X100751428Y-145667142D01*
X100903809Y-145629047D01*
X100980000Y-145552857D01*
X101018095Y-145476666D01*
X101018095Y-144410000D02*
X101018095Y-144790952D01*
X100637142Y-144829047D01*
X100675238Y-144790952D01*
X100713333Y-144714761D01*
X100713333Y-144524285D01*
X100675238Y-144448095D01*
X100637142Y-144410000D01*
X100560952Y-144371904D01*
X100370476Y-144371904D01*
X100294285Y-144410000D01*
X100256190Y-144448095D01*
X100218095Y-144524285D01*
X100218095Y-144714761D01*
X100256190Y-144790952D01*
X100294285Y-144829047D01*
X100188095Y-148260000D02*
X100988095Y-148260000D01*
X100988095Y-147726666D02*
X100988095Y-147574285D01*
X100950000Y-147498095D01*
X100873809Y-147421904D01*
X100721428Y-147383809D01*
X100454761Y-147383809D01*
X100302380Y-147421904D01*
X100226190Y-147498095D01*
X100188095Y-147574285D01*
X100188095Y-147726666D01*
X100226190Y-147802857D01*
X100302380Y-147879047D01*
X100454761Y-147917142D01*
X100721428Y-147917142D01*
X100873809Y-147879047D01*
X100950000Y-147802857D01*
X100988095Y-147726666D01*
X100988095Y-146698095D02*
X100988095Y-146850476D01*
X100950000Y-146926666D01*
X100911904Y-146964761D01*
X100797619Y-147040952D01*
X100645238Y-147079047D01*
X100340476Y-147079047D01*
X100264285Y-147040952D01*
X100226190Y-147002857D01*
X100188095Y-146926666D01*
X100188095Y-146774285D01*
X100226190Y-146698095D01*
X100264285Y-146660000D01*
X100340476Y-146621904D01*
X100530952Y-146621904D01*
X100607142Y-146660000D01*
X100645238Y-146698095D01*
X100683333Y-146774285D01*
X100683333Y-146926666D01*
X100645238Y-147002857D01*
X100607142Y-147040952D01*
X100530952Y-147079047D01*
X101900000Y-150361904D02*
X101900000Y-149561904D01*
X101366666Y-149561904D02*
X101214285Y-149561904D01*
X101138095Y-149600000D01*
X101061904Y-149676190D01*
X101023809Y-149828571D01*
X101023809Y-150095238D01*
X101061904Y-150247619D01*
X101138095Y-150323809D01*
X101214285Y-150361904D01*
X101366666Y-150361904D01*
X101442857Y-150323809D01*
X101519047Y-150247619D01*
X101557142Y-150095238D01*
X101557142Y-149828571D01*
X101519047Y-149676190D01*
X101442857Y-149600000D01*
X101366666Y-149561904D01*
X100757142Y-149561904D02*
X100223809Y-149561904D01*
X100566666Y-150361904D01*
X115652380Y-150323809D02*
X115538095Y-150361904D01*
X115347619Y-150361904D01*
X115271428Y-150323809D01*
X115233333Y-150285714D01*
X115195238Y-150209523D01*
X115195238Y-150133333D01*
X115233333Y-150057142D01*
X115271428Y-150019047D01*
X115347619Y-149980952D01*
X115500000Y-149942857D01*
X115576190Y-149904761D01*
X115614285Y-149866666D01*
X115652380Y-149790476D01*
X115652380Y-149714285D01*
X115614285Y-149638095D01*
X115576190Y-149600000D01*
X115500000Y-149561904D01*
X115309523Y-149561904D01*
X115195238Y-149600000D01*
X114395238Y-150285714D02*
X114433333Y-150323809D01*
X114547619Y-150361904D01*
X114623809Y-150361904D01*
X114738095Y-150323809D01*
X114814285Y-150247619D01*
X114852380Y-150171428D01*
X114890476Y-150019047D01*
X114890476Y-149904761D01*
X114852380Y-149752380D01*
X114814285Y-149676190D01*
X114738095Y-149600000D01*
X114623809Y-149561904D01*
X114547619Y-149561904D01*
X114433333Y-149600000D01*
X114395238Y-149638095D01*
X113671428Y-150361904D02*
X114052380Y-150361904D01*
X114052380Y-149561904D01*
X115671428Y-147723809D02*
X115557142Y-147761904D01*
X115366666Y-147761904D01*
X115290476Y-147723809D01*
X115252380Y-147685714D01*
X115214285Y-147609523D01*
X115214285Y-147533333D01*
X115252380Y-147457142D01*
X115290476Y-147419047D01*
X115366666Y-147380952D01*
X115519047Y-147342857D01*
X115595238Y-147304761D01*
X115633333Y-147266666D01*
X115671428Y-147190476D01*
X115671428Y-147114285D01*
X115633333Y-147038095D01*
X115595238Y-147000000D01*
X115519047Y-146961904D01*
X115328571Y-146961904D01*
X115214285Y-147000000D01*
X114871428Y-147761904D02*
X114871428Y-146961904D01*
X114680952Y-146961904D01*
X114566666Y-147000000D01*
X114490476Y-147076190D01*
X114452380Y-147152380D01*
X114414285Y-147304761D01*
X114414285Y-147419047D01*
X114452380Y-147571428D01*
X114490476Y-147647619D01*
X114566666Y-147723809D01*
X114680952Y-147761904D01*
X114871428Y-147761904D01*
X114109523Y-147533333D02*
X113728571Y-147533333D01*
X114185714Y-147761904D02*
X113919047Y-146961904D01*
X113652380Y-147761904D01*
X115023333Y-145281904D02*
X115290000Y-144900952D01*
X115480476Y-145281904D02*
X115480476Y-144481904D01*
X115175714Y-144481904D01*
X115099523Y-144520000D01*
X115061428Y-144558095D01*
X115023333Y-144634285D01*
X115023333Y-144748571D01*
X115061428Y-144824761D01*
X115099523Y-144862857D01*
X115175714Y-144900952D01*
X115480476Y-144900952D01*
X114756666Y-144481904D02*
X114223333Y-145281904D01*
X114223333Y-144481904D02*
X114756666Y-145281904D01*
X115041904Y-141610476D02*
X115041904Y-142067619D01*
X115841904Y-141839047D02*
X115041904Y-141839047D01*
X115041904Y-142258095D02*
X115841904Y-142791428D01*
X115041904Y-142791428D02*
X115841904Y-142258095D01*
X115448571Y-140081904D02*
X115448571Y-139281904D01*
X114991428Y-140081904D01*
X114991428Y-139281904D01*
X114153333Y-140005714D02*
X114191428Y-140043809D01*
X114305714Y-140081904D01*
X114381904Y-140081904D01*
X114496190Y-140043809D01*
X114572380Y-139967619D01*
X114610476Y-139891428D01*
X114648571Y-139739047D01*
X114648571Y-139624761D01*
X114610476Y-139472380D01*
X114572380Y-139396190D01*
X114496190Y-139320000D01*
X114381904Y-139281904D01*
X114305714Y-139281904D01*
X114191428Y-139320000D01*
X114153333Y-139358095D01*
X115038095Y-137461904D02*
X115304761Y-137080952D01*
X115495238Y-137461904D02*
X115495238Y-136661904D01*
X115190476Y-136661904D01*
X115114285Y-136700000D01*
X115076190Y-136738095D01*
X115038095Y-136814285D01*
X115038095Y-136928571D01*
X115076190Y-137004761D01*
X115114285Y-137042857D01*
X115190476Y-137080952D01*
X115495238Y-137080952D01*
X114733333Y-137423809D02*
X114619047Y-137461904D01*
X114428571Y-137461904D01*
X114352380Y-137423809D01*
X114314285Y-137385714D01*
X114276190Y-137309523D01*
X114276190Y-137233333D01*
X114314285Y-137157142D01*
X114352380Y-137119047D01*
X114428571Y-137080952D01*
X114580952Y-137042857D01*
X114657142Y-137004761D01*
X114695238Y-136966666D01*
X114733333Y-136890476D01*
X114733333Y-136814285D01*
X114695238Y-136738095D01*
X114657142Y-136700000D01*
X114580952Y-136661904D01*
X114390476Y-136661904D01*
X114276190Y-136700000D01*
X114047619Y-136661904D02*
X113590476Y-136661904D01*
X113819047Y-137461904D02*
X113819047Y-136661904D01*
X115152380Y-129161904D02*
X115533333Y-129161904D01*
X115571428Y-129542857D01*
X115533333Y-129504761D01*
X115457142Y-129466666D01*
X115266666Y-129466666D01*
X115190476Y-129504761D01*
X115152380Y-129542857D01*
X115114285Y-129619047D01*
X115114285Y-129809523D01*
X115152380Y-129885714D01*
X115190476Y-129923809D01*
X115266666Y-129961904D01*
X115457142Y-129961904D01*
X115533333Y-129923809D01*
X115571428Y-129885714D01*
X114885714Y-129161904D02*
X114619047Y-129961904D01*
X114352380Y-129161904D01*
X115780952Y-131661904D02*
X115285714Y-131661904D01*
X115552380Y-131966666D01*
X115438095Y-131966666D01*
X115361904Y-132004761D01*
X115323809Y-132042857D01*
X115285714Y-132119047D01*
X115285714Y-132309523D01*
X115323809Y-132385714D01*
X115361904Y-132423809D01*
X115438095Y-132461904D01*
X115666666Y-132461904D01*
X115742857Y-132423809D01*
X115780952Y-132385714D01*
X114942857Y-132385714D02*
X114904761Y-132423809D01*
X114942857Y-132461904D01*
X114980952Y-132423809D01*
X114942857Y-132385714D01*
X114942857Y-132461904D01*
X114638095Y-131661904D02*
X114142857Y-131661904D01*
X114409523Y-131966666D01*
X114295238Y-131966666D01*
X114219047Y-132004761D01*
X114180952Y-132042857D01*
X114142857Y-132119047D01*
X114142857Y-132309523D01*
X114180952Y-132385714D01*
X114219047Y-132423809D01*
X114295238Y-132461904D01*
X114523809Y-132461904D01*
X114600000Y-132423809D01*
X114638095Y-132385714D01*
X113914285Y-131661904D02*
X113647619Y-132461904D01*
X113380952Y-131661904D01*
X115209523Y-134200000D02*
X115285714Y-134161904D01*
X115400000Y-134161904D01*
X115514285Y-134200000D01*
X115590476Y-134276190D01*
X115628571Y-134352380D01*
X115666666Y-134504761D01*
X115666666Y-134619047D01*
X115628571Y-134771428D01*
X115590476Y-134847619D01*
X115514285Y-134923809D01*
X115400000Y-134961904D01*
X115323809Y-134961904D01*
X115209523Y-134923809D01*
X115171428Y-134885714D01*
X115171428Y-134619047D01*
X115323809Y-134619047D01*
X114828571Y-134961904D02*
X114828571Y-134161904D01*
X114371428Y-134961904D01*
X114371428Y-134161904D01*
X113990476Y-134961904D02*
X113990476Y-134161904D01*
X113800000Y-134161904D01*
X113685714Y-134200000D01*
X113609523Y-134276190D01*
X113571428Y-134352380D01*
X113533333Y-134504761D01*
X113533333Y-134619047D01*
X113571428Y-134771428D01*
X113609523Y-134847619D01*
X113685714Y-134923809D01*
X113800000Y-134961904D01*
X113990476Y-134961904D01*
D10*
X101350000Y-146524779D02*
X101350000Y-146199221D01*
X102370000Y-146524779D02*
X102370000Y-146199221D01*
X102434000Y-141315221D02*
X102434000Y-141640779D01*
X101414000Y-141315221D02*
X101414000Y-141640779D01*
X113790000Y-142407221D02*
X113790000Y-142732779D01*
X114810000Y-142407221D02*
X114810000Y-142732779D01*
X110125221Y-146006000D02*
X110450779Y-146006000D01*
X110125221Y-147026000D02*
X110450779Y-147026000D01*
X105525221Y-147026000D02*
X105850779Y-147026000D01*
X105525221Y-146006000D02*
X105850779Y-146006000D01*
X109552000Y-135291221D02*
X109552000Y-135616779D01*
X110572000Y-135291221D02*
X110572000Y-135616779D01*
X106972000Y-135279221D02*
X106972000Y-135604779D01*
X105952000Y-135279221D02*
X105952000Y-135604779D01*
X107752000Y-135279221D02*
X107752000Y-135604779D01*
X108772000Y-135279221D02*
X108772000Y-135604779D01*
X108458000Y-138664000D02*
X110408000Y-138664000D01*
X108458000Y-138664000D02*
X106508000Y-138664000D01*
X108458000Y-143784000D02*
X110408000Y-143784000D01*
X108458000Y-143784000D02*
X105008000Y-143784000D01*
D11*
X103642380Y-145667142D02*
X103166190Y-145333809D01*
X103642380Y-145095714D02*
X102642380Y-145095714D01*
X102642380Y-145476666D01*
X102690000Y-145571904D01*
X102737619Y-145619523D01*
X102832857Y-145667142D01*
X102975714Y-145667142D01*
X103070952Y-145619523D01*
X103118571Y-145571904D01*
X103166190Y-145476666D01*
X103166190Y-145095714D01*
X103642380Y-146619523D02*
X103642380Y-146048095D01*
X103642380Y-146333809D02*
X102642380Y-146333809D01*
X102785238Y-146238571D01*
X102880476Y-146143333D01*
X102928095Y-146048095D01*
X102642380Y-147238571D02*
X102642380Y-147333809D01*
X102690000Y-147429047D01*
X102737619Y-147476666D01*
X102832857Y-147524285D01*
X103023333Y-147571904D01*
X103261428Y-147571904D01*
X103451904Y-147524285D01*
X103547142Y-147476666D01*
X103594761Y-147429047D01*
X103642380Y-147333809D01*
X103642380Y-147238571D01*
X103594761Y-147143333D01*
X103547142Y-147095714D01*
X103451904Y-147048095D01*
X103261428Y-147000476D01*
X103023333Y-147000476D01*
X102832857Y-147048095D01*
X102737619Y-147095714D01*
X102690000Y-147143333D01*
X102642380Y-147238571D01*
X103767142Y-141463333D02*
X103814761Y-141415714D01*
X103862380Y-141272857D01*
X103862380Y-141177619D01*
X103814761Y-141034761D01*
X103719523Y-140939523D01*
X103624285Y-140891904D01*
X103433809Y-140844285D01*
X103290952Y-140844285D01*
X103100476Y-140891904D01*
X103005238Y-140939523D01*
X102910000Y-141034761D01*
X102862380Y-141177619D01*
X102862380Y-141272857D01*
X102910000Y-141415714D01*
X102957619Y-141463333D01*
X103862380Y-142415714D02*
X103862380Y-141844285D01*
X103862380Y-142130000D02*
X102862380Y-142130000D01*
X103005238Y-142034761D01*
X103100476Y-141939523D01*
X103148095Y-141844285D01*
X113387142Y-142326833D02*
X113434761Y-142279214D01*
X113482380Y-142136357D01*
X113482380Y-142041119D01*
X113434761Y-141898261D01*
X113339523Y-141803023D01*
X113244285Y-141755404D01*
X113053809Y-141707785D01*
X112910952Y-141707785D01*
X112720476Y-141755404D01*
X112625238Y-141803023D01*
X112530000Y-141898261D01*
X112482380Y-142041119D01*
X112482380Y-142136357D01*
X112530000Y-142279214D01*
X112577619Y-142326833D01*
X112577619Y-142707785D02*
X112530000Y-142755404D01*
X112482380Y-142850642D01*
X112482380Y-143088738D01*
X112530000Y-143183976D01*
X112577619Y-143231595D01*
X112672857Y-143279214D01*
X112768095Y-143279214D01*
X112910952Y-143231595D01*
X113482380Y-142660166D01*
X113482380Y-143279214D01*
X110436666Y-145622380D02*
X110770000Y-145146190D01*
X111008095Y-145622380D02*
X111008095Y-144622380D01*
X110627142Y-144622380D01*
X110531904Y-144670000D01*
X110484285Y-144717619D01*
X110436666Y-144812857D01*
X110436666Y-144955714D01*
X110484285Y-145050952D01*
X110531904Y-145098571D01*
X110627142Y-145146190D01*
X111008095Y-145146190D01*
X109484285Y-145622380D02*
X110055714Y-145622380D01*
X109770000Y-145622380D02*
X109770000Y-144622380D01*
X109865238Y-144765238D01*
X109960476Y-144860476D01*
X110055714Y-144908095D01*
X105836666Y-145662380D02*
X106170000Y-145186190D01*
X106408095Y-145662380D02*
X106408095Y-144662380D01*
X106027142Y-144662380D01*
X105931904Y-144710000D01*
X105884285Y-144757619D01*
X105836666Y-144852857D01*
X105836666Y-144995714D01*
X105884285Y-145090952D01*
X105931904Y-145138571D01*
X106027142Y-145186190D01*
X106408095Y-145186190D01*
X105503333Y-144662380D02*
X104884285Y-144662380D01*
X105217619Y-145043333D01*
X105074761Y-145043333D01*
X104979523Y-145090952D01*
X104931904Y-145138571D01*
X104884285Y-145233809D01*
X104884285Y-145471904D01*
X104931904Y-145567142D01*
X104979523Y-145614761D01*
X105074761Y-145662380D01*
X105360476Y-145662380D01*
X105455714Y-145614761D01*
X105503333Y-145567142D01*
X110464380Y-132724833D02*
X109988190Y-132391500D01*
X110464380Y-132153404D02*
X109464380Y-132153404D01*
X109464380Y-132534357D01*
X109512000Y-132629595D01*
X109559619Y-132677214D01*
X109654857Y-132724833D01*
X109797714Y-132724833D01*
X109892952Y-132677214D01*
X109940571Y-132629595D01*
X109988190Y-132534357D01*
X109988190Y-132153404D01*
X109797714Y-133581976D02*
X110464380Y-133581976D01*
X109416761Y-133343880D02*
X110131047Y-133105785D01*
X110131047Y-133724833D01*
X106914380Y-132725333D02*
X106438190Y-132392000D01*
X106914380Y-132153904D02*
X105914380Y-132153904D01*
X105914380Y-132534857D01*
X105962000Y-132630095D01*
X106009619Y-132677714D01*
X106104857Y-132725333D01*
X106247714Y-132725333D01*
X106342952Y-132677714D01*
X106390571Y-132630095D01*
X106438190Y-132534857D01*
X106438190Y-132153904D01*
X105914380Y-133630095D02*
X105914380Y-133153904D01*
X106390571Y-133106285D01*
X106342952Y-133153904D01*
X106295333Y-133249142D01*
X106295333Y-133487238D01*
X106342952Y-133582476D01*
X106390571Y-133630095D01*
X106485809Y-133677714D01*
X106723904Y-133677714D01*
X106819142Y-133630095D01*
X106866761Y-133582476D01*
X106914380Y-133487238D01*
X106914380Y-133249142D01*
X106866761Y-133153904D01*
X106819142Y-133106285D01*
X108664380Y-132725333D02*
X108188190Y-132392000D01*
X108664380Y-132153904D02*
X107664380Y-132153904D01*
X107664380Y-132534857D01*
X107712000Y-132630095D01*
X107759619Y-132677714D01*
X107854857Y-132725333D01*
X107997714Y-132725333D01*
X108092952Y-132677714D01*
X108140571Y-132630095D01*
X108188190Y-132534857D01*
X108188190Y-132153904D01*
X107664380Y-133582476D02*
X107664380Y-133392000D01*
X107712000Y-133296761D01*
X107759619Y-133249142D01*
X107902476Y-133153904D01*
X108092952Y-133106285D01*
X108473904Y-133106285D01*
X108569142Y-133153904D01*
X108616761Y-133201523D01*
X108664380Y-133296761D01*
X108664380Y-133487238D01*
X108616761Y-133582476D01*
X108569142Y-133630095D01*
X108473904Y-133677714D01*
X108235809Y-133677714D01*
X108140571Y-133630095D01*
X108092952Y-133582476D01*
X108045333Y-133487238D01*
X108045333Y-133296761D01*
X108092952Y-133201523D01*
X108140571Y-133153904D01*
X108235809Y-133106285D01*
X109319904Y-137376380D02*
X109319904Y-138185904D01*
X109272285Y-138281142D01*
X109224666Y-138328761D01*
X109129428Y-138376380D01*
X108938952Y-138376380D01*
X108843714Y-138328761D01*
X108796095Y-138281142D01*
X108748476Y-138185904D01*
X108748476Y-137376380D01*
X108319904Y-137471619D02*
X108272285Y-137424000D01*
X108177047Y-137376380D01*
X107938952Y-137376380D01*
X107843714Y-137424000D01*
X107796095Y-137471619D01*
X107748476Y-137566857D01*
X107748476Y-137662095D01*
X107796095Y-137804952D01*
X108367523Y-138376380D01*
X107748476Y-138376380D01*
M02*
