G04 #@! TF.GenerationSoftware,KiCad,Pcbnew,(5.1.2)-1*
G04 #@! TF.CreationDate,2022-09-21T22:05:37+09:00*
G04 #@! TF.ProjectId,converter,636f6e76-6572-4746-9572-2e6b69636164,v2.0*
G04 #@! TF.SameCoordinates,Original*
G04 #@! TF.FileFunction,Soldermask,Bot*
G04 #@! TF.FilePolarity,Negative*
%FSLAX46Y46*%
G04 Gerber Fmt 4.6, Leading zero omitted, Abs format (unit mm)*
G04 Created by KiCad (PCBNEW (5.1.2)-1) date 2022-09-21 22:05:37*
%MOMM*%
%LPD*%
G04 APERTURE LIST*
%ADD10C,0.100000*%
G04 APERTURE END LIST*
D10*
G36*
X105159376Y-149060764D02*
G01*
X105312525Y-149107221D01*
X105312630Y-149107253D01*
X105453863Y-149182744D01*
X105577659Y-149284341D01*
X105679256Y-149408137D01*
X105754747Y-149549370D01*
X105754748Y-149549373D01*
X105801236Y-149702625D01*
X105813000Y-149822068D01*
X105813000Y-150177933D01*
X105801236Y-150297376D01*
X105781332Y-150362991D01*
X105754747Y-150450630D01*
X105679256Y-150591863D01*
X105577659Y-150715659D01*
X105453863Y-150817256D01*
X105312629Y-150892747D01*
X105312626Y-150892748D01*
X105159375Y-150939236D01*
X105000000Y-150954933D01*
X104840624Y-150939236D01*
X104687373Y-150892748D01*
X104687370Y-150892747D01*
X104546137Y-150817256D01*
X104422341Y-150715659D01*
X104320744Y-150591863D01*
X104245253Y-150450629D01*
X104245252Y-150450626D01*
X104198764Y-150297375D01*
X104190921Y-150217746D01*
X104187000Y-150177933D01*
X104187000Y-149822066D01*
X104198764Y-149702626D01*
X104198764Y-149702624D01*
X104245252Y-149549373D01*
X104245253Y-149549370D01*
X104320744Y-149408137D01*
X104422341Y-149284341D01*
X104546137Y-149182744D01*
X104687371Y-149107253D01*
X104687476Y-149107221D01*
X104840625Y-149060764D01*
X105000000Y-149045067D01*
X105159376Y-149060764D01*
X105159376Y-149060764D01*
G37*
G36*
X107159376Y-149060764D02*
G01*
X107312525Y-149107221D01*
X107312630Y-149107253D01*
X107453863Y-149182744D01*
X107577659Y-149284341D01*
X107679256Y-149408137D01*
X107754747Y-149549370D01*
X107754748Y-149549373D01*
X107801236Y-149702625D01*
X107813000Y-149822068D01*
X107813000Y-150177933D01*
X107801236Y-150297376D01*
X107781332Y-150362991D01*
X107754747Y-150450630D01*
X107679256Y-150591863D01*
X107577659Y-150715659D01*
X107453863Y-150817256D01*
X107312629Y-150892747D01*
X107312626Y-150892748D01*
X107159375Y-150939236D01*
X107000000Y-150954933D01*
X106840624Y-150939236D01*
X106687373Y-150892748D01*
X106687370Y-150892747D01*
X106546137Y-150817256D01*
X106422341Y-150715659D01*
X106320744Y-150591863D01*
X106245253Y-150450629D01*
X106245252Y-150450626D01*
X106198764Y-150297375D01*
X106190921Y-150217746D01*
X106187000Y-150177933D01*
X106187000Y-149822066D01*
X106198764Y-149702626D01*
X106198764Y-149702624D01*
X106245252Y-149549373D01*
X106245253Y-149549370D01*
X106320744Y-149408137D01*
X106422341Y-149284341D01*
X106546137Y-149182744D01*
X106687371Y-149107253D01*
X106687476Y-149107221D01*
X106840625Y-149060764D01*
X107000000Y-149045067D01*
X107159376Y-149060764D01*
X107159376Y-149060764D01*
G37*
G36*
X109159376Y-149060764D02*
G01*
X109312525Y-149107221D01*
X109312630Y-149107253D01*
X109453863Y-149182744D01*
X109577659Y-149284341D01*
X109679256Y-149408137D01*
X109754747Y-149549370D01*
X109754748Y-149549373D01*
X109801236Y-149702625D01*
X109813000Y-149822068D01*
X109813000Y-150177933D01*
X109801236Y-150297376D01*
X109781332Y-150362991D01*
X109754747Y-150450630D01*
X109679256Y-150591863D01*
X109577659Y-150715659D01*
X109453863Y-150817256D01*
X109312629Y-150892747D01*
X109312626Y-150892748D01*
X109159375Y-150939236D01*
X109000000Y-150954933D01*
X108840624Y-150939236D01*
X108687373Y-150892748D01*
X108687370Y-150892747D01*
X108546137Y-150817256D01*
X108422341Y-150715659D01*
X108320744Y-150591863D01*
X108245253Y-150450629D01*
X108245252Y-150450626D01*
X108198764Y-150297375D01*
X108190921Y-150217746D01*
X108187000Y-150177933D01*
X108187000Y-149822066D01*
X108198764Y-149702626D01*
X108198764Y-149702624D01*
X108245252Y-149549373D01*
X108245253Y-149549370D01*
X108320744Y-149408137D01*
X108422341Y-149284341D01*
X108546137Y-149182744D01*
X108687371Y-149107253D01*
X108687476Y-149107221D01*
X108840625Y-149060764D01*
X109000000Y-149045067D01*
X109159376Y-149060764D01*
X109159376Y-149060764D01*
G37*
G36*
X111159376Y-149060764D02*
G01*
X111312525Y-149107221D01*
X111312630Y-149107253D01*
X111453863Y-149182744D01*
X111577659Y-149284341D01*
X111679256Y-149408137D01*
X111754747Y-149549370D01*
X111754748Y-149549373D01*
X111801236Y-149702625D01*
X111813000Y-149822068D01*
X111813000Y-150177933D01*
X111801236Y-150297376D01*
X111781332Y-150362991D01*
X111754747Y-150450630D01*
X111679256Y-150591863D01*
X111577659Y-150715659D01*
X111453863Y-150817256D01*
X111312629Y-150892747D01*
X111312626Y-150892748D01*
X111159375Y-150939236D01*
X111000000Y-150954933D01*
X110840624Y-150939236D01*
X110687373Y-150892748D01*
X110687370Y-150892747D01*
X110546137Y-150817256D01*
X110422341Y-150715659D01*
X110320744Y-150591863D01*
X110245253Y-150450629D01*
X110245252Y-150450626D01*
X110198764Y-150297375D01*
X110190921Y-150217746D01*
X110187000Y-150177933D01*
X110187000Y-149822066D01*
X110198764Y-149702626D01*
X110198764Y-149702624D01*
X110245252Y-149549373D01*
X110245253Y-149549370D01*
X110320744Y-149408137D01*
X110422341Y-149284341D01*
X110546137Y-149182744D01*
X110687371Y-149107253D01*
X110687476Y-149107221D01*
X110840625Y-149060764D01*
X111000000Y-149045067D01*
X111159376Y-149060764D01*
X111159376Y-149060764D01*
G37*
G36*
X117741000Y-150761000D02*
G01*
X115939000Y-150761000D01*
X115939000Y-148959000D01*
X117741000Y-148959000D01*
X117741000Y-150761000D01*
X117741000Y-150761000D01*
G37*
G36*
X99170443Y-148965519D02*
G01*
X99236627Y-148972037D01*
X99406466Y-149023557D01*
X99562991Y-149107222D01*
X99598729Y-149136552D01*
X99700186Y-149219814D01*
X99783448Y-149321271D01*
X99812778Y-149357009D01*
X99896443Y-149513534D01*
X99947963Y-149683373D01*
X99965359Y-149860000D01*
X99947963Y-150036627D01*
X99896443Y-150206466D01*
X99812778Y-150362991D01*
X99783448Y-150398729D01*
X99700186Y-150500186D01*
X99598729Y-150583448D01*
X99562991Y-150612778D01*
X99406466Y-150696443D01*
X99236627Y-150747963D01*
X99170443Y-150754481D01*
X99104260Y-150761000D01*
X99015740Y-150761000D01*
X98949557Y-150754481D01*
X98883373Y-150747963D01*
X98713534Y-150696443D01*
X98557009Y-150612778D01*
X98521271Y-150583448D01*
X98419814Y-150500186D01*
X98336552Y-150398729D01*
X98307222Y-150362991D01*
X98223557Y-150206466D01*
X98172037Y-150036627D01*
X98154641Y-149860000D01*
X98172037Y-149683373D01*
X98223557Y-149513534D01*
X98307222Y-149357009D01*
X98336552Y-149321271D01*
X98419814Y-149219814D01*
X98521271Y-149136552D01*
X98557009Y-149107222D01*
X98713534Y-149023557D01*
X98883373Y-148972037D01*
X98949557Y-148965519D01*
X99015740Y-148959000D01*
X99104260Y-148959000D01*
X99170443Y-148965519D01*
X99170443Y-148965519D01*
G37*
G36*
X99170442Y-146425518D02*
G01*
X99236627Y-146432037D01*
X99406466Y-146483557D01*
X99562991Y-146567222D01*
X99598729Y-146596552D01*
X99700186Y-146679814D01*
X99751310Y-146742110D01*
X99812778Y-146817009D01*
X99812779Y-146817011D01*
X99894801Y-146970461D01*
X99896443Y-146973534D01*
X99947963Y-147143373D01*
X99965359Y-147320000D01*
X99947963Y-147496627D01*
X99896443Y-147666466D01*
X99812778Y-147822991D01*
X99783448Y-147858729D01*
X99700186Y-147960186D01*
X99598729Y-148043448D01*
X99562991Y-148072778D01*
X99406466Y-148156443D01*
X99236627Y-148207963D01*
X99170442Y-148214482D01*
X99104260Y-148221000D01*
X99015740Y-148221000D01*
X98949558Y-148214482D01*
X98883373Y-148207963D01*
X98713534Y-148156443D01*
X98557009Y-148072778D01*
X98521271Y-148043448D01*
X98419814Y-147960186D01*
X98336552Y-147858729D01*
X98307222Y-147822991D01*
X98223557Y-147666466D01*
X98172037Y-147496627D01*
X98154641Y-147320000D01*
X98172037Y-147143373D01*
X98223557Y-146973534D01*
X98225200Y-146970461D01*
X98307221Y-146817011D01*
X98307222Y-146817009D01*
X98368690Y-146742110D01*
X98419814Y-146679814D01*
X98521271Y-146596552D01*
X98557009Y-146567222D01*
X98713534Y-146483557D01*
X98883373Y-146432037D01*
X98949558Y-146425518D01*
X99015740Y-146419000D01*
X99104260Y-146419000D01*
X99170442Y-146425518D01*
X99170442Y-146425518D01*
G37*
G36*
X116950442Y-146425518D02*
G01*
X117016627Y-146432037D01*
X117186466Y-146483557D01*
X117342991Y-146567222D01*
X117378729Y-146596552D01*
X117480186Y-146679814D01*
X117531310Y-146742110D01*
X117592778Y-146817009D01*
X117592779Y-146817011D01*
X117674801Y-146970461D01*
X117676443Y-146973534D01*
X117727963Y-147143373D01*
X117745359Y-147320000D01*
X117727963Y-147496627D01*
X117676443Y-147666466D01*
X117592778Y-147822991D01*
X117563448Y-147858729D01*
X117480186Y-147960186D01*
X117378729Y-148043448D01*
X117342991Y-148072778D01*
X117186466Y-148156443D01*
X117016627Y-148207963D01*
X116950442Y-148214482D01*
X116884260Y-148221000D01*
X116795740Y-148221000D01*
X116729558Y-148214482D01*
X116663373Y-148207963D01*
X116493534Y-148156443D01*
X116337009Y-148072778D01*
X116301271Y-148043448D01*
X116199814Y-147960186D01*
X116116552Y-147858729D01*
X116087222Y-147822991D01*
X116003557Y-147666466D01*
X115952037Y-147496627D01*
X115934641Y-147320000D01*
X115952037Y-147143373D01*
X116003557Y-146973534D01*
X116005200Y-146970461D01*
X116087221Y-146817011D01*
X116087222Y-146817009D01*
X116148690Y-146742110D01*
X116199814Y-146679814D01*
X116301271Y-146596552D01*
X116337009Y-146567222D01*
X116493534Y-146483557D01*
X116663373Y-146432037D01*
X116729558Y-146425518D01*
X116795740Y-146419000D01*
X116884260Y-146419000D01*
X116950442Y-146425518D01*
X116950442Y-146425518D01*
G37*
G36*
X102239591Y-146665085D02*
G01*
X102273569Y-146675393D01*
X102304890Y-146692134D01*
X102332339Y-146714661D01*
X102354866Y-146742110D01*
X102371607Y-146773431D01*
X102381915Y-146807409D01*
X102386000Y-146848890D01*
X102386000Y-147450110D01*
X102381915Y-147491591D01*
X102371607Y-147525569D01*
X102354866Y-147556890D01*
X102332339Y-147584339D01*
X102304890Y-147606866D01*
X102273569Y-147623607D01*
X102239591Y-147633915D01*
X102198110Y-147638000D01*
X101521890Y-147638000D01*
X101480409Y-147633915D01*
X101446431Y-147623607D01*
X101415110Y-147606866D01*
X101387661Y-147584339D01*
X101365134Y-147556890D01*
X101348393Y-147525569D01*
X101338085Y-147491591D01*
X101334000Y-147450110D01*
X101334000Y-146848890D01*
X101338085Y-146807409D01*
X101348393Y-146773431D01*
X101365134Y-146742110D01*
X101387661Y-146714661D01*
X101415110Y-146692134D01*
X101446431Y-146675393D01*
X101480409Y-146665085D01*
X101521890Y-146661000D01*
X102198110Y-146661000D01*
X102239591Y-146665085D01*
X102239591Y-146665085D01*
G37*
G36*
X105242591Y-145994085D02*
G01*
X105276569Y-146004393D01*
X105307890Y-146021134D01*
X105335339Y-146043661D01*
X105357866Y-146071110D01*
X105374607Y-146102431D01*
X105384915Y-146136409D01*
X105389000Y-146177890D01*
X105389000Y-146854110D01*
X105384915Y-146895591D01*
X105374607Y-146929569D01*
X105357866Y-146960890D01*
X105335339Y-146988339D01*
X105307890Y-147010866D01*
X105276569Y-147027607D01*
X105242591Y-147037915D01*
X105201110Y-147042000D01*
X104599890Y-147042000D01*
X104558409Y-147037915D01*
X104524431Y-147027607D01*
X104493110Y-147010866D01*
X104465661Y-146988339D01*
X104443134Y-146960890D01*
X104426393Y-146929569D01*
X104416085Y-146895591D01*
X104412000Y-146854110D01*
X104412000Y-146177890D01*
X104416085Y-146136409D01*
X104426393Y-146102431D01*
X104443134Y-146071110D01*
X104465661Y-146043661D01*
X104493110Y-146021134D01*
X104524431Y-146004393D01*
X104558409Y-145994085D01*
X104599890Y-145990000D01*
X105201110Y-145990000D01*
X105242591Y-145994085D01*
X105242591Y-145994085D01*
G37*
G36*
X106817591Y-145994085D02*
G01*
X106851569Y-146004393D01*
X106882890Y-146021134D01*
X106910339Y-146043661D01*
X106932866Y-146071110D01*
X106949607Y-146102431D01*
X106959915Y-146136409D01*
X106964000Y-146177890D01*
X106964000Y-146854110D01*
X106959915Y-146895591D01*
X106949607Y-146929569D01*
X106932866Y-146960890D01*
X106910339Y-146988339D01*
X106882890Y-147010866D01*
X106851569Y-147027607D01*
X106817591Y-147037915D01*
X106776110Y-147042000D01*
X106174890Y-147042000D01*
X106133409Y-147037915D01*
X106099431Y-147027607D01*
X106068110Y-147010866D01*
X106040661Y-146988339D01*
X106018134Y-146960890D01*
X106001393Y-146929569D01*
X105991085Y-146895591D01*
X105987000Y-146854110D01*
X105987000Y-146177890D01*
X105991085Y-146136409D01*
X106001393Y-146102431D01*
X106018134Y-146071110D01*
X106040661Y-146043661D01*
X106068110Y-146021134D01*
X106099431Y-146004393D01*
X106133409Y-145994085D01*
X106174890Y-145990000D01*
X106776110Y-145990000D01*
X106817591Y-145994085D01*
X106817591Y-145994085D01*
G37*
G36*
X109842591Y-145994085D02*
G01*
X109876569Y-146004393D01*
X109907890Y-146021134D01*
X109935339Y-146043661D01*
X109957866Y-146071110D01*
X109974607Y-146102431D01*
X109984915Y-146136409D01*
X109989000Y-146177890D01*
X109989000Y-146854110D01*
X109984915Y-146895591D01*
X109974607Y-146929569D01*
X109957866Y-146960890D01*
X109935339Y-146988339D01*
X109907890Y-147010866D01*
X109876569Y-147027607D01*
X109842591Y-147037915D01*
X109801110Y-147042000D01*
X109199890Y-147042000D01*
X109158409Y-147037915D01*
X109124431Y-147027607D01*
X109093110Y-147010866D01*
X109065661Y-146988339D01*
X109043134Y-146960890D01*
X109026393Y-146929569D01*
X109016085Y-146895591D01*
X109012000Y-146854110D01*
X109012000Y-146177890D01*
X109016085Y-146136409D01*
X109026393Y-146102431D01*
X109043134Y-146071110D01*
X109065661Y-146043661D01*
X109093110Y-146021134D01*
X109124431Y-146004393D01*
X109158409Y-145994085D01*
X109199890Y-145990000D01*
X109801110Y-145990000D01*
X109842591Y-145994085D01*
X109842591Y-145994085D01*
G37*
G36*
X111417591Y-145994085D02*
G01*
X111451569Y-146004393D01*
X111482890Y-146021134D01*
X111510339Y-146043661D01*
X111532866Y-146071110D01*
X111549607Y-146102431D01*
X111559915Y-146136409D01*
X111564000Y-146177890D01*
X111564000Y-146854110D01*
X111559915Y-146895591D01*
X111549607Y-146929569D01*
X111532866Y-146960890D01*
X111510339Y-146988339D01*
X111482890Y-147010866D01*
X111451569Y-147027607D01*
X111417591Y-147037915D01*
X111376110Y-147042000D01*
X110774890Y-147042000D01*
X110733409Y-147037915D01*
X110699431Y-147027607D01*
X110668110Y-147010866D01*
X110640661Y-146988339D01*
X110618134Y-146960890D01*
X110601393Y-146929569D01*
X110591085Y-146895591D01*
X110587000Y-146854110D01*
X110587000Y-146177890D01*
X110591085Y-146136409D01*
X110601393Y-146102431D01*
X110618134Y-146071110D01*
X110640661Y-146043661D01*
X110668110Y-146021134D01*
X110699431Y-146004393D01*
X110733409Y-145994085D01*
X110774890Y-145990000D01*
X111376110Y-145990000D01*
X111417591Y-145994085D01*
X111417591Y-145994085D01*
G37*
G36*
X102239591Y-145090085D02*
G01*
X102273569Y-145100393D01*
X102304890Y-145117134D01*
X102332339Y-145139661D01*
X102354866Y-145167110D01*
X102371607Y-145198431D01*
X102381915Y-145232409D01*
X102386000Y-145273890D01*
X102386000Y-145875110D01*
X102381915Y-145916591D01*
X102371607Y-145950569D01*
X102354866Y-145981890D01*
X102332339Y-146009339D01*
X102304890Y-146031866D01*
X102273569Y-146048607D01*
X102239591Y-146058915D01*
X102198110Y-146063000D01*
X101521890Y-146063000D01*
X101480409Y-146058915D01*
X101446431Y-146048607D01*
X101415110Y-146031866D01*
X101387661Y-146009339D01*
X101365134Y-145981890D01*
X101348393Y-145950569D01*
X101338085Y-145916591D01*
X101334000Y-145875110D01*
X101334000Y-145273890D01*
X101338085Y-145232409D01*
X101348393Y-145198431D01*
X101365134Y-145167110D01*
X101387661Y-145139661D01*
X101415110Y-145117134D01*
X101446431Y-145100393D01*
X101480409Y-145090085D01*
X101521890Y-145086000D01*
X102198110Y-145086000D01*
X102239591Y-145090085D01*
X102239591Y-145090085D01*
G37*
G36*
X116950443Y-143885519D02*
G01*
X117016627Y-143892037D01*
X117186466Y-143943557D01*
X117342991Y-144027222D01*
X117378729Y-144056552D01*
X117480186Y-144139814D01*
X117563448Y-144241271D01*
X117592778Y-144277009D01*
X117676443Y-144433534D01*
X117727963Y-144603373D01*
X117745359Y-144780000D01*
X117727963Y-144956627D01*
X117676443Y-145126466D01*
X117592778Y-145282991D01*
X117563448Y-145318729D01*
X117480186Y-145420186D01*
X117378729Y-145503448D01*
X117342991Y-145532778D01*
X117186466Y-145616443D01*
X117016627Y-145667963D01*
X116950443Y-145674481D01*
X116884260Y-145681000D01*
X116795740Y-145681000D01*
X116729557Y-145674481D01*
X116663373Y-145667963D01*
X116493534Y-145616443D01*
X116337009Y-145532778D01*
X116301271Y-145503448D01*
X116199814Y-145420186D01*
X116116552Y-145318729D01*
X116087222Y-145282991D01*
X116003557Y-145126466D01*
X115952037Y-144956627D01*
X115934641Y-144780000D01*
X115952037Y-144603373D01*
X116003557Y-144433534D01*
X116087222Y-144277009D01*
X116116552Y-144241271D01*
X116199814Y-144139814D01*
X116301271Y-144056552D01*
X116337009Y-144027222D01*
X116493534Y-143943557D01*
X116663373Y-143892037D01*
X116729557Y-143885519D01*
X116795740Y-143879000D01*
X116884260Y-143879000D01*
X116950443Y-143885519D01*
X116950443Y-143885519D01*
G37*
G36*
X99170443Y-143885519D02*
G01*
X99236627Y-143892037D01*
X99406466Y-143943557D01*
X99562991Y-144027222D01*
X99598729Y-144056552D01*
X99700186Y-144139814D01*
X99783448Y-144241271D01*
X99812778Y-144277009D01*
X99896443Y-144433534D01*
X99947963Y-144603373D01*
X99965359Y-144780000D01*
X99947963Y-144956627D01*
X99896443Y-145126466D01*
X99812778Y-145282991D01*
X99783448Y-145318729D01*
X99700186Y-145420186D01*
X99598729Y-145503448D01*
X99562991Y-145532778D01*
X99406466Y-145616443D01*
X99236627Y-145667963D01*
X99170443Y-145674481D01*
X99104260Y-145681000D01*
X99015740Y-145681000D01*
X98949557Y-145674481D01*
X98883373Y-145667963D01*
X98713534Y-145616443D01*
X98557009Y-145532778D01*
X98521271Y-145503448D01*
X98419814Y-145420186D01*
X98336552Y-145318729D01*
X98307222Y-145282991D01*
X98223557Y-145126466D01*
X98172037Y-144956627D01*
X98154641Y-144780000D01*
X98172037Y-144603373D01*
X98223557Y-144433534D01*
X98307222Y-144277009D01*
X98336552Y-144241271D01*
X98419814Y-144139814D01*
X98521271Y-144056552D01*
X98557009Y-144027222D01*
X98713534Y-143943557D01*
X98883373Y-143892037D01*
X98949557Y-143885519D01*
X99015740Y-143879000D01*
X99104260Y-143879000D01*
X99170443Y-143885519D01*
X99170443Y-143885519D01*
G37*
G36*
X114679591Y-142873085D02*
G01*
X114713569Y-142883393D01*
X114744890Y-142900134D01*
X114772339Y-142922661D01*
X114794866Y-142950110D01*
X114811607Y-142981431D01*
X114821915Y-143015409D01*
X114826000Y-143056890D01*
X114826000Y-143658110D01*
X114821915Y-143699591D01*
X114811607Y-143733569D01*
X114794866Y-143764890D01*
X114772339Y-143792339D01*
X114744890Y-143814866D01*
X114713569Y-143831607D01*
X114679591Y-143841915D01*
X114638110Y-143846000D01*
X113961890Y-143846000D01*
X113920409Y-143841915D01*
X113886431Y-143831607D01*
X113855110Y-143814866D01*
X113827661Y-143792339D01*
X113805134Y-143764890D01*
X113788393Y-143733569D01*
X113778085Y-143699591D01*
X113774000Y-143658110D01*
X113774000Y-143056890D01*
X113778085Y-143015409D01*
X113788393Y-142981431D01*
X113805134Y-142950110D01*
X113827661Y-142922661D01*
X113855110Y-142900134D01*
X113886431Y-142883393D01*
X113920409Y-142873085D01*
X113961890Y-142869000D01*
X114638110Y-142869000D01*
X114679591Y-142873085D01*
X114679591Y-142873085D01*
G37*
G36*
X106917928Y-142780764D02*
G01*
X106939009Y-142787160D01*
X106958445Y-142797548D01*
X106975476Y-142811524D01*
X106989452Y-142828555D01*
X106999840Y-142847991D01*
X107006236Y-142869072D01*
X107009000Y-142897140D01*
X107009000Y-143360860D01*
X107006236Y-143388928D01*
X106999840Y-143410009D01*
X106989452Y-143429445D01*
X106975476Y-143446476D01*
X106958445Y-143460452D01*
X106939009Y-143470840D01*
X106917928Y-143477236D01*
X106889860Y-143480000D01*
X105076140Y-143480000D01*
X105048072Y-143477236D01*
X105026991Y-143470840D01*
X105007555Y-143460452D01*
X104990524Y-143446476D01*
X104976548Y-143429445D01*
X104966160Y-143410009D01*
X104959764Y-143388928D01*
X104957000Y-143360860D01*
X104957000Y-142897140D01*
X104959764Y-142869072D01*
X104966160Y-142847991D01*
X104976548Y-142828555D01*
X104990524Y-142811524D01*
X105007555Y-142797548D01*
X105026991Y-142787160D01*
X105048072Y-142780764D01*
X105076140Y-142778000D01*
X106889860Y-142778000D01*
X106917928Y-142780764D01*
X106917928Y-142780764D01*
G37*
G36*
X111867928Y-142780764D02*
G01*
X111889009Y-142787160D01*
X111908445Y-142797548D01*
X111925476Y-142811524D01*
X111939452Y-142828555D01*
X111949840Y-142847991D01*
X111956236Y-142869072D01*
X111959000Y-142897140D01*
X111959000Y-143360860D01*
X111956236Y-143388928D01*
X111949840Y-143410009D01*
X111939452Y-143429445D01*
X111925476Y-143446476D01*
X111908445Y-143460452D01*
X111889009Y-143470840D01*
X111867928Y-143477236D01*
X111839860Y-143480000D01*
X110026140Y-143480000D01*
X109998072Y-143477236D01*
X109976991Y-143470840D01*
X109957555Y-143460452D01*
X109940524Y-143446476D01*
X109926548Y-143429445D01*
X109916160Y-143410009D01*
X109909764Y-143388928D01*
X109907000Y-143360860D01*
X109907000Y-142897140D01*
X109909764Y-142869072D01*
X109916160Y-142847991D01*
X109926548Y-142828555D01*
X109940524Y-142811524D01*
X109957555Y-142797548D01*
X109976991Y-142787160D01*
X109998072Y-142780764D01*
X110026140Y-142778000D01*
X111839860Y-142778000D01*
X111867928Y-142780764D01*
X111867928Y-142780764D01*
G37*
G36*
X99170442Y-141345518D02*
G01*
X99236627Y-141352037D01*
X99406466Y-141403557D01*
X99562991Y-141487222D01*
X99588309Y-141508000D01*
X99700186Y-141599814D01*
X99768864Y-141683500D01*
X99812778Y-141737009D01*
X99850795Y-141808134D01*
X99892177Y-141885552D01*
X99896443Y-141893534D01*
X99947963Y-142063373D01*
X99965359Y-142240000D01*
X99947963Y-142416627D01*
X99896443Y-142586466D01*
X99812778Y-142742991D01*
X99803743Y-142754000D01*
X99700186Y-142880186D01*
X99614982Y-142950110D01*
X99562991Y-142992778D01*
X99406466Y-143076443D01*
X99236627Y-143127963D01*
X99170443Y-143134481D01*
X99104260Y-143141000D01*
X99015740Y-143141000D01*
X98949557Y-143134481D01*
X98883373Y-143127963D01*
X98713534Y-143076443D01*
X98557009Y-142992778D01*
X98505018Y-142950110D01*
X98419814Y-142880186D01*
X98316257Y-142754000D01*
X98307222Y-142742991D01*
X98223557Y-142586466D01*
X98172037Y-142416627D01*
X98154641Y-142240000D01*
X98172037Y-142063373D01*
X98223557Y-141893534D01*
X98227824Y-141885552D01*
X98269205Y-141808134D01*
X98307222Y-141737009D01*
X98351136Y-141683500D01*
X98419814Y-141599814D01*
X98531691Y-141508000D01*
X98557009Y-141487222D01*
X98713534Y-141403557D01*
X98883373Y-141352037D01*
X98949558Y-141345518D01*
X99015740Y-141339000D01*
X99104260Y-141339000D01*
X99170442Y-141345518D01*
X99170442Y-141345518D01*
G37*
G36*
X116950442Y-141345518D02*
G01*
X117016627Y-141352037D01*
X117186466Y-141403557D01*
X117342991Y-141487222D01*
X117368309Y-141508000D01*
X117480186Y-141599814D01*
X117548864Y-141683500D01*
X117592778Y-141737009D01*
X117630795Y-141808134D01*
X117672177Y-141885552D01*
X117676443Y-141893534D01*
X117727963Y-142063373D01*
X117745359Y-142240000D01*
X117727963Y-142416627D01*
X117676443Y-142586466D01*
X117592778Y-142742991D01*
X117583743Y-142754000D01*
X117480186Y-142880186D01*
X117394982Y-142950110D01*
X117342991Y-142992778D01*
X117186466Y-143076443D01*
X117016627Y-143127963D01*
X116950443Y-143134481D01*
X116884260Y-143141000D01*
X116795740Y-143141000D01*
X116729557Y-143134481D01*
X116663373Y-143127963D01*
X116493534Y-143076443D01*
X116337009Y-142992778D01*
X116285018Y-142950110D01*
X116199814Y-142880186D01*
X116096257Y-142754000D01*
X116087222Y-142742991D01*
X116003557Y-142586466D01*
X115952037Y-142416627D01*
X115934641Y-142240000D01*
X115952037Y-142063373D01*
X116003557Y-141893534D01*
X116007824Y-141885552D01*
X116049205Y-141808134D01*
X116087222Y-141737009D01*
X116131136Y-141683500D01*
X116199814Y-141599814D01*
X116311691Y-141508000D01*
X116337009Y-141487222D01*
X116493534Y-141403557D01*
X116663373Y-141352037D01*
X116729558Y-141345518D01*
X116795740Y-141339000D01*
X116884260Y-141339000D01*
X116950442Y-141345518D01*
X116950442Y-141345518D01*
G37*
G36*
X102303591Y-141781085D02*
G01*
X102337569Y-141791393D01*
X102368890Y-141808134D01*
X102396339Y-141830661D01*
X102418866Y-141858110D01*
X102435607Y-141889431D01*
X102445915Y-141923409D01*
X102450000Y-141964890D01*
X102450000Y-142566110D01*
X102445915Y-142607591D01*
X102435607Y-142641569D01*
X102418866Y-142672890D01*
X102396339Y-142700339D01*
X102368890Y-142722866D01*
X102337569Y-142739607D01*
X102303591Y-142749915D01*
X102262110Y-142754000D01*
X101585890Y-142754000D01*
X101544409Y-142749915D01*
X101510431Y-142739607D01*
X101479110Y-142722866D01*
X101451661Y-142700339D01*
X101429134Y-142672890D01*
X101412393Y-142641569D01*
X101402085Y-142607591D01*
X101398000Y-142566110D01*
X101398000Y-141964890D01*
X101402085Y-141923409D01*
X101412393Y-141889431D01*
X101429134Y-141858110D01*
X101451661Y-141830661D01*
X101479110Y-141808134D01*
X101510431Y-141791393D01*
X101544409Y-141781085D01*
X101585890Y-141777000D01*
X102262110Y-141777000D01*
X102303591Y-141781085D01*
X102303591Y-141781085D01*
G37*
G36*
X114679591Y-141298085D02*
G01*
X114713569Y-141308393D01*
X114744890Y-141325134D01*
X114772339Y-141347661D01*
X114794866Y-141375110D01*
X114811607Y-141406431D01*
X114821915Y-141440409D01*
X114826000Y-141481890D01*
X114826000Y-142083110D01*
X114821915Y-142124591D01*
X114811607Y-142158569D01*
X114794866Y-142189890D01*
X114772339Y-142217339D01*
X114744890Y-142239866D01*
X114713569Y-142256607D01*
X114679591Y-142266915D01*
X114638110Y-142271000D01*
X113961890Y-142271000D01*
X113920409Y-142266915D01*
X113886431Y-142256607D01*
X113855110Y-142239866D01*
X113827661Y-142217339D01*
X113805134Y-142189890D01*
X113788393Y-142158569D01*
X113778085Y-142124591D01*
X113774000Y-142083110D01*
X113774000Y-141481890D01*
X113778085Y-141440409D01*
X113788393Y-141406431D01*
X113805134Y-141375110D01*
X113827661Y-141347661D01*
X113855110Y-141325134D01*
X113886431Y-141308393D01*
X113920409Y-141298085D01*
X113961890Y-141294000D01*
X114638110Y-141294000D01*
X114679591Y-141298085D01*
X114679591Y-141298085D01*
G37*
G36*
X111867928Y-141510764D02*
G01*
X111889009Y-141517160D01*
X111908445Y-141527548D01*
X111925476Y-141541524D01*
X111939452Y-141558555D01*
X111949840Y-141577991D01*
X111956236Y-141599072D01*
X111959000Y-141627140D01*
X111959000Y-142090860D01*
X111956236Y-142118928D01*
X111949840Y-142140009D01*
X111939452Y-142159445D01*
X111925476Y-142176476D01*
X111908445Y-142190452D01*
X111889009Y-142200840D01*
X111867928Y-142207236D01*
X111839860Y-142210000D01*
X110026140Y-142210000D01*
X109998072Y-142207236D01*
X109976991Y-142200840D01*
X109957555Y-142190452D01*
X109940524Y-142176476D01*
X109926548Y-142159445D01*
X109916160Y-142140009D01*
X109909764Y-142118928D01*
X109907000Y-142090860D01*
X109907000Y-141627140D01*
X109909764Y-141599072D01*
X109916160Y-141577991D01*
X109926548Y-141558555D01*
X109940524Y-141541524D01*
X109957555Y-141527548D01*
X109976991Y-141517160D01*
X109998072Y-141510764D01*
X110026140Y-141508000D01*
X111839860Y-141508000D01*
X111867928Y-141510764D01*
X111867928Y-141510764D01*
G37*
G36*
X106917928Y-141510764D02*
G01*
X106939009Y-141517160D01*
X106958445Y-141527548D01*
X106975476Y-141541524D01*
X106989452Y-141558555D01*
X106999840Y-141577991D01*
X107006236Y-141599072D01*
X107009000Y-141627140D01*
X107009000Y-142090860D01*
X107006236Y-142118928D01*
X106999840Y-142140009D01*
X106989452Y-142159445D01*
X106975476Y-142176476D01*
X106958445Y-142190452D01*
X106939009Y-142200840D01*
X106917928Y-142207236D01*
X106889860Y-142210000D01*
X105076140Y-142210000D01*
X105048072Y-142207236D01*
X105026991Y-142200840D01*
X105007555Y-142190452D01*
X104990524Y-142176476D01*
X104976548Y-142159445D01*
X104966160Y-142140009D01*
X104959764Y-142118928D01*
X104957000Y-142090860D01*
X104957000Y-141627140D01*
X104959764Y-141599072D01*
X104966160Y-141577991D01*
X104976548Y-141558555D01*
X104990524Y-141541524D01*
X105007555Y-141527548D01*
X105026991Y-141517160D01*
X105048072Y-141510764D01*
X105076140Y-141508000D01*
X106889860Y-141508000D01*
X106917928Y-141510764D01*
X106917928Y-141510764D01*
G37*
G36*
X102303591Y-140206085D02*
G01*
X102337569Y-140216393D01*
X102368890Y-140233134D01*
X102396339Y-140255661D01*
X102418866Y-140283110D01*
X102435607Y-140314431D01*
X102445915Y-140348409D01*
X102450000Y-140389890D01*
X102450000Y-140991110D01*
X102445915Y-141032591D01*
X102435607Y-141066569D01*
X102418866Y-141097890D01*
X102396339Y-141125339D01*
X102368890Y-141147866D01*
X102337569Y-141164607D01*
X102303591Y-141174915D01*
X102262110Y-141179000D01*
X101585890Y-141179000D01*
X101544409Y-141174915D01*
X101510431Y-141164607D01*
X101479110Y-141147866D01*
X101451661Y-141125339D01*
X101429134Y-141097890D01*
X101412393Y-141066569D01*
X101402085Y-141032591D01*
X101398000Y-140991110D01*
X101398000Y-140389890D01*
X101402085Y-140348409D01*
X101412393Y-140314431D01*
X101429134Y-140283110D01*
X101451661Y-140255661D01*
X101479110Y-140233134D01*
X101510431Y-140216393D01*
X101544409Y-140206085D01*
X101585890Y-140202000D01*
X102262110Y-140202000D01*
X102303591Y-140206085D01*
X102303591Y-140206085D01*
G37*
G36*
X111867928Y-140240764D02*
G01*
X111889009Y-140247160D01*
X111908445Y-140257548D01*
X111925476Y-140271524D01*
X111939452Y-140288555D01*
X111949840Y-140307991D01*
X111956236Y-140329072D01*
X111959000Y-140357140D01*
X111959000Y-140820860D01*
X111956236Y-140848928D01*
X111949840Y-140870009D01*
X111939452Y-140889445D01*
X111925476Y-140906476D01*
X111908445Y-140920452D01*
X111889009Y-140930840D01*
X111867928Y-140937236D01*
X111839860Y-140940000D01*
X110026140Y-140940000D01*
X109998072Y-140937236D01*
X109976991Y-140930840D01*
X109957555Y-140920452D01*
X109940524Y-140906476D01*
X109926548Y-140889445D01*
X109916160Y-140870009D01*
X109909764Y-140848928D01*
X109907000Y-140820860D01*
X109907000Y-140357140D01*
X109909764Y-140329072D01*
X109916160Y-140307991D01*
X109926548Y-140288555D01*
X109940524Y-140271524D01*
X109957555Y-140257548D01*
X109976991Y-140247160D01*
X109998072Y-140240764D01*
X110026140Y-140238000D01*
X111839860Y-140238000D01*
X111867928Y-140240764D01*
X111867928Y-140240764D01*
G37*
G36*
X106917928Y-140240764D02*
G01*
X106939009Y-140247160D01*
X106958445Y-140257548D01*
X106975476Y-140271524D01*
X106989452Y-140288555D01*
X106999840Y-140307991D01*
X107006236Y-140329072D01*
X107009000Y-140357140D01*
X107009000Y-140820860D01*
X107006236Y-140848928D01*
X106999840Y-140870009D01*
X106989452Y-140889445D01*
X106975476Y-140906476D01*
X106958445Y-140920452D01*
X106939009Y-140930840D01*
X106917928Y-140937236D01*
X106889860Y-140940000D01*
X105076140Y-140940000D01*
X105048072Y-140937236D01*
X105026991Y-140930840D01*
X105007555Y-140920452D01*
X104990524Y-140906476D01*
X104976548Y-140889445D01*
X104966160Y-140870009D01*
X104959764Y-140848928D01*
X104957000Y-140820860D01*
X104957000Y-140357140D01*
X104959764Y-140329072D01*
X104966160Y-140307991D01*
X104976548Y-140288555D01*
X104990524Y-140271524D01*
X105007555Y-140257548D01*
X105026991Y-140247160D01*
X105048072Y-140240764D01*
X105076140Y-140238000D01*
X106889860Y-140238000D01*
X106917928Y-140240764D01*
X106917928Y-140240764D01*
G37*
G36*
X99170442Y-138805518D02*
G01*
X99236627Y-138812037D01*
X99406466Y-138863557D01*
X99562991Y-138947222D01*
X99588309Y-138968000D01*
X99700186Y-139059814D01*
X99768864Y-139143500D01*
X99812778Y-139197009D01*
X99896443Y-139353534D01*
X99947963Y-139523373D01*
X99965359Y-139700000D01*
X99947963Y-139876627D01*
X99896443Y-140046466D01*
X99812778Y-140202991D01*
X99801779Y-140216393D01*
X99700186Y-140340186D01*
X99629008Y-140398599D01*
X99562991Y-140452778D01*
X99406466Y-140536443D01*
X99236627Y-140587963D01*
X99170442Y-140594482D01*
X99104260Y-140601000D01*
X99015740Y-140601000D01*
X98949558Y-140594482D01*
X98883373Y-140587963D01*
X98713534Y-140536443D01*
X98557009Y-140452778D01*
X98490992Y-140398599D01*
X98419814Y-140340186D01*
X98318221Y-140216393D01*
X98307222Y-140202991D01*
X98223557Y-140046466D01*
X98172037Y-139876627D01*
X98154641Y-139700000D01*
X98172037Y-139523373D01*
X98223557Y-139353534D01*
X98307222Y-139197009D01*
X98351136Y-139143500D01*
X98419814Y-139059814D01*
X98531691Y-138968000D01*
X98557009Y-138947222D01*
X98713534Y-138863557D01*
X98883373Y-138812037D01*
X98949558Y-138805518D01*
X99015740Y-138799000D01*
X99104260Y-138799000D01*
X99170442Y-138805518D01*
X99170442Y-138805518D01*
G37*
G36*
X116950442Y-138805518D02*
G01*
X117016627Y-138812037D01*
X117186466Y-138863557D01*
X117342991Y-138947222D01*
X117368309Y-138968000D01*
X117480186Y-139059814D01*
X117548864Y-139143500D01*
X117592778Y-139197009D01*
X117676443Y-139353534D01*
X117727963Y-139523373D01*
X117745359Y-139700000D01*
X117727963Y-139876627D01*
X117676443Y-140046466D01*
X117592778Y-140202991D01*
X117581779Y-140216393D01*
X117480186Y-140340186D01*
X117409008Y-140398599D01*
X117342991Y-140452778D01*
X117186466Y-140536443D01*
X117016627Y-140587963D01*
X116950442Y-140594482D01*
X116884260Y-140601000D01*
X116795740Y-140601000D01*
X116729558Y-140594482D01*
X116663373Y-140587963D01*
X116493534Y-140536443D01*
X116337009Y-140452778D01*
X116270992Y-140398599D01*
X116199814Y-140340186D01*
X116098221Y-140216393D01*
X116087222Y-140202991D01*
X116003557Y-140046466D01*
X115952037Y-139876627D01*
X115934641Y-139700000D01*
X115952037Y-139523373D01*
X116003557Y-139353534D01*
X116087222Y-139197009D01*
X116131136Y-139143500D01*
X116199814Y-139059814D01*
X116311691Y-138968000D01*
X116337009Y-138947222D01*
X116493534Y-138863557D01*
X116663373Y-138812037D01*
X116729558Y-138805518D01*
X116795740Y-138799000D01*
X116884260Y-138799000D01*
X116950442Y-138805518D01*
X116950442Y-138805518D01*
G37*
G36*
X111867928Y-138970764D02*
G01*
X111889009Y-138977160D01*
X111908445Y-138987548D01*
X111925476Y-139001524D01*
X111939452Y-139018555D01*
X111949840Y-139037991D01*
X111956236Y-139059072D01*
X111959000Y-139087140D01*
X111959000Y-139550860D01*
X111956236Y-139578928D01*
X111949840Y-139600009D01*
X111939452Y-139619445D01*
X111925476Y-139636476D01*
X111908445Y-139650452D01*
X111889009Y-139660840D01*
X111867928Y-139667236D01*
X111839860Y-139670000D01*
X110026140Y-139670000D01*
X109998072Y-139667236D01*
X109976991Y-139660840D01*
X109957555Y-139650452D01*
X109940524Y-139636476D01*
X109926548Y-139619445D01*
X109916160Y-139600009D01*
X109909764Y-139578928D01*
X109907000Y-139550860D01*
X109907000Y-139087140D01*
X109909764Y-139059072D01*
X109916160Y-139037991D01*
X109926548Y-139018555D01*
X109940524Y-139001524D01*
X109957555Y-138987548D01*
X109976991Y-138977160D01*
X109998072Y-138970764D01*
X110026140Y-138968000D01*
X111839860Y-138968000D01*
X111867928Y-138970764D01*
X111867928Y-138970764D01*
G37*
G36*
X106917928Y-138970764D02*
G01*
X106939009Y-138977160D01*
X106958445Y-138987548D01*
X106975476Y-139001524D01*
X106989452Y-139018555D01*
X106999840Y-139037991D01*
X107006236Y-139059072D01*
X107009000Y-139087140D01*
X107009000Y-139550860D01*
X107006236Y-139578928D01*
X106999840Y-139600009D01*
X106989452Y-139619445D01*
X106975476Y-139636476D01*
X106958445Y-139650452D01*
X106939009Y-139660840D01*
X106917928Y-139667236D01*
X106889860Y-139670000D01*
X105076140Y-139670000D01*
X105048072Y-139667236D01*
X105026991Y-139660840D01*
X105007555Y-139650452D01*
X104990524Y-139636476D01*
X104976548Y-139619445D01*
X104966160Y-139600009D01*
X104959764Y-139578928D01*
X104957000Y-139550860D01*
X104957000Y-139087140D01*
X104959764Y-139059072D01*
X104966160Y-139037991D01*
X104976548Y-139018555D01*
X104990524Y-139001524D01*
X105007555Y-138987548D01*
X105026991Y-138977160D01*
X105048072Y-138970764D01*
X105076140Y-138968000D01*
X106889860Y-138968000D01*
X106917928Y-138970764D01*
X106917928Y-138970764D01*
G37*
G36*
X116950443Y-136265519D02*
G01*
X117016627Y-136272037D01*
X117186466Y-136323557D01*
X117342991Y-136407222D01*
X117378729Y-136436552D01*
X117480186Y-136519814D01*
X117560410Y-136617569D01*
X117592778Y-136657009D01*
X117676443Y-136813534D01*
X117727963Y-136983373D01*
X117745359Y-137160000D01*
X117727963Y-137336627D01*
X117676443Y-137506466D01*
X117592778Y-137662991D01*
X117563448Y-137698729D01*
X117480186Y-137800186D01*
X117378729Y-137883448D01*
X117342991Y-137912778D01*
X117186466Y-137996443D01*
X117016627Y-138047963D01*
X116950442Y-138054482D01*
X116884260Y-138061000D01*
X116795740Y-138061000D01*
X116729558Y-138054482D01*
X116663373Y-138047963D01*
X116493534Y-137996443D01*
X116337009Y-137912778D01*
X116301271Y-137883448D01*
X116199814Y-137800186D01*
X116116552Y-137698729D01*
X116087222Y-137662991D01*
X116003557Y-137506466D01*
X115952037Y-137336627D01*
X115934641Y-137160000D01*
X115952037Y-136983373D01*
X116003557Y-136813534D01*
X116087222Y-136657009D01*
X116119590Y-136617569D01*
X116199814Y-136519814D01*
X116301271Y-136436552D01*
X116337009Y-136407222D01*
X116493534Y-136323557D01*
X116663373Y-136272037D01*
X116729557Y-136265519D01*
X116795740Y-136259000D01*
X116884260Y-136259000D01*
X116950443Y-136265519D01*
X116950443Y-136265519D01*
G37*
G36*
X99170443Y-136265519D02*
G01*
X99236627Y-136272037D01*
X99406466Y-136323557D01*
X99562991Y-136407222D01*
X99598729Y-136436552D01*
X99700186Y-136519814D01*
X99780410Y-136617569D01*
X99812778Y-136657009D01*
X99896443Y-136813534D01*
X99947963Y-136983373D01*
X99965359Y-137160000D01*
X99947963Y-137336627D01*
X99896443Y-137506466D01*
X99812778Y-137662991D01*
X99783448Y-137698729D01*
X99700186Y-137800186D01*
X99598729Y-137883448D01*
X99562991Y-137912778D01*
X99406466Y-137996443D01*
X99236627Y-138047963D01*
X99170442Y-138054482D01*
X99104260Y-138061000D01*
X99015740Y-138061000D01*
X98949558Y-138054482D01*
X98883373Y-138047963D01*
X98713534Y-137996443D01*
X98557009Y-137912778D01*
X98521271Y-137883448D01*
X98419814Y-137800186D01*
X98336552Y-137698729D01*
X98307222Y-137662991D01*
X98223557Y-137506466D01*
X98172037Y-137336627D01*
X98154641Y-137160000D01*
X98172037Y-136983373D01*
X98223557Y-136813534D01*
X98307222Y-136657009D01*
X98339590Y-136617569D01*
X98419814Y-136519814D01*
X98521271Y-136436552D01*
X98557009Y-136407222D01*
X98713534Y-136323557D01*
X98883373Y-136272037D01*
X98949557Y-136265519D01*
X99015740Y-136259000D01*
X99104260Y-136259000D01*
X99170443Y-136265519D01*
X99170443Y-136265519D01*
G37*
G36*
X110441591Y-135757085D02*
G01*
X110475569Y-135767393D01*
X110506890Y-135784134D01*
X110534339Y-135806661D01*
X110556866Y-135834110D01*
X110573607Y-135865431D01*
X110583915Y-135899409D01*
X110588000Y-135940890D01*
X110588000Y-136542110D01*
X110583915Y-136583591D01*
X110573607Y-136617569D01*
X110556866Y-136648890D01*
X110534339Y-136676339D01*
X110506890Y-136698866D01*
X110475569Y-136715607D01*
X110441591Y-136725915D01*
X110400110Y-136730000D01*
X109723890Y-136730000D01*
X109682409Y-136725915D01*
X109648431Y-136715607D01*
X109617110Y-136698866D01*
X109589661Y-136676339D01*
X109567134Y-136648890D01*
X109550393Y-136617569D01*
X109540085Y-136583591D01*
X109536000Y-136542110D01*
X109536000Y-135940890D01*
X109540085Y-135899409D01*
X109550393Y-135865431D01*
X109567134Y-135834110D01*
X109589661Y-135806661D01*
X109617110Y-135784134D01*
X109648431Y-135767393D01*
X109682409Y-135757085D01*
X109723890Y-135753000D01*
X110400110Y-135753000D01*
X110441591Y-135757085D01*
X110441591Y-135757085D01*
G37*
G36*
X108641591Y-135745085D02*
G01*
X108675569Y-135755393D01*
X108706890Y-135772134D01*
X108734339Y-135794661D01*
X108756866Y-135822110D01*
X108773607Y-135853431D01*
X108783915Y-135887409D01*
X108788000Y-135928890D01*
X108788000Y-136530110D01*
X108783915Y-136571591D01*
X108773607Y-136605569D01*
X108756866Y-136636890D01*
X108734339Y-136664339D01*
X108706890Y-136686866D01*
X108675569Y-136703607D01*
X108641591Y-136713915D01*
X108600110Y-136718000D01*
X107923890Y-136718000D01*
X107882409Y-136713915D01*
X107848431Y-136703607D01*
X107817110Y-136686866D01*
X107789661Y-136664339D01*
X107767134Y-136636890D01*
X107750393Y-136605569D01*
X107740085Y-136571591D01*
X107736000Y-136530110D01*
X107736000Y-135928890D01*
X107740085Y-135887409D01*
X107750393Y-135853431D01*
X107767134Y-135822110D01*
X107789661Y-135794661D01*
X107817110Y-135772134D01*
X107848431Y-135755393D01*
X107882409Y-135745085D01*
X107923890Y-135741000D01*
X108600110Y-135741000D01*
X108641591Y-135745085D01*
X108641591Y-135745085D01*
G37*
G36*
X106841591Y-135745085D02*
G01*
X106875569Y-135755393D01*
X106906890Y-135772134D01*
X106934339Y-135794661D01*
X106956866Y-135822110D01*
X106973607Y-135853431D01*
X106983915Y-135887409D01*
X106988000Y-135928890D01*
X106988000Y-136530110D01*
X106983915Y-136571591D01*
X106973607Y-136605569D01*
X106956866Y-136636890D01*
X106934339Y-136664339D01*
X106906890Y-136686866D01*
X106875569Y-136703607D01*
X106841591Y-136713915D01*
X106800110Y-136718000D01*
X106123890Y-136718000D01*
X106082409Y-136713915D01*
X106048431Y-136703607D01*
X106017110Y-136686866D01*
X105989661Y-136664339D01*
X105967134Y-136636890D01*
X105950393Y-136605569D01*
X105940085Y-136571591D01*
X105936000Y-136530110D01*
X105936000Y-135928890D01*
X105940085Y-135887409D01*
X105950393Y-135853431D01*
X105967134Y-135822110D01*
X105989661Y-135794661D01*
X106017110Y-135772134D01*
X106048431Y-135755393D01*
X106082409Y-135745085D01*
X106123890Y-135741000D01*
X106800110Y-135741000D01*
X106841591Y-135745085D01*
X106841591Y-135745085D01*
G37*
G36*
X116950443Y-133725519D02*
G01*
X117016627Y-133732037D01*
X117186466Y-133783557D01*
X117342991Y-133867222D01*
X117378729Y-133896552D01*
X117480186Y-133979814D01*
X117563448Y-134081271D01*
X117592778Y-134117009D01*
X117676443Y-134273534D01*
X117727963Y-134443373D01*
X117745359Y-134620000D01*
X117727963Y-134796627D01*
X117676443Y-134966466D01*
X117592778Y-135122991D01*
X117576357Y-135143000D01*
X117480186Y-135260186D01*
X117378729Y-135343448D01*
X117342991Y-135372778D01*
X117186466Y-135456443D01*
X117016627Y-135507963D01*
X116950443Y-135514481D01*
X116884260Y-135521000D01*
X116795740Y-135521000D01*
X116729557Y-135514481D01*
X116663373Y-135507963D01*
X116493534Y-135456443D01*
X116337009Y-135372778D01*
X116301271Y-135343448D01*
X116199814Y-135260186D01*
X116103643Y-135143000D01*
X116087222Y-135122991D01*
X116003557Y-134966466D01*
X115952037Y-134796627D01*
X115934641Y-134620000D01*
X115952037Y-134443373D01*
X116003557Y-134273534D01*
X116087222Y-134117009D01*
X116116552Y-134081271D01*
X116199814Y-133979814D01*
X116301271Y-133896552D01*
X116337009Y-133867222D01*
X116493534Y-133783557D01*
X116663373Y-133732037D01*
X116729557Y-133725519D01*
X116795740Y-133719000D01*
X116884260Y-133719000D01*
X116950443Y-133725519D01*
X116950443Y-133725519D01*
G37*
G36*
X99170443Y-133725519D02*
G01*
X99236627Y-133732037D01*
X99406466Y-133783557D01*
X99562991Y-133867222D01*
X99598729Y-133896552D01*
X99700186Y-133979814D01*
X99783448Y-134081271D01*
X99812778Y-134117009D01*
X99896443Y-134273534D01*
X99947963Y-134443373D01*
X99965359Y-134620000D01*
X99947963Y-134796627D01*
X99896443Y-134966466D01*
X99812778Y-135122991D01*
X99796357Y-135143000D01*
X99700186Y-135260186D01*
X99598729Y-135343448D01*
X99562991Y-135372778D01*
X99406466Y-135456443D01*
X99236627Y-135507963D01*
X99170443Y-135514481D01*
X99104260Y-135521000D01*
X99015740Y-135521000D01*
X98949557Y-135514481D01*
X98883373Y-135507963D01*
X98713534Y-135456443D01*
X98557009Y-135372778D01*
X98521271Y-135343448D01*
X98419814Y-135260186D01*
X98323643Y-135143000D01*
X98307222Y-135122991D01*
X98223557Y-134966466D01*
X98172037Y-134796627D01*
X98154641Y-134620000D01*
X98172037Y-134443373D01*
X98223557Y-134273534D01*
X98307222Y-134117009D01*
X98336552Y-134081271D01*
X98419814Y-133979814D01*
X98521271Y-133896552D01*
X98557009Y-133867222D01*
X98713534Y-133783557D01*
X98883373Y-133732037D01*
X98949557Y-133725519D01*
X99015740Y-133719000D01*
X99104260Y-133719000D01*
X99170443Y-133725519D01*
X99170443Y-133725519D01*
G37*
G36*
X110441591Y-134182085D02*
G01*
X110475569Y-134192393D01*
X110506890Y-134209134D01*
X110534339Y-134231661D01*
X110556866Y-134259110D01*
X110573607Y-134290431D01*
X110583915Y-134324409D01*
X110588000Y-134365890D01*
X110588000Y-134967110D01*
X110583915Y-135008591D01*
X110573607Y-135042569D01*
X110556866Y-135073890D01*
X110534339Y-135101339D01*
X110506890Y-135123866D01*
X110475569Y-135140607D01*
X110441591Y-135150915D01*
X110400110Y-135155000D01*
X109723890Y-135155000D01*
X109682409Y-135150915D01*
X109648431Y-135140607D01*
X109617110Y-135123866D01*
X109589661Y-135101339D01*
X109567134Y-135073890D01*
X109550393Y-135042569D01*
X109540085Y-135008591D01*
X109536000Y-134967110D01*
X109536000Y-134365890D01*
X109540085Y-134324409D01*
X109550393Y-134290431D01*
X109567134Y-134259110D01*
X109589661Y-134231661D01*
X109617110Y-134209134D01*
X109648431Y-134192393D01*
X109682409Y-134182085D01*
X109723890Y-134178000D01*
X110400110Y-134178000D01*
X110441591Y-134182085D01*
X110441591Y-134182085D01*
G37*
G36*
X106841591Y-134170085D02*
G01*
X106875569Y-134180393D01*
X106906890Y-134197134D01*
X106934339Y-134219661D01*
X106956866Y-134247110D01*
X106973607Y-134278431D01*
X106983915Y-134312409D01*
X106988000Y-134353890D01*
X106988000Y-134955110D01*
X106983915Y-134996591D01*
X106973607Y-135030569D01*
X106956866Y-135061890D01*
X106934339Y-135089339D01*
X106906890Y-135111866D01*
X106875569Y-135128607D01*
X106841591Y-135138915D01*
X106800110Y-135143000D01*
X106123890Y-135143000D01*
X106082409Y-135138915D01*
X106048431Y-135128607D01*
X106017110Y-135111866D01*
X105989661Y-135089339D01*
X105967134Y-135061890D01*
X105950393Y-135030569D01*
X105940085Y-134996591D01*
X105936000Y-134955110D01*
X105936000Y-134353890D01*
X105940085Y-134312409D01*
X105950393Y-134278431D01*
X105967134Y-134247110D01*
X105989661Y-134219661D01*
X106017110Y-134197134D01*
X106048431Y-134180393D01*
X106082409Y-134170085D01*
X106123890Y-134166000D01*
X106800110Y-134166000D01*
X106841591Y-134170085D01*
X106841591Y-134170085D01*
G37*
G36*
X108641591Y-134170085D02*
G01*
X108675569Y-134180393D01*
X108706890Y-134197134D01*
X108734339Y-134219661D01*
X108756866Y-134247110D01*
X108773607Y-134278431D01*
X108783915Y-134312409D01*
X108788000Y-134353890D01*
X108788000Y-134955110D01*
X108783915Y-134996591D01*
X108773607Y-135030569D01*
X108756866Y-135061890D01*
X108734339Y-135089339D01*
X108706890Y-135111866D01*
X108675569Y-135128607D01*
X108641591Y-135138915D01*
X108600110Y-135143000D01*
X107923890Y-135143000D01*
X107882409Y-135138915D01*
X107848431Y-135128607D01*
X107817110Y-135111866D01*
X107789661Y-135089339D01*
X107767134Y-135061890D01*
X107750393Y-135030569D01*
X107740085Y-134996591D01*
X107736000Y-134955110D01*
X107736000Y-134353890D01*
X107740085Y-134312409D01*
X107750393Y-134278431D01*
X107767134Y-134247110D01*
X107789661Y-134219661D01*
X107817110Y-134197134D01*
X107848431Y-134180393D01*
X107882409Y-134170085D01*
X107923890Y-134166000D01*
X108600110Y-134166000D01*
X108641591Y-134170085D01*
X108641591Y-134170085D01*
G37*
G36*
X116950442Y-131185518D02*
G01*
X117016627Y-131192037D01*
X117186466Y-131243557D01*
X117342991Y-131327222D01*
X117378729Y-131356552D01*
X117480186Y-131439814D01*
X117563448Y-131541271D01*
X117592778Y-131577009D01*
X117676443Y-131733534D01*
X117727963Y-131903373D01*
X117745359Y-132080000D01*
X117727963Y-132256627D01*
X117676443Y-132426466D01*
X117592778Y-132582991D01*
X117563448Y-132618729D01*
X117480186Y-132720186D01*
X117378729Y-132803448D01*
X117342991Y-132832778D01*
X117186466Y-132916443D01*
X117016627Y-132967963D01*
X116950443Y-132974481D01*
X116884260Y-132981000D01*
X116795740Y-132981000D01*
X116729557Y-132974481D01*
X116663373Y-132967963D01*
X116493534Y-132916443D01*
X116337009Y-132832778D01*
X116301271Y-132803448D01*
X116199814Y-132720186D01*
X116116552Y-132618729D01*
X116087222Y-132582991D01*
X116003557Y-132426466D01*
X115952037Y-132256627D01*
X115934641Y-132080000D01*
X115952037Y-131903373D01*
X116003557Y-131733534D01*
X116087222Y-131577009D01*
X116116552Y-131541271D01*
X116199814Y-131439814D01*
X116301271Y-131356552D01*
X116337009Y-131327222D01*
X116493534Y-131243557D01*
X116663373Y-131192037D01*
X116729558Y-131185518D01*
X116795740Y-131179000D01*
X116884260Y-131179000D01*
X116950442Y-131185518D01*
X116950442Y-131185518D01*
G37*
G36*
X99170442Y-131185518D02*
G01*
X99236627Y-131192037D01*
X99406466Y-131243557D01*
X99562991Y-131327222D01*
X99598729Y-131356552D01*
X99700186Y-131439814D01*
X99783448Y-131541271D01*
X99812778Y-131577009D01*
X99896443Y-131733534D01*
X99947963Y-131903373D01*
X99965359Y-132080000D01*
X99947963Y-132256627D01*
X99896443Y-132426466D01*
X99812778Y-132582991D01*
X99783448Y-132618729D01*
X99700186Y-132720186D01*
X99598729Y-132803448D01*
X99562991Y-132832778D01*
X99406466Y-132916443D01*
X99236627Y-132967963D01*
X99170443Y-132974481D01*
X99104260Y-132981000D01*
X99015740Y-132981000D01*
X98949557Y-132974481D01*
X98883373Y-132967963D01*
X98713534Y-132916443D01*
X98557009Y-132832778D01*
X98521271Y-132803448D01*
X98419814Y-132720186D01*
X98336552Y-132618729D01*
X98307222Y-132582991D01*
X98223557Y-132426466D01*
X98172037Y-132256627D01*
X98154641Y-132080000D01*
X98172037Y-131903373D01*
X98223557Y-131733534D01*
X98307222Y-131577009D01*
X98336552Y-131541271D01*
X98419814Y-131439814D01*
X98521271Y-131356552D01*
X98557009Y-131327222D01*
X98713534Y-131243557D01*
X98883373Y-131192037D01*
X98949558Y-131185518D01*
X99015740Y-131179000D01*
X99104260Y-131179000D01*
X99170442Y-131185518D01*
X99170442Y-131185518D01*
G37*
G36*
X110632517Y-130033781D02*
G01*
X110759946Y-130072436D01*
X110877383Y-130135208D01*
X110980317Y-130219683D01*
X111064792Y-130322617D01*
X111127564Y-130440054D01*
X111166219Y-130567483D01*
X111179270Y-130700000D01*
X111166219Y-130832517D01*
X111127564Y-130959946D01*
X111064792Y-131077383D01*
X110980317Y-131180317D01*
X110877383Y-131264792D01*
X110759946Y-131327564D01*
X110632517Y-131366219D01*
X110533205Y-131376000D01*
X110466795Y-131376000D01*
X110367483Y-131366219D01*
X110240054Y-131327564D01*
X110122617Y-131264792D01*
X110019683Y-131180317D01*
X109935208Y-131077383D01*
X109872436Y-130959946D01*
X109833781Y-130832517D01*
X109820730Y-130700000D01*
X109833781Y-130567483D01*
X109872436Y-130440054D01*
X109935208Y-130322617D01*
X110019683Y-130219683D01*
X110122617Y-130135208D01*
X110240054Y-130072436D01*
X110367483Y-130033781D01*
X110466795Y-130024000D01*
X110533205Y-130024000D01*
X110632517Y-130033781D01*
X110632517Y-130033781D01*
G37*
G36*
X105632517Y-130033781D02*
G01*
X105759946Y-130072436D01*
X105877383Y-130135208D01*
X105980317Y-130219683D01*
X106064792Y-130322617D01*
X106127564Y-130440054D01*
X106166219Y-130567483D01*
X106179270Y-130700000D01*
X106166219Y-130832517D01*
X106127564Y-130959946D01*
X106064792Y-131077383D01*
X105980317Y-131180317D01*
X105877383Y-131264792D01*
X105759946Y-131327564D01*
X105632517Y-131366219D01*
X105533205Y-131376000D01*
X105466795Y-131376000D01*
X105367483Y-131366219D01*
X105240054Y-131327564D01*
X105122617Y-131264792D01*
X105019683Y-131180317D01*
X104935208Y-131077383D01*
X104872436Y-130959946D01*
X104833781Y-130832517D01*
X104820730Y-130700000D01*
X104833781Y-130567483D01*
X104872436Y-130440054D01*
X104935208Y-130322617D01*
X105019683Y-130219683D01*
X105122617Y-130135208D01*
X105240054Y-130072436D01*
X105367483Y-130033781D01*
X105466795Y-130024000D01*
X105533205Y-130024000D01*
X105632517Y-130033781D01*
X105632517Y-130033781D01*
G37*
G36*
X116950443Y-128645519D02*
G01*
X117016627Y-128652037D01*
X117186466Y-128703557D01*
X117342991Y-128787222D01*
X117375678Y-128814048D01*
X117480186Y-128899814D01*
X117563448Y-129001271D01*
X117592778Y-129037009D01*
X117676443Y-129193534D01*
X117727963Y-129363373D01*
X117745359Y-129540000D01*
X117727963Y-129716627D01*
X117676443Y-129886466D01*
X117592778Y-130042991D01*
X117568613Y-130072436D01*
X117480186Y-130180186D01*
X117378729Y-130263448D01*
X117342991Y-130292778D01*
X117186466Y-130376443D01*
X117016627Y-130427963D01*
X116950443Y-130434481D01*
X116884260Y-130441000D01*
X116795740Y-130441000D01*
X116729557Y-130434481D01*
X116663373Y-130427963D01*
X116493534Y-130376443D01*
X116337009Y-130292778D01*
X116301271Y-130263448D01*
X116199814Y-130180186D01*
X116111387Y-130072436D01*
X116087222Y-130042991D01*
X116003557Y-129886466D01*
X115952037Y-129716627D01*
X115934641Y-129540000D01*
X115952037Y-129363373D01*
X116003557Y-129193534D01*
X116087222Y-129037009D01*
X116116552Y-129001271D01*
X116199814Y-128899814D01*
X116304322Y-128814048D01*
X116337009Y-128787222D01*
X116493534Y-128703557D01*
X116663373Y-128652037D01*
X116729557Y-128645519D01*
X116795740Y-128639000D01*
X116884260Y-128639000D01*
X116950443Y-128645519D01*
X116950443Y-128645519D01*
G37*
G36*
X99961000Y-130441000D02*
G01*
X98159000Y-130441000D01*
X98159000Y-128639000D01*
X99961000Y-128639000D01*
X99961000Y-130441000D01*
X99961000Y-130441000D01*
G37*
G36*
X111601248Y-127179976D02*
G01*
X111661924Y-127185952D01*
X111817626Y-127233184D01*
X111817628Y-127233185D01*
X111961121Y-127309883D01*
X112086896Y-127413104D01*
X112190117Y-127538879D01*
X112266815Y-127682372D01*
X112266816Y-127682374D01*
X112314048Y-127838076D01*
X112329996Y-128000000D01*
X112314048Y-128161924D01*
X112266816Y-128317626D01*
X112266815Y-128317628D01*
X112190117Y-128461121D01*
X112086896Y-128586896D01*
X111961121Y-128690117D01*
X111817628Y-128766815D01*
X111817626Y-128766816D01*
X111661924Y-128814048D01*
X111601248Y-128820024D01*
X111540574Y-128826000D01*
X111459426Y-128826000D01*
X111398752Y-128820024D01*
X111338076Y-128814048D01*
X111182374Y-128766816D01*
X111182372Y-128766815D01*
X111038879Y-128690117D01*
X110913104Y-128586896D01*
X110809883Y-128461121D01*
X110733185Y-128317628D01*
X110733184Y-128317626D01*
X110685952Y-128161924D01*
X110670004Y-128000000D01*
X110685952Y-127838076D01*
X110733184Y-127682374D01*
X110733185Y-127682372D01*
X110809883Y-127538879D01*
X110913104Y-127413104D01*
X111038879Y-127309883D01*
X111182372Y-127233185D01*
X111182374Y-127233184D01*
X111338076Y-127185952D01*
X111398752Y-127179976D01*
X111459426Y-127174000D01*
X111540574Y-127174000D01*
X111601248Y-127179976D01*
X111601248Y-127179976D01*
G37*
G36*
X104601248Y-127179976D02*
G01*
X104661924Y-127185952D01*
X104817626Y-127233184D01*
X104817628Y-127233185D01*
X104961121Y-127309883D01*
X105086896Y-127413104D01*
X105190117Y-127538879D01*
X105266815Y-127682372D01*
X105266816Y-127682374D01*
X105314048Y-127838076D01*
X105329996Y-128000000D01*
X105314048Y-128161924D01*
X105266816Y-128317626D01*
X105266815Y-128317628D01*
X105190117Y-128461121D01*
X105086896Y-128586896D01*
X104961121Y-128690117D01*
X104817628Y-128766815D01*
X104817626Y-128766816D01*
X104661924Y-128814048D01*
X104601248Y-128820024D01*
X104540574Y-128826000D01*
X104459426Y-128826000D01*
X104398752Y-128820024D01*
X104338076Y-128814048D01*
X104182374Y-128766816D01*
X104182372Y-128766815D01*
X104038879Y-128690117D01*
X103913104Y-128586896D01*
X103809883Y-128461121D01*
X103733185Y-128317628D01*
X103733184Y-128317626D01*
X103685952Y-128161924D01*
X103670004Y-128000000D01*
X103685952Y-127838076D01*
X103733184Y-127682374D01*
X103733185Y-127682372D01*
X103809883Y-127538879D01*
X103913104Y-127413104D01*
X104038879Y-127309883D01*
X104182372Y-127233185D01*
X104182374Y-127233184D01*
X104338076Y-127185952D01*
X104398752Y-127179976D01*
X104459426Y-127174000D01*
X104540574Y-127174000D01*
X104601248Y-127179976D01*
X104601248Y-127179976D01*
G37*
M02*
