G04 #@! TF.GenerationSoftware,KiCad,Pcbnew,(5.1.2)-1*
G04 #@! TF.CreationDate,2022-09-21T22:05:37+09:00*
G04 #@! TF.ProjectId,converter,636f6e76-6572-4746-9572-2e6b69636164,v2.0*
G04 #@! TF.SameCoordinates,Original*
G04 #@! TF.FileFunction,Copper,L1,Top*
G04 #@! TF.FilePolarity,Positive*
%FSLAX46Y46*%
G04 Gerber Fmt 4.6, Leading zero omitted, Abs format (unit mm)*
G04 Created by KiCad (PCBNEW (5.1.2)-1) date 2022-09-21 22:05:37*
%MOMM*%
%LPD*%
G04 APERTURE LIST*
%ADD10R,1.500000X0.450000*%
%ADD11C,0.100000*%
%ADD12C,0.975000*%
%ADD13C,0.875000*%
%ADD14O,1.250000X1.250000*%
%ADD15O,1.550000X1.550000*%
%ADD16R,0.400000X1.350000*%
%ADD17R,1.060000X0.650000*%
%ADD18O,1.524000X1.800000*%
%ADD19O,1.700000X1.700000*%
%ADD20R,1.700000X1.700000*%
%ADD21R,1.600000X1.000000*%
%ADD22C,0.800000*%
%ADD23C,0.200000*%
%ADD24C,0.270000*%
%ADD25C,0.280000*%
%ADD26C,0.254000*%
G04 APERTURE END LIST*
D10*
X110900000Y-141743000D03*
X110900000Y-142393000D03*
X110900000Y-143043000D03*
X110900000Y-143693000D03*
X110900000Y-144343000D03*
X110900000Y-144993000D03*
X110900000Y-145643000D03*
X110900000Y-146293000D03*
X105000000Y-146293000D03*
X105000000Y-145643000D03*
X105000000Y-144993000D03*
X105000000Y-144343000D03*
X105000000Y-143693000D03*
X105000000Y-143043000D03*
X105000000Y-142393000D03*
X105000000Y-141743000D03*
D11*
G36*
X102534142Y-136559174D02*
G01*
X102557803Y-136562684D01*
X102581007Y-136568496D01*
X102603529Y-136576554D01*
X102625153Y-136586782D01*
X102645670Y-136599079D01*
X102664883Y-136613329D01*
X102682607Y-136629393D01*
X102698671Y-136647117D01*
X102712921Y-136666330D01*
X102725218Y-136686847D01*
X102735446Y-136708471D01*
X102743504Y-136730993D01*
X102749316Y-136754197D01*
X102752826Y-136777858D01*
X102754000Y-136801750D01*
X102754000Y-137289250D01*
X102752826Y-137313142D01*
X102749316Y-137336803D01*
X102743504Y-137360007D01*
X102735446Y-137382529D01*
X102725218Y-137404153D01*
X102712921Y-137424670D01*
X102698671Y-137443883D01*
X102682607Y-137461607D01*
X102664883Y-137477671D01*
X102645670Y-137491921D01*
X102625153Y-137504218D01*
X102603529Y-137514446D01*
X102581007Y-137522504D01*
X102557803Y-137528316D01*
X102534142Y-137531826D01*
X102510250Y-137533000D01*
X101597750Y-137533000D01*
X101573858Y-137531826D01*
X101550197Y-137528316D01*
X101526993Y-137522504D01*
X101504471Y-137514446D01*
X101482847Y-137504218D01*
X101462330Y-137491921D01*
X101443117Y-137477671D01*
X101425393Y-137461607D01*
X101409329Y-137443883D01*
X101395079Y-137424670D01*
X101382782Y-137404153D01*
X101372554Y-137382529D01*
X101364496Y-137360007D01*
X101358684Y-137336803D01*
X101355174Y-137313142D01*
X101354000Y-137289250D01*
X101354000Y-136801750D01*
X101355174Y-136777858D01*
X101358684Y-136754197D01*
X101364496Y-136730993D01*
X101372554Y-136708471D01*
X101382782Y-136686847D01*
X101395079Y-136666330D01*
X101409329Y-136647117D01*
X101425393Y-136629393D01*
X101443117Y-136613329D01*
X101462330Y-136599079D01*
X101482847Y-136586782D01*
X101504471Y-136576554D01*
X101526993Y-136568496D01*
X101550197Y-136562684D01*
X101573858Y-136559174D01*
X101597750Y-136558000D01*
X102510250Y-136558000D01*
X102534142Y-136559174D01*
X102534142Y-136559174D01*
G37*
D12*
X102054000Y-137045500D03*
D11*
G36*
X102534142Y-134684174D02*
G01*
X102557803Y-134687684D01*
X102581007Y-134693496D01*
X102603529Y-134701554D01*
X102625153Y-134711782D01*
X102645670Y-134724079D01*
X102664883Y-134738329D01*
X102682607Y-134754393D01*
X102698671Y-134772117D01*
X102712921Y-134791330D01*
X102725218Y-134811847D01*
X102735446Y-134833471D01*
X102743504Y-134855993D01*
X102749316Y-134879197D01*
X102752826Y-134902858D01*
X102754000Y-134926750D01*
X102754000Y-135414250D01*
X102752826Y-135438142D01*
X102749316Y-135461803D01*
X102743504Y-135485007D01*
X102735446Y-135507529D01*
X102725218Y-135529153D01*
X102712921Y-135549670D01*
X102698671Y-135568883D01*
X102682607Y-135586607D01*
X102664883Y-135602671D01*
X102645670Y-135616921D01*
X102625153Y-135629218D01*
X102603529Y-135639446D01*
X102581007Y-135647504D01*
X102557803Y-135653316D01*
X102534142Y-135656826D01*
X102510250Y-135658000D01*
X101597750Y-135658000D01*
X101573858Y-135656826D01*
X101550197Y-135653316D01*
X101526993Y-135647504D01*
X101504471Y-135639446D01*
X101482847Y-135629218D01*
X101462330Y-135616921D01*
X101443117Y-135602671D01*
X101425393Y-135586607D01*
X101409329Y-135568883D01*
X101395079Y-135549670D01*
X101382782Y-135529153D01*
X101372554Y-135507529D01*
X101364496Y-135485007D01*
X101358684Y-135461803D01*
X101355174Y-135438142D01*
X101354000Y-135414250D01*
X101354000Y-134926750D01*
X101355174Y-134902858D01*
X101358684Y-134879197D01*
X101364496Y-134855993D01*
X101372554Y-134833471D01*
X101382782Y-134811847D01*
X101395079Y-134791330D01*
X101409329Y-134772117D01*
X101425393Y-134754393D01*
X101443117Y-134738329D01*
X101462330Y-134724079D01*
X101482847Y-134711782D01*
X101504471Y-134701554D01*
X101526993Y-134693496D01*
X101550197Y-134687684D01*
X101573858Y-134684174D01*
X101597750Y-134683000D01*
X102510250Y-134683000D01*
X102534142Y-134684174D01*
X102534142Y-134684174D01*
G37*
D12*
X102054000Y-135170500D03*
D11*
G36*
X106494691Y-138372053D02*
G01*
X106515926Y-138375203D01*
X106536750Y-138380419D01*
X106556962Y-138387651D01*
X106576368Y-138396830D01*
X106594781Y-138407866D01*
X106612024Y-138420654D01*
X106627930Y-138435070D01*
X106642346Y-138450976D01*
X106655134Y-138468219D01*
X106666170Y-138486632D01*
X106675349Y-138506038D01*
X106682581Y-138526250D01*
X106687797Y-138547074D01*
X106690947Y-138568309D01*
X106692000Y-138589750D01*
X106692000Y-139102250D01*
X106690947Y-139123691D01*
X106687797Y-139144926D01*
X106682581Y-139165750D01*
X106675349Y-139185962D01*
X106666170Y-139205368D01*
X106655134Y-139223781D01*
X106642346Y-139241024D01*
X106627930Y-139256930D01*
X106612024Y-139271346D01*
X106594781Y-139284134D01*
X106576368Y-139295170D01*
X106556962Y-139304349D01*
X106536750Y-139311581D01*
X106515926Y-139316797D01*
X106494691Y-139319947D01*
X106473250Y-139321000D01*
X106035750Y-139321000D01*
X106014309Y-139319947D01*
X105993074Y-139316797D01*
X105972250Y-139311581D01*
X105952038Y-139304349D01*
X105932632Y-139295170D01*
X105914219Y-139284134D01*
X105896976Y-139271346D01*
X105881070Y-139256930D01*
X105866654Y-139241024D01*
X105853866Y-139223781D01*
X105842830Y-139205368D01*
X105833651Y-139185962D01*
X105826419Y-139165750D01*
X105821203Y-139144926D01*
X105818053Y-139123691D01*
X105817000Y-139102250D01*
X105817000Y-138589750D01*
X105818053Y-138568309D01*
X105821203Y-138547074D01*
X105826419Y-138526250D01*
X105833651Y-138506038D01*
X105842830Y-138486632D01*
X105853866Y-138468219D01*
X105866654Y-138450976D01*
X105881070Y-138435070D01*
X105896976Y-138420654D01*
X105914219Y-138407866D01*
X105932632Y-138396830D01*
X105952038Y-138387651D01*
X105972250Y-138380419D01*
X105993074Y-138375203D01*
X106014309Y-138372053D01*
X106035750Y-138371000D01*
X106473250Y-138371000D01*
X106494691Y-138372053D01*
X106494691Y-138372053D01*
G37*
D13*
X106254500Y-138846000D03*
D11*
G36*
X108069691Y-138372053D02*
G01*
X108090926Y-138375203D01*
X108111750Y-138380419D01*
X108131962Y-138387651D01*
X108151368Y-138396830D01*
X108169781Y-138407866D01*
X108187024Y-138420654D01*
X108202930Y-138435070D01*
X108217346Y-138450976D01*
X108230134Y-138468219D01*
X108241170Y-138486632D01*
X108250349Y-138506038D01*
X108257581Y-138526250D01*
X108262797Y-138547074D01*
X108265947Y-138568309D01*
X108267000Y-138589750D01*
X108267000Y-139102250D01*
X108265947Y-139123691D01*
X108262797Y-139144926D01*
X108257581Y-139165750D01*
X108250349Y-139185962D01*
X108241170Y-139205368D01*
X108230134Y-139223781D01*
X108217346Y-139241024D01*
X108202930Y-139256930D01*
X108187024Y-139271346D01*
X108169781Y-139284134D01*
X108151368Y-139295170D01*
X108131962Y-139304349D01*
X108111750Y-139311581D01*
X108090926Y-139316797D01*
X108069691Y-139319947D01*
X108048250Y-139321000D01*
X107610750Y-139321000D01*
X107589309Y-139319947D01*
X107568074Y-139316797D01*
X107547250Y-139311581D01*
X107527038Y-139304349D01*
X107507632Y-139295170D01*
X107489219Y-139284134D01*
X107471976Y-139271346D01*
X107456070Y-139256930D01*
X107441654Y-139241024D01*
X107428866Y-139223781D01*
X107417830Y-139205368D01*
X107408651Y-139185962D01*
X107401419Y-139165750D01*
X107396203Y-139144926D01*
X107393053Y-139123691D01*
X107392000Y-139102250D01*
X107392000Y-138589750D01*
X107393053Y-138568309D01*
X107396203Y-138547074D01*
X107401419Y-138526250D01*
X107408651Y-138506038D01*
X107417830Y-138486632D01*
X107428866Y-138468219D01*
X107441654Y-138450976D01*
X107456070Y-138435070D01*
X107471976Y-138420654D01*
X107489219Y-138407866D01*
X107507632Y-138396830D01*
X107527038Y-138387651D01*
X107547250Y-138380419D01*
X107568074Y-138375203D01*
X107589309Y-138372053D01*
X107610750Y-138371000D01*
X108048250Y-138371000D01*
X108069691Y-138372053D01*
X108069691Y-138372053D01*
G37*
D13*
X107829500Y-138846000D03*
D11*
G36*
X108734142Y-136659174D02*
G01*
X108757803Y-136662684D01*
X108781007Y-136668496D01*
X108803529Y-136676554D01*
X108825153Y-136686782D01*
X108845670Y-136699079D01*
X108864883Y-136713329D01*
X108882607Y-136729393D01*
X108898671Y-136747117D01*
X108912921Y-136766330D01*
X108925218Y-136786847D01*
X108935446Y-136808471D01*
X108943504Y-136830993D01*
X108949316Y-136854197D01*
X108952826Y-136877858D01*
X108954000Y-136901750D01*
X108954000Y-137389250D01*
X108952826Y-137413142D01*
X108949316Y-137436803D01*
X108943504Y-137460007D01*
X108935446Y-137482529D01*
X108925218Y-137504153D01*
X108912921Y-137524670D01*
X108898671Y-137543883D01*
X108882607Y-137561607D01*
X108864883Y-137577671D01*
X108845670Y-137591921D01*
X108825153Y-137604218D01*
X108803529Y-137614446D01*
X108781007Y-137622504D01*
X108757803Y-137628316D01*
X108734142Y-137631826D01*
X108710250Y-137633000D01*
X107797750Y-137633000D01*
X107773858Y-137631826D01*
X107750197Y-137628316D01*
X107726993Y-137622504D01*
X107704471Y-137614446D01*
X107682847Y-137604218D01*
X107662330Y-137591921D01*
X107643117Y-137577671D01*
X107625393Y-137561607D01*
X107609329Y-137543883D01*
X107595079Y-137524670D01*
X107582782Y-137504153D01*
X107572554Y-137482529D01*
X107564496Y-137460007D01*
X107558684Y-137436803D01*
X107555174Y-137413142D01*
X107554000Y-137389250D01*
X107554000Y-136901750D01*
X107555174Y-136877858D01*
X107558684Y-136854197D01*
X107564496Y-136830993D01*
X107572554Y-136808471D01*
X107582782Y-136786847D01*
X107595079Y-136766330D01*
X107609329Y-136747117D01*
X107625393Y-136729393D01*
X107643117Y-136713329D01*
X107662330Y-136699079D01*
X107682847Y-136686782D01*
X107704471Y-136676554D01*
X107726993Y-136668496D01*
X107750197Y-136662684D01*
X107773858Y-136659174D01*
X107797750Y-136658000D01*
X108710250Y-136658000D01*
X108734142Y-136659174D01*
X108734142Y-136659174D01*
G37*
D12*
X108254000Y-137145500D03*
D11*
G36*
X108734142Y-134784174D02*
G01*
X108757803Y-134787684D01*
X108781007Y-134793496D01*
X108803529Y-134801554D01*
X108825153Y-134811782D01*
X108845670Y-134824079D01*
X108864883Y-134838329D01*
X108882607Y-134854393D01*
X108898671Y-134872117D01*
X108912921Y-134891330D01*
X108925218Y-134911847D01*
X108935446Y-134933471D01*
X108943504Y-134955993D01*
X108949316Y-134979197D01*
X108952826Y-135002858D01*
X108954000Y-135026750D01*
X108954000Y-135514250D01*
X108952826Y-135538142D01*
X108949316Y-135561803D01*
X108943504Y-135585007D01*
X108935446Y-135607529D01*
X108925218Y-135629153D01*
X108912921Y-135649670D01*
X108898671Y-135668883D01*
X108882607Y-135686607D01*
X108864883Y-135702671D01*
X108845670Y-135716921D01*
X108825153Y-135729218D01*
X108803529Y-135739446D01*
X108781007Y-135747504D01*
X108757803Y-135753316D01*
X108734142Y-135756826D01*
X108710250Y-135758000D01*
X107797750Y-135758000D01*
X107773858Y-135756826D01*
X107750197Y-135753316D01*
X107726993Y-135747504D01*
X107704471Y-135739446D01*
X107682847Y-135729218D01*
X107662330Y-135716921D01*
X107643117Y-135702671D01*
X107625393Y-135686607D01*
X107609329Y-135668883D01*
X107595079Y-135649670D01*
X107582782Y-135629153D01*
X107572554Y-135607529D01*
X107564496Y-135585007D01*
X107558684Y-135561803D01*
X107555174Y-135538142D01*
X107554000Y-135514250D01*
X107554000Y-135026750D01*
X107555174Y-135002858D01*
X107558684Y-134979197D01*
X107564496Y-134955993D01*
X107572554Y-134933471D01*
X107582782Y-134911847D01*
X107595079Y-134891330D01*
X107609329Y-134872117D01*
X107625393Y-134854393D01*
X107643117Y-134838329D01*
X107662330Y-134824079D01*
X107682847Y-134811782D01*
X107704471Y-134801554D01*
X107726993Y-134793496D01*
X107750197Y-134787684D01*
X107773858Y-134784174D01*
X107797750Y-134783000D01*
X108710250Y-134783000D01*
X108734142Y-134784174D01*
X108734142Y-134784174D01*
G37*
D12*
X108254000Y-135270500D03*
D11*
G36*
X102077691Y-129639053D02*
G01*
X102098926Y-129642203D01*
X102119750Y-129647419D01*
X102139962Y-129654651D01*
X102159368Y-129663830D01*
X102177781Y-129674866D01*
X102195024Y-129687654D01*
X102210930Y-129702070D01*
X102225346Y-129717976D01*
X102238134Y-129735219D01*
X102249170Y-129753632D01*
X102258349Y-129773038D01*
X102265581Y-129793250D01*
X102270797Y-129814074D01*
X102273947Y-129835309D01*
X102275000Y-129856750D01*
X102275000Y-130294250D01*
X102273947Y-130315691D01*
X102270797Y-130336926D01*
X102265581Y-130357750D01*
X102258349Y-130377962D01*
X102249170Y-130397368D01*
X102238134Y-130415781D01*
X102225346Y-130433024D01*
X102210930Y-130448930D01*
X102195024Y-130463346D01*
X102177781Y-130476134D01*
X102159368Y-130487170D01*
X102139962Y-130496349D01*
X102119750Y-130503581D01*
X102098926Y-130508797D01*
X102077691Y-130511947D01*
X102056250Y-130513000D01*
X101543750Y-130513000D01*
X101522309Y-130511947D01*
X101501074Y-130508797D01*
X101480250Y-130503581D01*
X101460038Y-130496349D01*
X101440632Y-130487170D01*
X101422219Y-130476134D01*
X101404976Y-130463346D01*
X101389070Y-130448930D01*
X101374654Y-130433024D01*
X101361866Y-130415781D01*
X101350830Y-130397368D01*
X101341651Y-130377962D01*
X101334419Y-130357750D01*
X101329203Y-130336926D01*
X101326053Y-130315691D01*
X101325000Y-130294250D01*
X101325000Y-129856750D01*
X101326053Y-129835309D01*
X101329203Y-129814074D01*
X101334419Y-129793250D01*
X101341651Y-129773038D01*
X101350830Y-129753632D01*
X101361866Y-129735219D01*
X101374654Y-129717976D01*
X101389070Y-129702070D01*
X101404976Y-129687654D01*
X101422219Y-129674866D01*
X101440632Y-129663830D01*
X101460038Y-129654651D01*
X101480250Y-129647419D01*
X101501074Y-129642203D01*
X101522309Y-129639053D01*
X101543750Y-129638000D01*
X102056250Y-129638000D01*
X102077691Y-129639053D01*
X102077691Y-129639053D01*
G37*
D13*
X101800000Y-130075500D03*
D11*
G36*
X102077691Y-128064053D02*
G01*
X102098926Y-128067203D01*
X102119750Y-128072419D01*
X102139962Y-128079651D01*
X102159368Y-128088830D01*
X102177781Y-128099866D01*
X102195024Y-128112654D01*
X102210930Y-128127070D01*
X102225346Y-128142976D01*
X102238134Y-128160219D01*
X102249170Y-128178632D01*
X102258349Y-128198038D01*
X102265581Y-128218250D01*
X102270797Y-128239074D01*
X102273947Y-128260309D01*
X102275000Y-128281750D01*
X102275000Y-128719250D01*
X102273947Y-128740691D01*
X102270797Y-128761926D01*
X102265581Y-128782750D01*
X102258349Y-128802962D01*
X102249170Y-128822368D01*
X102238134Y-128840781D01*
X102225346Y-128858024D01*
X102210930Y-128873930D01*
X102195024Y-128888346D01*
X102177781Y-128901134D01*
X102159368Y-128912170D01*
X102139962Y-128921349D01*
X102119750Y-128928581D01*
X102098926Y-128933797D01*
X102077691Y-128936947D01*
X102056250Y-128938000D01*
X101543750Y-128938000D01*
X101522309Y-128936947D01*
X101501074Y-128933797D01*
X101480250Y-128928581D01*
X101460038Y-128921349D01*
X101440632Y-128912170D01*
X101422219Y-128901134D01*
X101404976Y-128888346D01*
X101389070Y-128873930D01*
X101374654Y-128858024D01*
X101361866Y-128840781D01*
X101350830Y-128822368D01*
X101341651Y-128802962D01*
X101334419Y-128782750D01*
X101329203Y-128761926D01*
X101326053Y-128740691D01*
X101325000Y-128719250D01*
X101325000Y-128281750D01*
X101326053Y-128260309D01*
X101329203Y-128239074D01*
X101334419Y-128218250D01*
X101341651Y-128198038D01*
X101350830Y-128178632D01*
X101361866Y-128160219D01*
X101374654Y-128142976D01*
X101389070Y-128127070D01*
X101404976Y-128112654D01*
X101422219Y-128099866D01*
X101440632Y-128088830D01*
X101460038Y-128079651D01*
X101480250Y-128072419D01*
X101501074Y-128067203D01*
X101522309Y-128064053D01*
X101543750Y-128063000D01*
X102056250Y-128063000D01*
X102077691Y-128064053D01*
X102077691Y-128064053D01*
G37*
D13*
X101800000Y-128500500D03*
D14*
X105500000Y-130700000D03*
X110500000Y-130700000D03*
D15*
X104500000Y-128000000D03*
X111500000Y-128000000D03*
D16*
X106700000Y-130700000D03*
X107350000Y-130700000D03*
X108000000Y-130700000D03*
X108650000Y-130700000D03*
X109300000Y-130700000D03*
D11*
G36*
X114377691Y-129864053D02*
G01*
X114398926Y-129867203D01*
X114419750Y-129872419D01*
X114439962Y-129879651D01*
X114459368Y-129888830D01*
X114477781Y-129899866D01*
X114495024Y-129912654D01*
X114510930Y-129927070D01*
X114525346Y-129942976D01*
X114538134Y-129960219D01*
X114549170Y-129978632D01*
X114558349Y-129998038D01*
X114565581Y-130018250D01*
X114570797Y-130039074D01*
X114573947Y-130060309D01*
X114575000Y-130081750D01*
X114575000Y-130519250D01*
X114573947Y-130540691D01*
X114570797Y-130561926D01*
X114565581Y-130582750D01*
X114558349Y-130602962D01*
X114549170Y-130622368D01*
X114538134Y-130640781D01*
X114525346Y-130658024D01*
X114510930Y-130673930D01*
X114495024Y-130688346D01*
X114477781Y-130701134D01*
X114459368Y-130712170D01*
X114439962Y-130721349D01*
X114419750Y-130728581D01*
X114398926Y-130733797D01*
X114377691Y-130736947D01*
X114356250Y-130738000D01*
X113843750Y-130738000D01*
X113822309Y-130736947D01*
X113801074Y-130733797D01*
X113780250Y-130728581D01*
X113760038Y-130721349D01*
X113740632Y-130712170D01*
X113722219Y-130701134D01*
X113704976Y-130688346D01*
X113689070Y-130673930D01*
X113674654Y-130658024D01*
X113661866Y-130640781D01*
X113650830Y-130622368D01*
X113641651Y-130602962D01*
X113634419Y-130582750D01*
X113629203Y-130561926D01*
X113626053Y-130540691D01*
X113625000Y-130519250D01*
X113625000Y-130081750D01*
X113626053Y-130060309D01*
X113629203Y-130039074D01*
X113634419Y-130018250D01*
X113641651Y-129998038D01*
X113650830Y-129978632D01*
X113661866Y-129960219D01*
X113674654Y-129942976D01*
X113689070Y-129927070D01*
X113704976Y-129912654D01*
X113722219Y-129899866D01*
X113740632Y-129888830D01*
X113760038Y-129879651D01*
X113780250Y-129872419D01*
X113801074Y-129867203D01*
X113822309Y-129864053D01*
X113843750Y-129863000D01*
X114356250Y-129863000D01*
X114377691Y-129864053D01*
X114377691Y-129864053D01*
G37*
D13*
X114100000Y-130300500D03*
D11*
G36*
X114377691Y-131439053D02*
G01*
X114398926Y-131442203D01*
X114419750Y-131447419D01*
X114439962Y-131454651D01*
X114459368Y-131463830D01*
X114477781Y-131474866D01*
X114495024Y-131487654D01*
X114510930Y-131502070D01*
X114525346Y-131517976D01*
X114538134Y-131535219D01*
X114549170Y-131553632D01*
X114558349Y-131573038D01*
X114565581Y-131593250D01*
X114570797Y-131614074D01*
X114573947Y-131635309D01*
X114575000Y-131656750D01*
X114575000Y-132094250D01*
X114573947Y-132115691D01*
X114570797Y-132136926D01*
X114565581Y-132157750D01*
X114558349Y-132177962D01*
X114549170Y-132197368D01*
X114538134Y-132215781D01*
X114525346Y-132233024D01*
X114510930Y-132248930D01*
X114495024Y-132263346D01*
X114477781Y-132276134D01*
X114459368Y-132287170D01*
X114439962Y-132296349D01*
X114419750Y-132303581D01*
X114398926Y-132308797D01*
X114377691Y-132311947D01*
X114356250Y-132313000D01*
X113843750Y-132313000D01*
X113822309Y-132311947D01*
X113801074Y-132308797D01*
X113780250Y-132303581D01*
X113760038Y-132296349D01*
X113740632Y-132287170D01*
X113722219Y-132276134D01*
X113704976Y-132263346D01*
X113689070Y-132248930D01*
X113674654Y-132233024D01*
X113661866Y-132215781D01*
X113650830Y-132197368D01*
X113641651Y-132177962D01*
X113634419Y-132157750D01*
X113629203Y-132136926D01*
X113626053Y-132115691D01*
X113625000Y-132094250D01*
X113625000Y-131656750D01*
X113626053Y-131635309D01*
X113629203Y-131614074D01*
X113634419Y-131593250D01*
X113641651Y-131573038D01*
X113650830Y-131553632D01*
X113661866Y-131535219D01*
X113674654Y-131517976D01*
X113689070Y-131502070D01*
X113704976Y-131487654D01*
X113722219Y-131474866D01*
X113740632Y-131463830D01*
X113760038Y-131454651D01*
X113780250Y-131447419D01*
X113801074Y-131442203D01*
X113822309Y-131439053D01*
X113843750Y-131438000D01*
X114356250Y-131438000D01*
X114377691Y-131439053D01*
X114377691Y-131439053D01*
G37*
D13*
X114100000Y-131875500D03*
D11*
G36*
X102077691Y-131264053D02*
G01*
X102098926Y-131267203D01*
X102119750Y-131272419D01*
X102139962Y-131279651D01*
X102159368Y-131288830D01*
X102177781Y-131299866D01*
X102195024Y-131312654D01*
X102210930Y-131327070D01*
X102225346Y-131342976D01*
X102238134Y-131360219D01*
X102249170Y-131378632D01*
X102258349Y-131398038D01*
X102265581Y-131418250D01*
X102270797Y-131439074D01*
X102273947Y-131460309D01*
X102275000Y-131481750D01*
X102275000Y-131919250D01*
X102273947Y-131940691D01*
X102270797Y-131961926D01*
X102265581Y-131982750D01*
X102258349Y-132002962D01*
X102249170Y-132022368D01*
X102238134Y-132040781D01*
X102225346Y-132058024D01*
X102210930Y-132073930D01*
X102195024Y-132088346D01*
X102177781Y-132101134D01*
X102159368Y-132112170D01*
X102139962Y-132121349D01*
X102119750Y-132128581D01*
X102098926Y-132133797D01*
X102077691Y-132136947D01*
X102056250Y-132138000D01*
X101543750Y-132138000D01*
X101522309Y-132136947D01*
X101501074Y-132133797D01*
X101480250Y-132128581D01*
X101460038Y-132121349D01*
X101440632Y-132112170D01*
X101422219Y-132101134D01*
X101404976Y-132088346D01*
X101389070Y-132073930D01*
X101374654Y-132058024D01*
X101361866Y-132040781D01*
X101350830Y-132022368D01*
X101341651Y-132002962D01*
X101334419Y-131982750D01*
X101329203Y-131961926D01*
X101326053Y-131940691D01*
X101325000Y-131919250D01*
X101325000Y-131481750D01*
X101326053Y-131460309D01*
X101329203Y-131439074D01*
X101334419Y-131418250D01*
X101341651Y-131398038D01*
X101350830Y-131378632D01*
X101361866Y-131360219D01*
X101374654Y-131342976D01*
X101389070Y-131327070D01*
X101404976Y-131312654D01*
X101422219Y-131299866D01*
X101440632Y-131288830D01*
X101460038Y-131279651D01*
X101480250Y-131272419D01*
X101501074Y-131267203D01*
X101522309Y-131264053D01*
X101543750Y-131263000D01*
X102056250Y-131263000D01*
X102077691Y-131264053D01*
X102077691Y-131264053D01*
G37*
D13*
X101800000Y-131700500D03*
D11*
G36*
X102077691Y-132839053D02*
G01*
X102098926Y-132842203D01*
X102119750Y-132847419D01*
X102139962Y-132854651D01*
X102159368Y-132863830D01*
X102177781Y-132874866D01*
X102195024Y-132887654D01*
X102210930Y-132902070D01*
X102225346Y-132917976D01*
X102238134Y-132935219D01*
X102249170Y-132953632D01*
X102258349Y-132973038D01*
X102265581Y-132993250D01*
X102270797Y-133014074D01*
X102273947Y-133035309D01*
X102275000Y-133056750D01*
X102275000Y-133494250D01*
X102273947Y-133515691D01*
X102270797Y-133536926D01*
X102265581Y-133557750D01*
X102258349Y-133577962D01*
X102249170Y-133597368D01*
X102238134Y-133615781D01*
X102225346Y-133633024D01*
X102210930Y-133648930D01*
X102195024Y-133663346D01*
X102177781Y-133676134D01*
X102159368Y-133687170D01*
X102139962Y-133696349D01*
X102119750Y-133703581D01*
X102098926Y-133708797D01*
X102077691Y-133711947D01*
X102056250Y-133713000D01*
X101543750Y-133713000D01*
X101522309Y-133711947D01*
X101501074Y-133708797D01*
X101480250Y-133703581D01*
X101460038Y-133696349D01*
X101440632Y-133687170D01*
X101422219Y-133676134D01*
X101404976Y-133663346D01*
X101389070Y-133648930D01*
X101374654Y-133633024D01*
X101361866Y-133615781D01*
X101350830Y-133597368D01*
X101341651Y-133577962D01*
X101334419Y-133557750D01*
X101329203Y-133536926D01*
X101326053Y-133515691D01*
X101325000Y-133494250D01*
X101325000Y-133056750D01*
X101326053Y-133035309D01*
X101329203Y-133014074D01*
X101334419Y-132993250D01*
X101341651Y-132973038D01*
X101350830Y-132953632D01*
X101361866Y-132935219D01*
X101374654Y-132917976D01*
X101389070Y-132902070D01*
X101404976Y-132887654D01*
X101422219Y-132874866D01*
X101440632Y-132863830D01*
X101460038Y-132854651D01*
X101480250Y-132847419D01*
X101501074Y-132842203D01*
X101522309Y-132839053D01*
X101543750Y-132838000D01*
X102056250Y-132838000D01*
X102077691Y-132839053D01*
X102077691Y-132839053D01*
G37*
D13*
X101800000Y-133275500D03*
D17*
X104054000Y-135196000D03*
X104054000Y-136146000D03*
X104054000Y-137096000D03*
X106254000Y-137096000D03*
X106254000Y-135196000D03*
D18*
X111000000Y-150000000D03*
X109000000Y-150000000D03*
X107000000Y-150000000D03*
X105000000Y-150000000D03*
D19*
X99060000Y-149860000D03*
X99060000Y-147320000D03*
X99060000Y-144780000D03*
X99060000Y-142240000D03*
X99060000Y-139700000D03*
X99060000Y-137160000D03*
X99060000Y-134620000D03*
X99060000Y-132080000D03*
D20*
X99060000Y-129540000D03*
X116840000Y-149860000D03*
D19*
X116840000Y-147320000D03*
X116840000Y-144780000D03*
X116840000Y-142240000D03*
X116840000Y-139700000D03*
X116840000Y-137160000D03*
X116840000Y-134620000D03*
X116840000Y-132080000D03*
X116840000Y-129540000D03*
D11*
G36*
X102201691Y-142173053D02*
G01*
X102222926Y-142176203D01*
X102243750Y-142181419D01*
X102263962Y-142188651D01*
X102283368Y-142197830D01*
X102301781Y-142208866D01*
X102319024Y-142221654D01*
X102334930Y-142236070D01*
X102349346Y-142251976D01*
X102362134Y-142269219D01*
X102373170Y-142287632D01*
X102382349Y-142307038D01*
X102389581Y-142327250D01*
X102394797Y-142348074D01*
X102397947Y-142369309D01*
X102399000Y-142390750D01*
X102399000Y-142828250D01*
X102397947Y-142849691D01*
X102394797Y-142870926D01*
X102389581Y-142891750D01*
X102382349Y-142911962D01*
X102373170Y-142931368D01*
X102362134Y-142949781D01*
X102349346Y-142967024D01*
X102334930Y-142982930D01*
X102319024Y-142997346D01*
X102301781Y-143010134D01*
X102283368Y-143021170D01*
X102263962Y-143030349D01*
X102243750Y-143037581D01*
X102222926Y-143042797D01*
X102201691Y-143045947D01*
X102180250Y-143047000D01*
X101667750Y-143047000D01*
X101646309Y-143045947D01*
X101625074Y-143042797D01*
X101604250Y-143037581D01*
X101584038Y-143030349D01*
X101564632Y-143021170D01*
X101546219Y-143010134D01*
X101528976Y-142997346D01*
X101513070Y-142982930D01*
X101498654Y-142967024D01*
X101485866Y-142949781D01*
X101474830Y-142931368D01*
X101465651Y-142911962D01*
X101458419Y-142891750D01*
X101453203Y-142870926D01*
X101450053Y-142849691D01*
X101449000Y-142828250D01*
X101449000Y-142390750D01*
X101450053Y-142369309D01*
X101453203Y-142348074D01*
X101458419Y-142327250D01*
X101465651Y-142307038D01*
X101474830Y-142287632D01*
X101485866Y-142269219D01*
X101498654Y-142251976D01*
X101513070Y-142236070D01*
X101528976Y-142221654D01*
X101546219Y-142208866D01*
X101564632Y-142197830D01*
X101584038Y-142188651D01*
X101604250Y-142181419D01*
X101625074Y-142176203D01*
X101646309Y-142173053D01*
X101667750Y-142172000D01*
X102180250Y-142172000D01*
X102201691Y-142173053D01*
X102201691Y-142173053D01*
G37*
D13*
X101924000Y-142609500D03*
D11*
G36*
X102201691Y-140598053D02*
G01*
X102222926Y-140601203D01*
X102243750Y-140606419D01*
X102263962Y-140613651D01*
X102283368Y-140622830D01*
X102301781Y-140633866D01*
X102319024Y-140646654D01*
X102334930Y-140661070D01*
X102349346Y-140676976D01*
X102362134Y-140694219D01*
X102373170Y-140712632D01*
X102382349Y-140732038D01*
X102389581Y-140752250D01*
X102394797Y-140773074D01*
X102397947Y-140794309D01*
X102399000Y-140815750D01*
X102399000Y-141253250D01*
X102397947Y-141274691D01*
X102394797Y-141295926D01*
X102389581Y-141316750D01*
X102382349Y-141336962D01*
X102373170Y-141356368D01*
X102362134Y-141374781D01*
X102349346Y-141392024D01*
X102334930Y-141407930D01*
X102319024Y-141422346D01*
X102301781Y-141435134D01*
X102283368Y-141446170D01*
X102263962Y-141455349D01*
X102243750Y-141462581D01*
X102222926Y-141467797D01*
X102201691Y-141470947D01*
X102180250Y-141472000D01*
X101667750Y-141472000D01*
X101646309Y-141470947D01*
X101625074Y-141467797D01*
X101604250Y-141462581D01*
X101584038Y-141455349D01*
X101564632Y-141446170D01*
X101546219Y-141435134D01*
X101528976Y-141422346D01*
X101513070Y-141407930D01*
X101498654Y-141392024D01*
X101485866Y-141374781D01*
X101474830Y-141356368D01*
X101465651Y-141336962D01*
X101458419Y-141316750D01*
X101453203Y-141295926D01*
X101450053Y-141274691D01*
X101449000Y-141253250D01*
X101449000Y-140815750D01*
X101450053Y-140794309D01*
X101453203Y-140773074D01*
X101458419Y-140752250D01*
X101465651Y-140732038D01*
X101474830Y-140712632D01*
X101485866Y-140694219D01*
X101498654Y-140676976D01*
X101513070Y-140661070D01*
X101528976Y-140646654D01*
X101546219Y-140633866D01*
X101564632Y-140622830D01*
X101584038Y-140613651D01*
X101604250Y-140606419D01*
X101625074Y-140601203D01*
X101646309Y-140598053D01*
X101667750Y-140597000D01*
X102180250Y-140597000D01*
X102201691Y-140598053D01*
X102201691Y-140598053D01*
G37*
D13*
X101924000Y-141034500D03*
D11*
G36*
X102131691Y-149703053D02*
G01*
X102152926Y-149706203D01*
X102173750Y-149711419D01*
X102193962Y-149718651D01*
X102213368Y-149727830D01*
X102231781Y-149738866D01*
X102249024Y-149751654D01*
X102264930Y-149766070D01*
X102279346Y-149781976D01*
X102292134Y-149799219D01*
X102303170Y-149817632D01*
X102312349Y-149837038D01*
X102319581Y-149857250D01*
X102324797Y-149878074D01*
X102327947Y-149899309D01*
X102329000Y-149920750D01*
X102329000Y-150358250D01*
X102327947Y-150379691D01*
X102324797Y-150400926D01*
X102319581Y-150421750D01*
X102312349Y-150441962D01*
X102303170Y-150461368D01*
X102292134Y-150479781D01*
X102279346Y-150497024D01*
X102264930Y-150512930D01*
X102249024Y-150527346D01*
X102231781Y-150540134D01*
X102213368Y-150551170D01*
X102193962Y-150560349D01*
X102173750Y-150567581D01*
X102152926Y-150572797D01*
X102131691Y-150575947D01*
X102110250Y-150577000D01*
X101597750Y-150577000D01*
X101576309Y-150575947D01*
X101555074Y-150572797D01*
X101534250Y-150567581D01*
X101514038Y-150560349D01*
X101494632Y-150551170D01*
X101476219Y-150540134D01*
X101458976Y-150527346D01*
X101443070Y-150512930D01*
X101428654Y-150497024D01*
X101415866Y-150479781D01*
X101404830Y-150461368D01*
X101395651Y-150441962D01*
X101388419Y-150421750D01*
X101383203Y-150400926D01*
X101380053Y-150379691D01*
X101379000Y-150358250D01*
X101379000Y-149920750D01*
X101380053Y-149899309D01*
X101383203Y-149878074D01*
X101388419Y-149857250D01*
X101395651Y-149837038D01*
X101404830Y-149817632D01*
X101415866Y-149799219D01*
X101428654Y-149781976D01*
X101443070Y-149766070D01*
X101458976Y-149751654D01*
X101476219Y-149738866D01*
X101494632Y-149727830D01*
X101514038Y-149718651D01*
X101534250Y-149711419D01*
X101555074Y-149706203D01*
X101576309Y-149703053D01*
X101597750Y-149702000D01*
X102110250Y-149702000D01*
X102131691Y-149703053D01*
X102131691Y-149703053D01*
G37*
D13*
X101854000Y-150139500D03*
D11*
G36*
X102131691Y-148128053D02*
G01*
X102152926Y-148131203D01*
X102173750Y-148136419D01*
X102193962Y-148143651D01*
X102213368Y-148152830D01*
X102231781Y-148163866D01*
X102249024Y-148176654D01*
X102264930Y-148191070D01*
X102279346Y-148206976D01*
X102292134Y-148224219D01*
X102303170Y-148242632D01*
X102312349Y-148262038D01*
X102319581Y-148282250D01*
X102324797Y-148303074D01*
X102327947Y-148324309D01*
X102329000Y-148345750D01*
X102329000Y-148783250D01*
X102327947Y-148804691D01*
X102324797Y-148825926D01*
X102319581Y-148846750D01*
X102312349Y-148866962D01*
X102303170Y-148886368D01*
X102292134Y-148904781D01*
X102279346Y-148922024D01*
X102264930Y-148937930D01*
X102249024Y-148952346D01*
X102231781Y-148965134D01*
X102213368Y-148976170D01*
X102193962Y-148985349D01*
X102173750Y-148992581D01*
X102152926Y-148997797D01*
X102131691Y-149000947D01*
X102110250Y-149002000D01*
X101597750Y-149002000D01*
X101576309Y-149000947D01*
X101555074Y-148997797D01*
X101534250Y-148992581D01*
X101514038Y-148985349D01*
X101494632Y-148976170D01*
X101476219Y-148965134D01*
X101458976Y-148952346D01*
X101443070Y-148937930D01*
X101428654Y-148922024D01*
X101415866Y-148904781D01*
X101404830Y-148886368D01*
X101395651Y-148866962D01*
X101388419Y-148846750D01*
X101383203Y-148825926D01*
X101380053Y-148804691D01*
X101379000Y-148783250D01*
X101379000Y-148345750D01*
X101380053Y-148324309D01*
X101383203Y-148303074D01*
X101388419Y-148282250D01*
X101395651Y-148262038D01*
X101404830Y-148242632D01*
X101415866Y-148224219D01*
X101428654Y-148206976D01*
X101443070Y-148191070D01*
X101458976Y-148176654D01*
X101476219Y-148163866D01*
X101494632Y-148152830D01*
X101514038Y-148143651D01*
X101534250Y-148136419D01*
X101555074Y-148131203D01*
X101576309Y-148128053D01*
X101597750Y-148127000D01*
X102110250Y-148127000D01*
X102131691Y-148128053D01*
X102131691Y-148128053D01*
G37*
D13*
X101854000Y-148564500D03*
D11*
G36*
X114323691Y-149677053D02*
G01*
X114344926Y-149680203D01*
X114365750Y-149685419D01*
X114385962Y-149692651D01*
X114405368Y-149701830D01*
X114423781Y-149712866D01*
X114441024Y-149725654D01*
X114456930Y-149740070D01*
X114471346Y-149755976D01*
X114484134Y-149773219D01*
X114495170Y-149791632D01*
X114504349Y-149811038D01*
X114511581Y-149831250D01*
X114516797Y-149852074D01*
X114519947Y-149873309D01*
X114521000Y-149894750D01*
X114521000Y-150332250D01*
X114519947Y-150353691D01*
X114516797Y-150374926D01*
X114511581Y-150395750D01*
X114504349Y-150415962D01*
X114495170Y-150435368D01*
X114484134Y-150453781D01*
X114471346Y-150471024D01*
X114456930Y-150486930D01*
X114441024Y-150501346D01*
X114423781Y-150514134D01*
X114405368Y-150525170D01*
X114385962Y-150534349D01*
X114365750Y-150541581D01*
X114344926Y-150546797D01*
X114323691Y-150549947D01*
X114302250Y-150551000D01*
X113789750Y-150551000D01*
X113768309Y-150549947D01*
X113747074Y-150546797D01*
X113726250Y-150541581D01*
X113706038Y-150534349D01*
X113686632Y-150525170D01*
X113668219Y-150514134D01*
X113650976Y-150501346D01*
X113635070Y-150486930D01*
X113620654Y-150471024D01*
X113607866Y-150453781D01*
X113596830Y-150435368D01*
X113587651Y-150415962D01*
X113580419Y-150395750D01*
X113575203Y-150374926D01*
X113572053Y-150353691D01*
X113571000Y-150332250D01*
X113571000Y-149894750D01*
X113572053Y-149873309D01*
X113575203Y-149852074D01*
X113580419Y-149831250D01*
X113587651Y-149811038D01*
X113596830Y-149791632D01*
X113607866Y-149773219D01*
X113620654Y-149755976D01*
X113635070Y-149740070D01*
X113650976Y-149725654D01*
X113668219Y-149712866D01*
X113686632Y-149701830D01*
X113706038Y-149692651D01*
X113726250Y-149685419D01*
X113747074Y-149680203D01*
X113768309Y-149677053D01*
X113789750Y-149676000D01*
X114302250Y-149676000D01*
X114323691Y-149677053D01*
X114323691Y-149677053D01*
G37*
D13*
X114046000Y-150113500D03*
D11*
G36*
X114323691Y-148102053D02*
G01*
X114344926Y-148105203D01*
X114365750Y-148110419D01*
X114385962Y-148117651D01*
X114405368Y-148126830D01*
X114423781Y-148137866D01*
X114441024Y-148150654D01*
X114456930Y-148165070D01*
X114471346Y-148180976D01*
X114484134Y-148198219D01*
X114495170Y-148216632D01*
X114504349Y-148236038D01*
X114511581Y-148256250D01*
X114516797Y-148277074D01*
X114519947Y-148298309D01*
X114521000Y-148319750D01*
X114521000Y-148757250D01*
X114519947Y-148778691D01*
X114516797Y-148799926D01*
X114511581Y-148820750D01*
X114504349Y-148840962D01*
X114495170Y-148860368D01*
X114484134Y-148878781D01*
X114471346Y-148896024D01*
X114456930Y-148911930D01*
X114441024Y-148926346D01*
X114423781Y-148939134D01*
X114405368Y-148950170D01*
X114385962Y-148959349D01*
X114365750Y-148966581D01*
X114344926Y-148971797D01*
X114323691Y-148974947D01*
X114302250Y-148976000D01*
X113789750Y-148976000D01*
X113768309Y-148974947D01*
X113747074Y-148971797D01*
X113726250Y-148966581D01*
X113706038Y-148959349D01*
X113686632Y-148950170D01*
X113668219Y-148939134D01*
X113650976Y-148926346D01*
X113635070Y-148911930D01*
X113620654Y-148896024D01*
X113607866Y-148878781D01*
X113596830Y-148860368D01*
X113587651Y-148840962D01*
X113580419Y-148820750D01*
X113575203Y-148799926D01*
X113572053Y-148778691D01*
X113571000Y-148757250D01*
X113571000Y-148319750D01*
X113572053Y-148298309D01*
X113575203Y-148277074D01*
X113580419Y-148256250D01*
X113587651Y-148236038D01*
X113596830Y-148216632D01*
X113607866Y-148198219D01*
X113620654Y-148180976D01*
X113635070Y-148165070D01*
X113650976Y-148150654D01*
X113668219Y-148137866D01*
X113686632Y-148126830D01*
X113706038Y-148117651D01*
X113726250Y-148110419D01*
X113747074Y-148105203D01*
X113768309Y-148102053D01*
X113789750Y-148101000D01*
X114302250Y-148101000D01*
X114323691Y-148102053D01*
X114323691Y-148102053D01*
G37*
D13*
X114046000Y-148538500D03*
D21*
X110800000Y-139000000D03*
X110800000Y-136500000D03*
X110800000Y-134000000D03*
X113200000Y-139000000D03*
X113200000Y-136500000D03*
X113200000Y-134000000D03*
D11*
G36*
X114577691Y-143839053D02*
G01*
X114598926Y-143842203D01*
X114619750Y-143847419D01*
X114639962Y-143854651D01*
X114659368Y-143863830D01*
X114677781Y-143874866D01*
X114695024Y-143887654D01*
X114710930Y-143902070D01*
X114725346Y-143917976D01*
X114738134Y-143935219D01*
X114749170Y-143953632D01*
X114758349Y-143973038D01*
X114765581Y-143993250D01*
X114770797Y-144014074D01*
X114773947Y-144035309D01*
X114775000Y-144056750D01*
X114775000Y-144494250D01*
X114773947Y-144515691D01*
X114770797Y-144536926D01*
X114765581Y-144557750D01*
X114758349Y-144577962D01*
X114749170Y-144597368D01*
X114738134Y-144615781D01*
X114725346Y-144633024D01*
X114710930Y-144648930D01*
X114695024Y-144663346D01*
X114677781Y-144676134D01*
X114659368Y-144687170D01*
X114639962Y-144696349D01*
X114619750Y-144703581D01*
X114598926Y-144708797D01*
X114577691Y-144711947D01*
X114556250Y-144713000D01*
X114043750Y-144713000D01*
X114022309Y-144711947D01*
X114001074Y-144708797D01*
X113980250Y-144703581D01*
X113960038Y-144696349D01*
X113940632Y-144687170D01*
X113922219Y-144676134D01*
X113904976Y-144663346D01*
X113889070Y-144648930D01*
X113874654Y-144633024D01*
X113861866Y-144615781D01*
X113850830Y-144597368D01*
X113841651Y-144577962D01*
X113834419Y-144557750D01*
X113829203Y-144536926D01*
X113826053Y-144515691D01*
X113825000Y-144494250D01*
X113825000Y-144056750D01*
X113826053Y-144035309D01*
X113829203Y-144014074D01*
X113834419Y-143993250D01*
X113841651Y-143973038D01*
X113850830Y-143953632D01*
X113861866Y-143935219D01*
X113874654Y-143917976D01*
X113889070Y-143902070D01*
X113904976Y-143887654D01*
X113922219Y-143874866D01*
X113940632Y-143863830D01*
X113960038Y-143854651D01*
X113980250Y-143847419D01*
X114001074Y-143842203D01*
X114022309Y-143839053D01*
X114043750Y-143838000D01*
X114556250Y-143838000D01*
X114577691Y-143839053D01*
X114577691Y-143839053D01*
G37*
D13*
X114300000Y-144275500D03*
D11*
G36*
X114577691Y-142264053D02*
G01*
X114598926Y-142267203D01*
X114619750Y-142272419D01*
X114639962Y-142279651D01*
X114659368Y-142288830D01*
X114677781Y-142299866D01*
X114695024Y-142312654D01*
X114710930Y-142327070D01*
X114725346Y-142342976D01*
X114738134Y-142360219D01*
X114749170Y-142378632D01*
X114758349Y-142398038D01*
X114765581Y-142418250D01*
X114770797Y-142439074D01*
X114773947Y-142460309D01*
X114775000Y-142481750D01*
X114775000Y-142919250D01*
X114773947Y-142940691D01*
X114770797Y-142961926D01*
X114765581Y-142982750D01*
X114758349Y-143002962D01*
X114749170Y-143022368D01*
X114738134Y-143040781D01*
X114725346Y-143058024D01*
X114710930Y-143073930D01*
X114695024Y-143088346D01*
X114677781Y-143101134D01*
X114659368Y-143112170D01*
X114639962Y-143121349D01*
X114619750Y-143128581D01*
X114598926Y-143133797D01*
X114577691Y-143136947D01*
X114556250Y-143138000D01*
X114043750Y-143138000D01*
X114022309Y-143136947D01*
X114001074Y-143133797D01*
X113980250Y-143128581D01*
X113960038Y-143121349D01*
X113940632Y-143112170D01*
X113922219Y-143101134D01*
X113904976Y-143088346D01*
X113889070Y-143073930D01*
X113874654Y-143058024D01*
X113861866Y-143040781D01*
X113850830Y-143022368D01*
X113841651Y-143002962D01*
X113834419Y-142982750D01*
X113829203Y-142961926D01*
X113826053Y-142940691D01*
X113825000Y-142919250D01*
X113825000Y-142481750D01*
X113826053Y-142460309D01*
X113829203Y-142439074D01*
X113834419Y-142418250D01*
X113841651Y-142398038D01*
X113850830Y-142378632D01*
X113861866Y-142360219D01*
X113874654Y-142342976D01*
X113889070Y-142327070D01*
X113904976Y-142312654D01*
X113922219Y-142299866D01*
X113940632Y-142288830D01*
X113960038Y-142279651D01*
X113980250Y-142272419D01*
X114001074Y-142267203D01*
X114022309Y-142264053D01*
X114043750Y-142263000D01*
X114556250Y-142263000D01*
X114577691Y-142264053D01*
X114577691Y-142264053D01*
G37*
D13*
X114300000Y-142700500D03*
D22*
X103141000Y-130229000D03*
X114030000Y-128190000D03*
X106700000Y-128651000D03*
X112866000Y-143366000D03*
X108090000Y-143290000D03*
X101400000Y-138350000D03*
X105170000Y-133370000D03*
X104341000Y-138049000D03*
X111955000Y-132877000D03*
X103416000Y-141309000D03*
X112647000Y-145746000D03*
X102930000Y-144650000D03*
X103499000Y-131403000D03*
X103499000Y-134229000D03*
X106347000Y-133591000D03*
X108750000Y-133435000D03*
X106950000Y-144983000D03*
X113075000Y-147840000D03*
X103970000Y-147258000D03*
X102501000Y-143633000D03*
X101018443Y-144097634D03*
X112562000Y-141093000D03*
X113644000Y-146301000D03*
D23*
X107830000Y-138846000D02*
X107830000Y-140010000D01*
X107830000Y-140010000D02*
X107390000Y-140010000D01*
X107390000Y-140010000D02*
X107027000Y-139648000D01*
X108254000Y-137146000D02*
X107830000Y-137570000D01*
X107830000Y-137570000D02*
X107830000Y-138846000D01*
X107829500Y-138846000D02*
X107830000Y-138846000D01*
X101398000Y-133677500D02*
X101800000Y-133276000D01*
X101800000Y-133276000D02*
X102740000Y-132336000D01*
X102740000Y-132336000D02*
X102740000Y-130630000D01*
X102740000Y-130630000D02*
X103141000Y-130229000D01*
X102054000Y-137046000D02*
X100996000Y-135988000D01*
X100996000Y-135988000D02*
X100996000Y-134079000D01*
X100996000Y-134079000D02*
X101398000Y-133677500D01*
X101398000Y-133677500D02*
X101800000Y-133275500D01*
X102054000Y-138488000D02*
X102054000Y-137046000D01*
X102054000Y-137046000D02*
X102054000Y-137045500D01*
X113967500Y-143033000D02*
X113635000Y-143366000D01*
X113635000Y-143366000D02*
X112866000Y-143366000D01*
X114300000Y-142700000D02*
X113967500Y-143033000D01*
X113967500Y-143033000D02*
X114300000Y-142700500D01*
X108254000Y-137146000D02*
X108254000Y-137145500D01*
X106410000Y-129580000D02*
X106550000Y-129720000D01*
X106250000Y-129580000D02*
X106410000Y-129580000D01*
X106410000Y-129580000D02*
X106490000Y-129580000D01*
X106250000Y-129580000D02*
X106410000Y-129580000D01*
X104054000Y-136146000D02*
X102954000Y-136146000D01*
X102954000Y-136146000D02*
X102054000Y-137046000D01*
X106700000Y-129850000D02*
X106700000Y-129930000D01*
X106700000Y-128651000D02*
X106700000Y-129850000D01*
X112866000Y-143366000D02*
X112539000Y-143693000D01*
X112539000Y-143693000D02*
X110900000Y-143693000D01*
X106700000Y-128651000D02*
X106134000Y-128651000D01*
X106134000Y-128651000D02*
X105415000Y-129370000D01*
X105415000Y-129370000D02*
X104030000Y-129370000D01*
X104030000Y-129370000D02*
X102970000Y-128310000D01*
X102970000Y-128310000D02*
X102970000Y-127660000D01*
X106700000Y-128651000D02*
X109411000Y-128651000D01*
X109411000Y-128651000D02*
X110060000Y-129300000D01*
X110060000Y-129300000D02*
X111070000Y-129300000D01*
X111070000Y-129300000D02*
X111390000Y-129620000D01*
X111390000Y-129620000D02*
X112610000Y-129620000D01*
X112610000Y-129620000D02*
X114030000Y-128200000D01*
X114030000Y-128200000D02*
X114030000Y-128190000D01*
X106700000Y-130700000D02*
X106700000Y-130260000D01*
X106700000Y-130260000D02*
X106520000Y-130080000D01*
X106520000Y-130080000D02*
X106520000Y-129850000D01*
X106520000Y-129850000D02*
X106250000Y-129580000D01*
X106700000Y-129850000D02*
X107160000Y-129390000D01*
X107160000Y-129390000D02*
X107330000Y-129390000D01*
X107330000Y-129390000D02*
X107330000Y-129400000D01*
X107330000Y-129400000D02*
X107025000Y-129705000D01*
X107025000Y-129705000D02*
X106894000Y-129705000D01*
X106894000Y-129705000D02*
X106830000Y-129769000D01*
X106830000Y-129769000D02*
X106830000Y-129990000D01*
X106700000Y-129930000D02*
X106700000Y-130700000D01*
X106700000Y-129930000D02*
X106700000Y-129850000D01*
X107027000Y-139648000D02*
X106536000Y-140140000D01*
X106536000Y-140140000D02*
X103706000Y-140140000D01*
X103706000Y-140140000D02*
X102054000Y-138488000D01*
X108090000Y-140711000D02*
X108090000Y-142724315D01*
X107027000Y-139648000D02*
X108090000Y-140711000D01*
X108090000Y-142724315D02*
X108090000Y-143290000D01*
X108420000Y-143620000D02*
X108090000Y-143290000D01*
X108420000Y-146442000D02*
X108420000Y-143620000D01*
X105000000Y-150000000D02*
X105000000Y-149862000D01*
X105000000Y-149862000D02*
X108420000Y-146442000D01*
X101965685Y-138350000D02*
X101400000Y-138350000D01*
X102054000Y-138438315D02*
X101965685Y-138350000D01*
X102054000Y-138488000D02*
X102054000Y-138438315D01*
D24*
X102261612Y-132813888D02*
X101800000Y-133275500D01*
X102743999Y-132331501D02*
X102261612Y-132813888D01*
X102743999Y-130626001D02*
X102743999Y-132331501D01*
X103141000Y-130229000D02*
X102743999Y-130626001D01*
X101497763Y-136489263D02*
X102054000Y-137045500D01*
X100994010Y-135985510D02*
X101497763Y-136489263D01*
X100994010Y-134081490D02*
X100994010Y-135985510D01*
X101800000Y-133275500D02*
X100994010Y-134081490D01*
X102953500Y-136146000D02*
X102054000Y-137045500D01*
X104054000Y-136146000D02*
X102953500Y-136146000D01*
X106700000Y-130700000D02*
X106700000Y-131840000D01*
X106700000Y-131840000D02*
X105170000Y-133370000D01*
X114099500Y-131876000D02*
X114100000Y-131875500D01*
X114099500Y-131876000D02*
X114100000Y-131876000D01*
X114100000Y-131876000D02*
X115635000Y-130341000D01*
X115635000Y-130341000D02*
X115635000Y-129540000D01*
X115635000Y-129540000D02*
X116840000Y-129540000D01*
X111955000Y-132877000D02*
X112957000Y-131876000D01*
X112957000Y-131876000D02*
X114099500Y-131876000D01*
X102054500Y-135170000D02*
X102054000Y-135170500D01*
X104054000Y-135196000D02*
X103169000Y-135196000D01*
X103169000Y-135196000D02*
X103143000Y-135170000D01*
X103143000Y-135170000D02*
X102054500Y-135170000D01*
X102054500Y-135170000D02*
X102054000Y-135170000D01*
X104054000Y-137096000D02*
X104242000Y-137096000D01*
X110800000Y-134000000D02*
X111955000Y-134000000D01*
X111955000Y-134000000D02*
X111955000Y-132877000D01*
X104242000Y-137096000D02*
X104242000Y-137950000D01*
X104242000Y-137950000D02*
X104341000Y-138049000D01*
X105100000Y-135322980D02*
X104973020Y-135196000D01*
X104973020Y-135196000D02*
X104054000Y-135196000D01*
X104242000Y-137096000D02*
X105100000Y-137096000D01*
X105100000Y-137096000D02*
X105100000Y-135322980D01*
D23*
X106254500Y-138845500D02*
X106254500Y-138846000D01*
X106254000Y-137096000D02*
X107104000Y-137096000D01*
X107104000Y-137096000D02*
X107104000Y-137996000D01*
X107104000Y-137996000D02*
X106254500Y-138845500D01*
X106254500Y-138845500D02*
X106254000Y-138846000D01*
D24*
X108346000Y-135362000D02*
X108345500Y-135362000D01*
X108345500Y-135362000D02*
X108254000Y-135270500D01*
X108346000Y-135362000D02*
X108512000Y-135528000D01*
X108512000Y-135528000D02*
X111955000Y-135528000D01*
X106254000Y-135196000D02*
X108180000Y-135196000D01*
X108180000Y-135196000D02*
X108346000Y-135362000D01*
X101800500Y-128500000D02*
X101800000Y-128500000D01*
X101800000Y-128500000D02*
X100504000Y-129796000D01*
X100504000Y-129796000D02*
X100504000Y-139615000D01*
X100504000Y-139615000D02*
X101356000Y-140466400D01*
X101356000Y-140466400D02*
X101924000Y-141034400D01*
X101924000Y-141034400D02*
X101924000Y-141034500D01*
X101356000Y-140466400D02*
X101924000Y-141034000D01*
X101924000Y-141034000D02*
X103141000Y-141034000D01*
X103141000Y-141034000D02*
X103416000Y-141309000D01*
X114300000Y-144276000D02*
X114300000Y-144275500D01*
X114283000Y-144293000D02*
X114300000Y-144276000D01*
X114266000Y-144310000D02*
X114283000Y-144293000D01*
D25*
X114283000Y-144293000D02*
X114300000Y-144276000D01*
X114266000Y-144310000D02*
X114283000Y-144293000D01*
D24*
X101800500Y-128500000D02*
X101800000Y-128500500D01*
X103190000Y-141360000D02*
X103365000Y-141360000D01*
X103365000Y-141360000D02*
X103416000Y-141309000D01*
X116840000Y-132080000D02*
X116840000Y-132178000D01*
X116840000Y-132178000D02*
X113490000Y-135528000D01*
X113490000Y-135528000D02*
X111955000Y-135528000D01*
D25*
X111154000Y-144343000D02*
X114232000Y-144343000D01*
X114232000Y-144343000D02*
X114266000Y-144310000D01*
D24*
X111154000Y-144343000D02*
X110900000Y-144343000D01*
X110800000Y-139000000D02*
X111955000Y-139000000D01*
X111955000Y-139000000D02*
X111955000Y-135528000D01*
X113318000Y-141879000D02*
X113318000Y-140779000D01*
X113318000Y-140779000D02*
X112446000Y-139908000D01*
X112446000Y-139908000D02*
X112200000Y-139908000D01*
X112200000Y-139908000D02*
X111955000Y-139662000D01*
X111955000Y-139662000D02*
X111955000Y-139000000D01*
X113318000Y-141879000D02*
X112804000Y-142393000D01*
X112804000Y-142393000D02*
X110900000Y-142393000D01*
X114300000Y-144276000D02*
X115171000Y-143405000D01*
X115171000Y-143405000D02*
X115171000Y-142256000D01*
X115171000Y-142256000D02*
X114794000Y-141879000D01*
X114794000Y-141879000D02*
X113318000Y-141879000D01*
X102480000Y-128500000D02*
X101800500Y-128500000D01*
X104330000Y-133860000D02*
X104330000Y-130350000D01*
X104330000Y-130350000D02*
X102480000Y-128500000D01*
X106254000Y-135196000D02*
X105666000Y-135196000D01*
X105666000Y-135196000D02*
X104330000Y-133860000D01*
D23*
X101800000Y-131700000D02*
X101800000Y-131700500D01*
X101800000Y-130076000D02*
X101800000Y-131700000D01*
X101800000Y-130076000D02*
X101800000Y-130075500D01*
X112647000Y-145643000D02*
X112647000Y-145746000D01*
X110900000Y-145643000D02*
X112647000Y-145643000D01*
X116840000Y-144780000D02*
X115670000Y-144780000D01*
X115670000Y-144780000D02*
X114971000Y-145479000D01*
X114971000Y-145479000D02*
X112811000Y-145479000D01*
X112811000Y-145479000D02*
X112647000Y-145643000D01*
X116840000Y-142240000D02*
X116840000Y-142980000D01*
X116840000Y-142980000D02*
X114775000Y-145045000D01*
X114775000Y-145045000D02*
X112964000Y-145045000D01*
X112964000Y-145045000D02*
X112912000Y-144993000D01*
X112912000Y-144993000D02*
X110900000Y-144993000D01*
X105000000Y-143693000D02*
X103867000Y-143693000D01*
X103867000Y-143693000D02*
X102930000Y-144630000D01*
X103499000Y-134229000D02*
X103499000Y-131403000D01*
X108000000Y-130700000D02*
X108000000Y-131695000D01*
X108000000Y-131695000D02*
X106347000Y-133348000D01*
X106347000Y-133348000D02*
X106347000Y-133591000D01*
X108650000Y-130700000D02*
X108650000Y-131695000D01*
X108650000Y-131695000D02*
X108750000Y-131795000D01*
X108750000Y-131795000D02*
X108750000Y-133435000D01*
D24*
X114099500Y-130300000D02*
X114100000Y-130300500D01*
X114099500Y-130300000D02*
X114100000Y-130300000D01*
X109300000Y-130700000D02*
X109300000Y-131645000D01*
X109300000Y-131645000D02*
X109845000Y-132190000D01*
X109845000Y-132190000D02*
X111320000Y-132190000D01*
X111320000Y-132190000D02*
X113210000Y-130300000D01*
X113210000Y-130300000D02*
X114099500Y-130300000D01*
D23*
X113696500Y-148189000D02*
X114046000Y-148538000D01*
X113075000Y-147840000D02*
X113347000Y-147840000D01*
X113347000Y-147840000D02*
X113696500Y-148189000D01*
X113696500Y-148189000D02*
X114046000Y-148538500D01*
X105000000Y-142393000D02*
X105950000Y-142393000D01*
X105950000Y-142393000D02*
X106684000Y-143127000D01*
X106684000Y-143127000D02*
X106684000Y-144717000D01*
X106684000Y-144717000D02*
X106950000Y-144983000D01*
X101854500Y-148564000D02*
X101854000Y-148564500D01*
X101854500Y-148564000D02*
X101854000Y-148564000D01*
X101854000Y-148564000D02*
X101012000Y-149407000D01*
X101012000Y-149407000D02*
X101012000Y-150564000D01*
X101012000Y-150564000D02*
X102170000Y-151723000D01*
X102170000Y-151723000D02*
X107277000Y-151723000D01*
X107277000Y-151723000D02*
X109000000Y-150000000D01*
X104989000Y-148564000D02*
X101854500Y-148564000D01*
X105950000Y-141743000D02*
X107104000Y-142897000D01*
X105000000Y-141743000D02*
X105950000Y-141743000D01*
X107104000Y-142897000D02*
X107104000Y-143694000D01*
X107104000Y-143694000D02*
X107890000Y-144480000D01*
X107890000Y-144480000D02*
X107890000Y-145663000D01*
X107890000Y-145663000D02*
X104989000Y-148564000D01*
D24*
X101854000Y-150139500D02*
X102276600Y-150562100D01*
X102276600Y-150562100D02*
X102276600Y-150562600D01*
X114045800Y-150113700D02*
X114046000Y-150114000D01*
X109328000Y-147777000D02*
X111709000Y-147777000D01*
X111709000Y-147777000D02*
X114045800Y-150113700D01*
X114046000Y-150113500D02*
X114045800Y-150113700D01*
X107000000Y-150000000D02*
X105732000Y-151268000D01*
X105732000Y-151268000D02*
X102982000Y-151268000D01*
X102982000Y-151268000D02*
X102276600Y-150562600D01*
X110800000Y-136500000D02*
X109645000Y-136500000D01*
X109645000Y-136500000D02*
X109560000Y-136585000D01*
X109560000Y-136585000D02*
X109560000Y-138040000D01*
X109560000Y-138040000D02*
X109140000Y-138460000D01*
X109140000Y-138460000D02*
X109140000Y-147588000D01*
X109140000Y-147588000D02*
X109328000Y-147777000D01*
X107000000Y-150000000D02*
X109223000Y-147777000D01*
X109223000Y-147777000D02*
X109328000Y-147777000D01*
D23*
X106230000Y-144623000D02*
X106230000Y-146729016D01*
X104535685Y-147258000D02*
X103970000Y-147258000D01*
X105701016Y-147258000D02*
X104535685Y-147258000D01*
X105950000Y-144343000D02*
X106230000Y-144623000D01*
X106230000Y-146729016D02*
X105701016Y-147258000D01*
X105000000Y-144343000D02*
X105950000Y-144343000D01*
X101924000Y-142610000D02*
X101924000Y-142609500D01*
X102062000Y-142748000D02*
X101924000Y-142610000D01*
X105000000Y-143043000D02*
X105254000Y-143043000D01*
X102739000Y-143043000D02*
X105000000Y-143043000D01*
X102062000Y-142748000D02*
X102429000Y-142748000D01*
X102429000Y-142748000D02*
X102724000Y-143043000D01*
X102724000Y-143043000D02*
X102739000Y-143043000D01*
X101854000Y-142748000D02*
X102062000Y-142748000D01*
X102739000Y-143043000D02*
X102739000Y-143496000D01*
X102739000Y-143496000D02*
X102501000Y-143733000D01*
X110900000Y-143043000D02*
X109950000Y-143043000D01*
X109950000Y-143043000D02*
X109630000Y-143363000D01*
X109630000Y-143363000D02*
X109630000Y-146530000D01*
X109630000Y-146530000D02*
X110130000Y-147030000D01*
X110130000Y-147030000D02*
X113783000Y-147030000D01*
X113783000Y-147030000D02*
X114845000Y-148092000D01*
X114845000Y-148092000D02*
X114845000Y-150576000D01*
X114845000Y-150576000D02*
X113271000Y-152150000D01*
X113271000Y-152150000D02*
X102002000Y-152150000D01*
X102002000Y-152150000D02*
X100230000Y-150379000D01*
X100230000Y-150379000D02*
X100230000Y-145950000D01*
X100230000Y-145950000D02*
X99060000Y-144780000D01*
X100298441Y-143478441D02*
X100298441Y-144948441D01*
X99060000Y-142240000D02*
X100298441Y-143478441D01*
X101643000Y-146293000D02*
X104050000Y-146293000D01*
X100298441Y-144948441D02*
X101643000Y-146293000D01*
X104050000Y-146293000D02*
X105000000Y-146293000D01*
X100440000Y-141080000D02*
X99060000Y-139700000D01*
X101420000Y-143500000D02*
X100440000Y-142520000D01*
X104050000Y-144993000D02*
X103590022Y-145452978D01*
X100440000Y-142520000D02*
X100440000Y-141080000D01*
X105000000Y-144993000D02*
X104050000Y-144993000D01*
X103590022Y-145452978D02*
X102503946Y-145452978D01*
X102503946Y-145452978D02*
X101781000Y-144730032D01*
X101781000Y-144730032D02*
X101781000Y-143500000D01*
X101781000Y-143500000D02*
X101420000Y-143500000D01*
X101018443Y-144663319D02*
X101018443Y-144097634D01*
X102228113Y-145872989D02*
X101018443Y-144663319D01*
X103820011Y-145872989D02*
X102228113Y-145872989D01*
X104050000Y-145643000D02*
X103820011Y-145872989D01*
X105000000Y-145643000D02*
X104050000Y-145643000D01*
X112562000Y-141093000D02*
X111970000Y-141685000D01*
X111970000Y-141685000D02*
X111970000Y-141743000D01*
X111970000Y-141743000D02*
X110900000Y-141743000D01*
X110900000Y-146293000D02*
X111970000Y-146293000D01*
X111970000Y-146293000D02*
X112149000Y-146471000D01*
X112149000Y-146471000D02*
X113474000Y-146471000D01*
X113474000Y-146471000D02*
X113644000Y-146301000D01*
D26*
G36*
X103685071Y-149388622D02*
G01*
X103617986Y-149654248D01*
X103761251Y-149873000D01*
X104873000Y-149873000D01*
X104873000Y-149853000D01*
X105127000Y-149853000D01*
X105127000Y-149873000D01*
X105147000Y-149873000D01*
X105147000Y-150127000D01*
X105127000Y-150127000D01*
X105127000Y-150147000D01*
X104873000Y-150147000D01*
X104873000Y-150127000D01*
X103761251Y-150127000D01*
X103617986Y-150345752D01*
X103656437Y-150498000D01*
X103300944Y-150498000D01*
X102967072Y-150164129D01*
X102967072Y-149920750D01*
X102950608Y-149753592D01*
X102901850Y-149592858D01*
X102822671Y-149444725D01*
X102746574Y-149352000D01*
X102790070Y-149299000D01*
X103727673Y-149299000D01*
X103685071Y-149388622D01*
X103685071Y-149388622D01*
G37*
X103685071Y-149388622D02*
X103617986Y-149654248D01*
X103761251Y-149873000D01*
X104873000Y-149873000D01*
X104873000Y-149853000D01*
X105127000Y-149853000D01*
X105127000Y-149873000D01*
X105147000Y-149873000D01*
X105147000Y-150127000D01*
X105127000Y-150127000D01*
X105127000Y-150147000D01*
X104873000Y-150147000D01*
X104873000Y-150127000D01*
X103761251Y-150127000D01*
X103617986Y-150345752D01*
X103656437Y-150498000D01*
X103300944Y-150498000D01*
X102967072Y-150164129D01*
X102967072Y-149920750D01*
X102950608Y-149753592D01*
X102901850Y-149592858D01*
X102822671Y-149444725D01*
X102746574Y-149352000D01*
X102790070Y-149299000D01*
X103727673Y-149299000D01*
X103685071Y-149388622D01*
G36*
X108370001Y-147541054D02*
G01*
X107390469Y-148520587D01*
X107273860Y-148485214D01*
X107000000Y-148458241D01*
X106726141Y-148485214D01*
X106462806Y-148565096D01*
X106220114Y-148694817D01*
X106007393Y-148869392D01*
X105994039Y-148885663D01*
X105843075Y-148749371D01*
X108370001Y-146222446D01*
X108370001Y-147541054D01*
X108370001Y-147541054D01*
G37*
X108370001Y-147541054D02*
X107390469Y-148520587D01*
X107273860Y-148485214D01*
X107000000Y-148458241D01*
X106726141Y-148485214D01*
X106462806Y-148565096D01*
X106220114Y-148694817D01*
X106007393Y-148869392D01*
X105994039Y-148885663D01*
X105843075Y-148749371D01*
X108370001Y-146222446D01*
X108370001Y-147541054D01*
G36*
X102181000Y-136918500D02*
G01*
X102201000Y-136918500D01*
X102201000Y-137172500D01*
X102181000Y-137172500D01*
X102181000Y-138009250D01*
X102339750Y-138168000D01*
X102754000Y-138171072D01*
X102878482Y-138158812D01*
X102998180Y-138122502D01*
X103108494Y-138063537D01*
X103205185Y-137984185D01*
X103212930Y-137974748D01*
X103279820Y-138010502D01*
X103306000Y-138018444D01*
X103306000Y-138150939D01*
X103345774Y-138350898D01*
X103423795Y-138539256D01*
X103537063Y-138708774D01*
X103681226Y-138852937D01*
X103850744Y-138966205D01*
X104039102Y-139044226D01*
X104239061Y-139084000D01*
X104442939Y-139084000D01*
X104642898Y-139044226D01*
X104831256Y-138966205D01*
X105000774Y-138852937D01*
X105144937Y-138708774D01*
X105178928Y-138657903D01*
X105178928Y-139102250D01*
X105195392Y-139269408D01*
X105244150Y-139430142D01*
X105323329Y-139578275D01*
X105429885Y-139708115D01*
X105559725Y-139814671D01*
X105707858Y-139893850D01*
X105868592Y-139942608D01*
X106035750Y-139959072D01*
X106473250Y-139959072D01*
X106640408Y-139942608D01*
X106801142Y-139893850D01*
X106949275Y-139814671D01*
X106970930Y-139796900D01*
X107037506Y-139851537D01*
X107147820Y-139910502D01*
X107267518Y-139946812D01*
X107392000Y-139959072D01*
X107543750Y-139956000D01*
X107702500Y-139797250D01*
X107702500Y-138973000D01*
X107682500Y-138973000D01*
X107682500Y-138719000D01*
X107702500Y-138719000D01*
X107702500Y-138699000D01*
X107956500Y-138699000D01*
X107956500Y-138719000D01*
X107976500Y-138719000D01*
X107976500Y-138973000D01*
X107956500Y-138973000D01*
X107956500Y-139797250D01*
X108115250Y-139956000D01*
X108267000Y-139959072D01*
X108370000Y-139948928D01*
X108370001Y-143920554D01*
X107839000Y-143389554D01*
X107839000Y-142933094D01*
X107842555Y-142896999D01*
X107839000Y-142860904D01*
X107839000Y-142860895D01*
X107828365Y-142752915D01*
X107786337Y-142614367D01*
X107718087Y-142486680D01*
X107670679Y-142428914D01*
X107649253Y-142402806D01*
X107649250Y-142402803D01*
X107626237Y-142374762D01*
X107598197Y-142351750D01*
X106495258Y-141248812D01*
X106472238Y-141220762D01*
X106360320Y-141128913D01*
X106232633Y-141060663D01*
X106170853Y-141041922D01*
X106104494Y-140987463D01*
X105994180Y-140928498D01*
X105874482Y-140892188D01*
X105750000Y-140879928D01*
X104358548Y-140879928D01*
X104333205Y-140818744D01*
X104219937Y-140649226D01*
X104075774Y-140505063D01*
X103906256Y-140391795D01*
X103717898Y-140313774D01*
X103517939Y-140274000D01*
X103314061Y-140274000D01*
X103298431Y-140277109D01*
X103291946Y-140275142D01*
X103178820Y-140264000D01*
X103178813Y-140264000D01*
X103141000Y-140260276D01*
X103103187Y-140264000D01*
X102830526Y-140264000D01*
X102786115Y-140209885D01*
X102656275Y-140103329D01*
X102508142Y-140024150D01*
X102347408Y-139975392D01*
X102180250Y-139958928D01*
X101937498Y-139958928D01*
X101921167Y-139942608D01*
X101898030Y-139919487D01*
X101873729Y-139895186D01*
X101873631Y-139895105D01*
X101274000Y-139295897D01*
X101274000Y-138163193D01*
X101354000Y-138171072D01*
X101768250Y-138168000D01*
X101927000Y-138009250D01*
X101927000Y-137172500D01*
X101907000Y-137172500D01*
X101907000Y-136918500D01*
X101927000Y-136918500D01*
X101927000Y-136898500D01*
X102181000Y-136898500D01*
X102181000Y-136918500D01*
X102181000Y-136918500D01*
G37*
X102181000Y-136918500D02*
X102201000Y-136918500D01*
X102201000Y-137172500D01*
X102181000Y-137172500D01*
X102181000Y-138009250D01*
X102339750Y-138168000D01*
X102754000Y-138171072D01*
X102878482Y-138158812D01*
X102998180Y-138122502D01*
X103108494Y-138063537D01*
X103205185Y-137984185D01*
X103212930Y-137974748D01*
X103279820Y-138010502D01*
X103306000Y-138018444D01*
X103306000Y-138150939D01*
X103345774Y-138350898D01*
X103423795Y-138539256D01*
X103537063Y-138708774D01*
X103681226Y-138852937D01*
X103850744Y-138966205D01*
X104039102Y-139044226D01*
X104239061Y-139084000D01*
X104442939Y-139084000D01*
X104642898Y-139044226D01*
X104831256Y-138966205D01*
X105000774Y-138852937D01*
X105144937Y-138708774D01*
X105178928Y-138657903D01*
X105178928Y-139102250D01*
X105195392Y-139269408D01*
X105244150Y-139430142D01*
X105323329Y-139578275D01*
X105429885Y-139708115D01*
X105559725Y-139814671D01*
X105707858Y-139893850D01*
X105868592Y-139942608D01*
X106035750Y-139959072D01*
X106473250Y-139959072D01*
X106640408Y-139942608D01*
X106801142Y-139893850D01*
X106949275Y-139814671D01*
X106970930Y-139796900D01*
X107037506Y-139851537D01*
X107147820Y-139910502D01*
X107267518Y-139946812D01*
X107392000Y-139959072D01*
X107543750Y-139956000D01*
X107702500Y-139797250D01*
X107702500Y-138973000D01*
X107682500Y-138973000D01*
X107682500Y-138719000D01*
X107702500Y-138719000D01*
X107702500Y-138699000D01*
X107956500Y-138699000D01*
X107956500Y-138719000D01*
X107976500Y-138719000D01*
X107976500Y-138973000D01*
X107956500Y-138973000D01*
X107956500Y-139797250D01*
X108115250Y-139956000D01*
X108267000Y-139959072D01*
X108370000Y-139948928D01*
X108370001Y-143920554D01*
X107839000Y-143389554D01*
X107839000Y-142933094D01*
X107842555Y-142896999D01*
X107839000Y-142860904D01*
X107839000Y-142860895D01*
X107828365Y-142752915D01*
X107786337Y-142614367D01*
X107718087Y-142486680D01*
X107670679Y-142428914D01*
X107649253Y-142402806D01*
X107649250Y-142402803D01*
X107626237Y-142374762D01*
X107598197Y-142351750D01*
X106495258Y-141248812D01*
X106472238Y-141220762D01*
X106360320Y-141128913D01*
X106232633Y-141060663D01*
X106170853Y-141041922D01*
X106104494Y-140987463D01*
X105994180Y-140928498D01*
X105874482Y-140892188D01*
X105750000Y-140879928D01*
X104358548Y-140879928D01*
X104333205Y-140818744D01*
X104219937Y-140649226D01*
X104075774Y-140505063D01*
X103906256Y-140391795D01*
X103717898Y-140313774D01*
X103517939Y-140274000D01*
X103314061Y-140274000D01*
X103298431Y-140277109D01*
X103291946Y-140275142D01*
X103178820Y-140264000D01*
X103178813Y-140264000D01*
X103141000Y-140260276D01*
X103103187Y-140264000D01*
X102830526Y-140264000D01*
X102786115Y-140209885D01*
X102656275Y-140103329D01*
X102508142Y-140024150D01*
X102347408Y-139975392D01*
X102180250Y-139958928D01*
X101937498Y-139958928D01*
X101921167Y-139942608D01*
X101898030Y-139919487D01*
X101873729Y-139895186D01*
X101873631Y-139895105D01*
X101274000Y-139295897D01*
X101274000Y-138163193D01*
X101354000Y-138171072D01*
X101768250Y-138168000D01*
X101927000Y-138009250D01*
X101927000Y-137172500D01*
X101907000Y-137172500D01*
X101907000Y-136918500D01*
X101927000Y-136918500D01*
X101927000Y-136898500D01*
X102181000Y-136898500D01*
X102181000Y-136918500D01*
G36*
X113186928Y-143138000D02*
G01*
X113199188Y-143262482D01*
X113235498Y-143382180D01*
X113294463Y-143492494D01*
X113349100Y-143559070D01*
X113341772Y-143568000D01*
X112285000Y-143568000D01*
X112285000Y-143565998D01*
X112210735Y-143565998D01*
X112239502Y-143512180D01*
X112252753Y-143468497D01*
X112285000Y-143436250D01*
X112277912Y-143371157D01*
X112288072Y-143268000D01*
X112288072Y-143163000D01*
X112766187Y-143163000D01*
X112804000Y-143166724D01*
X112841813Y-143163000D01*
X112841820Y-143163000D01*
X112954946Y-143151858D01*
X113100092Y-143107829D01*
X113188495Y-143060576D01*
X113186928Y-143138000D01*
X113186928Y-143138000D01*
G37*
X113186928Y-143138000D02*
X113199188Y-143262482D01*
X113235498Y-143382180D01*
X113294463Y-143492494D01*
X113349100Y-143559070D01*
X113341772Y-143568000D01*
X112285000Y-143568000D01*
X112285000Y-143565998D01*
X112210735Y-143565998D01*
X112239502Y-143512180D01*
X112252753Y-143468497D01*
X112285000Y-143436250D01*
X112277912Y-143371157D01*
X112288072Y-143268000D01*
X112288072Y-143163000D01*
X112766187Y-143163000D01*
X112804000Y-143166724D01*
X112841813Y-143163000D01*
X112841820Y-143163000D01*
X112954946Y-143151858D01*
X113100092Y-143107829D01*
X113188495Y-143060576D01*
X113186928Y-143138000D01*
G36*
X114401001Y-142847500D02*
G01*
X114173000Y-142847500D01*
X114173000Y-142827500D01*
X114153000Y-142827500D01*
X114153000Y-142649000D01*
X114401001Y-142649000D01*
X114401001Y-142847500D01*
X114401001Y-142847500D01*
G37*
X114401001Y-142847500D02*
X114173000Y-142847500D01*
X114173000Y-142827500D01*
X114153000Y-142827500D01*
X114153000Y-142649000D01*
X114401001Y-142649000D01*
X114401001Y-142847500D01*
G36*
X108381000Y-137018500D02*
G01*
X108401000Y-137018500D01*
X108401000Y-137272500D01*
X108381000Y-137272500D01*
X108381000Y-137292500D01*
X108127000Y-137292500D01*
X108127000Y-137272500D01*
X108107000Y-137272500D01*
X108107000Y-137018500D01*
X108127000Y-137018500D01*
X108127000Y-136998500D01*
X108381000Y-136998500D01*
X108381000Y-137018500D01*
X108381000Y-137018500D01*
G37*
X108381000Y-137018500D02*
X108401000Y-137018500D01*
X108401000Y-137272500D01*
X108381000Y-137272500D01*
X108381000Y-137292500D01*
X108127000Y-137292500D01*
X108127000Y-137272500D01*
X108107000Y-137272500D01*
X108107000Y-137018500D01*
X108127000Y-137018500D01*
X108127000Y-136998500D01*
X108381000Y-136998500D01*
X108381000Y-137018500D01*
G36*
X116967000Y-134493000D02*
G01*
X116987000Y-134493000D01*
X116987000Y-134747000D01*
X116967000Y-134747000D01*
X116967000Y-134767000D01*
X116713000Y-134767000D01*
X116713000Y-134747000D01*
X116693000Y-134747000D01*
X116693000Y-134493000D01*
X116713000Y-134493000D01*
X116713000Y-134473000D01*
X116967000Y-134473000D01*
X116967000Y-134493000D01*
X116967000Y-134493000D01*
G37*
X116967000Y-134493000D02*
X116987000Y-134493000D01*
X116987000Y-134747000D01*
X116967000Y-134747000D01*
X116967000Y-134767000D01*
X116713000Y-134767000D01*
X116713000Y-134747000D01*
X116693000Y-134747000D01*
X116693000Y-134493000D01*
X116713000Y-134493000D01*
X116713000Y-134473000D01*
X116967000Y-134473000D01*
X116967000Y-134493000D01*
G36*
X106137067Y-131899800D02*
G01*
X106246424Y-131960521D01*
X106365526Y-131998741D01*
X106468250Y-132010000D01*
X106572998Y-131905252D01*
X106572998Y-132010000D01*
X106645553Y-132010000D01*
X106063424Y-132592129D01*
X106045102Y-132595774D01*
X105856744Y-132673795D01*
X105687226Y-132787063D01*
X105543063Y-132931226D01*
X105429795Y-133100744D01*
X105351774Y-133289102D01*
X105312000Y-133489061D01*
X105312000Y-133692939D01*
X105326927Y-133767984D01*
X105100000Y-133541057D01*
X105100000Y-131895357D01*
X105252997Y-131941768D01*
X105438107Y-131960000D01*
X105561893Y-131960000D01*
X105747003Y-131941768D01*
X105984514Y-131869720D01*
X106056317Y-131831340D01*
X106137067Y-131899800D01*
X106137067Y-131899800D01*
G37*
X106137067Y-131899800D02*
X106246424Y-131960521D01*
X106365526Y-131998741D01*
X106468250Y-132010000D01*
X106572998Y-131905252D01*
X106572998Y-132010000D01*
X106645553Y-132010000D01*
X106063424Y-132592129D01*
X106045102Y-132595774D01*
X105856744Y-132673795D01*
X105687226Y-132787063D01*
X105543063Y-132931226D01*
X105429795Y-133100744D01*
X105351774Y-133289102D01*
X105312000Y-133489061D01*
X105312000Y-133692939D01*
X105326927Y-133767984D01*
X105100000Y-133541057D01*
X105100000Y-131895357D01*
X105252997Y-131941768D01*
X105438107Y-131960000D01*
X105561893Y-131960000D01*
X105747003Y-131941768D01*
X105984514Y-131869720D01*
X106056317Y-131831340D01*
X106137067Y-131899800D01*
G36*
X101927000Y-133148500D02*
G01*
X101947000Y-133148500D01*
X101947000Y-133402500D01*
X101927000Y-133402500D01*
X101927000Y-133422500D01*
X101673000Y-133422500D01*
X101673000Y-133402500D01*
X101653000Y-133402500D01*
X101653000Y-133148500D01*
X101673000Y-133148500D01*
X101673000Y-133128500D01*
X101927000Y-133128500D01*
X101927000Y-133148500D01*
X101927000Y-133148500D01*
G37*
X101927000Y-133148500D02*
X101947000Y-133148500D01*
X101947000Y-133402500D01*
X101927000Y-133402500D01*
X101927000Y-133422500D01*
X101673000Y-133422500D01*
X101673000Y-133402500D01*
X101653000Y-133402500D01*
X101653000Y-133148500D01*
X101673000Y-133148500D01*
X101673000Y-133128500D01*
X101927000Y-133128500D01*
X101927000Y-133148500D01*
G36*
X102764001Y-132432894D02*
G01*
X102750900Y-132416930D01*
X102764001Y-132400966D01*
X102764001Y-132432894D01*
X102764001Y-132432894D01*
G37*
X102764001Y-132432894D02*
X102750900Y-132416930D01*
X102764001Y-132400966D01*
X102764001Y-132432894D01*
G36*
X110321956Y-127212856D02*
G01*
X110191027Y-127457806D01*
X110110402Y-127723592D01*
X110083178Y-128000000D01*
X110110402Y-128276408D01*
X110191027Y-128542194D01*
X110321956Y-128787144D01*
X110498156Y-129001844D01*
X110712856Y-129178044D01*
X110957806Y-129308973D01*
X111223592Y-129389598D01*
X111430736Y-129410000D01*
X111569264Y-129410000D01*
X111776408Y-129389598D01*
X112042194Y-129308973D01*
X112287144Y-129178044D01*
X112501844Y-129001844D01*
X112678044Y-128787144D01*
X112808973Y-128542194D01*
X112889598Y-128276408D01*
X112916822Y-128000000D01*
X112889598Y-127723592D01*
X112808973Y-127457806D01*
X112678044Y-127212856D01*
X112593632Y-127110000D01*
X116965279Y-127110000D01*
X117249899Y-127137907D01*
X117490285Y-127210484D01*
X117711991Y-127328368D01*
X117906577Y-127487068D01*
X118066635Y-127680545D01*
X118186064Y-127901424D01*
X118260317Y-128141297D01*
X118290000Y-128423716D01*
X118290000Y-129204343D01*
X118218599Y-128968966D01*
X118080706Y-128710986D01*
X117895134Y-128484866D01*
X117669014Y-128299294D01*
X117411034Y-128161401D01*
X117131111Y-128076487D01*
X116912950Y-128055000D01*
X116767050Y-128055000D01*
X116548889Y-128076487D01*
X116268966Y-128161401D01*
X116010986Y-128299294D01*
X115784866Y-128484866D01*
X115599294Y-128710986D01*
X115566115Y-128773060D01*
X115484054Y-128781142D01*
X115338908Y-128825171D01*
X115205141Y-128896671D01*
X115087894Y-128992894D01*
X114991671Y-129110141D01*
X114920171Y-129243908D01*
X114876142Y-129389054D01*
X114874659Y-129404112D01*
X114832275Y-129369329D01*
X114684142Y-129290150D01*
X114523408Y-129241392D01*
X114356250Y-129224928D01*
X113843750Y-129224928D01*
X113676592Y-129241392D01*
X113515858Y-129290150D01*
X113367725Y-129369329D01*
X113237885Y-129475885D01*
X113195346Y-129527719D01*
X113172187Y-129530000D01*
X113172180Y-129530000D01*
X113059054Y-129541142D01*
X112913908Y-129585171D01*
X112780141Y-129656671D01*
X112730182Y-129697672D01*
X112692270Y-129728785D01*
X112692269Y-129728786D01*
X112662894Y-129752894D01*
X112638788Y-129782267D01*
X111762058Y-130658998D01*
X111741768Y-130452997D01*
X111669720Y-130215486D01*
X111552720Y-129996595D01*
X111395265Y-129804735D01*
X111203405Y-129647280D01*
X110984514Y-129530280D01*
X110747003Y-129458232D01*
X110561893Y-129440000D01*
X110438107Y-129440000D01*
X110252997Y-129458232D01*
X110015486Y-129530280D01*
X109944422Y-129568265D01*
X109854494Y-129494463D01*
X109744180Y-129435498D01*
X109624482Y-129399188D01*
X109500000Y-129386928D01*
X109100000Y-129386928D01*
X108975518Y-129399188D01*
X108975000Y-129399345D01*
X108974482Y-129399188D01*
X108850000Y-129386928D01*
X108450000Y-129386928D01*
X108325518Y-129399188D01*
X108325000Y-129399345D01*
X108324482Y-129399188D01*
X108200000Y-129386928D01*
X107800000Y-129386928D01*
X107675518Y-129399188D01*
X107675000Y-129399345D01*
X107674482Y-129399188D01*
X107550000Y-129386928D01*
X107150000Y-129386928D01*
X107025518Y-129399188D01*
X107022880Y-129399988D01*
X106931750Y-129390000D01*
X106863782Y-129457968D01*
X106795506Y-129494463D01*
X106698815Y-129573815D01*
X106627000Y-129661322D01*
X106627000Y-129548750D01*
X106468250Y-129390000D01*
X106365526Y-129401259D01*
X106246424Y-129439479D01*
X106137067Y-129500200D01*
X106056317Y-129568660D01*
X105984514Y-129530280D01*
X105747003Y-129458232D01*
X105561893Y-129440000D01*
X105438107Y-129440000D01*
X105252997Y-129458232D01*
X105015486Y-129530280D01*
X104796595Y-129647280D01*
X104752451Y-129683508D01*
X104478944Y-129410000D01*
X104569264Y-129410000D01*
X104776408Y-129389598D01*
X105042194Y-129308973D01*
X105287144Y-129178044D01*
X105501844Y-129001844D01*
X105678044Y-128787144D01*
X105808973Y-128542194D01*
X105889598Y-128276408D01*
X105916822Y-128000000D01*
X105889598Y-127723592D01*
X105808973Y-127457806D01*
X105678044Y-127212856D01*
X105593632Y-127110000D01*
X110406368Y-127110000D01*
X110321956Y-127212856D01*
X110321956Y-127212856D01*
G37*
X110321956Y-127212856D02*
X110191027Y-127457806D01*
X110110402Y-127723592D01*
X110083178Y-128000000D01*
X110110402Y-128276408D01*
X110191027Y-128542194D01*
X110321956Y-128787144D01*
X110498156Y-129001844D01*
X110712856Y-129178044D01*
X110957806Y-129308973D01*
X111223592Y-129389598D01*
X111430736Y-129410000D01*
X111569264Y-129410000D01*
X111776408Y-129389598D01*
X112042194Y-129308973D01*
X112287144Y-129178044D01*
X112501844Y-129001844D01*
X112678044Y-128787144D01*
X112808973Y-128542194D01*
X112889598Y-128276408D01*
X112916822Y-128000000D01*
X112889598Y-127723592D01*
X112808973Y-127457806D01*
X112678044Y-127212856D01*
X112593632Y-127110000D01*
X116965279Y-127110000D01*
X117249899Y-127137907D01*
X117490285Y-127210484D01*
X117711991Y-127328368D01*
X117906577Y-127487068D01*
X118066635Y-127680545D01*
X118186064Y-127901424D01*
X118260317Y-128141297D01*
X118290000Y-128423716D01*
X118290000Y-129204343D01*
X118218599Y-128968966D01*
X118080706Y-128710986D01*
X117895134Y-128484866D01*
X117669014Y-128299294D01*
X117411034Y-128161401D01*
X117131111Y-128076487D01*
X116912950Y-128055000D01*
X116767050Y-128055000D01*
X116548889Y-128076487D01*
X116268966Y-128161401D01*
X116010986Y-128299294D01*
X115784866Y-128484866D01*
X115599294Y-128710986D01*
X115566115Y-128773060D01*
X115484054Y-128781142D01*
X115338908Y-128825171D01*
X115205141Y-128896671D01*
X115087894Y-128992894D01*
X114991671Y-129110141D01*
X114920171Y-129243908D01*
X114876142Y-129389054D01*
X114874659Y-129404112D01*
X114832275Y-129369329D01*
X114684142Y-129290150D01*
X114523408Y-129241392D01*
X114356250Y-129224928D01*
X113843750Y-129224928D01*
X113676592Y-129241392D01*
X113515858Y-129290150D01*
X113367725Y-129369329D01*
X113237885Y-129475885D01*
X113195346Y-129527719D01*
X113172187Y-129530000D01*
X113172180Y-129530000D01*
X113059054Y-129541142D01*
X112913908Y-129585171D01*
X112780141Y-129656671D01*
X112730182Y-129697672D01*
X112692270Y-129728785D01*
X112692269Y-129728786D01*
X112662894Y-129752894D01*
X112638788Y-129782267D01*
X111762058Y-130658998D01*
X111741768Y-130452997D01*
X111669720Y-130215486D01*
X111552720Y-129996595D01*
X111395265Y-129804735D01*
X111203405Y-129647280D01*
X110984514Y-129530280D01*
X110747003Y-129458232D01*
X110561893Y-129440000D01*
X110438107Y-129440000D01*
X110252997Y-129458232D01*
X110015486Y-129530280D01*
X109944422Y-129568265D01*
X109854494Y-129494463D01*
X109744180Y-129435498D01*
X109624482Y-129399188D01*
X109500000Y-129386928D01*
X109100000Y-129386928D01*
X108975518Y-129399188D01*
X108975000Y-129399345D01*
X108974482Y-129399188D01*
X108850000Y-129386928D01*
X108450000Y-129386928D01*
X108325518Y-129399188D01*
X108325000Y-129399345D01*
X108324482Y-129399188D01*
X108200000Y-129386928D01*
X107800000Y-129386928D01*
X107675518Y-129399188D01*
X107675000Y-129399345D01*
X107674482Y-129399188D01*
X107550000Y-129386928D01*
X107150000Y-129386928D01*
X107025518Y-129399188D01*
X107022880Y-129399988D01*
X106931750Y-129390000D01*
X106863782Y-129457968D01*
X106795506Y-129494463D01*
X106698815Y-129573815D01*
X106627000Y-129661322D01*
X106627000Y-129548750D01*
X106468250Y-129390000D01*
X106365526Y-129401259D01*
X106246424Y-129439479D01*
X106137067Y-129500200D01*
X106056317Y-129568660D01*
X105984514Y-129530280D01*
X105747003Y-129458232D01*
X105561893Y-129440000D01*
X105438107Y-129440000D01*
X105252997Y-129458232D01*
X105015486Y-129530280D01*
X104796595Y-129647280D01*
X104752451Y-129683508D01*
X104478944Y-129410000D01*
X104569264Y-129410000D01*
X104776408Y-129389598D01*
X105042194Y-129308973D01*
X105287144Y-129178044D01*
X105501844Y-129001844D01*
X105678044Y-128787144D01*
X105808973Y-128542194D01*
X105889598Y-128276408D01*
X105916822Y-128000000D01*
X105889598Y-127723592D01*
X105808973Y-127457806D01*
X105678044Y-127212856D01*
X105593632Y-127110000D01*
X110406368Y-127110000D01*
X110321956Y-127212856D01*
G36*
X103281953Y-130390896D02*
G01*
X103197102Y-130407774D01*
X103008744Y-130485795D01*
X102858823Y-130585969D01*
X102896608Y-130461408D01*
X102913072Y-130294250D01*
X102913072Y-130022016D01*
X103281953Y-130390896D01*
X103281953Y-130390896D01*
G37*
X103281953Y-130390896D02*
X103197102Y-130407774D01*
X103008744Y-130485795D01*
X102858823Y-130585969D01*
X102896608Y-130461408D01*
X102913072Y-130294250D01*
X102913072Y-130022016D01*
X103281953Y-130390896D01*
G36*
X103321956Y-127212856D02*
G01*
X103191027Y-127457806D01*
X103110402Y-127723592D01*
X103083178Y-128000000D01*
X103084733Y-128015790D01*
X103051221Y-127982278D01*
X103027106Y-127952894D01*
X102909859Y-127856671D01*
X102776092Y-127785171D01*
X102743752Y-127775361D01*
X102662115Y-127675885D01*
X102532275Y-127569329D01*
X102384142Y-127490150D01*
X102223408Y-127441392D01*
X102056250Y-127424928D01*
X101543750Y-127424928D01*
X101376592Y-127441392D01*
X101215858Y-127490150D01*
X101067725Y-127569329D01*
X100937885Y-127675885D01*
X100831329Y-127805725D01*
X100752150Y-127953858D01*
X100703392Y-128114592D01*
X100686928Y-128281750D01*
X100686928Y-128524128D01*
X100545650Y-128665406D01*
X100535812Y-128565518D01*
X100499502Y-128445820D01*
X100440537Y-128335506D01*
X100361185Y-128238815D01*
X100264494Y-128159463D01*
X100154180Y-128100498D01*
X100034482Y-128064188D01*
X99910000Y-128051928D01*
X99345750Y-128055000D01*
X99187000Y-128213750D01*
X99187000Y-129413000D01*
X99207000Y-129413000D01*
X99207000Y-129667000D01*
X99187000Y-129667000D01*
X99187000Y-129687000D01*
X98933000Y-129687000D01*
X98933000Y-129667000D01*
X98913000Y-129667000D01*
X98913000Y-129413000D01*
X98933000Y-129413000D01*
X98933000Y-128213750D01*
X98774250Y-128055000D01*
X98210000Y-128051928D01*
X98085518Y-128064188D01*
X97965820Y-128100498D01*
X97855506Y-128159463D01*
X97758815Y-128238815D01*
X97725192Y-128279785D01*
X97737907Y-128150101D01*
X97810484Y-127909715D01*
X97928368Y-127688009D01*
X98087068Y-127493423D01*
X98280545Y-127333365D01*
X98501424Y-127213936D01*
X98741297Y-127139683D01*
X99023716Y-127110000D01*
X103406368Y-127110000D01*
X103321956Y-127212856D01*
X103321956Y-127212856D01*
G37*
X103321956Y-127212856D02*
X103191027Y-127457806D01*
X103110402Y-127723592D01*
X103083178Y-128000000D01*
X103084733Y-128015790D01*
X103051221Y-127982278D01*
X103027106Y-127952894D01*
X102909859Y-127856671D01*
X102776092Y-127785171D01*
X102743752Y-127775361D01*
X102662115Y-127675885D01*
X102532275Y-127569329D01*
X102384142Y-127490150D01*
X102223408Y-127441392D01*
X102056250Y-127424928D01*
X101543750Y-127424928D01*
X101376592Y-127441392D01*
X101215858Y-127490150D01*
X101067725Y-127569329D01*
X100937885Y-127675885D01*
X100831329Y-127805725D01*
X100752150Y-127953858D01*
X100703392Y-128114592D01*
X100686928Y-128281750D01*
X100686928Y-128524128D01*
X100545650Y-128665406D01*
X100535812Y-128565518D01*
X100499502Y-128445820D01*
X100440537Y-128335506D01*
X100361185Y-128238815D01*
X100264494Y-128159463D01*
X100154180Y-128100498D01*
X100034482Y-128064188D01*
X99910000Y-128051928D01*
X99345750Y-128055000D01*
X99187000Y-128213750D01*
X99187000Y-129413000D01*
X99207000Y-129413000D01*
X99207000Y-129667000D01*
X99187000Y-129667000D01*
X99187000Y-129687000D01*
X98933000Y-129687000D01*
X98933000Y-129667000D01*
X98913000Y-129667000D01*
X98913000Y-129413000D01*
X98933000Y-129413000D01*
X98933000Y-128213750D01*
X98774250Y-128055000D01*
X98210000Y-128051928D01*
X98085518Y-128064188D01*
X97965820Y-128100498D01*
X97855506Y-128159463D01*
X97758815Y-128238815D01*
X97725192Y-128279785D01*
X97737907Y-128150101D01*
X97810484Y-127909715D01*
X97928368Y-127688009D01*
X98087068Y-127493423D01*
X98280545Y-127333365D01*
X98501424Y-127213936D01*
X98741297Y-127139683D01*
X99023716Y-127110000D01*
X103406368Y-127110000D01*
X103321956Y-127212856D01*
M02*
