G04 #@! TF.GenerationSoftware,KiCad,Pcbnew,(5.1.2)-1*
G04 #@! TF.CreationDate,2022-09-21T22:05:37+09:00*
G04 #@! TF.ProjectId,converter,636f6e76-6572-4746-9572-2e6b69636164,v2.0*
G04 #@! TF.SameCoordinates,Original*
G04 #@! TF.FileFunction,Paste,Bot*
G04 #@! TF.FilePolarity,Positive*
%FSLAX46Y46*%
G04 Gerber Fmt 4.6, Leading zero omitted, Abs format (unit mm)*
G04 Created by KiCad (PCBNEW (5.1.2)-1) date 2022-09-21 22:05:37*
%MOMM*%
%LPD*%
G04 APERTURE LIST*
%ADD10C,0.100000*%
%ADD11C,0.875000*%
%ADD12C,0.600000*%
%ADD13O,1.524000X1.800000*%
G04 APERTURE END LIST*
D10*
G36*
X102137691Y-145138053D02*
G01*
X102158926Y-145141203D01*
X102179750Y-145146419D01*
X102199962Y-145153651D01*
X102219368Y-145162830D01*
X102237781Y-145173866D01*
X102255024Y-145186654D01*
X102270930Y-145201070D01*
X102285346Y-145216976D01*
X102298134Y-145234219D01*
X102309170Y-145252632D01*
X102318349Y-145272038D01*
X102325581Y-145292250D01*
X102330797Y-145313074D01*
X102333947Y-145334309D01*
X102335000Y-145355750D01*
X102335000Y-145793250D01*
X102333947Y-145814691D01*
X102330797Y-145835926D01*
X102325581Y-145856750D01*
X102318349Y-145876962D01*
X102309170Y-145896368D01*
X102298134Y-145914781D01*
X102285346Y-145932024D01*
X102270930Y-145947930D01*
X102255024Y-145962346D01*
X102237781Y-145975134D01*
X102219368Y-145986170D01*
X102199962Y-145995349D01*
X102179750Y-146002581D01*
X102158926Y-146007797D01*
X102137691Y-146010947D01*
X102116250Y-146012000D01*
X101603750Y-146012000D01*
X101582309Y-146010947D01*
X101561074Y-146007797D01*
X101540250Y-146002581D01*
X101520038Y-145995349D01*
X101500632Y-145986170D01*
X101482219Y-145975134D01*
X101464976Y-145962346D01*
X101449070Y-145947930D01*
X101434654Y-145932024D01*
X101421866Y-145914781D01*
X101410830Y-145896368D01*
X101401651Y-145876962D01*
X101394419Y-145856750D01*
X101389203Y-145835926D01*
X101386053Y-145814691D01*
X101385000Y-145793250D01*
X101385000Y-145355750D01*
X101386053Y-145334309D01*
X101389203Y-145313074D01*
X101394419Y-145292250D01*
X101401651Y-145272038D01*
X101410830Y-145252632D01*
X101421866Y-145234219D01*
X101434654Y-145216976D01*
X101449070Y-145201070D01*
X101464976Y-145186654D01*
X101482219Y-145173866D01*
X101500632Y-145162830D01*
X101520038Y-145153651D01*
X101540250Y-145146419D01*
X101561074Y-145141203D01*
X101582309Y-145138053D01*
X101603750Y-145137000D01*
X102116250Y-145137000D01*
X102137691Y-145138053D01*
X102137691Y-145138053D01*
G37*
D11*
X101860000Y-145574500D03*
D10*
G36*
X102137691Y-146713053D02*
G01*
X102158926Y-146716203D01*
X102179750Y-146721419D01*
X102199962Y-146728651D01*
X102219368Y-146737830D01*
X102237781Y-146748866D01*
X102255024Y-146761654D01*
X102270930Y-146776070D01*
X102285346Y-146791976D01*
X102298134Y-146809219D01*
X102309170Y-146827632D01*
X102318349Y-146847038D01*
X102325581Y-146867250D01*
X102330797Y-146888074D01*
X102333947Y-146909309D01*
X102335000Y-146930750D01*
X102335000Y-147368250D01*
X102333947Y-147389691D01*
X102330797Y-147410926D01*
X102325581Y-147431750D01*
X102318349Y-147451962D01*
X102309170Y-147471368D01*
X102298134Y-147489781D01*
X102285346Y-147507024D01*
X102270930Y-147522930D01*
X102255024Y-147537346D01*
X102237781Y-147550134D01*
X102219368Y-147561170D01*
X102199962Y-147570349D01*
X102179750Y-147577581D01*
X102158926Y-147582797D01*
X102137691Y-147585947D01*
X102116250Y-147587000D01*
X101603750Y-147587000D01*
X101582309Y-147585947D01*
X101561074Y-147582797D01*
X101540250Y-147577581D01*
X101520038Y-147570349D01*
X101500632Y-147561170D01*
X101482219Y-147550134D01*
X101464976Y-147537346D01*
X101449070Y-147522930D01*
X101434654Y-147507024D01*
X101421866Y-147489781D01*
X101410830Y-147471368D01*
X101401651Y-147451962D01*
X101394419Y-147431750D01*
X101389203Y-147410926D01*
X101386053Y-147389691D01*
X101385000Y-147368250D01*
X101385000Y-146930750D01*
X101386053Y-146909309D01*
X101389203Y-146888074D01*
X101394419Y-146867250D01*
X101401651Y-146847038D01*
X101410830Y-146827632D01*
X101421866Y-146809219D01*
X101434654Y-146791976D01*
X101449070Y-146776070D01*
X101464976Y-146761654D01*
X101482219Y-146748866D01*
X101500632Y-146737830D01*
X101520038Y-146728651D01*
X101540250Y-146721419D01*
X101561074Y-146716203D01*
X101582309Y-146713053D01*
X101603750Y-146712000D01*
X102116250Y-146712000D01*
X102137691Y-146713053D01*
X102137691Y-146713053D01*
G37*
D11*
X101860000Y-147149500D03*
D10*
G36*
X102201691Y-141829053D02*
G01*
X102222926Y-141832203D01*
X102243750Y-141837419D01*
X102263962Y-141844651D01*
X102283368Y-141853830D01*
X102301781Y-141864866D01*
X102319024Y-141877654D01*
X102334930Y-141892070D01*
X102349346Y-141907976D01*
X102362134Y-141925219D01*
X102373170Y-141943632D01*
X102382349Y-141963038D01*
X102389581Y-141983250D01*
X102394797Y-142004074D01*
X102397947Y-142025309D01*
X102399000Y-142046750D01*
X102399000Y-142484250D01*
X102397947Y-142505691D01*
X102394797Y-142526926D01*
X102389581Y-142547750D01*
X102382349Y-142567962D01*
X102373170Y-142587368D01*
X102362134Y-142605781D01*
X102349346Y-142623024D01*
X102334930Y-142638930D01*
X102319024Y-142653346D01*
X102301781Y-142666134D01*
X102283368Y-142677170D01*
X102263962Y-142686349D01*
X102243750Y-142693581D01*
X102222926Y-142698797D01*
X102201691Y-142701947D01*
X102180250Y-142703000D01*
X101667750Y-142703000D01*
X101646309Y-142701947D01*
X101625074Y-142698797D01*
X101604250Y-142693581D01*
X101584038Y-142686349D01*
X101564632Y-142677170D01*
X101546219Y-142666134D01*
X101528976Y-142653346D01*
X101513070Y-142638930D01*
X101498654Y-142623024D01*
X101485866Y-142605781D01*
X101474830Y-142587368D01*
X101465651Y-142567962D01*
X101458419Y-142547750D01*
X101453203Y-142526926D01*
X101450053Y-142505691D01*
X101449000Y-142484250D01*
X101449000Y-142046750D01*
X101450053Y-142025309D01*
X101453203Y-142004074D01*
X101458419Y-141983250D01*
X101465651Y-141963038D01*
X101474830Y-141943632D01*
X101485866Y-141925219D01*
X101498654Y-141907976D01*
X101513070Y-141892070D01*
X101528976Y-141877654D01*
X101546219Y-141864866D01*
X101564632Y-141853830D01*
X101584038Y-141844651D01*
X101604250Y-141837419D01*
X101625074Y-141832203D01*
X101646309Y-141829053D01*
X101667750Y-141828000D01*
X102180250Y-141828000D01*
X102201691Y-141829053D01*
X102201691Y-141829053D01*
G37*
D11*
X101924000Y-142265500D03*
D10*
G36*
X102201691Y-140254053D02*
G01*
X102222926Y-140257203D01*
X102243750Y-140262419D01*
X102263962Y-140269651D01*
X102283368Y-140278830D01*
X102301781Y-140289866D01*
X102319024Y-140302654D01*
X102334930Y-140317070D01*
X102349346Y-140332976D01*
X102362134Y-140350219D01*
X102373170Y-140368632D01*
X102382349Y-140388038D01*
X102389581Y-140408250D01*
X102394797Y-140429074D01*
X102397947Y-140450309D01*
X102399000Y-140471750D01*
X102399000Y-140909250D01*
X102397947Y-140930691D01*
X102394797Y-140951926D01*
X102389581Y-140972750D01*
X102382349Y-140992962D01*
X102373170Y-141012368D01*
X102362134Y-141030781D01*
X102349346Y-141048024D01*
X102334930Y-141063930D01*
X102319024Y-141078346D01*
X102301781Y-141091134D01*
X102283368Y-141102170D01*
X102263962Y-141111349D01*
X102243750Y-141118581D01*
X102222926Y-141123797D01*
X102201691Y-141126947D01*
X102180250Y-141128000D01*
X101667750Y-141128000D01*
X101646309Y-141126947D01*
X101625074Y-141123797D01*
X101604250Y-141118581D01*
X101584038Y-141111349D01*
X101564632Y-141102170D01*
X101546219Y-141091134D01*
X101528976Y-141078346D01*
X101513070Y-141063930D01*
X101498654Y-141048024D01*
X101485866Y-141030781D01*
X101474830Y-141012368D01*
X101465651Y-140992962D01*
X101458419Y-140972750D01*
X101453203Y-140951926D01*
X101450053Y-140930691D01*
X101449000Y-140909250D01*
X101449000Y-140471750D01*
X101450053Y-140450309D01*
X101453203Y-140429074D01*
X101458419Y-140408250D01*
X101465651Y-140388038D01*
X101474830Y-140368632D01*
X101485866Y-140350219D01*
X101498654Y-140332976D01*
X101513070Y-140317070D01*
X101528976Y-140302654D01*
X101546219Y-140289866D01*
X101564632Y-140278830D01*
X101584038Y-140269651D01*
X101604250Y-140262419D01*
X101625074Y-140257203D01*
X101646309Y-140254053D01*
X101667750Y-140253000D01*
X102180250Y-140253000D01*
X102201691Y-140254053D01*
X102201691Y-140254053D01*
G37*
D11*
X101924000Y-140690500D03*
D10*
G36*
X114577691Y-141346053D02*
G01*
X114598926Y-141349203D01*
X114619750Y-141354419D01*
X114639962Y-141361651D01*
X114659368Y-141370830D01*
X114677781Y-141381866D01*
X114695024Y-141394654D01*
X114710930Y-141409070D01*
X114725346Y-141424976D01*
X114738134Y-141442219D01*
X114749170Y-141460632D01*
X114758349Y-141480038D01*
X114765581Y-141500250D01*
X114770797Y-141521074D01*
X114773947Y-141542309D01*
X114775000Y-141563750D01*
X114775000Y-142001250D01*
X114773947Y-142022691D01*
X114770797Y-142043926D01*
X114765581Y-142064750D01*
X114758349Y-142084962D01*
X114749170Y-142104368D01*
X114738134Y-142122781D01*
X114725346Y-142140024D01*
X114710930Y-142155930D01*
X114695024Y-142170346D01*
X114677781Y-142183134D01*
X114659368Y-142194170D01*
X114639962Y-142203349D01*
X114619750Y-142210581D01*
X114598926Y-142215797D01*
X114577691Y-142218947D01*
X114556250Y-142220000D01*
X114043750Y-142220000D01*
X114022309Y-142218947D01*
X114001074Y-142215797D01*
X113980250Y-142210581D01*
X113960038Y-142203349D01*
X113940632Y-142194170D01*
X113922219Y-142183134D01*
X113904976Y-142170346D01*
X113889070Y-142155930D01*
X113874654Y-142140024D01*
X113861866Y-142122781D01*
X113850830Y-142104368D01*
X113841651Y-142084962D01*
X113834419Y-142064750D01*
X113829203Y-142043926D01*
X113826053Y-142022691D01*
X113825000Y-142001250D01*
X113825000Y-141563750D01*
X113826053Y-141542309D01*
X113829203Y-141521074D01*
X113834419Y-141500250D01*
X113841651Y-141480038D01*
X113850830Y-141460632D01*
X113861866Y-141442219D01*
X113874654Y-141424976D01*
X113889070Y-141409070D01*
X113904976Y-141394654D01*
X113922219Y-141381866D01*
X113940632Y-141370830D01*
X113960038Y-141361651D01*
X113980250Y-141354419D01*
X114001074Y-141349203D01*
X114022309Y-141346053D01*
X114043750Y-141345000D01*
X114556250Y-141345000D01*
X114577691Y-141346053D01*
X114577691Y-141346053D01*
G37*
D11*
X114300000Y-141782500D03*
D10*
G36*
X114577691Y-142921053D02*
G01*
X114598926Y-142924203D01*
X114619750Y-142929419D01*
X114639962Y-142936651D01*
X114659368Y-142945830D01*
X114677781Y-142956866D01*
X114695024Y-142969654D01*
X114710930Y-142984070D01*
X114725346Y-142999976D01*
X114738134Y-143017219D01*
X114749170Y-143035632D01*
X114758349Y-143055038D01*
X114765581Y-143075250D01*
X114770797Y-143096074D01*
X114773947Y-143117309D01*
X114775000Y-143138750D01*
X114775000Y-143576250D01*
X114773947Y-143597691D01*
X114770797Y-143618926D01*
X114765581Y-143639750D01*
X114758349Y-143659962D01*
X114749170Y-143679368D01*
X114738134Y-143697781D01*
X114725346Y-143715024D01*
X114710930Y-143730930D01*
X114695024Y-143745346D01*
X114677781Y-143758134D01*
X114659368Y-143769170D01*
X114639962Y-143778349D01*
X114619750Y-143785581D01*
X114598926Y-143790797D01*
X114577691Y-143793947D01*
X114556250Y-143795000D01*
X114043750Y-143795000D01*
X114022309Y-143793947D01*
X114001074Y-143790797D01*
X113980250Y-143785581D01*
X113960038Y-143778349D01*
X113940632Y-143769170D01*
X113922219Y-143758134D01*
X113904976Y-143745346D01*
X113889070Y-143730930D01*
X113874654Y-143715024D01*
X113861866Y-143697781D01*
X113850830Y-143679368D01*
X113841651Y-143659962D01*
X113834419Y-143639750D01*
X113829203Y-143618926D01*
X113826053Y-143597691D01*
X113825000Y-143576250D01*
X113825000Y-143138750D01*
X113826053Y-143117309D01*
X113829203Y-143096074D01*
X113834419Y-143075250D01*
X113841651Y-143055038D01*
X113850830Y-143035632D01*
X113861866Y-143017219D01*
X113874654Y-142999976D01*
X113889070Y-142984070D01*
X113904976Y-142969654D01*
X113922219Y-142956866D01*
X113940632Y-142945830D01*
X113960038Y-142936651D01*
X113980250Y-142929419D01*
X114001074Y-142924203D01*
X114022309Y-142921053D01*
X114043750Y-142920000D01*
X114556250Y-142920000D01*
X114577691Y-142921053D01*
X114577691Y-142921053D01*
G37*
D11*
X114300000Y-143357500D03*
D10*
G36*
X111315691Y-146042053D02*
G01*
X111336926Y-146045203D01*
X111357750Y-146050419D01*
X111377962Y-146057651D01*
X111397368Y-146066830D01*
X111415781Y-146077866D01*
X111433024Y-146090654D01*
X111448930Y-146105070D01*
X111463346Y-146120976D01*
X111476134Y-146138219D01*
X111487170Y-146156632D01*
X111496349Y-146176038D01*
X111503581Y-146196250D01*
X111508797Y-146217074D01*
X111511947Y-146238309D01*
X111513000Y-146259750D01*
X111513000Y-146772250D01*
X111511947Y-146793691D01*
X111508797Y-146814926D01*
X111503581Y-146835750D01*
X111496349Y-146855962D01*
X111487170Y-146875368D01*
X111476134Y-146893781D01*
X111463346Y-146911024D01*
X111448930Y-146926930D01*
X111433024Y-146941346D01*
X111415781Y-146954134D01*
X111397368Y-146965170D01*
X111377962Y-146974349D01*
X111357750Y-146981581D01*
X111336926Y-146986797D01*
X111315691Y-146989947D01*
X111294250Y-146991000D01*
X110856750Y-146991000D01*
X110835309Y-146989947D01*
X110814074Y-146986797D01*
X110793250Y-146981581D01*
X110773038Y-146974349D01*
X110753632Y-146965170D01*
X110735219Y-146954134D01*
X110717976Y-146941346D01*
X110702070Y-146926930D01*
X110687654Y-146911024D01*
X110674866Y-146893781D01*
X110663830Y-146875368D01*
X110654651Y-146855962D01*
X110647419Y-146835750D01*
X110642203Y-146814926D01*
X110639053Y-146793691D01*
X110638000Y-146772250D01*
X110638000Y-146259750D01*
X110639053Y-146238309D01*
X110642203Y-146217074D01*
X110647419Y-146196250D01*
X110654651Y-146176038D01*
X110663830Y-146156632D01*
X110674866Y-146138219D01*
X110687654Y-146120976D01*
X110702070Y-146105070D01*
X110717976Y-146090654D01*
X110735219Y-146077866D01*
X110753632Y-146066830D01*
X110773038Y-146057651D01*
X110793250Y-146050419D01*
X110814074Y-146045203D01*
X110835309Y-146042053D01*
X110856750Y-146041000D01*
X111294250Y-146041000D01*
X111315691Y-146042053D01*
X111315691Y-146042053D01*
G37*
D11*
X111075500Y-146516000D03*
D10*
G36*
X109740691Y-146042053D02*
G01*
X109761926Y-146045203D01*
X109782750Y-146050419D01*
X109802962Y-146057651D01*
X109822368Y-146066830D01*
X109840781Y-146077866D01*
X109858024Y-146090654D01*
X109873930Y-146105070D01*
X109888346Y-146120976D01*
X109901134Y-146138219D01*
X109912170Y-146156632D01*
X109921349Y-146176038D01*
X109928581Y-146196250D01*
X109933797Y-146217074D01*
X109936947Y-146238309D01*
X109938000Y-146259750D01*
X109938000Y-146772250D01*
X109936947Y-146793691D01*
X109933797Y-146814926D01*
X109928581Y-146835750D01*
X109921349Y-146855962D01*
X109912170Y-146875368D01*
X109901134Y-146893781D01*
X109888346Y-146911024D01*
X109873930Y-146926930D01*
X109858024Y-146941346D01*
X109840781Y-146954134D01*
X109822368Y-146965170D01*
X109802962Y-146974349D01*
X109782750Y-146981581D01*
X109761926Y-146986797D01*
X109740691Y-146989947D01*
X109719250Y-146991000D01*
X109281750Y-146991000D01*
X109260309Y-146989947D01*
X109239074Y-146986797D01*
X109218250Y-146981581D01*
X109198038Y-146974349D01*
X109178632Y-146965170D01*
X109160219Y-146954134D01*
X109142976Y-146941346D01*
X109127070Y-146926930D01*
X109112654Y-146911024D01*
X109099866Y-146893781D01*
X109088830Y-146875368D01*
X109079651Y-146855962D01*
X109072419Y-146835750D01*
X109067203Y-146814926D01*
X109064053Y-146793691D01*
X109063000Y-146772250D01*
X109063000Y-146259750D01*
X109064053Y-146238309D01*
X109067203Y-146217074D01*
X109072419Y-146196250D01*
X109079651Y-146176038D01*
X109088830Y-146156632D01*
X109099866Y-146138219D01*
X109112654Y-146120976D01*
X109127070Y-146105070D01*
X109142976Y-146090654D01*
X109160219Y-146077866D01*
X109178632Y-146066830D01*
X109198038Y-146057651D01*
X109218250Y-146050419D01*
X109239074Y-146045203D01*
X109260309Y-146042053D01*
X109281750Y-146041000D01*
X109719250Y-146041000D01*
X109740691Y-146042053D01*
X109740691Y-146042053D01*
G37*
D11*
X109500500Y-146516000D03*
D10*
G36*
X105140691Y-146042053D02*
G01*
X105161926Y-146045203D01*
X105182750Y-146050419D01*
X105202962Y-146057651D01*
X105222368Y-146066830D01*
X105240781Y-146077866D01*
X105258024Y-146090654D01*
X105273930Y-146105070D01*
X105288346Y-146120976D01*
X105301134Y-146138219D01*
X105312170Y-146156632D01*
X105321349Y-146176038D01*
X105328581Y-146196250D01*
X105333797Y-146217074D01*
X105336947Y-146238309D01*
X105338000Y-146259750D01*
X105338000Y-146772250D01*
X105336947Y-146793691D01*
X105333797Y-146814926D01*
X105328581Y-146835750D01*
X105321349Y-146855962D01*
X105312170Y-146875368D01*
X105301134Y-146893781D01*
X105288346Y-146911024D01*
X105273930Y-146926930D01*
X105258024Y-146941346D01*
X105240781Y-146954134D01*
X105222368Y-146965170D01*
X105202962Y-146974349D01*
X105182750Y-146981581D01*
X105161926Y-146986797D01*
X105140691Y-146989947D01*
X105119250Y-146991000D01*
X104681750Y-146991000D01*
X104660309Y-146989947D01*
X104639074Y-146986797D01*
X104618250Y-146981581D01*
X104598038Y-146974349D01*
X104578632Y-146965170D01*
X104560219Y-146954134D01*
X104542976Y-146941346D01*
X104527070Y-146926930D01*
X104512654Y-146911024D01*
X104499866Y-146893781D01*
X104488830Y-146875368D01*
X104479651Y-146855962D01*
X104472419Y-146835750D01*
X104467203Y-146814926D01*
X104464053Y-146793691D01*
X104463000Y-146772250D01*
X104463000Y-146259750D01*
X104464053Y-146238309D01*
X104467203Y-146217074D01*
X104472419Y-146196250D01*
X104479651Y-146176038D01*
X104488830Y-146156632D01*
X104499866Y-146138219D01*
X104512654Y-146120976D01*
X104527070Y-146105070D01*
X104542976Y-146090654D01*
X104560219Y-146077866D01*
X104578632Y-146066830D01*
X104598038Y-146057651D01*
X104618250Y-146050419D01*
X104639074Y-146045203D01*
X104660309Y-146042053D01*
X104681750Y-146041000D01*
X105119250Y-146041000D01*
X105140691Y-146042053D01*
X105140691Y-146042053D01*
G37*
D11*
X104900500Y-146516000D03*
D10*
G36*
X106715691Y-146042053D02*
G01*
X106736926Y-146045203D01*
X106757750Y-146050419D01*
X106777962Y-146057651D01*
X106797368Y-146066830D01*
X106815781Y-146077866D01*
X106833024Y-146090654D01*
X106848930Y-146105070D01*
X106863346Y-146120976D01*
X106876134Y-146138219D01*
X106887170Y-146156632D01*
X106896349Y-146176038D01*
X106903581Y-146196250D01*
X106908797Y-146217074D01*
X106911947Y-146238309D01*
X106913000Y-146259750D01*
X106913000Y-146772250D01*
X106911947Y-146793691D01*
X106908797Y-146814926D01*
X106903581Y-146835750D01*
X106896349Y-146855962D01*
X106887170Y-146875368D01*
X106876134Y-146893781D01*
X106863346Y-146911024D01*
X106848930Y-146926930D01*
X106833024Y-146941346D01*
X106815781Y-146954134D01*
X106797368Y-146965170D01*
X106777962Y-146974349D01*
X106757750Y-146981581D01*
X106736926Y-146986797D01*
X106715691Y-146989947D01*
X106694250Y-146991000D01*
X106256750Y-146991000D01*
X106235309Y-146989947D01*
X106214074Y-146986797D01*
X106193250Y-146981581D01*
X106173038Y-146974349D01*
X106153632Y-146965170D01*
X106135219Y-146954134D01*
X106117976Y-146941346D01*
X106102070Y-146926930D01*
X106087654Y-146911024D01*
X106074866Y-146893781D01*
X106063830Y-146875368D01*
X106054651Y-146855962D01*
X106047419Y-146835750D01*
X106042203Y-146814926D01*
X106039053Y-146793691D01*
X106038000Y-146772250D01*
X106038000Y-146259750D01*
X106039053Y-146238309D01*
X106042203Y-146217074D01*
X106047419Y-146196250D01*
X106054651Y-146176038D01*
X106063830Y-146156632D01*
X106074866Y-146138219D01*
X106087654Y-146120976D01*
X106102070Y-146105070D01*
X106117976Y-146090654D01*
X106135219Y-146077866D01*
X106153632Y-146066830D01*
X106173038Y-146057651D01*
X106193250Y-146050419D01*
X106214074Y-146045203D01*
X106235309Y-146042053D01*
X106256750Y-146041000D01*
X106694250Y-146041000D01*
X106715691Y-146042053D01*
X106715691Y-146042053D01*
G37*
D11*
X106475500Y-146516000D03*
D10*
G36*
X110339691Y-134230053D02*
G01*
X110360926Y-134233203D01*
X110381750Y-134238419D01*
X110401962Y-134245651D01*
X110421368Y-134254830D01*
X110439781Y-134265866D01*
X110457024Y-134278654D01*
X110472930Y-134293070D01*
X110487346Y-134308976D01*
X110500134Y-134326219D01*
X110511170Y-134344632D01*
X110520349Y-134364038D01*
X110527581Y-134384250D01*
X110532797Y-134405074D01*
X110535947Y-134426309D01*
X110537000Y-134447750D01*
X110537000Y-134885250D01*
X110535947Y-134906691D01*
X110532797Y-134927926D01*
X110527581Y-134948750D01*
X110520349Y-134968962D01*
X110511170Y-134988368D01*
X110500134Y-135006781D01*
X110487346Y-135024024D01*
X110472930Y-135039930D01*
X110457024Y-135054346D01*
X110439781Y-135067134D01*
X110421368Y-135078170D01*
X110401962Y-135087349D01*
X110381750Y-135094581D01*
X110360926Y-135099797D01*
X110339691Y-135102947D01*
X110318250Y-135104000D01*
X109805750Y-135104000D01*
X109784309Y-135102947D01*
X109763074Y-135099797D01*
X109742250Y-135094581D01*
X109722038Y-135087349D01*
X109702632Y-135078170D01*
X109684219Y-135067134D01*
X109666976Y-135054346D01*
X109651070Y-135039930D01*
X109636654Y-135024024D01*
X109623866Y-135006781D01*
X109612830Y-134988368D01*
X109603651Y-134968962D01*
X109596419Y-134948750D01*
X109591203Y-134927926D01*
X109588053Y-134906691D01*
X109587000Y-134885250D01*
X109587000Y-134447750D01*
X109588053Y-134426309D01*
X109591203Y-134405074D01*
X109596419Y-134384250D01*
X109603651Y-134364038D01*
X109612830Y-134344632D01*
X109623866Y-134326219D01*
X109636654Y-134308976D01*
X109651070Y-134293070D01*
X109666976Y-134278654D01*
X109684219Y-134265866D01*
X109702632Y-134254830D01*
X109722038Y-134245651D01*
X109742250Y-134238419D01*
X109763074Y-134233203D01*
X109784309Y-134230053D01*
X109805750Y-134229000D01*
X110318250Y-134229000D01*
X110339691Y-134230053D01*
X110339691Y-134230053D01*
G37*
D11*
X110062000Y-134666500D03*
D10*
G36*
X110339691Y-135805053D02*
G01*
X110360926Y-135808203D01*
X110381750Y-135813419D01*
X110401962Y-135820651D01*
X110421368Y-135829830D01*
X110439781Y-135840866D01*
X110457024Y-135853654D01*
X110472930Y-135868070D01*
X110487346Y-135883976D01*
X110500134Y-135901219D01*
X110511170Y-135919632D01*
X110520349Y-135939038D01*
X110527581Y-135959250D01*
X110532797Y-135980074D01*
X110535947Y-136001309D01*
X110537000Y-136022750D01*
X110537000Y-136460250D01*
X110535947Y-136481691D01*
X110532797Y-136502926D01*
X110527581Y-136523750D01*
X110520349Y-136543962D01*
X110511170Y-136563368D01*
X110500134Y-136581781D01*
X110487346Y-136599024D01*
X110472930Y-136614930D01*
X110457024Y-136629346D01*
X110439781Y-136642134D01*
X110421368Y-136653170D01*
X110401962Y-136662349D01*
X110381750Y-136669581D01*
X110360926Y-136674797D01*
X110339691Y-136677947D01*
X110318250Y-136679000D01*
X109805750Y-136679000D01*
X109784309Y-136677947D01*
X109763074Y-136674797D01*
X109742250Y-136669581D01*
X109722038Y-136662349D01*
X109702632Y-136653170D01*
X109684219Y-136642134D01*
X109666976Y-136629346D01*
X109651070Y-136614930D01*
X109636654Y-136599024D01*
X109623866Y-136581781D01*
X109612830Y-136563368D01*
X109603651Y-136543962D01*
X109596419Y-136523750D01*
X109591203Y-136502926D01*
X109588053Y-136481691D01*
X109587000Y-136460250D01*
X109587000Y-136022750D01*
X109588053Y-136001309D01*
X109591203Y-135980074D01*
X109596419Y-135959250D01*
X109603651Y-135939038D01*
X109612830Y-135919632D01*
X109623866Y-135901219D01*
X109636654Y-135883976D01*
X109651070Y-135868070D01*
X109666976Y-135853654D01*
X109684219Y-135840866D01*
X109702632Y-135829830D01*
X109722038Y-135820651D01*
X109742250Y-135813419D01*
X109763074Y-135808203D01*
X109784309Y-135805053D01*
X109805750Y-135804000D01*
X110318250Y-135804000D01*
X110339691Y-135805053D01*
X110339691Y-135805053D01*
G37*
D11*
X110062000Y-136241500D03*
D10*
G36*
X106739691Y-135793053D02*
G01*
X106760926Y-135796203D01*
X106781750Y-135801419D01*
X106801962Y-135808651D01*
X106821368Y-135817830D01*
X106839781Y-135828866D01*
X106857024Y-135841654D01*
X106872930Y-135856070D01*
X106887346Y-135871976D01*
X106900134Y-135889219D01*
X106911170Y-135907632D01*
X106920349Y-135927038D01*
X106927581Y-135947250D01*
X106932797Y-135968074D01*
X106935947Y-135989309D01*
X106937000Y-136010750D01*
X106937000Y-136448250D01*
X106935947Y-136469691D01*
X106932797Y-136490926D01*
X106927581Y-136511750D01*
X106920349Y-136531962D01*
X106911170Y-136551368D01*
X106900134Y-136569781D01*
X106887346Y-136587024D01*
X106872930Y-136602930D01*
X106857024Y-136617346D01*
X106839781Y-136630134D01*
X106821368Y-136641170D01*
X106801962Y-136650349D01*
X106781750Y-136657581D01*
X106760926Y-136662797D01*
X106739691Y-136665947D01*
X106718250Y-136667000D01*
X106205750Y-136667000D01*
X106184309Y-136665947D01*
X106163074Y-136662797D01*
X106142250Y-136657581D01*
X106122038Y-136650349D01*
X106102632Y-136641170D01*
X106084219Y-136630134D01*
X106066976Y-136617346D01*
X106051070Y-136602930D01*
X106036654Y-136587024D01*
X106023866Y-136569781D01*
X106012830Y-136551368D01*
X106003651Y-136531962D01*
X105996419Y-136511750D01*
X105991203Y-136490926D01*
X105988053Y-136469691D01*
X105987000Y-136448250D01*
X105987000Y-136010750D01*
X105988053Y-135989309D01*
X105991203Y-135968074D01*
X105996419Y-135947250D01*
X106003651Y-135927038D01*
X106012830Y-135907632D01*
X106023866Y-135889219D01*
X106036654Y-135871976D01*
X106051070Y-135856070D01*
X106066976Y-135841654D01*
X106084219Y-135828866D01*
X106102632Y-135817830D01*
X106122038Y-135808651D01*
X106142250Y-135801419D01*
X106163074Y-135796203D01*
X106184309Y-135793053D01*
X106205750Y-135792000D01*
X106718250Y-135792000D01*
X106739691Y-135793053D01*
X106739691Y-135793053D01*
G37*
D11*
X106462000Y-136229500D03*
D10*
G36*
X106739691Y-134218053D02*
G01*
X106760926Y-134221203D01*
X106781750Y-134226419D01*
X106801962Y-134233651D01*
X106821368Y-134242830D01*
X106839781Y-134253866D01*
X106857024Y-134266654D01*
X106872930Y-134281070D01*
X106887346Y-134296976D01*
X106900134Y-134314219D01*
X106911170Y-134332632D01*
X106920349Y-134352038D01*
X106927581Y-134372250D01*
X106932797Y-134393074D01*
X106935947Y-134414309D01*
X106937000Y-134435750D01*
X106937000Y-134873250D01*
X106935947Y-134894691D01*
X106932797Y-134915926D01*
X106927581Y-134936750D01*
X106920349Y-134956962D01*
X106911170Y-134976368D01*
X106900134Y-134994781D01*
X106887346Y-135012024D01*
X106872930Y-135027930D01*
X106857024Y-135042346D01*
X106839781Y-135055134D01*
X106821368Y-135066170D01*
X106801962Y-135075349D01*
X106781750Y-135082581D01*
X106760926Y-135087797D01*
X106739691Y-135090947D01*
X106718250Y-135092000D01*
X106205750Y-135092000D01*
X106184309Y-135090947D01*
X106163074Y-135087797D01*
X106142250Y-135082581D01*
X106122038Y-135075349D01*
X106102632Y-135066170D01*
X106084219Y-135055134D01*
X106066976Y-135042346D01*
X106051070Y-135027930D01*
X106036654Y-135012024D01*
X106023866Y-134994781D01*
X106012830Y-134976368D01*
X106003651Y-134956962D01*
X105996419Y-134936750D01*
X105991203Y-134915926D01*
X105988053Y-134894691D01*
X105987000Y-134873250D01*
X105987000Y-134435750D01*
X105988053Y-134414309D01*
X105991203Y-134393074D01*
X105996419Y-134372250D01*
X106003651Y-134352038D01*
X106012830Y-134332632D01*
X106023866Y-134314219D01*
X106036654Y-134296976D01*
X106051070Y-134281070D01*
X106066976Y-134266654D01*
X106084219Y-134253866D01*
X106102632Y-134242830D01*
X106122038Y-134233651D01*
X106142250Y-134226419D01*
X106163074Y-134221203D01*
X106184309Y-134218053D01*
X106205750Y-134217000D01*
X106718250Y-134217000D01*
X106739691Y-134218053D01*
X106739691Y-134218053D01*
G37*
D11*
X106462000Y-134654500D03*
D10*
G36*
X108539691Y-134218053D02*
G01*
X108560926Y-134221203D01*
X108581750Y-134226419D01*
X108601962Y-134233651D01*
X108621368Y-134242830D01*
X108639781Y-134253866D01*
X108657024Y-134266654D01*
X108672930Y-134281070D01*
X108687346Y-134296976D01*
X108700134Y-134314219D01*
X108711170Y-134332632D01*
X108720349Y-134352038D01*
X108727581Y-134372250D01*
X108732797Y-134393074D01*
X108735947Y-134414309D01*
X108737000Y-134435750D01*
X108737000Y-134873250D01*
X108735947Y-134894691D01*
X108732797Y-134915926D01*
X108727581Y-134936750D01*
X108720349Y-134956962D01*
X108711170Y-134976368D01*
X108700134Y-134994781D01*
X108687346Y-135012024D01*
X108672930Y-135027930D01*
X108657024Y-135042346D01*
X108639781Y-135055134D01*
X108621368Y-135066170D01*
X108601962Y-135075349D01*
X108581750Y-135082581D01*
X108560926Y-135087797D01*
X108539691Y-135090947D01*
X108518250Y-135092000D01*
X108005750Y-135092000D01*
X107984309Y-135090947D01*
X107963074Y-135087797D01*
X107942250Y-135082581D01*
X107922038Y-135075349D01*
X107902632Y-135066170D01*
X107884219Y-135055134D01*
X107866976Y-135042346D01*
X107851070Y-135027930D01*
X107836654Y-135012024D01*
X107823866Y-134994781D01*
X107812830Y-134976368D01*
X107803651Y-134956962D01*
X107796419Y-134936750D01*
X107791203Y-134915926D01*
X107788053Y-134894691D01*
X107787000Y-134873250D01*
X107787000Y-134435750D01*
X107788053Y-134414309D01*
X107791203Y-134393074D01*
X107796419Y-134372250D01*
X107803651Y-134352038D01*
X107812830Y-134332632D01*
X107823866Y-134314219D01*
X107836654Y-134296976D01*
X107851070Y-134281070D01*
X107866976Y-134266654D01*
X107884219Y-134253866D01*
X107902632Y-134242830D01*
X107922038Y-134233651D01*
X107942250Y-134226419D01*
X107963074Y-134221203D01*
X107984309Y-134218053D01*
X108005750Y-134217000D01*
X108518250Y-134217000D01*
X108539691Y-134218053D01*
X108539691Y-134218053D01*
G37*
D11*
X108262000Y-134654500D03*
D10*
G36*
X108539691Y-135793053D02*
G01*
X108560926Y-135796203D01*
X108581750Y-135801419D01*
X108601962Y-135808651D01*
X108621368Y-135817830D01*
X108639781Y-135828866D01*
X108657024Y-135841654D01*
X108672930Y-135856070D01*
X108687346Y-135871976D01*
X108700134Y-135889219D01*
X108711170Y-135907632D01*
X108720349Y-135927038D01*
X108727581Y-135947250D01*
X108732797Y-135968074D01*
X108735947Y-135989309D01*
X108737000Y-136010750D01*
X108737000Y-136448250D01*
X108735947Y-136469691D01*
X108732797Y-136490926D01*
X108727581Y-136511750D01*
X108720349Y-136531962D01*
X108711170Y-136551368D01*
X108700134Y-136569781D01*
X108687346Y-136587024D01*
X108672930Y-136602930D01*
X108657024Y-136617346D01*
X108639781Y-136630134D01*
X108621368Y-136641170D01*
X108601962Y-136650349D01*
X108581750Y-136657581D01*
X108560926Y-136662797D01*
X108539691Y-136665947D01*
X108518250Y-136667000D01*
X108005750Y-136667000D01*
X107984309Y-136665947D01*
X107963074Y-136662797D01*
X107942250Y-136657581D01*
X107922038Y-136650349D01*
X107902632Y-136641170D01*
X107884219Y-136630134D01*
X107866976Y-136617346D01*
X107851070Y-136602930D01*
X107836654Y-136587024D01*
X107823866Y-136569781D01*
X107812830Y-136551368D01*
X107803651Y-136531962D01*
X107796419Y-136511750D01*
X107791203Y-136490926D01*
X107788053Y-136469691D01*
X107787000Y-136448250D01*
X107787000Y-136010750D01*
X107788053Y-135989309D01*
X107791203Y-135968074D01*
X107796419Y-135947250D01*
X107803651Y-135927038D01*
X107812830Y-135907632D01*
X107823866Y-135889219D01*
X107836654Y-135871976D01*
X107851070Y-135856070D01*
X107866976Y-135841654D01*
X107884219Y-135828866D01*
X107902632Y-135817830D01*
X107922038Y-135808651D01*
X107942250Y-135801419D01*
X107963074Y-135796203D01*
X107984309Y-135793053D01*
X108005750Y-135792000D01*
X108518250Y-135792000D01*
X108539691Y-135793053D01*
X108539691Y-135793053D01*
G37*
D11*
X108262000Y-136229500D03*
D10*
G36*
X106822703Y-142829722D02*
G01*
X106837264Y-142831882D01*
X106851543Y-142835459D01*
X106865403Y-142840418D01*
X106878710Y-142846712D01*
X106891336Y-142854280D01*
X106903159Y-142863048D01*
X106914066Y-142872934D01*
X106923952Y-142883841D01*
X106932720Y-142895664D01*
X106940288Y-142908290D01*
X106946582Y-142921597D01*
X106951541Y-142935457D01*
X106955118Y-142949736D01*
X106957278Y-142964297D01*
X106958000Y-142979000D01*
X106958000Y-143279000D01*
X106957278Y-143293703D01*
X106955118Y-143308264D01*
X106951541Y-143322543D01*
X106946582Y-143336403D01*
X106940288Y-143349710D01*
X106932720Y-143362336D01*
X106923952Y-143374159D01*
X106914066Y-143385066D01*
X106903159Y-143394952D01*
X106891336Y-143403720D01*
X106878710Y-143411288D01*
X106865403Y-143417582D01*
X106851543Y-143422541D01*
X106837264Y-143426118D01*
X106822703Y-143428278D01*
X106808000Y-143429000D01*
X105158000Y-143429000D01*
X105143297Y-143428278D01*
X105128736Y-143426118D01*
X105114457Y-143422541D01*
X105100597Y-143417582D01*
X105087290Y-143411288D01*
X105074664Y-143403720D01*
X105062841Y-143394952D01*
X105051934Y-143385066D01*
X105042048Y-143374159D01*
X105033280Y-143362336D01*
X105025712Y-143349710D01*
X105019418Y-143336403D01*
X105014459Y-143322543D01*
X105010882Y-143308264D01*
X105008722Y-143293703D01*
X105008000Y-143279000D01*
X105008000Y-142979000D01*
X105008722Y-142964297D01*
X105010882Y-142949736D01*
X105014459Y-142935457D01*
X105019418Y-142921597D01*
X105025712Y-142908290D01*
X105033280Y-142895664D01*
X105042048Y-142883841D01*
X105051934Y-142872934D01*
X105062841Y-142863048D01*
X105074664Y-142854280D01*
X105087290Y-142846712D01*
X105100597Y-142840418D01*
X105114457Y-142835459D01*
X105128736Y-142831882D01*
X105143297Y-142829722D01*
X105158000Y-142829000D01*
X106808000Y-142829000D01*
X106822703Y-142829722D01*
X106822703Y-142829722D01*
G37*
D12*
X105983000Y-143129000D03*
D10*
G36*
X106822703Y-141559722D02*
G01*
X106837264Y-141561882D01*
X106851543Y-141565459D01*
X106865403Y-141570418D01*
X106878710Y-141576712D01*
X106891336Y-141584280D01*
X106903159Y-141593048D01*
X106914066Y-141602934D01*
X106923952Y-141613841D01*
X106932720Y-141625664D01*
X106940288Y-141638290D01*
X106946582Y-141651597D01*
X106951541Y-141665457D01*
X106955118Y-141679736D01*
X106957278Y-141694297D01*
X106958000Y-141709000D01*
X106958000Y-142009000D01*
X106957278Y-142023703D01*
X106955118Y-142038264D01*
X106951541Y-142052543D01*
X106946582Y-142066403D01*
X106940288Y-142079710D01*
X106932720Y-142092336D01*
X106923952Y-142104159D01*
X106914066Y-142115066D01*
X106903159Y-142124952D01*
X106891336Y-142133720D01*
X106878710Y-142141288D01*
X106865403Y-142147582D01*
X106851543Y-142152541D01*
X106837264Y-142156118D01*
X106822703Y-142158278D01*
X106808000Y-142159000D01*
X105158000Y-142159000D01*
X105143297Y-142158278D01*
X105128736Y-142156118D01*
X105114457Y-142152541D01*
X105100597Y-142147582D01*
X105087290Y-142141288D01*
X105074664Y-142133720D01*
X105062841Y-142124952D01*
X105051934Y-142115066D01*
X105042048Y-142104159D01*
X105033280Y-142092336D01*
X105025712Y-142079710D01*
X105019418Y-142066403D01*
X105014459Y-142052543D01*
X105010882Y-142038264D01*
X105008722Y-142023703D01*
X105008000Y-142009000D01*
X105008000Y-141709000D01*
X105008722Y-141694297D01*
X105010882Y-141679736D01*
X105014459Y-141665457D01*
X105019418Y-141651597D01*
X105025712Y-141638290D01*
X105033280Y-141625664D01*
X105042048Y-141613841D01*
X105051934Y-141602934D01*
X105062841Y-141593048D01*
X105074664Y-141584280D01*
X105087290Y-141576712D01*
X105100597Y-141570418D01*
X105114457Y-141565459D01*
X105128736Y-141561882D01*
X105143297Y-141559722D01*
X105158000Y-141559000D01*
X106808000Y-141559000D01*
X106822703Y-141559722D01*
X106822703Y-141559722D01*
G37*
D12*
X105983000Y-141859000D03*
D10*
G36*
X106822703Y-140289722D02*
G01*
X106837264Y-140291882D01*
X106851543Y-140295459D01*
X106865403Y-140300418D01*
X106878710Y-140306712D01*
X106891336Y-140314280D01*
X106903159Y-140323048D01*
X106914066Y-140332934D01*
X106923952Y-140343841D01*
X106932720Y-140355664D01*
X106940288Y-140368290D01*
X106946582Y-140381597D01*
X106951541Y-140395457D01*
X106955118Y-140409736D01*
X106957278Y-140424297D01*
X106958000Y-140439000D01*
X106958000Y-140739000D01*
X106957278Y-140753703D01*
X106955118Y-140768264D01*
X106951541Y-140782543D01*
X106946582Y-140796403D01*
X106940288Y-140809710D01*
X106932720Y-140822336D01*
X106923952Y-140834159D01*
X106914066Y-140845066D01*
X106903159Y-140854952D01*
X106891336Y-140863720D01*
X106878710Y-140871288D01*
X106865403Y-140877582D01*
X106851543Y-140882541D01*
X106837264Y-140886118D01*
X106822703Y-140888278D01*
X106808000Y-140889000D01*
X105158000Y-140889000D01*
X105143297Y-140888278D01*
X105128736Y-140886118D01*
X105114457Y-140882541D01*
X105100597Y-140877582D01*
X105087290Y-140871288D01*
X105074664Y-140863720D01*
X105062841Y-140854952D01*
X105051934Y-140845066D01*
X105042048Y-140834159D01*
X105033280Y-140822336D01*
X105025712Y-140809710D01*
X105019418Y-140796403D01*
X105014459Y-140782543D01*
X105010882Y-140768264D01*
X105008722Y-140753703D01*
X105008000Y-140739000D01*
X105008000Y-140439000D01*
X105008722Y-140424297D01*
X105010882Y-140409736D01*
X105014459Y-140395457D01*
X105019418Y-140381597D01*
X105025712Y-140368290D01*
X105033280Y-140355664D01*
X105042048Y-140343841D01*
X105051934Y-140332934D01*
X105062841Y-140323048D01*
X105074664Y-140314280D01*
X105087290Y-140306712D01*
X105100597Y-140300418D01*
X105114457Y-140295459D01*
X105128736Y-140291882D01*
X105143297Y-140289722D01*
X105158000Y-140289000D01*
X106808000Y-140289000D01*
X106822703Y-140289722D01*
X106822703Y-140289722D01*
G37*
D12*
X105983000Y-140589000D03*
D10*
G36*
X106822703Y-139019722D02*
G01*
X106837264Y-139021882D01*
X106851543Y-139025459D01*
X106865403Y-139030418D01*
X106878710Y-139036712D01*
X106891336Y-139044280D01*
X106903159Y-139053048D01*
X106914066Y-139062934D01*
X106923952Y-139073841D01*
X106932720Y-139085664D01*
X106940288Y-139098290D01*
X106946582Y-139111597D01*
X106951541Y-139125457D01*
X106955118Y-139139736D01*
X106957278Y-139154297D01*
X106958000Y-139169000D01*
X106958000Y-139469000D01*
X106957278Y-139483703D01*
X106955118Y-139498264D01*
X106951541Y-139512543D01*
X106946582Y-139526403D01*
X106940288Y-139539710D01*
X106932720Y-139552336D01*
X106923952Y-139564159D01*
X106914066Y-139575066D01*
X106903159Y-139584952D01*
X106891336Y-139593720D01*
X106878710Y-139601288D01*
X106865403Y-139607582D01*
X106851543Y-139612541D01*
X106837264Y-139616118D01*
X106822703Y-139618278D01*
X106808000Y-139619000D01*
X105158000Y-139619000D01*
X105143297Y-139618278D01*
X105128736Y-139616118D01*
X105114457Y-139612541D01*
X105100597Y-139607582D01*
X105087290Y-139601288D01*
X105074664Y-139593720D01*
X105062841Y-139584952D01*
X105051934Y-139575066D01*
X105042048Y-139564159D01*
X105033280Y-139552336D01*
X105025712Y-139539710D01*
X105019418Y-139526403D01*
X105014459Y-139512543D01*
X105010882Y-139498264D01*
X105008722Y-139483703D01*
X105008000Y-139469000D01*
X105008000Y-139169000D01*
X105008722Y-139154297D01*
X105010882Y-139139736D01*
X105014459Y-139125457D01*
X105019418Y-139111597D01*
X105025712Y-139098290D01*
X105033280Y-139085664D01*
X105042048Y-139073841D01*
X105051934Y-139062934D01*
X105062841Y-139053048D01*
X105074664Y-139044280D01*
X105087290Y-139036712D01*
X105100597Y-139030418D01*
X105114457Y-139025459D01*
X105128736Y-139021882D01*
X105143297Y-139019722D01*
X105158000Y-139019000D01*
X106808000Y-139019000D01*
X106822703Y-139019722D01*
X106822703Y-139019722D01*
G37*
D12*
X105983000Y-139319000D03*
D10*
G36*
X111772703Y-139019722D02*
G01*
X111787264Y-139021882D01*
X111801543Y-139025459D01*
X111815403Y-139030418D01*
X111828710Y-139036712D01*
X111841336Y-139044280D01*
X111853159Y-139053048D01*
X111864066Y-139062934D01*
X111873952Y-139073841D01*
X111882720Y-139085664D01*
X111890288Y-139098290D01*
X111896582Y-139111597D01*
X111901541Y-139125457D01*
X111905118Y-139139736D01*
X111907278Y-139154297D01*
X111908000Y-139169000D01*
X111908000Y-139469000D01*
X111907278Y-139483703D01*
X111905118Y-139498264D01*
X111901541Y-139512543D01*
X111896582Y-139526403D01*
X111890288Y-139539710D01*
X111882720Y-139552336D01*
X111873952Y-139564159D01*
X111864066Y-139575066D01*
X111853159Y-139584952D01*
X111841336Y-139593720D01*
X111828710Y-139601288D01*
X111815403Y-139607582D01*
X111801543Y-139612541D01*
X111787264Y-139616118D01*
X111772703Y-139618278D01*
X111758000Y-139619000D01*
X110108000Y-139619000D01*
X110093297Y-139618278D01*
X110078736Y-139616118D01*
X110064457Y-139612541D01*
X110050597Y-139607582D01*
X110037290Y-139601288D01*
X110024664Y-139593720D01*
X110012841Y-139584952D01*
X110001934Y-139575066D01*
X109992048Y-139564159D01*
X109983280Y-139552336D01*
X109975712Y-139539710D01*
X109969418Y-139526403D01*
X109964459Y-139512543D01*
X109960882Y-139498264D01*
X109958722Y-139483703D01*
X109958000Y-139469000D01*
X109958000Y-139169000D01*
X109958722Y-139154297D01*
X109960882Y-139139736D01*
X109964459Y-139125457D01*
X109969418Y-139111597D01*
X109975712Y-139098290D01*
X109983280Y-139085664D01*
X109992048Y-139073841D01*
X110001934Y-139062934D01*
X110012841Y-139053048D01*
X110024664Y-139044280D01*
X110037290Y-139036712D01*
X110050597Y-139030418D01*
X110064457Y-139025459D01*
X110078736Y-139021882D01*
X110093297Y-139019722D01*
X110108000Y-139019000D01*
X111758000Y-139019000D01*
X111772703Y-139019722D01*
X111772703Y-139019722D01*
G37*
D12*
X110933000Y-139319000D03*
D10*
G36*
X111772703Y-140289722D02*
G01*
X111787264Y-140291882D01*
X111801543Y-140295459D01*
X111815403Y-140300418D01*
X111828710Y-140306712D01*
X111841336Y-140314280D01*
X111853159Y-140323048D01*
X111864066Y-140332934D01*
X111873952Y-140343841D01*
X111882720Y-140355664D01*
X111890288Y-140368290D01*
X111896582Y-140381597D01*
X111901541Y-140395457D01*
X111905118Y-140409736D01*
X111907278Y-140424297D01*
X111908000Y-140439000D01*
X111908000Y-140739000D01*
X111907278Y-140753703D01*
X111905118Y-140768264D01*
X111901541Y-140782543D01*
X111896582Y-140796403D01*
X111890288Y-140809710D01*
X111882720Y-140822336D01*
X111873952Y-140834159D01*
X111864066Y-140845066D01*
X111853159Y-140854952D01*
X111841336Y-140863720D01*
X111828710Y-140871288D01*
X111815403Y-140877582D01*
X111801543Y-140882541D01*
X111787264Y-140886118D01*
X111772703Y-140888278D01*
X111758000Y-140889000D01*
X110108000Y-140889000D01*
X110093297Y-140888278D01*
X110078736Y-140886118D01*
X110064457Y-140882541D01*
X110050597Y-140877582D01*
X110037290Y-140871288D01*
X110024664Y-140863720D01*
X110012841Y-140854952D01*
X110001934Y-140845066D01*
X109992048Y-140834159D01*
X109983280Y-140822336D01*
X109975712Y-140809710D01*
X109969418Y-140796403D01*
X109964459Y-140782543D01*
X109960882Y-140768264D01*
X109958722Y-140753703D01*
X109958000Y-140739000D01*
X109958000Y-140439000D01*
X109958722Y-140424297D01*
X109960882Y-140409736D01*
X109964459Y-140395457D01*
X109969418Y-140381597D01*
X109975712Y-140368290D01*
X109983280Y-140355664D01*
X109992048Y-140343841D01*
X110001934Y-140332934D01*
X110012841Y-140323048D01*
X110024664Y-140314280D01*
X110037290Y-140306712D01*
X110050597Y-140300418D01*
X110064457Y-140295459D01*
X110078736Y-140291882D01*
X110093297Y-140289722D01*
X110108000Y-140289000D01*
X111758000Y-140289000D01*
X111772703Y-140289722D01*
X111772703Y-140289722D01*
G37*
D12*
X110933000Y-140589000D03*
D10*
G36*
X111772703Y-141559722D02*
G01*
X111787264Y-141561882D01*
X111801543Y-141565459D01*
X111815403Y-141570418D01*
X111828710Y-141576712D01*
X111841336Y-141584280D01*
X111853159Y-141593048D01*
X111864066Y-141602934D01*
X111873952Y-141613841D01*
X111882720Y-141625664D01*
X111890288Y-141638290D01*
X111896582Y-141651597D01*
X111901541Y-141665457D01*
X111905118Y-141679736D01*
X111907278Y-141694297D01*
X111908000Y-141709000D01*
X111908000Y-142009000D01*
X111907278Y-142023703D01*
X111905118Y-142038264D01*
X111901541Y-142052543D01*
X111896582Y-142066403D01*
X111890288Y-142079710D01*
X111882720Y-142092336D01*
X111873952Y-142104159D01*
X111864066Y-142115066D01*
X111853159Y-142124952D01*
X111841336Y-142133720D01*
X111828710Y-142141288D01*
X111815403Y-142147582D01*
X111801543Y-142152541D01*
X111787264Y-142156118D01*
X111772703Y-142158278D01*
X111758000Y-142159000D01*
X110108000Y-142159000D01*
X110093297Y-142158278D01*
X110078736Y-142156118D01*
X110064457Y-142152541D01*
X110050597Y-142147582D01*
X110037290Y-142141288D01*
X110024664Y-142133720D01*
X110012841Y-142124952D01*
X110001934Y-142115066D01*
X109992048Y-142104159D01*
X109983280Y-142092336D01*
X109975712Y-142079710D01*
X109969418Y-142066403D01*
X109964459Y-142052543D01*
X109960882Y-142038264D01*
X109958722Y-142023703D01*
X109958000Y-142009000D01*
X109958000Y-141709000D01*
X109958722Y-141694297D01*
X109960882Y-141679736D01*
X109964459Y-141665457D01*
X109969418Y-141651597D01*
X109975712Y-141638290D01*
X109983280Y-141625664D01*
X109992048Y-141613841D01*
X110001934Y-141602934D01*
X110012841Y-141593048D01*
X110024664Y-141584280D01*
X110037290Y-141576712D01*
X110050597Y-141570418D01*
X110064457Y-141565459D01*
X110078736Y-141561882D01*
X110093297Y-141559722D01*
X110108000Y-141559000D01*
X111758000Y-141559000D01*
X111772703Y-141559722D01*
X111772703Y-141559722D01*
G37*
D12*
X110933000Y-141859000D03*
D10*
G36*
X111772703Y-142829722D02*
G01*
X111787264Y-142831882D01*
X111801543Y-142835459D01*
X111815403Y-142840418D01*
X111828710Y-142846712D01*
X111841336Y-142854280D01*
X111853159Y-142863048D01*
X111864066Y-142872934D01*
X111873952Y-142883841D01*
X111882720Y-142895664D01*
X111890288Y-142908290D01*
X111896582Y-142921597D01*
X111901541Y-142935457D01*
X111905118Y-142949736D01*
X111907278Y-142964297D01*
X111908000Y-142979000D01*
X111908000Y-143279000D01*
X111907278Y-143293703D01*
X111905118Y-143308264D01*
X111901541Y-143322543D01*
X111896582Y-143336403D01*
X111890288Y-143349710D01*
X111882720Y-143362336D01*
X111873952Y-143374159D01*
X111864066Y-143385066D01*
X111853159Y-143394952D01*
X111841336Y-143403720D01*
X111828710Y-143411288D01*
X111815403Y-143417582D01*
X111801543Y-143422541D01*
X111787264Y-143426118D01*
X111772703Y-143428278D01*
X111758000Y-143429000D01*
X110108000Y-143429000D01*
X110093297Y-143428278D01*
X110078736Y-143426118D01*
X110064457Y-143422541D01*
X110050597Y-143417582D01*
X110037290Y-143411288D01*
X110024664Y-143403720D01*
X110012841Y-143394952D01*
X110001934Y-143385066D01*
X109992048Y-143374159D01*
X109983280Y-143362336D01*
X109975712Y-143349710D01*
X109969418Y-143336403D01*
X109964459Y-143322543D01*
X109960882Y-143308264D01*
X109958722Y-143293703D01*
X109958000Y-143279000D01*
X109958000Y-142979000D01*
X109958722Y-142964297D01*
X109960882Y-142949736D01*
X109964459Y-142935457D01*
X109969418Y-142921597D01*
X109975712Y-142908290D01*
X109983280Y-142895664D01*
X109992048Y-142883841D01*
X110001934Y-142872934D01*
X110012841Y-142863048D01*
X110024664Y-142854280D01*
X110037290Y-142846712D01*
X110050597Y-142840418D01*
X110064457Y-142835459D01*
X110078736Y-142831882D01*
X110093297Y-142829722D01*
X110108000Y-142829000D01*
X111758000Y-142829000D01*
X111772703Y-142829722D01*
X111772703Y-142829722D01*
G37*
D12*
X110933000Y-143129000D03*
D13*
X111000000Y-150000000D03*
X109000000Y-150000000D03*
X107000000Y-150000000D03*
X105000000Y-150000000D03*
M02*
