G04 #@! TF.GenerationSoftware,KiCad,Pcbnew,(5.1.2)-1*
G04 #@! TF.CreationDate,2022-09-21T22:05:37+09:00*
G04 #@! TF.ProjectId,converter,636f6e76-6572-4746-9572-2e6b69636164,v2.0*
G04 #@! TF.SameCoordinates,Original*
G04 #@! TF.FileFunction,Legend,Top*
G04 #@! TF.FilePolarity,Positive*
%FSLAX46Y46*%
G04 Gerber Fmt 4.6, Leading zero omitted, Abs format (unit mm)*
G04 Created by KiCad (PCBNEW (5.1.2)-1) date 2022-09-21 22:05:37*
%MOMM*%
%LPD*%
G04 APERTURE LIST*
%ADD10C,0.150000*%
%ADD11C,0.120000*%
%ADD12C,0.300000*%
G04 APERTURE END LIST*
D10*
X114361904Y-138980952D02*
X114361904Y-138485714D01*
X114666666Y-138752380D01*
X114666666Y-138638095D01*
X114704761Y-138561904D01*
X114742857Y-138523809D01*
X114819047Y-138485714D01*
X115009523Y-138485714D01*
X115085714Y-138523809D01*
X115123809Y-138561904D01*
X115161904Y-138638095D01*
X115161904Y-138866666D01*
X115123809Y-138942857D01*
X115085714Y-138980952D01*
X115085714Y-138142857D02*
X115123809Y-138104761D01*
X115161904Y-138142857D01*
X115123809Y-138180952D01*
X115085714Y-138142857D01*
X115161904Y-138142857D01*
X114361904Y-137838095D02*
X114361904Y-137342857D01*
X114666666Y-137609523D01*
X114666666Y-137495238D01*
X114704761Y-137419047D01*
X114742857Y-137380952D01*
X114819047Y-137342857D01*
X115009523Y-137342857D01*
X115085714Y-137380952D01*
X115123809Y-137419047D01*
X115161904Y-137495238D01*
X115161904Y-137723809D01*
X115123809Y-137800000D01*
X115085714Y-137838095D01*
X114361904Y-137114285D02*
X115161904Y-136847619D01*
X114361904Y-136580952D01*
X114361904Y-135352380D02*
X114361904Y-135733333D01*
X114742857Y-135771428D01*
X114704761Y-135733333D01*
X114666666Y-135657142D01*
X114666666Y-135466666D01*
X114704761Y-135390476D01*
X114742857Y-135352380D01*
X114819047Y-135314285D01*
X115009523Y-135314285D01*
X115085714Y-135352380D01*
X115123809Y-135390476D01*
X115161904Y-135466666D01*
X115161904Y-135657142D01*
X115123809Y-135733333D01*
X115085714Y-135771428D01*
X114361904Y-135085714D02*
X115161904Y-134819047D01*
X114361904Y-134552380D01*
X104175000Y-141218000D02*
X110150000Y-141218000D01*
X105750000Y-146743000D02*
X110150000Y-146743000D01*
D11*
X101344000Y-135849422D02*
X101344000Y-136366578D01*
X102764000Y-135849422D02*
X102764000Y-136366578D01*
X106879221Y-138336000D02*
X107204779Y-138336000D01*
X106879221Y-139356000D02*
X107204779Y-139356000D01*
X107544000Y-135949422D02*
X107544000Y-136466578D01*
X108964000Y-135949422D02*
X108964000Y-136466578D01*
X101065000Y-128488000D02*
X101065000Y-130773000D01*
X101065000Y-130773000D02*
X102535000Y-130773000D01*
X102535000Y-130773000D02*
X102535000Y-128488000D01*
D12*
X103500000Y-132000000D02*
X103500000Y-127000000D01*
X112500000Y-132000000D02*
X103500000Y-132000000D01*
X112500000Y-131500000D02*
X112500000Y-132000000D01*
X112500000Y-127000000D02*
X112500000Y-131500000D01*
D10*
X109750000Y-132500000D02*
X109000000Y-132500000D01*
D11*
X114610000Y-131250779D02*
X114610000Y-130925221D01*
X113590000Y-131250779D02*
X113590000Y-130925221D01*
X102310000Y-132325221D02*
X102310000Y-132650779D01*
X101290000Y-132325221D02*
X101290000Y-132650779D01*
X104254000Y-137756000D02*
X106054000Y-137756000D01*
X106054000Y-134536000D02*
X103604000Y-134536000D01*
D10*
X106000000Y-148500000D02*
X106000000Y-149000000D01*
X106000000Y-149000000D02*
X110000000Y-149000000D01*
X110000000Y-149000000D02*
X110000000Y-148500000D01*
X108000000Y-148500000D02*
X112500000Y-148500000D01*
X112500000Y-148500000D02*
X112500000Y-151500000D01*
X112500000Y-151500000D02*
X103500000Y-151500000D01*
X103500000Y-151500000D02*
X103500000Y-148500000D01*
X103500000Y-148500000D02*
X108000000Y-148500000D01*
D11*
X99060000Y-128210000D02*
X100390000Y-128210000D01*
X100390000Y-128210000D02*
X100390000Y-129540000D01*
X100390000Y-130810000D02*
X100390000Y-151190000D01*
X97730000Y-151190000D02*
X100390000Y-151190000D01*
X97730000Y-130810000D02*
X97730000Y-151190000D01*
X97730000Y-130810000D02*
X100390000Y-130810000D01*
X118170000Y-148590000D02*
X115510000Y-148590000D01*
X118170000Y-148590000D02*
X118170000Y-128210000D01*
X118170000Y-128210000D02*
X115510000Y-128210000D01*
X115510000Y-148590000D02*
X115510000Y-128210000D01*
X115510000Y-151190000D02*
X115510000Y-149860000D01*
X116840000Y-151190000D02*
X115510000Y-151190000D01*
X101414000Y-141659221D02*
X101414000Y-141984779D01*
X102434000Y-141659221D02*
X102434000Y-141984779D01*
X101344000Y-149514779D02*
X101344000Y-149189221D01*
X102364000Y-149514779D02*
X102364000Y-149189221D01*
X113536000Y-149488779D02*
X113536000Y-149163221D01*
X114556000Y-149488779D02*
X114556000Y-149163221D01*
X113790000Y-143650779D02*
X113790000Y-143325221D01*
X114810000Y-143650779D02*
X114810000Y-143325221D01*
D10*
X103328095Y-139692380D02*
X103328095Y-140501904D01*
X103375714Y-140597142D01*
X103423333Y-140644761D01*
X103518571Y-140692380D01*
X103709047Y-140692380D01*
X103804285Y-140644761D01*
X103851904Y-140597142D01*
X103899523Y-140501904D01*
X103899523Y-139692380D01*
X104280476Y-139692380D02*
X104899523Y-139692380D01*
X104566190Y-140073333D01*
X104709047Y-140073333D01*
X104804285Y-140120952D01*
X104851904Y-140168571D01*
X104899523Y-140263809D01*
X104899523Y-140501904D01*
X104851904Y-140597142D01*
X104804285Y-140644761D01*
X104709047Y-140692380D01*
X104423333Y-140692380D01*
X104328095Y-140644761D01*
X104280476Y-140597142D01*
X101719142Y-138787142D02*
X101671523Y-138834761D01*
X101528666Y-138882380D01*
X101433428Y-138882380D01*
X101290571Y-138834761D01*
X101195333Y-138739523D01*
X101147714Y-138644285D01*
X101100095Y-138453809D01*
X101100095Y-138310952D01*
X101147714Y-138120476D01*
X101195333Y-138025238D01*
X101290571Y-137930000D01*
X101433428Y-137882380D01*
X101528666Y-137882380D01*
X101671523Y-137930000D01*
X101719142Y-137977619D01*
X102671523Y-138882380D02*
X102100095Y-138882380D01*
X102385809Y-138882380D02*
X102385809Y-137882380D01*
X102290571Y-138025238D01*
X102195333Y-138120476D01*
X102100095Y-138168095D01*
X103290571Y-137882380D02*
X103385809Y-137882380D01*
X103481047Y-137930000D01*
X103528666Y-137977619D01*
X103576285Y-138072857D01*
X103623904Y-138263333D01*
X103623904Y-138501428D01*
X103576285Y-138691904D01*
X103528666Y-138787142D01*
X103481047Y-138834761D01*
X103385809Y-138882380D01*
X103290571Y-138882380D01*
X103195333Y-138834761D01*
X103147714Y-138787142D01*
X103100095Y-138691904D01*
X103052476Y-138501428D01*
X103052476Y-138263333D01*
X103100095Y-138072857D01*
X103147714Y-137977619D01*
X103195333Y-137930000D01*
X103290571Y-137882380D01*
X106381142Y-140565142D02*
X106333523Y-140612761D01*
X106190666Y-140660380D01*
X106095428Y-140660380D01*
X105952571Y-140612761D01*
X105857333Y-140517523D01*
X105809714Y-140422285D01*
X105762095Y-140231809D01*
X105762095Y-140088952D01*
X105809714Y-139898476D01*
X105857333Y-139803238D01*
X105952571Y-139708000D01*
X106095428Y-139660380D01*
X106190666Y-139660380D01*
X106333523Y-139708000D01*
X106381142Y-139755619D01*
X107333523Y-140660380D02*
X106762095Y-140660380D01*
X107047809Y-140660380D02*
X107047809Y-139660380D01*
X106952571Y-139803238D01*
X106857333Y-139898476D01*
X106762095Y-139946095D01*
X108285904Y-140660380D02*
X107714476Y-140660380D01*
X108000190Y-140660380D02*
X108000190Y-139660380D01*
X107904952Y-139803238D01*
X107809714Y-139898476D01*
X107714476Y-139946095D01*
X107561142Y-133961142D02*
X107513523Y-134008761D01*
X107370666Y-134056380D01*
X107275428Y-134056380D01*
X107132571Y-134008761D01*
X107037333Y-133913523D01*
X106989714Y-133818285D01*
X106942095Y-133627809D01*
X106942095Y-133484952D01*
X106989714Y-133294476D01*
X107037333Y-133199238D01*
X107132571Y-133104000D01*
X107275428Y-133056380D01*
X107370666Y-133056380D01*
X107513523Y-133104000D01*
X107561142Y-133151619D01*
X108513523Y-134056380D02*
X107942095Y-134056380D01*
X108227809Y-134056380D02*
X108227809Y-133056380D01*
X108132571Y-133199238D01*
X108037333Y-133294476D01*
X107942095Y-133342095D01*
X108894476Y-133151619D02*
X108942095Y-133104000D01*
X109037333Y-133056380D01*
X109275428Y-133056380D01*
X109370666Y-133104000D01*
X109418285Y-133151619D01*
X109465904Y-133246857D01*
X109465904Y-133342095D01*
X109418285Y-133484952D01*
X108846857Y-134056380D01*
X109465904Y-134056380D01*
X101061904Y-127552880D02*
X101061904Y-126552880D01*
X101300000Y-126552880D01*
X101442857Y-126600500D01*
X101538095Y-126695738D01*
X101585714Y-126790976D01*
X101633333Y-126981452D01*
X101633333Y-127124309D01*
X101585714Y-127314785D01*
X101538095Y-127410023D01*
X101442857Y-127505261D01*
X101300000Y-127552880D01*
X101061904Y-127552880D01*
X102585714Y-127552880D02*
X102014285Y-127552880D01*
X102300000Y-127552880D02*
X102300000Y-126552880D01*
X102204761Y-126695738D01*
X102109523Y-126790976D01*
X102014285Y-126838595D01*
X107352380Y-128361904D02*
X107352380Y-127561904D01*
X107619047Y-128133333D01*
X107885714Y-127561904D01*
X107885714Y-128361904D01*
X108685714Y-128361904D02*
X108228571Y-128361904D01*
X108457142Y-128361904D02*
X108457142Y-127561904D01*
X108380952Y-127676190D01*
X108304761Y-127752380D01*
X108228571Y-127790476D01*
X114452380Y-129219547D02*
X113452380Y-129219547D01*
X113452380Y-128838595D01*
X113500000Y-128743357D01*
X113547619Y-128695738D01*
X113642857Y-128648119D01*
X113785714Y-128648119D01*
X113880952Y-128695738D01*
X113928571Y-128743357D01*
X113976190Y-128838595D01*
X113976190Y-129219547D01*
X113452380Y-128362404D02*
X113452380Y-127790976D01*
X114452380Y-128076690D02*
X113452380Y-128076690D01*
X114452380Y-126933833D02*
X114452380Y-127505261D01*
X114452380Y-127219547D02*
X113452380Y-127219547D01*
X113595238Y-127314785D01*
X113690476Y-127410023D01*
X113738095Y-127505261D01*
X103652380Y-133336666D02*
X103176190Y-133670000D01*
X103652380Y-133908095D02*
X102652380Y-133908095D01*
X102652380Y-133527142D01*
X102700000Y-133431904D01*
X102747619Y-133384285D01*
X102842857Y-133336666D01*
X102985714Y-133336666D01*
X103080952Y-133384285D01*
X103128571Y-133431904D01*
X103176190Y-133527142D01*
X103176190Y-133908095D01*
X102747619Y-132955714D02*
X102700000Y-132908095D01*
X102652380Y-132812857D01*
X102652380Y-132574761D01*
X102700000Y-132479523D01*
X102747619Y-132431904D01*
X102842857Y-132384285D01*
X102938095Y-132384285D01*
X103080952Y-132431904D01*
X103652380Y-133003333D01*
X103652380Y-132384285D01*
X104692095Y-133098380D02*
X104692095Y-133907904D01*
X104739714Y-134003142D01*
X104787333Y-134050761D01*
X104882571Y-134098380D01*
X105073047Y-134098380D01*
X105168285Y-134050761D01*
X105215904Y-134003142D01*
X105263523Y-133907904D01*
X105263523Y-133098380D01*
X106263523Y-134098380D02*
X105692095Y-134098380D01*
X105977809Y-134098380D02*
X105977809Y-133098380D01*
X105882571Y-133241238D01*
X105787333Y-133336476D01*
X105692095Y-133384095D01*
X111309523Y-148157142D02*
X111261904Y-148204761D01*
X111119047Y-148252380D01*
X111023809Y-148252380D01*
X110880952Y-148204761D01*
X110785714Y-148109523D01*
X110738095Y-148014285D01*
X110690476Y-147823809D01*
X110690476Y-147680952D01*
X110738095Y-147490476D01*
X110785714Y-147395238D01*
X110880952Y-147300000D01*
X111023809Y-147252380D01*
X111119047Y-147252380D01*
X111261904Y-147300000D01*
X111309523Y-147347619D01*
X108738095Y-148252380D02*
X108738095Y-147252380D01*
X108976190Y-147252380D01*
X109119047Y-147300000D01*
X109214285Y-147395238D01*
X109261904Y-147490476D01*
X109309523Y-147680952D01*
X109309523Y-147823809D01*
X109261904Y-148014285D01*
X109214285Y-148109523D01*
X109119047Y-148204761D01*
X108976190Y-148252380D01*
X108738095Y-148252380D01*
X106666666Y-147252380D02*
X107000000Y-148252380D01*
X107333333Y-147252380D01*
X105261904Y-147300000D02*
X105166666Y-147252380D01*
X105023809Y-147252380D01*
X104880952Y-147300000D01*
X104785714Y-147395238D01*
X104738095Y-147490476D01*
X104690476Y-147680952D01*
X104690476Y-147823809D01*
X104738095Y-148014285D01*
X104785714Y-148109523D01*
X104880952Y-148204761D01*
X105023809Y-148252380D01*
X105119047Y-148252380D01*
X105261904Y-148204761D01*
X105309523Y-148157142D01*
X105309523Y-147823809D01*
X105119047Y-147823809D01*
X103646380Y-141988666D02*
X103170190Y-142322000D01*
X103646380Y-142560095D02*
X102646380Y-142560095D01*
X102646380Y-142179142D01*
X102694000Y-142083904D01*
X102741619Y-142036285D01*
X102836857Y-141988666D01*
X102979714Y-141988666D01*
X103074952Y-142036285D01*
X103122571Y-142083904D01*
X103170190Y-142179142D01*
X103170190Y-142560095D01*
X102646380Y-141655333D02*
X102646380Y-140988666D01*
X103646380Y-141417238D01*
X102306380Y-146930666D02*
X101830190Y-147264000D01*
X102306380Y-147502095D02*
X101306380Y-147502095D01*
X101306380Y-147121142D01*
X101354000Y-147025904D01*
X101401619Y-146978285D01*
X101496857Y-146930666D01*
X101639714Y-146930666D01*
X101734952Y-146978285D01*
X101782571Y-147025904D01*
X101830190Y-147121142D01*
X101830190Y-147502095D01*
X101734952Y-146359238D02*
X101687333Y-146454476D01*
X101639714Y-146502095D01*
X101544476Y-146549714D01*
X101496857Y-146549714D01*
X101401619Y-146502095D01*
X101354000Y-146454476D01*
X101306380Y-146359238D01*
X101306380Y-146168761D01*
X101354000Y-146073523D01*
X101401619Y-146025904D01*
X101496857Y-145978285D01*
X101544476Y-145978285D01*
X101639714Y-146025904D01*
X101687333Y-146073523D01*
X101734952Y-146168761D01*
X101734952Y-146359238D01*
X101782571Y-146454476D01*
X101830190Y-146502095D01*
X101925428Y-146549714D01*
X102115904Y-146549714D01*
X102211142Y-146502095D01*
X102258761Y-146454476D01*
X102306380Y-146359238D01*
X102306380Y-146168761D01*
X102258761Y-146073523D01*
X102211142Y-146025904D01*
X102115904Y-145978285D01*
X101925428Y-145978285D01*
X101830190Y-146025904D01*
X101782571Y-146073523D01*
X101734952Y-146168761D01*
X114398380Y-147180666D02*
X113922190Y-147514000D01*
X114398380Y-147752095D02*
X113398380Y-147752095D01*
X113398380Y-147371142D01*
X113446000Y-147275904D01*
X113493619Y-147228285D01*
X113588857Y-147180666D01*
X113731714Y-147180666D01*
X113826952Y-147228285D01*
X113874571Y-147275904D01*
X113922190Y-147371142D01*
X113922190Y-147752095D01*
X114398380Y-146704476D02*
X114398380Y-146514000D01*
X114350761Y-146418761D01*
X114303142Y-146371142D01*
X114160285Y-146275904D01*
X113969809Y-146228285D01*
X113588857Y-146228285D01*
X113493619Y-146275904D01*
X113446000Y-146323523D01*
X113398380Y-146418761D01*
X113398380Y-146609238D01*
X113446000Y-146704476D01*
X113493619Y-146752095D01*
X113588857Y-146799714D01*
X113826952Y-146799714D01*
X113922190Y-146752095D01*
X113969809Y-146704476D01*
X114017428Y-146609238D01*
X114017428Y-146418761D01*
X113969809Y-146323523D01*
X113922190Y-146275904D01*
X113826952Y-146228285D01*
X110746666Y-140734761D02*
X110889523Y-140782380D01*
X111127619Y-140782380D01*
X111222857Y-140734761D01*
X111270476Y-140687142D01*
X111318095Y-140591904D01*
X111318095Y-140496666D01*
X111270476Y-140401428D01*
X111222857Y-140353809D01*
X111127619Y-140306190D01*
X110937142Y-140258571D01*
X110841904Y-140210952D01*
X110794285Y-140163333D01*
X110746666Y-140068095D01*
X110746666Y-139972857D01*
X110794285Y-139877619D01*
X110841904Y-139830000D01*
X110937142Y-139782380D01*
X111175238Y-139782380D01*
X111318095Y-139830000D01*
X111651428Y-139782380D02*
X111889523Y-140782380D01*
X112080000Y-140068095D01*
X112270476Y-140782380D01*
X112508571Y-139782380D01*
X113413333Y-140782380D02*
X112841904Y-140782380D01*
X113127619Y-140782380D02*
X113127619Y-139782380D01*
X113032380Y-139925238D01*
X112937142Y-140020476D01*
X112841904Y-140068095D01*
X113433142Y-143676666D02*
X113480761Y-143724285D01*
X113528380Y-143867142D01*
X113528380Y-143962380D01*
X113480761Y-144105238D01*
X113385523Y-144200476D01*
X113290285Y-144248095D01*
X113099809Y-144295714D01*
X112956952Y-144295714D01*
X112766476Y-144248095D01*
X112671238Y-144200476D01*
X112576000Y-144105238D01*
X112528380Y-143962380D01*
X112528380Y-143867142D01*
X112576000Y-143724285D01*
X112623619Y-143676666D01*
X112861714Y-142819523D02*
X113528380Y-142819523D01*
X112480761Y-143057619D02*
X113195047Y-143295714D01*
X113195047Y-142676666D01*
M02*
