M48
; DRILL file {KiCad (5.1.2)-1} date 2022/09/21 22:05:39
; FORMAT={-:-/ absolute / metric / decimal}
; #@! TF.CreationDate,2022-09-21T22:05:39+09:00
; #@! TF.GenerationSoftware,Kicad,Pcbnew,(5.1.2)-1
FMAT,2
METRIC
T1C0.400
T2C0.500
T3C0.550
T4C0.762
T5C1.000
%
G90
G05
T1
X101.018Y-144.098
X101.4Y-138.35
X102.501Y-143.633
X102.93Y-144.65
X103.141Y-130.229
X103.416Y-141.309
X103.499Y-131.403
X103.499Y-134.229
X103.97Y-147.258
X104.341Y-138.049
X105.17Y-133.37
X106.347Y-133.591
X106.7Y-128.651
X106.95Y-144.983
X108.09Y-143.29
X108.75Y-133.435
X111.955Y-132.877
X112.562Y-141.093
X112.647Y-145.746
X112.866Y-143.366
X113.075Y-147.84
X113.644Y-146.301
X114.03Y-128.19
T4
X105.0Y-150.0
X107.0Y-150.0
X109.0Y-150.0
X111.0Y-150.0
T5
X116.84Y-129.54
X116.84Y-132.08
X116.84Y-134.62
X116.84Y-137.16
X116.84Y-139.7
X116.84Y-142.24
X116.84Y-144.78
X116.84Y-147.32
X116.84Y-149.86
X99.06Y-129.54
X99.06Y-132.08
X99.06Y-134.62
X99.06Y-137.16
X99.06Y-139.7
X99.06Y-142.24
X99.06Y-144.78
X99.06Y-147.32
X99.06Y-149.86
T2
G00X104.5Y-128.325
M15
G01X104.5Y-127.675
M16
G05
G00X111.5Y-128.325
M15
G01X111.5Y-127.675
M16
G05
T3
G00X105.65Y-130.7
M15
G01X105.35Y-130.7
M16
G05
G00X110.65Y-130.7
M15
G01X110.35Y-130.7
M16
G05
T0
M30
