G04 #@! TF.GenerationSoftware,KiCad,Pcbnew,(5.1.2)-1*
G04 #@! TF.CreationDate,2022-09-21T22:05:37+09:00*
G04 #@! TF.ProjectId,converter,636f6e76-6572-4746-9572-2e6b69636164,v2.0*
G04 #@! TF.SameCoordinates,Original*
G04 #@! TF.FileFunction,Paste,Top*
G04 #@! TF.FilePolarity,Positive*
%FSLAX46Y46*%
G04 Gerber Fmt 4.6, Leading zero omitted, Abs format (unit mm)*
G04 Created by KiCad (PCBNEW (5.1.2)-1) date 2022-09-21 22:05:37*
%MOMM*%
%LPD*%
G04 APERTURE LIST*
%ADD10R,1.500000X0.450000*%
%ADD11C,0.100000*%
%ADD12C,0.975000*%
%ADD13C,0.875000*%
%ADD14R,0.400000X1.350000*%
%ADD15R,1.060000X0.650000*%
%ADD16O,1.524000X1.800000*%
%ADD17R,1.600000X1.000000*%
G04 APERTURE END LIST*
D10*
X110900000Y-141743000D03*
X110900000Y-142393000D03*
X110900000Y-143043000D03*
X110900000Y-143693000D03*
X110900000Y-144343000D03*
X110900000Y-144993000D03*
X110900000Y-145643000D03*
X110900000Y-146293000D03*
X105000000Y-146293000D03*
X105000000Y-145643000D03*
X105000000Y-144993000D03*
X105000000Y-144343000D03*
X105000000Y-143693000D03*
X105000000Y-143043000D03*
X105000000Y-142393000D03*
X105000000Y-141743000D03*
D11*
G36*
X102534142Y-136559174D02*
G01*
X102557803Y-136562684D01*
X102581007Y-136568496D01*
X102603529Y-136576554D01*
X102625153Y-136586782D01*
X102645670Y-136599079D01*
X102664883Y-136613329D01*
X102682607Y-136629393D01*
X102698671Y-136647117D01*
X102712921Y-136666330D01*
X102725218Y-136686847D01*
X102735446Y-136708471D01*
X102743504Y-136730993D01*
X102749316Y-136754197D01*
X102752826Y-136777858D01*
X102754000Y-136801750D01*
X102754000Y-137289250D01*
X102752826Y-137313142D01*
X102749316Y-137336803D01*
X102743504Y-137360007D01*
X102735446Y-137382529D01*
X102725218Y-137404153D01*
X102712921Y-137424670D01*
X102698671Y-137443883D01*
X102682607Y-137461607D01*
X102664883Y-137477671D01*
X102645670Y-137491921D01*
X102625153Y-137504218D01*
X102603529Y-137514446D01*
X102581007Y-137522504D01*
X102557803Y-137528316D01*
X102534142Y-137531826D01*
X102510250Y-137533000D01*
X101597750Y-137533000D01*
X101573858Y-137531826D01*
X101550197Y-137528316D01*
X101526993Y-137522504D01*
X101504471Y-137514446D01*
X101482847Y-137504218D01*
X101462330Y-137491921D01*
X101443117Y-137477671D01*
X101425393Y-137461607D01*
X101409329Y-137443883D01*
X101395079Y-137424670D01*
X101382782Y-137404153D01*
X101372554Y-137382529D01*
X101364496Y-137360007D01*
X101358684Y-137336803D01*
X101355174Y-137313142D01*
X101354000Y-137289250D01*
X101354000Y-136801750D01*
X101355174Y-136777858D01*
X101358684Y-136754197D01*
X101364496Y-136730993D01*
X101372554Y-136708471D01*
X101382782Y-136686847D01*
X101395079Y-136666330D01*
X101409329Y-136647117D01*
X101425393Y-136629393D01*
X101443117Y-136613329D01*
X101462330Y-136599079D01*
X101482847Y-136586782D01*
X101504471Y-136576554D01*
X101526993Y-136568496D01*
X101550197Y-136562684D01*
X101573858Y-136559174D01*
X101597750Y-136558000D01*
X102510250Y-136558000D01*
X102534142Y-136559174D01*
X102534142Y-136559174D01*
G37*
D12*
X102054000Y-137045500D03*
D11*
G36*
X102534142Y-134684174D02*
G01*
X102557803Y-134687684D01*
X102581007Y-134693496D01*
X102603529Y-134701554D01*
X102625153Y-134711782D01*
X102645670Y-134724079D01*
X102664883Y-134738329D01*
X102682607Y-134754393D01*
X102698671Y-134772117D01*
X102712921Y-134791330D01*
X102725218Y-134811847D01*
X102735446Y-134833471D01*
X102743504Y-134855993D01*
X102749316Y-134879197D01*
X102752826Y-134902858D01*
X102754000Y-134926750D01*
X102754000Y-135414250D01*
X102752826Y-135438142D01*
X102749316Y-135461803D01*
X102743504Y-135485007D01*
X102735446Y-135507529D01*
X102725218Y-135529153D01*
X102712921Y-135549670D01*
X102698671Y-135568883D01*
X102682607Y-135586607D01*
X102664883Y-135602671D01*
X102645670Y-135616921D01*
X102625153Y-135629218D01*
X102603529Y-135639446D01*
X102581007Y-135647504D01*
X102557803Y-135653316D01*
X102534142Y-135656826D01*
X102510250Y-135658000D01*
X101597750Y-135658000D01*
X101573858Y-135656826D01*
X101550197Y-135653316D01*
X101526993Y-135647504D01*
X101504471Y-135639446D01*
X101482847Y-135629218D01*
X101462330Y-135616921D01*
X101443117Y-135602671D01*
X101425393Y-135586607D01*
X101409329Y-135568883D01*
X101395079Y-135549670D01*
X101382782Y-135529153D01*
X101372554Y-135507529D01*
X101364496Y-135485007D01*
X101358684Y-135461803D01*
X101355174Y-135438142D01*
X101354000Y-135414250D01*
X101354000Y-134926750D01*
X101355174Y-134902858D01*
X101358684Y-134879197D01*
X101364496Y-134855993D01*
X101372554Y-134833471D01*
X101382782Y-134811847D01*
X101395079Y-134791330D01*
X101409329Y-134772117D01*
X101425393Y-134754393D01*
X101443117Y-134738329D01*
X101462330Y-134724079D01*
X101482847Y-134711782D01*
X101504471Y-134701554D01*
X101526993Y-134693496D01*
X101550197Y-134687684D01*
X101573858Y-134684174D01*
X101597750Y-134683000D01*
X102510250Y-134683000D01*
X102534142Y-134684174D01*
X102534142Y-134684174D01*
G37*
D12*
X102054000Y-135170500D03*
D11*
G36*
X106494691Y-138372053D02*
G01*
X106515926Y-138375203D01*
X106536750Y-138380419D01*
X106556962Y-138387651D01*
X106576368Y-138396830D01*
X106594781Y-138407866D01*
X106612024Y-138420654D01*
X106627930Y-138435070D01*
X106642346Y-138450976D01*
X106655134Y-138468219D01*
X106666170Y-138486632D01*
X106675349Y-138506038D01*
X106682581Y-138526250D01*
X106687797Y-138547074D01*
X106690947Y-138568309D01*
X106692000Y-138589750D01*
X106692000Y-139102250D01*
X106690947Y-139123691D01*
X106687797Y-139144926D01*
X106682581Y-139165750D01*
X106675349Y-139185962D01*
X106666170Y-139205368D01*
X106655134Y-139223781D01*
X106642346Y-139241024D01*
X106627930Y-139256930D01*
X106612024Y-139271346D01*
X106594781Y-139284134D01*
X106576368Y-139295170D01*
X106556962Y-139304349D01*
X106536750Y-139311581D01*
X106515926Y-139316797D01*
X106494691Y-139319947D01*
X106473250Y-139321000D01*
X106035750Y-139321000D01*
X106014309Y-139319947D01*
X105993074Y-139316797D01*
X105972250Y-139311581D01*
X105952038Y-139304349D01*
X105932632Y-139295170D01*
X105914219Y-139284134D01*
X105896976Y-139271346D01*
X105881070Y-139256930D01*
X105866654Y-139241024D01*
X105853866Y-139223781D01*
X105842830Y-139205368D01*
X105833651Y-139185962D01*
X105826419Y-139165750D01*
X105821203Y-139144926D01*
X105818053Y-139123691D01*
X105817000Y-139102250D01*
X105817000Y-138589750D01*
X105818053Y-138568309D01*
X105821203Y-138547074D01*
X105826419Y-138526250D01*
X105833651Y-138506038D01*
X105842830Y-138486632D01*
X105853866Y-138468219D01*
X105866654Y-138450976D01*
X105881070Y-138435070D01*
X105896976Y-138420654D01*
X105914219Y-138407866D01*
X105932632Y-138396830D01*
X105952038Y-138387651D01*
X105972250Y-138380419D01*
X105993074Y-138375203D01*
X106014309Y-138372053D01*
X106035750Y-138371000D01*
X106473250Y-138371000D01*
X106494691Y-138372053D01*
X106494691Y-138372053D01*
G37*
D13*
X106254500Y-138846000D03*
D11*
G36*
X108069691Y-138372053D02*
G01*
X108090926Y-138375203D01*
X108111750Y-138380419D01*
X108131962Y-138387651D01*
X108151368Y-138396830D01*
X108169781Y-138407866D01*
X108187024Y-138420654D01*
X108202930Y-138435070D01*
X108217346Y-138450976D01*
X108230134Y-138468219D01*
X108241170Y-138486632D01*
X108250349Y-138506038D01*
X108257581Y-138526250D01*
X108262797Y-138547074D01*
X108265947Y-138568309D01*
X108267000Y-138589750D01*
X108267000Y-139102250D01*
X108265947Y-139123691D01*
X108262797Y-139144926D01*
X108257581Y-139165750D01*
X108250349Y-139185962D01*
X108241170Y-139205368D01*
X108230134Y-139223781D01*
X108217346Y-139241024D01*
X108202930Y-139256930D01*
X108187024Y-139271346D01*
X108169781Y-139284134D01*
X108151368Y-139295170D01*
X108131962Y-139304349D01*
X108111750Y-139311581D01*
X108090926Y-139316797D01*
X108069691Y-139319947D01*
X108048250Y-139321000D01*
X107610750Y-139321000D01*
X107589309Y-139319947D01*
X107568074Y-139316797D01*
X107547250Y-139311581D01*
X107527038Y-139304349D01*
X107507632Y-139295170D01*
X107489219Y-139284134D01*
X107471976Y-139271346D01*
X107456070Y-139256930D01*
X107441654Y-139241024D01*
X107428866Y-139223781D01*
X107417830Y-139205368D01*
X107408651Y-139185962D01*
X107401419Y-139165750D01*
X107396203Y-139144926D01*
X107393053Y-139123691D01*
X107392000Y-139102250D01*
X107392000Y-138589750D01*
X107393053Y-138568309D01*
X107396203Y-138547074D01*
X107401419Y-138526250D01*
X107408651Y-138506038D01*
X107417830Y-138486632D01*
X107428866Y-138468219D01*
X107441654Y-138450976D01*
X107456070Y-138435070D01*
X107471976Y-138420654D01*
X107489219Y-138407866D01*
X107507632Y-138396830D01*
X107527038Y-138387651D01*
X107547250Y-138380419D01*
X107568074Y-138375203D01*
X107589309Y-138372053D01*
X107610750Y-138371000D01*
X108048250Y-138371000D01*
X108069691Y-138372053D01*
X108069691Y-138372053D01*
G37*
D13*
X107829500Y-138846000D03*
D11*
G36*
X108734142Y-136659174D02*
G01*
X108757803Y-136662684D01*
X108781007Y-136668496D01*
X108803529Y-136676554D01*
X108825153Y-136686782D01*
X108845670Y-136699079D01*
X108864883Y-136713329D01*
X108882607Y-136729393D01*
X108898671Y-136747117D01*
X108912921Y-136766330D01*
X108925218Y-136786847D01*
X108935446Y-136808471D01*
X108943504Y-136830993D01*
X108949316Y-136854197D01*
X108952826Y-136877858D01*
X108954000Y-136901750D01*
X108954000Y-137389250D01*
X108952826Y-137413142D01*
X108949316Y-137436803D01*
X108943504Y-137460007D01*
X108935446Y-137482529D01*
X108925218Y-137504153D01*
X108912921Y-137524670D01*
X108898671Y-137543883D01*
X108882607Y-137561607D01*
X108864883Y-137577671D01*
X108845670Y-137591921D01*
X108825153Y-137604218D01*
X108803529Y-137614446D01*
X108781007Y-137622504D01*
X108757803Y-137628316D01*
X108734142Y-137631826D01*
X108710250Y-137633000D01*
X107797750Y-137633000D01*
X107773858Y-137631826D01*
X107750197Y-137628316D01*
X107726993Y-137622504D01*
X107704471Y-137614446D01*
X107682847Y-137604218D01*
X107662330Y-137591921D01*
X107643117Y-137577671D01*
X107625393Y-137561607D01*
X107609329Y-137543883D01*
X107595079Y-137524670D01*
X107582782Y-137504153D01*
X107572554Y-137482529D01*
X107564496Y-137460007D01*
X107558684Y-137436803D01*
X107555174Y-137413142D01*
X107554000Y-137389250D01*
X107554000Y-136901750D01*
X107555174Y-136877858D01*
X107558684Y-136854197D01*
X107564496Y-136830993D01*
X107572554Y-136808471D01*
X107582782Y-136786847D01*
X107595079Y-136766330D01*
X107609329Y-136747117D01*
X107625393Y-136729393D01*
X107643117Y-136713329D01*
X107662330Y-136699079D01*
X107682847Y-136686782D01*
X107704471Y-136676554D01*
X107726993Y-136668496D01*
X107750197Y-136662684D01*
X107773858Y-136659174D01*
X107797750Y-136658000D01*
X108710250Y-136658000D01*
X108734142Y-136659174D01*
X108734142Y-136659174D01*
G37*
D12*
X108254000Y-137145500D03*
D11*
G36*
X108734142Y-134784174D02*
G01*
X108757803Y-134787684D01*
X108781007Y-134793496D01*
X108803529Y-134801554D01*
X108825153Y-134811782D01*
X108845670Y-134824079D01*
X108864883Y-134838329D01*
X108882607Y-134854393D01*
X108898671Y-134872117D01*
X108912921Y-134891330D01*
X108925218Y-134911847D01*
X108935446Y-134933471D01*
X108943504Y-134955993D01*
X108949316Y-134979197D01*
X108952826Y-135002858D01*
X108954000Y-135026750D01*
X108954000Y-135514250D01*
X108952826Y-135538142D01*
X108949316Y-135561803D01*
X108943504Y-135585007D01*
X108935446Y-135607529D01*
X108925218Y-135629153D01*
X108912921Y-135649670D01*
X108898671Y-135668883D01*
X108882607Y-135686607D01*
X108864883Y-135702671D01*
X108845670Y-135716921D01*
X108825153Y-135729218D01*
X108803529Y-135739446D01*
X108781007Y-135747504D01*
X108757803Y-135753316D01*
X108734142Y-135756826D01*
X108710250Y-135758000D01*
X107797750Y-135758000D01*
X107773858Y-135756826D01*
X107750197Y-135753316D01*
X107726993Y-135747504D01*
X107704471Y-135739446D01*
X107682847Y-135729218D01*
X107662330Y-135716921D01*
X107643117Y-135702671D01*
X107625393Y-135686607D01*
X107609329Y-135668883D01*
X107595079Y-135649670D01*
X107582782Y-135629153D01*
X107572554Y-135607529D01*
X107564496Y-135585007D01*
X107558684Y-135561803D01*
X107555174Y-135538142D01*
X107554000Y-135514250D01*
X107554000Y-135026750D01*
X107555174Y-135002858D01*
X107558684Y-134979197D01*
X107564496Y-134955993D01*
X107572554Y-134933471D01*
X107582782Y-134911847D01*
X107595079Y-134891330D01*
X107609329Y-134872117D01*
X107625393Y-134854393D01*
X107643117Y-134838329D01*
X107662330Y-134824079D01*
X107682847Y-134811782D01*
X107704471Y-134801554D01*
X107726993Y-134793496D01*
X107750197Y-134787684D01*
X107773858Y-134784174D01*
X107797750Y-134783000D01*
X108710250Y-134783000D01*
X108734142Y-134784174D01*
X108734142Y-134784174D01*
G37*
D12*
X108254000Y-135270500D03*
D11*
G36*
X102077691Y-129639053D02*
G01*
X102098926Y-129642203D01*
X102119750Y-129647419D01*
X102139962Y-129654651D01*
X102159368Y-129663830D01*
X102177781Y-129674866D01*
X102195024Y-129687654D01*
X102210930Y-129702070D01*
X102225346Y-129717976D01*
X102238134Y-129735219D01*
X102249170Y-129753632D01*
X102258349Y-129773038D01*
X102265581Y-129793250D01*
X102270797Y-129814074D01*
X102273947Y-129835309D01*
X102275000Y-129856750D01*
X102275000Y-130294250D01*
X102273947Y-130315691D01*
X102270797Y-130336926D01*
X102265581Y-130357750D01*
X102258349Y-130377962D01*
X102249170Y-130397368D01*
X102238134Y-130415781D01*
X102225346Y-130433024D01*
X102210930Y-130448930D01*
X102195024Y-130463346D01*
X102177781Y-130476134D01*
X102159368Y-130487170D01*
X102139962Y-130496349D01*
X102119750Y-130503581D01*
X102098926Y-130508797D01*
X102077691Y-130511947D01*
X102056250Y-130513000D01*
X101543750Y-130513000D01*
X101522309Y-130511947D01*
X101501074Y-130508797D01*
X101480250Y-130503581D01*
X101460038Y-130496349D01*
X101440632Y-130487170D01*
X101422219Y-130476134D01*
X101404976Y-130463346D01*
X101389070Y-130448930D01*
X101374654Y-130433024D01*
X101361866Y-130415781D01*
X101350830Y-130397368D01*
X101341651Y-130377962D01*
X101334419Y-130357750D01*
X101329203Y-130336926D01*
X101326053Y-130315691D01*
X101325000Y-130294250D01*
X101325000Y-129856750D01*
X101326053Y-129835309D01*
X101329203Y-129814074D01*
X101334419Y-129793250D01*
X101341651Y-129773038D01*
X101350830Y-129753632D01*
X101361866Y-129735219D01*
X101374654Y-129717976D01*
X101389070Y-129702070D01*
X101404976Y-129687654D01*
X101422219Y-129674866D01*
X101440632Y-129663830D01*
X101460038Y-129654651D01*
X101480250Y-129647419D01*
X101501074Y-129642203D01*
X101522309Y-129639053D01*
X101543750Y-129638000D01*
X102056250Y-129638000D01*
X102077691Y-129639053D01*
X102077691Y-129639053D01*
G37*
D13*
X101800000Y-130075500D03*
D11*
G36*
X102077691Y-128064053D02*
G01*
X102098926Y-128067203D01*
X102119750Y-128072419D01*
X102139962Y-128079651D01*
X102159368Y-128088830D01*
X102177781Y-128099866D01*
X102195024Y-128112654D01*
X102210930Y-128127070D01*
X102225346Y-128142976D01*
X102238134Y-128160219D01*
X102249170Y-128178632D01*
X102258349Y-128198038D01*
X102265581Y-128218250D01*
X102270797Y-128239074D01*
X102273947Y-128260309D01*
X102275000Y-128281750D01*
X102275000Y-128719250D01*
X102273947Y-128740691D01*
X102270797Y-128761926D01*
X102265581Y-128782750D01*
X102258349Y-128802962D01*
X102249170Y-128822368D01*
X102238134Y-128840781D01*
X102225346Y-128858024D01*
X102210930Y-128873930D01*
X102195024Y-128888346D01*
X102177781Y-128901134D01*
X102159368Y-128912170D01*
X102139962Y-128921349D01*
X102119750Y-128928581D01*
X102098926Y-128933797D01*
X102077691Y-128936947D01*
X102056250Y-128938000D01*
X101543750Y-128938000D01*
X101522309Y-128936947D01*
X101501074Y-128933797D01*
X101480250Y-128928581D01*
X101460038Y-128921349D01*
X101440632Y-128912170D01*
X101422219Y-128901134D01*
X101404976Y-128888346D01*
X101389070Y-128873930D01*
X101374654Y-128858024D01*
X101361866Y-128840781D01*
X101350830Y-128822368D01*
X101341651Y-128802962D01*
X101334419Y-128782750D01*
X101329203Y-128761926D01*
X101326053Y-128740691D01*
X101325000Y-128719250D01*
X101325000Y-128281750D01*
X101326053Y-128260309D01*
X101329203Y-128239074D01*
X101334419Y-128218250D01*
X101341651Y-128198038D01*
X101350830Y-128178632D01*
X101361866Y-128160219D01*
X101374654Y-128142976D01*
X101389070Y-128127070D01*
X101404976Y-128112654D01*
X101422219Y-128099866D01*
X101440632Y-128088830D01*
X101460038Y-128079651D01*
X101480250Y-128072419D01*
X101501074Y-128067203D01*
X101522309Y-128064053D01*
X101543750Y-128063000D01*
X102056250Y-128063000D01*
X102077691Y-128064053D01*
X102077691Y-128064053D01*
G37*
D13*
X101800000Y-128500500D03*
D14*
X106700000Y-130700000D03*
X107350000Y-130700000D03*
X108000000Y-130700000D03*
X108650000Y-130700000D03*
X109300000Y-130700000D03*
D11*
G36*
X114377691Y-129864053D02*
G01*
X114398926Y-129867203D01*
X114419750Y-129872419D01*
X114439962Y-129879651D01*
X114459368Y-129888830D01*
X114477781Y-129899866D01*
X114495024Y-129912654D01*
X114510930Y-129927070D01*
X114525346Y-129942976D01*
X114538134Y-129960219D01*
X114549170Y-129978632D01*
X114558349Y-129998038D01*
X114565581Y-130018250D01*
X114570797Y-130039074D01*
X114573947Y-130060309D01*
X114575000Y-130081750D01*
X114575000Y-130519250D01*
X114573947Y-130540691D01*
X114570797Y-130561926D01*
X114565581Y-130582750D01*
X114558349Y-130602962D01*
X114549170Y-130622368D01*
X114538134Y-130640781D01*
X114525346Y-130658024D01*
X114510930Y-130673930D01*
X114495024Y-130688346D01*
X114477781Y-130701134D01*
X114459368Y-130712170D01*
X114439962Y-130721349D01*
X114419750Y-130728581D01*
X114398926Y-130733797D01*
X114377691Y-130736947D01*
X114356250Y-130738000D01*
X113843750Y-130738000D01*
X113822309Y-130736947D01*
X113801074Y-130733797D01*
X113780250Y-130728581D01*
X113760038Y-130721349D01*
X113740632Y-130712170D01*
X113722219Y-130701134D01*
X113704976Y-130688346D01*
X113689070Y-130673930D01*
X113674654Y-130658024D01*
X113661866Y-130640781D01*
X113650830Y-130622368D01*
X113641651Y-130602962D01*
X113634419Y-130582750D01*
X113629203Y-130561926D01*
X113626053Y-130540691D01*
X113625000Y-130519250D01*
X113625000Y-130081750D01*
X113626053Y-130060309D01*
X113629203Y-130039074D01*
X113634419Y-130018250D01*
X113641651Y-129998038D01*
X113650830Y-129978632D01*
X113661866Y-129960219D01*
X113674654Y-129942976D01*
X113689070Y-129927070D01*
X113704976Y-129912654D01*
X113722219Y-129899866D01*
X113740632Y-129888830D01*
X113760038Y-129879651D01*
X113780250Y-129872419D01*
X113801074Y-129867203D01*
X113822309Y-129864053D01*
X113843750Y-129863000D01*
X114356250Y-129863000D01*
X114377691Y-129864053D01*
X114377691Y-129864053D01*
G37*
D13*
X114100000Y-130300500D03*
D11*
G36*
X114377691Y-131439053D02*
G01*
X114398926Y-131442203D01*
X114419750Y-131447419D01*
X114439962Y-131454651D01*
X114459368Y-131463830D01*
X114477781Y-131474866D01*
X114495024Y-131487654D01*
X114510930Y-131502070D01*
X114525346Y-131517976D01*
X114538134Y-131535219D01*
X114549170Y-131553632D01*
X114558349Y-131573038D01*
X114565581Y-131593250D01*
X114570797Y-131614074D01*
X114573947Y-131635309D01*
X114575000Y-131656750D01*
X114575000Y-132094250D01*
X114573947Y-132115691D01*
X114570797Y-132136926D01*
X114565581Y-132157750D01*
X114558349Y-132177962D01*
X114549170Y-132197368D01*
X114538134Y-132215781D01*
X114525346Y-132233024D01*
X114510930Y-132248930D01*
X114495024Y-132263346D01*
X114477781Y-132276134D01*
X114459368Y-132287170D01*
X114439962Y-132296349D01*
X114419750Y-132303581D01*
X114398926Y-132308797D01*
X114377691Y-132311947D01*
X114356250Y-132313000D01*
X113843750Y-132313000D01*
X113822309Y-132311947D01*
X113801074Y-132308797D01*
X113780250Y-132303581D01*
X113760038Y-132296349D01*
X113740632Y-132287170D01*
X113722219Y-132276134D01*
X113704976Y-132263346D01*
X113689070Y-132248930D01*
X113674654Y-132233024D01*
X113661866Y-132215781D01*
X113650830Y-132197368D01*
X113641651Y-132177962D01*
X113634419Y-132157750D01*
X113629203Y-132136926D01*
X113626053Y-132115691D01*
X113625000Y-132094250D01*
X113625000Y-131656750D01*
X113626053Y-131635309D01*
X113629203Y-131614074D01*
X113634419Y-131593250D01*
X113641651Y-131573038D01*
X113650830Y-131553632D01*
X113661866Y-131535219D01*
X113674654Y-131517976D01*
X113689070Y-131502070D01*
X113704976Y-131487654D01*
X113722219Y-131474866D01*
X113740632Y-131463830D01*
X113760038Y-131454651D01*
X113780250Y-131447419D01*
X113801074Y-131442203D01*
X113822309Y-131439053D01*
X113843750Y-131438000D01*
X114356250Y-131438000D01*
X114377691Y-131439053D01*
X114377691Y-131439053D01*
G37*
D13*
X114100000Y-131875500D03*
D11*
G36*
X102077691Y-131264053D02*
G01*
X102098926Y-131267203D01*
X102119750Y-131272419D01*
X102139962Y-131279651D01*
X102159368Y-131288830D01*
X102177781Y-131299866D01*
X102195024Y-131312654D01*
X102210930Y-131327070D01*
X102225346Y-131342976D01*
X102238134Y-131360219D01*
X102249170Y-131378632D01*
X102258349Y-131398038D01*
X102265581Y-131418250D01*
X102270797Y-131439074D01*
X102273947Y-131460309D01*
X102275000Y-131481750D01*
X102275000Y-131919250D01*
X102273947Y-131940691D01*
X102270797Y-131961926D01*
X102265581Y-131982750D01*
X102258349Y-132002962D01*
X102249170Y-132022368D01*
X102238134Y-132040781D01*
X102225346Y-132058024D01*
X102210930Y-132073930D01*
X102195024Y-132088346D01*
X102177781Y-132101134D01*
X102159368Y-132112170D01*
X102139962Y-132121349D01*
X102119750Y-132128581D01*
X102098926Y-132133797D01*
X102077691Y-132136947D01*
X102056250Y-132138000D01*
X101543750Y-132138000D01*
X101522309Y-132136947D01*
X101501074Y-132133797D01*
X101480250Y-132128581D01*
X101460038Y-132121349D01*
X101440632Y-132112170D01*
X101422219Y-132101134D01*
X101404976Y-132088346D01*
X101389070Y-132073930D01*
X101374654Y-132058024D01*
X101361866Y-132040781D01*
X101350830Y-132022368D01*
X101341651Y-132002962D01*
X101334419Y-131982750D01*
X101329203Y-131961926D01*
X101326053Y-131940691D01*
X101325000Y-131919250D01*
X101325000Y-131481750D01*
X101326053Y-131460309D01*
X101329203Y-131439074D01*
X101334419Y-131418250D01*
X101341651Y-131398038D01*
X101350830Y-131378632D01*
X101361866Y-131360219D01*
X101374654Y-131342976D01*
X101389070Y-131327070D01*
X101404976Y-131312654D01*
X101422219Y-131299866D01*
X101440632Y-131288830D01*
X101460038Y-131279651D01*
X101480250Y-131272419D01*
X101501074Y-131267203D01*
X101522309Y-131264053D01*
X101543750Y-131263000D01*
X102056250Y-131263000D01*
X102077691Y-131264053D01*
X102077691Y-131264053D01*
G37*
D13*
X101800000Y-131700500D03*
D11*
G36*
X102077691Y-132839053D02*
G01*
X102098926Y-132842203D01*
X102119750Y-132847419D01*
X102139962Y-132854651D01*
X102159368Y-132863830D01*
X102177781Y-132874866D01*
X102195024Y-132887654D01*
X102210930Y-132902070D01*
X102225346Y-132917976D01*
X102238134Y-132935219D01*
X102249170Y-132953632D01*
X102258349Y-132973038D01*
X102265581Y-132993250D01*
X102270797Y-133014074D01*
X102273947Y-133035309D01*
X102275000Y-133056750D01*
X102275000Y-133494250D01*
X102273947Y-133515691D01*
X102270797Y-133536926D01*
X102265581Y-133557750D01*
X102258349Y-133577962D01*
X102249170Y-133597368D01*
X102238134Y-133615781D01*
X102225346Y-133633024D01*
X102210930Y-133648930D01*
X102195024Y-133663346D01*
X102177781Y-133676134D01*
X102159368Y-133687170D01*
X102139962Y-133696349D01*
X102119750Y-133703581D01*
X102098926Y-133708797D01*
X102077691Y-133711947D01*
X102056250Y-133713000D01*
X101543750Y-133713000D01*
X101522309Y-133711947D01*
X101501074Y-133708797D01*
X101480250Y-133703581D01*
X101460038Y-133696349D01*
X101440632Y-133687170D01*
X101422219Y-133676134D01*
X101404976Y-133663346D01*
X101389070Y-133648930D01*
X101374654Y-133633024D01*
X101361866Y-133615781D01*
X101350830Y-133597368D01*
X101341651Y-133577962D01*
X101334419Y-133557750D01*
X101329203Y-133536926D01*
X101326053Y-133515691D01*
X101325000Y-133494250D01*
X101325000Y-133056750D01*
X101326053Y-133035309D01*
X101329203Y-133014074D01*
X101334419Y-132993250D01*
X101341651Y-132973038D01*
X101350830Y-132953632D01*
X101361866Y-132935219D01*
X101374654Y-132917976D01*
X101389070Y-132902070D01*
X101404976Y-132887654D01*
X101422219Y-132874866D01*
X101440632Y-132863830D01*
X101460038Y-132854651D01*
X101480250Y-132847419D01*
X101501074Y-132842203D01*
X101522309Y-132839053D01*
X101543750Y-132838000D01*
X102056250Y-132838000D01*
X102077691Y-132839053D01*
X102077691Y-132839053D01*
G37*
D13*
X101800000Y-133275500D03*
D15*
X104054000Y-135196000D03*
X104054000Y-136146000D03*
X104054000Y-137096000D03*
X106254000Y-137096000D03*
X106254000Y-135196000D03*
D16*
X111000000Y-150000000D03*
X109000000Y-150000000D03*
X107000000Y-150000000D03*
X105000000Y-150000000D03*
D11*
G36*
X102201691Y-142173053D02*
G01*
X102222926Y-142176203D01*
X102243750Y-142181419D01*
X102263962Y-142188651D01*
X102283368Y-142197830D01*
X102301781Y-142208866D01*
X102319024Y-142221654D01*
X102334930Y-142236070D01*
X102349346Y-142251976D01*
X102362134Y-142269219D01*
X102373170Y-142287632D01*
X102382349Y-142307038D01*
X102389581Y-142327250D01*
X102394797Y-142348074D01*
X102397947Y-142369309D01*
X102399000Y-142390750D01*
X102399000Y-142828250D01*
X102397947Y-142849691D01*
X102394797Y-142870926D01*
X102389581Y-142891750D01*
X102382349Y-142911962D01*
X102373170Y-142931368D01*
X102362134Y-142949781D01*
X102349346Y-142967024D01*
X102334930Y-142982930D01*
X102319024Y-142997346D01*
X102301781Y-143010134D01*
X102283368Y-143021170D01*
X102263962Y-143030349D01*
X102243750Y-143037581D01*
X102222926Y-143042797D01*
X102201691Y-143045947D01*
X102180250Y-143047000D01*
X101667750Y-143047000D01*
X101646309Y-143045947D01*
X101625074Y-143042797D01*
X101604250Y-143037581D01*
X101584038Y-143030349D01*
X101564632Y-143021170D01*
X101546219Y-143010134D01*
X101528976Y-142997346D01*
X101513070Y-142982930D01*
X101498654Y-142967024D01*
X101485866Y-142949781D01*
X101474830Y-142931368D01*
X101465651Y-142911962D01*
X101458419Y-142891750D01*
X101453203Y-142870926D01*
X101450053Y-142849691D01*
X101449000Y-142828250D01*
X101449000Y-142390750D01*
X101450053Y-142369309D01*
X101453203Y-142348074D01*
X101458419Y-142327250D01*
X101465651Y-142307038D01*
X101474830Y-142287632D01*
X101485866Y-142269219D01*
X101498654Y-142251976D01*
X101513070Y-142236070D01*
X101528976Y-142221654D01*
X101546219Y-142208866D01*
X101564632Y-142197830D01*
X101584038Y-142188651D01*
X101604250Y-142181419D01*
X101625074Y-142176203D01*
X101646309Y-142173053D01*
X101667750Y-142172000D01*
X102180250Y-142172000D01*
X102201691Y-142173053D01*
X102201691Y-142173053D01*
G37*
D13*
X101924000Y-142609500D03*
D11*
G36*
X102201691Y-140598053D02*
G01*
X102222926Y-140601203D01*
X102243750Y-140606419D01*
X102263962Y-140613651D01*
X102283368Y-140622830D01*
X102301781Y-140633866D01*
X102319024Y-140646654D01*
X102334930Y-140661070D01*
X102349346Y-140676976D01*
X102362134Y-140694219D01*
X102373170Y-140712632D01*
X102382349Y-140732038D01*
X102389581Y-140752250D01*
X102394797Y-140773074D01*
X102397947Y-140794309D01*
X102399000Y-140815750D01*
X102399000Y-141253250D01*
X102397947Y-141274691D01*
X102394797Y-141295926D01*
X102389581Y-141316750D01*
X102382349Y-141336962D01*
X102373170Y-141356368D01*
X102362134Y-141374781D01*
X102349346Y-141392024D01*
X102334930Y-141407930D01*
X102319024Y-141422346D01*
X102301781Y-141435134D01*
X102283368Y-141446170D01*
X102263962Y-141455349D01*
X102243750Y-141462581D01*
X102222926Y-141467797D01*
X102201691Y-141470947D01*
X102180250Y-141472000D01*
X101667750Y-141472000D01*
X101646309Y-141470947D01*
X101625074Y-141467797D01*
X101604250Y-141462581D01*
X101584038Y-141455349D01*
X101564632Y-141446170D01*
X101546219Y-141435134D01*
X101528976Y-141422346D01*
X101513070Y-141407930D01*
X101498654Y-141392024D01*
X101485866Y-141374781D01*
X101474830Y-141356368D01*
X101465651Y-141336962D01*
X101458419Y-141316750D01*
X101453203Y-141295926D01*
X101450053Y-141274691D01*
X101449000Y-141253250D01*
X101449000Y-140815750D01*
X101450053Y-140794309D01*
X101453203Y-140773074D01*
X101458419Y-140752250D01*
X101465651Y-140732038D01*
X101474830Y-140712632D01*
X101485866Y-140694219D01*
X101498654Y-140676976D01*
X101513070Y-140661070D01*
X101528976Y-140646654D01*
X101546219Y-140633866D01*
X101564632Y-140622830D01*
X101584038Y-140613651D01*
X101604250Y-140606419D01*
X101625074Y-140601203D01*
X101646309Y-140598053D01*
X101667750Y-140597000D01*
X102180250Y-140597000D01*
X102201691Y-140598053D01*
X102201691Y-140598053D01*
G37*
D13*
X101924000Y-141034500D03*
D11*
G36*
X102131691Y-149703053D02*
G01*
X102152926Y-149706203D01*
X102173750Y-149711419D01*
X102193962Y-149718651D01*
X102213368Y-149727830D01*
X102231781Y-149738866D01*
X102249024Y-149751654D01*
X102264930Y-149766070D01*
X102279346Y-149781976D01*
X102292134Y-149799219D01*
X102303170Y-149817632D01*
X102312349Y-149837038D01*
X102319581Y-149857250D01*
X102324797Y-149878074D01*
X102327947Y-149899309D01*
X102329000Y-149920750D01*
X102329000Y-150358250D01*
X102327947Y-150379691D01*
X102324797Y-150400926D01*
X102319581Y-150421750D01*
X102312349Y-150441962D01*
X102303170Y-150461368D01*
X102292134Y-150479781D01*
X102279346Y-150497024D01*
X102264930Y-150512930D01*
X102249024Y-150527346D01*
X102231781Y-150540134D01*
X102213368Y-150551170D01*
X102193962Y-150560349D01*
X102173750Y-150567581D01*
X102152926Y-150572797D01*
X102131691Y-150575947D01*
X102110250Y-150577000D01*
X101597750Y-150577000D01*
X101576309Y-150575947D01*
X101555074Y-150572797D01*
X101534250Y-150567581D01*
X101514038Y-150560349D01*
X101494632Y-150551170D01*
X101476219Y-150540134D01*
X101458976Y-150527346D01*
X101443070Y-150512930D01*
X101428654Y-150497024D01*
X101415866Y-150479781D01*
X101404830Y-150461368D01*
X101395651Y-150441962D01*
X101388419Y-150421750D01*
X101383203Y-150400926D01*
X101380053Y-150379691D01*
X101379000Y-150358250D01*
X101379000Y-149920750D01*
X101380053Y-149899309D01*
X101383203Y-149878074D01*
X101388419Y-149857250D01*
X101395651Y-149837038D01*
X101404830Y-149817632D01*
X101415866Y-149799219D01*
X101428654Y-149781976D01*
X101443070Y-149766070D01*
X101458976Y-149751654D01*
X101476219Y-149738866D01*
X101494632Y-149727830D01*
X101514038Y-149718651D01*
X101534250Y-149711419D01*
X101555074Y-149706203D01*
X101576309Y-149703053D01*
X101597750Y-149702000D01*
X102110250Y-149702000D01*
X102131691Y-149703053D01*
X102131691Y-149703053D01*
G37*
D13*
X101854000Y-150139500D03*
D11*
G36*
X102131691Y-148128053D02*
G01*
X102152926Y-148131203D01*
X102173750Y-148136419D01*
X102193962Y-148143651D01*
X102213368Y-148152830D01*
X102231781Y-148163866D01*
X102249024Y-148176654D01*
X102264930Y-148191070D01*
X102279346Y-148206976D01*
X102292134Y-148224219D01*
X102303170Y-148242632D01*
X102312349Y-148262038D01*
X102319581Y-148282250D01*
X102324797Y-148303074D01*
X102327947Y-148324309D01*
X102329000Y-148345750D01*
X102329000Y-148783250D01*
X102327947Y-148804691D01*
X102324797Y-148825926D01*
X102319581Y-148846750D01*
X102312349Y-148866962D01*
X102303170Y-148886368D01*
X102292134Y-148904781D01*
X102279346Y-148922024D01*
X102264930Y-148937930D01*
X102249024Y-148952346D01*
X102231781Y-148965134D01*
X102213368Y-148976170D01*
X102193962Y-148985349D01*
X102173750Y-148992581D01*
X102152926Y-148997797D01*
X102131691Y-149000947D01*
X102110250Y-149002000D01*
X101597750Y-149002000D01*
X101576309Y-149000947D01*
X101555074Y-148997797D01*
X101534250Y-148992581D01*
X101514038Y-148985349D01*
X101494632Y-148976170D01*
X101476219Y-148965134D01*
X101458976Y-148952346D01*
X101443070Y-148937930D01*
X101428654Y-148922024D01*
X101415866Y-148904781D01*
X101404830Y-148886368D01*
X101395651Y-148866962D01*
X101388419Y-148846750D01*
X101383203Y-148825926D01*
X101380053Y-148804691D01*
X101379000Y-148783250D01*
X101379000Y-148345750D01*
X101380053Y-148324309D01*
X101383203Y-148303074D01*
X101388419Y-148282250D01*
X101395651Y-148262038D01*
X101404830Y-148242632D01*
X101415866Y-148224219D01*
X101428654Y-148206976D01*
X101443070Y-148191070D01*
X101458976Y-148176654D01*
X101476219Y-148163866D01*
X101494632Y-148152830D01*
X101514038Y-148143651D01*
X101534250Y-148136419D01*
X101555074Y-148131203D01*
X101576309Y-148128053D01*
X101597750Y-148127000D01*
X102110250Y-148127000D01*
X102131691Y-148128053D01*
X102131691Y-148128053D01*
G37*
D13*
X101854000Y-148564500D03*
D11*
G36*
X114323691Y-149677053D02*
G01*
X114344926Y-149680203D01*
X114365750Y-149685419D01*
X114385962Y-149692651D01*
X114405368Y-149701830D01*
X114423781Y-149712866D01*
X114441024Y-149725654D01*
X114456930Y-149740070D01*
X114471346Y-149755976D01*
X114484134Y-149773219D01*
X114495170Y-149791632D01*
X114504349Y-149811038D01*
X114511581Y-149831250D01*
X114516797Y-149852074D01*
X114519947Y-149873309D01*
X114521000Y-149894750D01*
X114521000Y-150332250D01*
X114519947Y-150353691D01*
X114516797Y-150374926D01*
X114511581Y-150395750D01*
X114504349Y-150415962D01*
X114495170Y-150435368D01*
X114484134Y-150453781D01*
X114471346Y-150471024D01*
X114456930Y-150486930D01*
X114441024Y-150501346D01*
X114423781Y-150514134D01*
X114405368Y-150525170D01*
X114385962Y-150534349D01*
X114365750Y-150541581D01*
X114344926Y-150546797D01*
X114323691Y-150549947D01*
X114302250Y-150551000D01*
X113789750Y-150551000D01*
X113768309Y-150549947D01*
X113747074Y-150546797D01*
X113726250Y-150541581D01*
X113706038Y-150534349D01*
X113686632Y-150525170D01*
X113668219Y-150514134D01*
X113650976Y-150501346D01*
X113635070Y-150486930D01*
X113620654Y-150471024D01*
X113607866Y-150453781D01*
X113596830Y-150435368D01*
X113587651Y-150415962D01*
X113580419Y-150395750D01*
X113575203Y-150374926D01*
X113572053Y-150353691D01*
X113571000Y-150332250D01*
X113571000Y-149894750D01*
X113572053Y-149873309D01*
X113575203Y-149852074D01*
X113580419Y-149831250D01*
X113587651Y-149811038D01*
X113596830Y-149791632D01*
X113607866Y-149773219D01*
X113620654Y-149755976D01*
X113635070Y-149740070D01*
X113650976Y-149725654D01*
X113668219Y-149712866D01*
X113686632Y-149701830D01*
X113706038Y-149692651D01*
X113726250Y-149685419D01*
X113747074Y-149680203D01*
X113768309Y-149677053D01*
X113789750Y-149676000D01*
X114302250Y-149676000D01*
X114323691Y-149677053D01*
X114323691Y-149677053D01*
G37*
D13*
X114046000Y-150113500D03*
D11*
G36*
X114323691Y-148102053D02*
G01*
X114344926Y-148105203D01*
X114365750Y-148110419D01*
X114385962Y-148117651D01*
X114405368Y-148126830D01*
X114423781Y-148137866D01*
X114441024Y-148150654D01*
X114456930Y-148165070D01*
X114471346Y-148180976D01*
X114484134Y-148198219D01*
X114495170Y-148216632D01*
X114504349Y-148236038D01*
X114511581Y-148256250D01*
X114516797Y-148277074D01*
X114519947Y-148298309D01*
X114521000Y-148319750D01*
X114521000Y-148757250D01*
X114519947Y-148778691D01*
X114516797Y-148799926D01*
X114511581Y-148820750D01*
X114504349Y-148840962D01*
X114495170Y-148860368D01*
X114484134Y-148878781D01*
X114471346Y-148896024D01*
X114456930Y-148911930D01*
X114441024Y-148926346D01*
X114423781Y-148939134D01*
X114405368Y-148950170D01*
X114385962Y-148959349D01*
X114365750Y-148966581D01*
X114344926Y-148971797D01*
X114323691Y-148974947D01*
X114302250Y-148976000D01*
X113789750Y-148976000D01*
X113768309Y-148974947D01*
X113747074Y-148971797D01*
X113726250Y-148966581D01*
X113706038Y-148959349D01*
X113686632Y-148950170D01*
X113668219Y-148939134D01*
X113650976Y-148926346D01*
X113635070Y-148911930D01*
X113620654Y-148896024D01*
X113607866Y-148878781D01*
X113596830Y-148860368D01*
X113587651Y-148840962D01*
X113580419Y-148820750D01*
X113575203Y-148799926D01*
X113572053Y-148778691D01*
X113571000Y-148757250D01*
X113571000Y-148319750D01*
X113572053Y-148298309D01*
X113575203Y-148277074D01*
X113580419Y-148256250D01*
X113587651Y-148236038D01*
X113596830Y-148216632D01*
X113607866Y-148198219D01*
X113620654Y-148180976D01*
X113635070Y-148165070D01*
X113650976Y-148150654D01*
X113668219Y-148137866D01*
X113686632Y-148126830D01*
X113706038Y-148117651D01*
X113726250Y-148110419D01*
X113747074Y-148105203D01*
X113768309Y-148102053D01*
X113789750Y-148101000D01*
X114302250Y-148101000D01*
X114323691Y-148102053D01*
X114323691Y-148102053D01*
G37*
D13*
X114046000Y-148538500D03*
D17*
X110800000Y-139000000D03*
X110800000Y-136500000D03*
X110800000Y-134000000D03*
X113200000Y-139000000D03*
X113200000Y-136500000D03*
X113200000Y-134000000D03*
D11*
G36*
X114577691Y-143839053D02*
G01*
X114598926Y-143842203D01*
X114619750Y-143847419D01*
X114639962Y-143854651D01*
X114659368Y-143863830D01*
X114677781Y-143874866D01*
X114695024Y-143887654D01*
X114710930Y-143902070D01*
X114725346Y-143917976D01*
X114738134Y-143935219D01*
X114749170Y-143953632D01*
X114758349Y-143973038D01*
X114765581Y-143993250D01*
X114770797Y-144014074D01*
X114773947Y-144035309D01*
X114775000Y-144056750D01*
X114775000Y-144494250D01*
X114773947Y-144515691D01*
X114770797Y-144536926D01*
X114765581Y-144557750D01*
X114758349Y-144577962D01*
X114749170Y-144597368D01*
X114738134Y-144615781D01*
X114725346Y-144633024D01*
X114710930Y-144648930D01*
X114695024Y-144663346D01*
X114677781Y-144676134D01*
X114659368Y-144687170D01*
X114639962Y-144696349D01*
X114619750Y-144703581D01*
X114598926Y-144708797D01*
X114577691Y-144711947D01*
X114556250Y-144713000D01*
X114043750Y-144713000D01*
X114022309Y-144711947D01*
X114001074Y-144708797D01*
X113980250Y-144703581D01*
X113960038Y-144696349D01*
X113940632Y-144687170D01*
X113922219Y-144676134D01*
X113904976Y-144663346D01*
X113889070Y-144648930D01*
X113874654Y-144633024D01*
X113861866Y-144615781D01*
X113850830Y-144597368D01*
X113841651Y-144577962D01*
X113834419Y-144557750D01*
X113829203Y-144536926D01*
X113826053Y-144515691D01*
X113825000Y-144494250D01*
X113825000Y-144056750D01*
X113826053Y-144035309D01*
X113829203Y-144014074D01*
X113834419Y-143993250D01*
X113841651Y-143973038D01*
X113850830Y-143953632D01*
X113861866Y-143935219D01*
X113874654Y-143917976D01*
X113889070Y-143902070D01*
X113904976Y-143887654D01*
X113922219Y-143874866D01*
X113940632Y-143863830D01*
X113960038Y-143854651D01*
X113980250Y-143847419D01*
X114001074Y-143842203D01*
X114022309Y-143839053D01*
X114043750Y-143838000D01*
X114556250Y-143838000D01*
X114577691Y-143839053D01*
X114577691Y-143839053D01*
G37*
D13*
X114300000Y-144275500D03*
D11*
G36*
X114577691Y-142264053D02*
G01*
X114598926Y-142267203D01*
X114619750Y-142272419D01*
X114639962Y-142279651D01*
X114659368Y-142288830D01*
X114677781Y-142299866D01*
X114695024Y-142312654D01*
X114710930Y-142327070D01*
X114725346Y-142342976D01*
X114738134Y-142360219D01*
X114749170Y-142378632D01*
X114758349Y-142398038D01*
X114765581Y-142418250D01*
X114770797Y-142439074D01*
X114773947Y-142460309D01*
X114775000Y-142481750D01*
X114775000Y-142919250D01*
X114773947Y-142940691D01*
X114770797Y-142961926D01*
X114765581Y-142982750D01*
X114758349Y-143002962D01*
X114749170Y-143022368D01*
X114738134Y-143040781D01*
X114725346Y-143058024D01*
X114710930Y-143073930D01*
X114695024Y-143088346D01*
X114677781Y-143101134D01*
X114659368Y-143112170D01*
X114639962Y-143121349D01*
X114619750Y-143128581D01*
X114598926Y-143133797D01*
X114577691Y-143136947D01*
X114556250Y-143138000D01*
X114043750Y-143138000D01*
X114022309Y-143136947D01*
X114001074Y-143133797D01*
X113980250Y-143128581D01*
X113960038Y-143121349D01*
X113940632Y-143112170D01*
X113922219Y-143101134D01*
X113904976Y-143088346D01*
X113889070Y-143073930D01*
X113874654Y-143058024D01*
X113861866Y-143040781D01*
X113850830Y-143022368D01*
X113841651Y-143002962D01*
X113834419Y-142982750D01*
X113829203Y-142961926D01*
X113826053Y-142940691D01*
X113825000Y-142919250D01*
X113825000Y-142481750D01*
X113826053Y-142460309D01*
X113829203Y-142439074D01*
X113834419Y-142418250D01*
X113841651Y-142398038D01*
X113850830Y-142378632D01*
X113861866Y-142360219D01*
X113874654Y-142342976D01*
X113889070Y-142327070D01*
X113904976Y-142312654D01*
X113922219Y-142299866D01*
X113940632Y-142288830D01*
X113960038Y-142279651D01*
X113980250Y-142272419D01*
X114001074Y-142267203D01*
X114022309Y-142264053D01*
X114043750Y-142263000D01*
X114556250Y-142263000D01*
X114577691Y-142264053D01*
X114577691Y-142264053D01*
G37*
D13*
X114300000Y-142700500D03*
M02*
